G04 #@! TF.GenerationSoftware,KiCad,Pcbnew,5.1.5-52549c5~86~ubuntu18.04.1*
G04 #@! TF.CreationDate,2020-07-01T00:42:29-05:00*
G04 #@! TF.ProjectId,RAK811_LORA_ADAPTABLE_NODE_PANEL,52414b38-3131-45f4-9c4f-52415f414441,rev?*
G04 #@! TF.SameCoordinates,Original*
G04 #@! TF.FileFunction,Soldermask,Top*
G04 #@! TF.FilePolarity,Negative*
%FSLAX46Y46*%
G04 Gerber Fmt 4.6, Leading zero omitted, Abs format (unit mm)*
G04 Created by KiCad (PCBNEW 5.1.5-52549c5~86~ubuntu18.04.1) date 2020-07-01 00:42:29*
%MOMM*%
%LPD*%
G04 APERTURE LIST*
%ADD10C,0.100000*%
G04 APERTURE END LIST*
D10*
G36*
X163792724Y-144016497D02*
G01*
X164019906Y-144061686D01*
X164269412Y-144165035D01*
X164493962Y-144315075D01*
X164684925Y-144506038D01*
X164834965Y-144730588D01*
X164938314Y-144980094D01*
X164991000Y-145244968D01*
X164991000Y-145515032D01*
X164938314Y-145779906D01*
X164834965Y-146029412D01*
X164684925Y-146253962D01*
X164493962Y-146444925D01*
X164269412Y-146594965D01*
X164019906Y-146698314D01*
X163792724Y-146743503D01*
X163755033Y-146751000D01*
X163484967Y-146751000D01*
X163447276Y-146743503D01*
X163220094Y-146698314D01*
X162970588Y-146594965D01*
X162746038Y-146444925D01*
X162555075Y-146253962D01*
X162405035Y-146029412D01*
X162301686Y-145779906D01*
X162249000Y-145515032D01*
X162249000Y-145244968D01*
X162301686Y-144980094D01*
X162405035Y-144730588D01*
X162555075Y-144506038D01*
X162746038Y-144315075D01*
X162970588Y-144165035D01*
X163220094Y-144061686D01*
X163447276Y-144016497D01*
X163484967Y-144009000D01*
X163755033Y-144009000D01*
X163792724Y-144016497D01*
G37*
G36*
X117882585Y-142448802D02*
G01*
X118032410Y-142478604D01*
X118314674Y-142595521D01*
X118568705Y-142765259D01*
X118784741Y-142981295D01*
X118954479Y-143235326D01*
X119071396Y-143517590D01*
X119131000Y-143817240D01*
X119131000Y-144122760D01*
X119071396Y-144422410D01*
X118954479Y-144704674D01*
X118784741Y-144958705D01*
X118568705Y-145174741D01*
X118314674Y-145344479D01*
X118032410Y-145461396D01*
X117882585Y-145491198D01*
X117732761Y-145521000D01*
X117427239Y-145521000D01*
X117277415Y-145491198D01*
X117127590Y-145461396D01*
X116845326Y-145344479D01*
X116591295Y-145174741D01*
X116375259Y-144958705D01*
X116205521Y-144704674D01*
X116088604Y-144422410D01*
X116029000Y-144122760D01*
X116029000Y-143817240D01*
X116088604Y-143517590D01*
X116205521Y-143235326D01*
X116375259Y-142981295D01*
X116591295Y-142765259D01*
X116845326Y-142595521D01*
X117127590Y-142478604D01*
X117277415Y-142448802D01*
X117427239Y-142419000D01*
X117732761Y-142419000D01*
X117882585Y-142448802D01*
G37*
G36*
X175241000Y-141056000D02*
G01*
X172739000Y-141056000D01*
X172739000Y-138554000D01*
X175241000Y-138554000D01*
X175241000Y-141056000D01*
G37*
G36*
X166676564Y-138374389D02*
G01*
X166867833Y-138453615D01*
X166867835Y-138453616D01*
X167018070Y-138554000D01*
X167039973Y-138568635D01*
X167186365Y-138715027D01*
X167301385Y-138887167D01*
X167380611Y-139078436D01*
X167421000Y-139281484D01*
X167421000Y-139488516D01*
X167380611Y-139691564D01*
X167301385Y-139882833D01*
X167301384Y-139882835D01*
X167186365Y-140054973D01*
X167039973Y-140201365D01*
X166867835Y-140316384D01*
X166867834Y-140316385D01*
X166867833Y-140316385D01*
X166676564Y-140395611D01*
X166473516Y-140436000D01*
X166266484Y-140436000D01*
X166063436Y-140395611D01*
X165872167Y-140316385D01*
X165872166Y-140316385D01*
X165872165Y-140316384D01*
X165700027Y-140201365D01*
X165553635Y-140054973D01*
X165438616Y-139882835D01*
X165438615Y-139882833D01*
X165359389Y-139691564D01*
X165319000Y-139488516D01*
X165319000Y-139281484D01*
X165359389Y-139078436D01*
X165438615Y-138887167D01*
X165553635Y-138715027D01*
X165700027Y-138568635D01*
X165721930Y-138554000D01*
X165872165Y-138453616D01*
X165872167Y-138453615D01*
X166063436Y-138374389D01*
X166266484Y-138334000D01*
X166473516Y-138334000D01*
X166676564Y-138374389D01*
G37*
G36*
X114686564Y-138374389D02*
G01*
X114877833Y-138453615D01*
X114877835Y-138453616D01*
X115028070Y-138554000D01*
X115049973Y-138568635D01*
X115196365Y-138715027D01*
X115311385Y-138887167D01*
X115390611Y-139078436D01*
X115431000Y-139281484D01*
X115431000Y-139488516D01*
X115390611Y-139691564D01*
X115311385Y-139882833D01*
X115311384Y-139882835D01*
X115196365Y-140054973D01*
X115049973Y-140201365D01*
X114877835Y-140316384D01*
X114877834Y-140316385D01*
X114877833Y-140316385D01*
X114686564Y-140395611D01*
X114483516Y-140436000D01*
X114276484Y-140436000D01*
X114073436Y-140395611D01*
X113882167Y-140316385D01*
X113882166Y-140316385D01*
X113882165Y-140316384D01*
X113710027Y-140201365D01*
X113563635Y-140054973D01*
X113448616Y-139882835D01*
X113448615Y-139882833D01*
X113369389Y-139691564D01*
X113329000Y-139488516D01*
X113329000Y-139281484D01*
X113369389Y-139078436D01*
X113448615Y-138887167D01*
X113563635Y-138715027D01*
X113710027Y-138568635D01*
X113731930Y-138554000D01*
X113882165Y-138453616D01*
X113882167Y-138453615D01*
X114073436Y-138374389D01*
X114276484Y-138334000D01*
X114483516Y-138334000D01*
X114686564Y-138374389D01*
G37*
G36*
X174354903Y-135102075D02*
G01*
X174582571Y-135196378D01*
X174787466Y-135333285D01*
X174961715Y-135507534D01*
X175098622Y-135712429D01*
X175192925Y-135940097D01*
X175241000Y-136181787D01*
X175241000Y-136428213D01*
X175192925Y-136669903D01*
X175098622Y-136897571D01*
X174961715Y-137102466D01*
X174787466Y-137276715D01*
X174582571Y-137413622D01*
X174582570Y-137413623D01*
X174582569Y-137413623D01*
X174354903Y-137507925D01*
X174113214Y-137556000D01*
X173866786Y-137556000D01*
X173625097Y-137507925D01*
X173397431Y-137413623D01*
X173397430Y-137413623D01*
X173397429Y-137413622D01*
X173192534Y-137276715D01*
X173018285Y-137102466D01*
X172881378Y-136897571D01*
X172787075Y-136669903D01*
X172739000Y-136428213D01*
X172739000Y-136181787D01*
X172787075Y-135940097D01*
X172881378Y-135712429D01*
X173018285Y-135507534D01*
X173192534Y-135333285D01*
X173397429Y-135196378D01*
X173625097Y-135102075D01*
X173866786Y-135054000D01*
X174113214Y-135054000D01*
X174354903Y-135102075D01*
G37*
G36*
X117312724Y-132026497D02*
G01*
X117539906Y-132071686D01*
X117789412Y-132175035D01*
X118013962Y-132325075D01*
X118204925Y-132516038D01*
X118354965Y-132740588D01*
X118458314Y-132990094D01*
X118511000Y-133254968D01*
X118511000Y-133525032D01*
X118458314Y-133789906D01*
X118354965Y-134039412D01*
X118204925Y-134263962D01*
X118013962Y-134454925D01*
X117789412Y-134604965D01*
X117539906Y-134708314D01*
X117312724Y-134753503D01*
X117275033Y-134761000D01*
X117004967Y-134761000D01*
X116967276Y-134753503D01*
X116740094Y-134708314D01*
X116490588Y-134604965D01*
X116266038Y-134454925D01*
X116075075Y-134263962D01*
X115925035Y-134039412D01*
X115821686Y-133789906D01*
X115769000Y-133525032D01*
X115769000Y-133254968D01*
X115821686Y-132990094D01*
X115925035Y-132740588D01*
X116075075Y-132516038D01*
X116266038Y-132325075D01*
X116490588Y-132175035D01*
X116740094Y-132071686D01*
X116967276Y-132026497D01*
X117004967Y-132019000D01*
X117275033Y-132019000D01*
X117312724Y-132026497D01*
G37*
G36*
X174354903Y-131602075D02*
G01*
X174582571Y-131696378D01*
X174787466Y-131833285D01*
X174961715Y-132007534D01*
X175073636Y-132175035D01*
X175098623Y-132212431D01*
X175192925Y-132440097D01*
X175241000Y-132681787D01*
X175241000Y-132928213D01*
X175192925Y-133169903D01*
X175098622Y-133397571D01*
X174961715Y-133602466D01*
X174787466Y-133776715D01*
X174582571Y-133913622D01*
X174582570Y-133913623D01*
X174582569Y-133913623D01*
X174354903Y-134007925D01*
X174113214Y-134056000D01*
X173866786Y-134056000D01*
X173625097Y-134007925D01*
X173397431Y-133913623D01*
X173397430Y-133913623D01*
X173397429Y-133913622D01*
X173192534Y-133776715D01*
X173018285Y-133602466D01*
X172881378Y-133397571D01*
X172787075Y-133169903D01*
X172739000Y-132928213D01*
X172739000Y-132681787D01*
X172787075Y-132440097D01*
X172881377Y-132212431D01*
X172906364Y-132175035D01*
X173018285Y-132007534D01*
X173192534Y-131833285D01*
X173397429Y-131696378D01*
X173625097Y-131602075D01*
X173866786Y-131554000D01*
X174113214Y-131554000D01*
X174354903Y-131602075D01*
G37*
G36*
X142288512Y-128078927D02*
G01*
X142437812Y-128108624D01*
X142601784Y-128176544D01*
X142749354Y-128275147D01*
X142874853Y-128400646D01*
X142973456Y-128548216D01*
X143041376Y-128712188D01*
X143076000Y-128886259D01*
X143076000Y-129063741D01*
X143041376Y-129237812D01*
X142973456Y-129401784D01*
X142874853Y-129549354D01*
X142749354Y-129674853D01*
X142601784Y-129773456D01*
X142437812Y-129841376D01*
X142288512Y-129871073D01*
X142263742Y-129876000D01*
X142086258Y-129876000D01*
X142061488Y-129871073D01*
X141912188Y-129841376D01*
X141748216Y-129773456D01*
X141600646Y-129674853D01*
X141475147Y-129549354D01*
X141376544Y-129401784D01*
X141308624Y-129237812D01*
X141274000Y-129063741D01*
X141274000Y-128886259D01*
X141308624Y-128712188D01*
X141376544Y-128548216D01*
X141475147Y-128400646D01*
X141600646Y-128275147D01*
X141748216Y-128176544D01*
X141912188Y-128108624D01*
X142061488Y-128078927D01*
X142086258Y-128074000D01*
X142263742Y-128074000D01*
X142288512Y-128078927D01*
G37*
G36*
X157528512Y-128078927D02*
G01*
X157677812Y-128108624D01*
X157841784Y-128176544D01*
X157989354Y-128275147D01*
X158114853Y-128400646D01*
X158213456Y-128548216D01*
X158281376Y-128712188D01*
X158316000Y-128886259D01*
X158316000Y-129063741D01*
X158281376Y-129237812D01*
X158213456Y-129401784D01*
X158114853Y-129549354D01*
X157989354Y-129674853D01*
X157841784Y-129773456D01*
X157677812Y-129841376D01*
X157528512Y-129871073D01*
X157503742Y-129876000D01*
X157326258Y-129876000D01*
X157301488Y-129871073D01*
X157152188Y-129841376D01*
X156988216Y-129773456D01*
X156840646Y-129674853D01*
X156715147Y-129549354D01*
X156616544Y-129401784D01*
X156548624Y-129237812D01*
X156514000Y-129063741D01*
X156514000Y-128886259D01*
X156548624Y-128712188D01*
X156616544Y-128548216D01*
X156715147Y-128400646D01*
X156840646Y-128275147D01*
X156988216Y-128176544D01*
X157152188Y-128108624D01*
X157301488Y-128078927D01*
X157326258Y-128074000D01*
X157503742Y-128074000D01*
X157528512Y-128078927D01*
G37*
G36*
X152448512Y-128078927D02*
G01*
X152597812Y-128108624D01*
X152761784Y-128176544D01*
X152909354Y-128275147D01*
X153034853Y-128400646D01*
X153133456Y-128548216D01*
X153201376Y-128712188D01*
X153236000Y-128886259D01*
X153236000Y-129063741D01*
X153201376Y-129237812D01*
X153133456Y-129401784D01*
X153034853Y-129549354D01*
X152909354Y-129674853D01*
X152761784Y-129773456D01*
X152597812Y-129841376D01*
X152448512Y-129871073D01*
X152423742Y-129876000D01*
X152246258Y-129876000D01*
X152221488Y-129871073D01*
X152072188Y-129841376D01*
X151908216Y-129773456D01*
X151760646Y-129674853D01*
X151635147Y-129549354D01*
X151536544Y-129401784D01*
X151468624Y-129237812D01*
X151434000Y-129063741D01*
X151434000Y-128886259D01*
X151468624Y-128712188D01*
X151536544Y-128548216D01*
X151635147Y-128400646D01*
X151760646Y-128275147D01*
X151908216Y-128176544D01*
X152072188Y-128108624D01*
X152221488Y-128078927D01*
X152246258Y-128074000D01*
X152423742Y-128074000D01*
X152448512Y-128078927D01*
G37*
G36*
X149908512Y-128078927D02*
G01*
X150057812Y-128108624D01*
X150221784Y-128176544D01*
X150369354Y-128275147D01*
X150494853Y-128400646D01*
X150593456Y-128548216D01*
X150661376Y-128712188D01*
X150696000Y-128886259D01*
X150696000Y-129063741D01*
X150661376Y-129237812D01*
X150593456Y-129401784D01*
X150494853Y-129549354D01*
X150369354Y-129674853D01*
X150221784Y-129773456D01*
X150057812Y-129841376D01*
X149908512Y-129871073D01*
X149883742Y-129876000D01*
X149706258Y-129876000D01*
X149681488Y-129871073D01*
X149532188Y-129841376D01*
X149368216Y-129773456D01*
X149220646Y-129674853D01*
X149095147Y-129549354D01*
X148996544Y-129401784D01*
X148928624Y-129237812D01*
X148894000Y-129063741D01*
X148894000Y-128886259D01*
X148928624Y-128712188D01*
X148996544Y-128548216D01*
X149095147Y-128400646D01*
X149220646Y-128275147D01*
X149368216Y-128176544D01*
X149532188Y-128108624D01*
X149681488Y-128078927D01*
X149706258Y-128074000D01*
X149883742Y-128074000D01*
X149908512Y-128078927D01*
G37*
G36*
X154988512Y-128078927D02*
G01*
X155137812Y-128108624D01*
X155301784Y-128176544D01*
X155449354Y-128275147D01*
X155574853Y-128400646D01*
X155673456Y-128548216D01*
X155741376Y-128712188D01*
X155776000Y-128886259D01*
X155776000Y-129063741D01*
X155741376Y-129237812D01*
X155673456Y-129401784D01*
X155574853Y-129549354D01*
X155449354Y-129674853D01*
X155301784Y-129773456D01*
X155137812Y-129841376D01*
X154988512Y-129871073D01*
X154963742Y-129876000D01*
X154786258Y-129876000D01*
X154761488Y-129871073D01*
X154612188Y-129841376D01*
X154448216Y-129773456D01*
X154300646Y-129674853D01*
X154175147Y-129549354D01*
X154076544Y-129401784D01*
X154008624Y-129237812D01*
X153974000Y-129063741D01*
X153974000Y-128886259D01*
X154008624Y-128712188D01*
X154076544Y-128548216D01*
X154175147Y-128400646D01*
X154300646Y-128275147D01*
X154448216Y-128176544D01*
X154612188Y-128108624D01*
X154761488Y-128078927D01*
X154786258Y-128074000D01*
X154963742Y-128074000D01*
X154988512Y-128078927D01*
G37*
G36*
X144828512Y-128078927D02*
G01*
X144977812Y-128108624D01*
X145141784Y-128176544D01*
X145289354Y-128275147D01*
X145414853Y-128400646D01*
X145513456Y-128548216D01*
X145581376Y-128712188D01*
X145616000Y-128886259D01*
X145616000Y-129063741D01*
X145581376Y-129237812D01*
X145513456Y-129401784D01*
X145414853Y-129549354D01*
X145289354Y-129674853D01*
X145141784Y-129773456D01*
X144977812Y-129841376D01*
X144828512Y-129871073D01*
X144803742Y-129876000D01*
X144626258Y-129876000D01*
X144601488Y-129871073D01*
X144452188Y-129841376D01*
X144288216Y-129773456D01*
X144140646Y-129674853D01*
X144015147Y-129549354D01*
X143916544Y-129401784D01*
X143848624Y-129237812D01*
X143814000Y-129063741D01*
X143814000Y-128886259D01*
X143848624Y-128712188D01*
X143916544Y-128548216D01*
X144015147Y-128400646D01*
X144140646Y-128275147D01*
X144288216Y-128176544D01*
X144452188Y-128108624D01*
X144601488Y-128078927D01*
X144626258Y-128074000D01*
X144803742Y-128074000D01*
X144828512Y-128078927D01*
G37*
G36*
X160068512Y-128078927D02*
G01*
X160217812Y-128108624D01*
X160381784Y-128176544D01*
X160529354Y-128275147D01*
X160654853Y-128400646D01*
X160753456Y-128548216D01*
X160821376Y-128712188D01*
X160856000Y-128886259D01*
X160856000Y-129063741D01*
X160821376Y-129237812D01*
X160753456Y-129401784D01*
X160654853Y-129549354D01*
X160529354Y-129674853D01*
X160381784Y-129773456D01*
X160217812Y-129841376D01*
X160068512Y-129871073D01*
X160043742Y-129876000D01*
X159866258Y-129876000D01*
X159841488Y-129871073D01*
X159692188Y-129841376D01*
X159528216Y-129773456D01*
X159380646Y-129674853D01*
X159255147Y-129549354D01*
X159156544Y-129401784D01*
X159088624Y-129237812D01*
X159054000Y-129063741D01*
X159054000Y-128886259D01*
X159088624Y-128712188D01*
X159156544Y-128548216D01*
X159255147Y-128400646D01*
X159380646Y-128275147D01*
X159528216Y-128176544D01*
X159692188Y-128108624D01*
X159841488Y-128078927D01*
X159866258Y-128074000D01*
X160043742Y-128074000D01*
X160068512Y-128078927D01*
G37*
G36*
X162608512Y-128078927D02*
G01*
X162757812Y-128108624D01*
X162921784Y-128176544D01*
X163069354Y-128275147D01*
X163194853Y-128400646D01*
X163293456Y-128548216D01*
X163361376Y-128712188D01*
X163396000Y-128886259D01*
X163396000Y-129063741D01*
X163361376Y-129237812D01*
X163293456Y-129401784D01*
X163194853Y-129549354D01*
X163069354Y-129674853D01*
X162921784Y-129773456D01*
X162757812Y-129841376D01*
X162608512Y-129871073D01*
X162583742Y-129876000D01*
X162406258Y-129876000D01*
X162381488Y-129871073D01*
X162232188Y-129841376D01*
X162068216Y-129773456D01*
X161920646Y-129674853D01*
X161795147Y-129549354D01*
X161696544Y-129401784D01*
X161628624Y-129237812D01*
X161594000Y-129063741D01*
X161594000Y-128886259D01*
X161628624Y-128712188D01*
X161696544Y-128548216D01*
X161795147Y-128400646D01*
X161920646Y-128275147D01*
X162068216Y-128176544D01*
X162232188Y-128108624D01*
X162381488Y-128078927D01*
X162406258Y-128074000D01*
X162583742Y-128074000D01*
X162608512Y-128078927D01*
G37*
G36*
X165148512Y-128078927D02*
G01*
X165297812Y-128108624D01*
X165461784Y-128176544D01*
X165609354Y-128275147D01*
X165734853Y-128400646D01*
X165833456Y-128548216D01*
X165901376Y-128712188D01*
X165936000Y-128886259D01*
X165936000Y-129063741D01*
X165901376Y-129237812D01*
X165833456Y-129401784D01*
X165734853Y-129549354D01*
X165609354Y-129674853D01*
X165461784Y-129773456D01*
X165297812Y-129841376D01*
X165148512Y-129871073D01*
X165123742Y-129876000D01*
X164946258Y-129876000D01*
X164921488Y-129871073D01*
X164772188Y-129841376D01*
X164608216Y-129773456D01*
X164460646Y-129674853D01*
X164335147Y-129549354D01*
X164236544Y-129401784D01*
X164168624Y-129237812D01*
X164134000Y-129063741D01*
X164134000Y-128886259D01*
X164168624Y-128712188D01*
X164236544Y-128548216D01*
X164335147Y-128400646D01*
X164460646Y-128275147D01*
X164608216Y-128176544D01*
X164772188Y-128108624D01*
X164921488Y-128078927D01*
X164946258Y-128074000D01*
X165123742Y-128074000D01*
X165148512Y-128078927D01*
G37*
G36*
X167688512Y-128078927D02*
G01*
X167837812Y-128108624D01*
X168001784Y-128176544D01*
X168149354Y-128275147D01*
X168274853Y-128400646D01*
X168373456Y-128548216D01*
X168441376Y-128712188D01*
X168476000Y-128886259D01*
X168476000Y-129063741D01*
X168441376Y-129237812D01*
X168373456Y-129401784D01*
X168274853Y-129549354D01*
X168149354Y-129674853D01*
X168001784Y-129773456D01*
X167837812Y-129841376D01*
X167688512Y-129871073D01*
X167663742Y-129876000D01*
X167486258Y-129876000D01*
X167461488Y-129871073D01*
X167312188Y-129841376D01*
X167148216Y-129773456D01*
X167000646Y-129674853D01*
X166875147Y-129549354D01*
X166776544Y-129401784D01*
X166708624Y-129237812D01*
X166674000Y-129063741D01*
X166674000Y-128886259D01*
X166708624Y-128712188D01*
X166776544Y-128548216D01*
X166875147Y-128400646D01*
X167000646Y-128275147D01*
X167148216Y-128176544D01*
X167312188Y-128108624D01*
X167461488Y-128078927D01*
X167486258Y-128074000D01*
X167663742Y-128074000D01*
X167688512Y-128078927D01*
G37*
G36*
X147368512Y-128078927D02*
G01*
X147517812Y-128108624D01*
X147681784Y-128176544D01*
X147829354Y-128275147D01*
X147954853Y-128400646D01*
X148053456Y-128548216D01*
X148121376Y-128712188D01*
X148156000Y-128886259D01*
X148156000Y-129063741D01*
X148121376Y-129237812D01*
X148053456Y-129401784D01*
X147954853Y-129549354D01*
X147829354Y-129674853D01*
X147681784Y-129773456D01*
X147517812Y-129841376D01*
X147368512Y-129871073D01*
X147343742Y-129876000D01*
X147166258Y-129876000D01*
X147141488Y-129871073D01*
X146992188Y-129841376D01*
X146828216Y-129773456D01*
X146680646Y-129674853D01*
X146555147Y-129549354D01*
X146456544Y-129401784D01*
X146388624Y-129237812D01*
X146354000Y-129063741D01*
X146354000Y-128886259D01*
X146388624Y-128712188D01*
X146456544Y-128548216D01*
X146555147Y-128400646D01*
X146680646Y-128275147D01*
X146828216Y-128176544D01*
X146992188Y-128108624D01*
X147141488Y-128078927D01*
X147166258Y-128074000D01*
X147343742Y-128074000D01*
X147368512Y-128078927D01*
G37*
G36*
X165148512Y-125538927D02*
G01*
X165297812Y-125568624D01*
X165461784Y-125636544D01*
X165609354Y-125735147D01*
X165734853Y-125860646D01*
X165833456Y-126008216D01*
X165901376Y-126172188D01*
X165936000Y-126346259D01*
X165936000Y-126523741D01*
X165901376Y-126697812D01*
X165833456Y-126861784D01*
X165734853Y-127009354D01*
X165609354Y-127134853D01*
X165461784Y-127233456D01*
X165297812Y-127301376D01*
X165148512Y-127331073D01*
X165123742Y-127336000D01*
X164946258Y-127336000D01*
X164921488Y-127331073D01*
X164772188Y-127301376D01*
X164608216Y-127233456D01*
X164460646Y-127134853D01*
X164335147Y-127009354D01*
X164236544Y-126861784D01*
X164168624Y-126697812D01*
X164134000Y-126523741D01*
X164134000Y-126346259D01*
X164168624Y-126172188D01*
X164236544Y-126008216D01*
X164335147Y-125860646D01*
X164460646Y-125735147D01*
X164608216Y-125636544D01*
X164772188Y-125568624D01*
X164921488Y-125538927D01*
X164946258Y-125534000D01*
X165123742Y-125534000D01*
X165148512Y-125538927D01*
G37*
G36*
X167688512Y-125538927D02*
G01*
X167837812Y-125568624D01*
X168001784Y-125636544D01*
X168149354Y-125735147D01*
X168274853Y-125860646D01*
X168373456Y-126008216D01*
X168441376Y-126172188D01*
X168476000Y-126346259D01*
X168476000Y-126523741D01*
X168441376Y-126697812D01*
X168373456Y-126861784D01*
X168274853Y-127009354D01*
X168149354Y-127134853D01*
X168001784Y-127233456D01*
X167837812Y-127301376D01*
X167688512Y-127331073D01*
X167663742Y-127336000D01*
X167486258Y-127336000D01*
X167461488Y-127331073D01*
X167312188Y-127301376D01*
X167148216Y-127233456D01*
X167000646Y-127134853D01*
X166875147Y-127009354D01*
X166776544Y-126861784D01*
X166708624Y-126697812D01*
X166674000Y-126523741D01*
X166674000Y-126346259D01*
X166708624Y-126172188D01*
X166776544Y-126008216D01*
X166875147Y-125860646D01*
X167000646Y-125735147D01*
X167148216Y-125636544D01*
X167312188Y-125568624D01*
X167461488Y-125538927D01*
X167486258Y-125534000D01*
X167663742Y-125534000D01*
X167688512Y-125538927D01*
G37*
G36*
X142288512Y-125538927D02*
G01*
X142437812Y-125568624D01*
X142601784Y-125636544D01*
X142749354Y-125735147D01*
X142874853Y-125860646D01*
X142973456Y-126008216D01*
X143041376Y-126172188D01*
X143076000Y-126346259D01*
X143076000Y-126523741D01*
X143041376Y-126697812D01*
X142973456Y-126861784D01*
X142874853Y-127009354D01*
X142749354Y-127134853D01*
X142601784Y-127233456D01*
X142437812Y-127301376D01*
X142288512Y-127331073D01*
X142263742Y-127336000D01*
X142086258Y-127336000D01*
X142061488Y-127331073D01*
X141912188Y-127301376D01*
X141748216Y-127233456D01*
X141600646Y-127134853D01*
X141475147Y-127009354D01*
X141376544Y-126861784D01*
X141308624Y-126697812D01*
X141274000Y-126523741D01*
X141274000Y-126346259D01*
X141308624Y-126172188D01*
X141376544Y-126008216D01*
X141475147Y-125860646D01*
X141600646Y-125735147D01*
X141748216Y-125636544D01*
X141912188Y-125568624D01*
X142061488Y-125538927D01*
X142086258Y-125534000D01*
X142263742Y-125534000D01*
X142288512Y-125538927D01*
G37*
G36*
X162608512Y-125538927D02*
G01*
X162757812Y-125568624D01*
X162921784Y-125636544D01*
X163069354Y-125735147D01*
X163194853Y-125860646D01*
X163293456Y-126008216D01*
X163361376Y-126172188D01*
X163396000Y-126346259D01*
X163396000Y-126523741D01*
X163361376Y-126697812D01*
X163293456Y-126861784D01*
X163194853Y-127009354D01*
X163069354Y-127134853D01*
X162921784Y-127233456D01*
X162757812Y-127301376D01*
X162608512Y-127331073D01*
X162583742Y-127336000D01*
X162406258Y-127336000D01*
X162381488Y-127331073D01*
X162232188Y-127301376D01*
X162068216Y-127233456D01*
X161920646Y-127134853D01*
X161795147Y-127009354D01*
X161696544Y-126861784D01*
X161628624Y-126697812D01*
X161594000Y-126523741D01*
X161594000Y-126346259D01*
X161628624Y-126172188D01*
X161696544Y-126008216D01*
X161795147Y-125860646D01*
X161920646Y-125735147D01*
X162068216Y-125636544D01*
X162232188Y-125568624D01*
X162381488Y-125538927D01*
X162406258Y-125534000D01*
X162583742Y-125534000D01*
X162608512Y-125538927D01*
G37*
G36*
X160068512Y-125538927D02*
G01*
X160217812Y-125568624D01*
X160381784Y-125636544D01*
X160529354Y-125735147D01*
X160654853Y-125860646D01*
X160753456Y-126008216D01*
X160821376Y-126172188D01*
X160856000Y-126346259D01*
X160856000Y-126523741D01*
X160821376Y-126697812D01*
X160753456Y-126861784D01*
X160654853Y-127009354D01*
X160529354Y-127134853D01*
X160381784Y-127233456D01*
X160217812Y-127301376D01*
X160068512Y-127331073D01*
X160043742Y-127336000D01*
X159866258Y-127336000D01*
X159841488Y-127331073D01*
X159692188Y-127301376D01*
X159528216Y-127233456D01*
X159380646Y-127134853D01*
X159255147Y-127009354D01*
X159156544Y-126861784D01*
X159088624Y-126697812D01*
X159054000Y-126523741D01*
X159054000Y-126346259D01*
X159088624Y-126172188D01*
X159156544Y-126008216D01*
X159255147Y-125860646D01*
X159380646Y-125735147D01*
X159528216Y-125636544D01*
X159692188Y-125568624D01*
X159841488Y-125538927D01*
X159866258Y-125534000D01*
X160043742Y-125534000D01*
X160068512Y-125538927D01*
G37*
G36*
X157528512Y-125538927D02*
G01*
X157677812Y-125568624D01*
X157841784Y-125636544D01*
X157989354Y-125735147D01*
X158114853Y-125860646D01*
X158213456Y-126008216D01*
X158281376Y-126172188D01*
X158316000Y-126346259D01*
X158316000Y-126523741D01*
X158281376Y-126697812D01*
X158213456Y-126861784D01*
X158114853Y-127009354D01*
X157989354Y-127134853D01*
X157841784Y-127233456D01*
X157677812Y-127301376D01*
X157528512Y-127331073D01*
X157503742Y-127336000D01*
X157326258Y-127336000D01*
X157301488Y-127331073D01*
X157152188Y-127301376D01*
X156988216Y-127233456D01*
X156840646Y-127134853D01*
X156715147Y-127009354D01*
X156616544Y-126861784D01*
X156548624Y-126697812D01*
X156514000Y-126523741D01*
X156514000Y-126346259D01*
X156548624Y-126172188D01*
X156616544Y-126008216D01*
X156715147Y-125860646D01*
X156840646Y-125735147D01*
X156988216Y-125636544D01*
X157152188Y-125568624D01*
X157301488Y-125538927D01*
X157326258Y-125534000D01*
X157503742Y-125534000D01*
X157528512Y-125538927D01*
G37*
G36*
X154988512Y-125538927D02*
G01*
X155137812Y-125568624D01*
X155301784Y-125636544D01*
X155449354Y-125735147D01*
X155574853Y-125860646D01*
X155673456Y-126008216D01*
X155741376Y-126172188D01*
X155776000Y-126346259D01*
X155776000Y-126523741D01*
X155741376Y-126697812D01*
X155673456Y-126861784D01*
X155574853Y-127009354D01*
X155449354Y-127134853D01*
X155301784Y-127233456D01*
X155137812Y-127301376D01*
X154988512Y-127331073D01*
X154963742Y-127336000D01*
X154786258Y-127336000D01*
X154761488Y-127331073D01*
X154612188Y-127301376D01*
X154448216Y-127233456D01*
X154300646Y-127134853D01*
X154175147Y-127009354D01*
X154076544Y-126861784D01*
X154008624Y-126697812D01*
X153974000Y-126523741D01*
X153974000Y-126346259D01*
X154008624Y-126172188D01*
X154076544Y-126008216D01*
X154175147Y-125860646D01*
X154300646Y-125735147D01*
X154448216Y-125636544D01*
X154612188Y-125568624D01*
X154761488Y-125538927D01*
X154786258Y-125534000D01*
X154963742Y-125534000D01*
X154988512Y-125538927D01*
G37*
G36*
X152448512Y-125538927D02*
G01*
X152597812Y-125568624D01*
X152761784Y-125636544D01*
X152909354Y-125735147D01*
X153034853Y-125860646D01*
X153133456Y-126008216D01*
X153201376Y-126172188D01*
X153236000Y-126346259D01*
X153236000Y-126523741D01*
X153201376Y-126697812D01*
X153133456Y-126861784D01*
X153034853Y-127009354D01*
X152909354Y-127134853D01*
X152761784Y-127233456D01*
X152597812Y-127301376D01*
X152448512Y-127331073D01*
X152423742Y-127336000D01*
X152246258Y-127336000D01*
X152221488Y-127331073D01*
X152072188Y-127301376D01*
X151908216Y-127233456D01*
X151760646Y-127134853D01*
X151635147Y-127009354D01*
X151536544Y-126861784D01*
X151468624Y-126697812D01*
X151434000Y-126523741D01*
X151434000Y-126346259D01*
X151468624Y-126172188D01*
X151536544Y-126008216D01*
X151635147Y-125860646D01*
X151760646Y-125735147D01*
X151908216Y-125636544D01*
X152072188Y-125568624D01*
X152221488Y-125538927D01*
X152246258Y-125534000D01*
X152423742Y-125534000D01*
X152448512Y-125538927D01*
G37*
G36*
X149908512Y-125538927D02*
G01*
X150057812Y-125568624D01*
X150221784Y-125636544D01*
X150369354Y-125735147D01*
X150494853Y-125860646D01*
X150593456Y-126008216D01*
X150661376Y-126172188D01*
X150696000Y-126346259D01*
X150696000Y-126523741D01*
X150661376Y-126697812D01*
X150593456Y-126861784D01*
X150494853Y-127009354D01*
X150369354Y-127134853D01*
X150221784Y-127233456D01*
X150057812Y-127301376D01*
X149908512Y-127331073D01*
X149883742Y-127336000D01*
X149706258Y-127336000D01*
X149681488Y-127331073D01*
X149532188Y-127301376D01*
X149368216Y-127233456D01*
X149220646Y-127134853D01*
X149095147Y-127009354D01*
X148996544Y-126861784D01*
X148928624Y-126697812D01*
X148894000Y-126523741D01*
X148894000Y-126346259D01*
X148928624Y-126172188D01*
X148996544Y-126008216D01*
X149095147Y-125860646D01*
X149220646Y-125735147D01*
X149368216Y-125636544D01*
X149532188Y-125568624D01*
X149681488Y-125538927D01*
X149706258Y-125534000D01*
X149883742Y-125534000D01*
X149908512Y-125538927D01*
G37*
G36*
X147368512Y-125538927D02*
G01*
X147517812Y-125568624D01*
X147681784Y-125636544D01*
X147829354Y-125735147D01*
X147954853Y-125860646D01*
X148053456Y-126008216D01*
X148121376Y-126172188D01*
X148156000Y-126346259D01*
X148156000Y-126523741D01*
X148121376Y-126697812D01*
X148053456Y-126861784D01*
X147954853Y-127009354D01*
X147829354Y-127134853D01*
X147681784Y-127233456D01*
X147517812Y-127301376D01*
X147368512Y-127331073D01*
X147343742Y-127336000D01*
X147166258Y-127336000D01*
X147141488Y-127331073D01*
X146992188Y-127301376D01*
X146828216Y-127233456D01*
X146680646Y-127134853D01*
X146555147Y-127009354D01*
X146456544Y-126861784D01*
X146388624Y-126697812D01*
X146354000Y-126523741D01*
X146354000Y-126346259D01*
X146388624Y-126172188D01*
X146456544Y-126008216D01*
X146555147Y-125860646D01*
X146680646Y-125735147D01*
X146828216Y-125636544D01*
X146992188Y-125568624D01*
X147141488Y-125538927D01*
X147166258Y-125534000D01*
X147343742Y-125534000D01*
X147368512Y-125538927D01*
G37*
G36*
X144828512Y-125538927D02*
G01*
X144977812Y-125568624D01*
X145141784Y-125636544D01*
X145289354Y-125735147D01*
X145414853Y-125860646D01*
X145513456Y-126008216D01*
X145581376Y-126172188D01*
X145616000Y-126346259D01*
X145616000Y-126523741D01*
X145581376Y-126697812D01*
X145513456Y-126861784D01*
X145414853Y-127009354D01*
X145289354Y-127134853D01*
X145141784Y-127233456D01*
X144977812Y-127301376D01*
X144828512Y-127331073D01*
X144803742Y-127336000D01*
X144626258Y-127336000D01*
X144601488Y-127331073D01*
X144452188Y-127301376D01*
X144288216Y-127233456D01*
X144140646Y-127134853D01*
X144015147Y-127009354D01*
X143916544Y-126861784D01*
X143848624Y-126697812D01*
X143814000Y-126523741D01*
X143814000Y-126346259D01*
X143848624Y-126172188D01*
X143916544Y-126008216D01*
X144015147Y-125860646D01*
X144140646Y-125735147D01*
X144288216Y-125636544D01*
X144452188Y-125568624D01*
X144601488Y-125538927D01*
X144626258Y-125534000D01*
X144803742Y-125534000D01*
X144828512Y-125538927D01*
G37*
G36*
X174882585Y-122448802D02*
G01*
X175032410Y-122478604D01*
X175314674Y-122595521D01*
X175568705Y-122765259D01*
X175784741Y-122981295D01*
X175954479Y-123235326D01*
X176071396Y-123517590D01*
X176131000Y-123817240D01*
X176131000Y-124122760D01*
X176071396Y-124422410D01*
X175954479Y-124704674D01*
X175784741Y-124958705D01*
X175568705Y-125174741D01*
X175314674Y-125344479D01*
X175032410Y-125461396D01*
X174882585Y-125491198D01*
X174732761Y-125521000D01*
X174427239Y-125521000D01*
X174277415Y-125491198D01*
X174127590Y-125461396D01*
X173845326Y-125344479D01*
X173591295Y-125174741D01*
X173375259Y-124958705D01*
X173205521Y-124704674D01*
X173088604Y-124422410D01*
X173029000Y-124122760D01*
X173029000Y-123817240D01*
X173088604Y-123517590D01*
X173205521Y-123235326D01*
X173375259Y-122981295D01*
X173591295Y-122765259D01*
X173845326Y-122595521D01*
X174127590Y-122478604D01*
X174277415Y-122448802D01*
X174427239Y-122419000D01*
X174732761Y-122419000D01*
X174882585Y-122448802D01*
G37*
G36*
X110882585Y-122448802D02*
G01*
X111032410Y-122478604D01*
X111314674Y-122595521D01*
X111568705Y-122765259D01*
X111784741Y-122981295D01*
X111954479Y-123235326D01*
X112071396Y-123517590D01*
X112131000Y-123817240D01*
X112131000Y-124122760D01*
X112071396Y-124422410D01*
X111954479Y-124704674D01*
X111784741Y-124958705D01*
X111568705Y-125174741D01*
X111314674Y-125344479D01*
X111032410Y-125461396D01*
X110882585Y-125491198D01*
X110732761Y-125521000D01*
X110427239Y-125521000D01*
X110277415Y-125491198D01*
X110127590Y-125461396D01*
X109845326Y-125344479D01*
X109591295Y-125174741D01*
X109375259Y-124958705D01*
X109205521Y-124704674D01*
X109088604Y-124422410D01*
X109029000Y-124122760D01*
X109029000Y-123817240D01*
X109088604Y-123517590D01*
X109205521Y-123235326D01*
X109375259Y-122981295D01*
X109591295Y-122765259D01*
X109845326Y-122595521D01*
X110127590Y-122478604D01*
X110277415Y-122448802D01*
X110427239Y-122419000D01*
X110732761Y-122419000D01*
X110882585Y-122448802D01*
G37*
G36*
X167688512Y-122998927D02*
G01*
X167837812Y-123028624D01*
X168001784Y-123096544D01*
X168149354Y-123195147D01*
X168274853Y-123320646D01*
X168373456Y-123468216D01*
X168441376Y-123632188D01*
X168476000Y-123806259D01*
X168476000Y-123983741D01*
X168441376Y-124157812D01*
X168373456Y-124321784D01*
X168274853Y-124469354D01*
X168149354Y-124594853D01*
X168001784Y-124693456D01*
X167837812Y-124761376D01*
X167688512Y-124791073D01*
X167663742Y-124796000D01*
X167486258Y-124796000D01*
X167461488Y-124791073D01*
X167312188Y-124761376D01*
X167148216Y-124693456D01*
X167000646Y-124594853D01*
X166875147Y-124469354D01*
X166776544Y-124321784D01*
X166708624Y-124157812D01*
X166674000Y-123983741D01*
X166674000Y-123806259D01*
X166708624Y-123632188D01*
X166776544Y-123468216D01*
X166875147Y-123320646D01*
X167000646Y-123195147D01*
X167148216Y-123096544D01*
X167312188Y-123028624D01*
X167461488Y-122998927D01*
X167486258Y-122994000D01*
X167663742Y-122994000D01*
X167688512Y-122998927D01*
G37*
G36*
X144828512Y-122998927D02*
G01*
X144977812Y-123028624D01*
X145141784Y-123096544D01*
X145289354Y-123195147D01*
X145414853Y-123320646D01*
X145513456Y-123468216D01*
X145581376Y-123632188D01*
X145616000Y-123806259D01*
X145616000Y-123983741D01*
X145581376Y-124157812D01*
X145513456Y-124321784D01*
X145414853Y-124469354D01*
X145289354Y-124594853D01*
X145141784Y-124693456D01*
X144977812Y-124761376D01*
X144828512Y-124791073D01*
X144803742Y-124796000D01*
X144626258Y-124796000D01*
X144601488Y-124791073D01*
X144452188Y-124761376D01*
X144288216Y-124693456D01*
X144140646Y-124594853D01*
X144015147Y-124469354D01*
X143916544Y-124321784D01*
X143848624Y-124157812D01*
X143814000Y-123983741D01*
X143814000Y-123806259D01*
X143848624Y-123632188D01*
X143916544Y-123468216D01*
X144015147Y-123320646D01*
X144140646Y-123195147D01*
X144288216Y-123096544D01*
X144452188Y-123028624D01*
X144601488Y-122998927D01*
X144626258Y-122994000D01*
X144803742Y-122994000D01*
X144828512Y-122998927D01*
G37*
G36*
X147368512Y-122998927D02*
G01*
X147517812Y-123028624D01*
X147681784Y-123096544D01*
X147829354Y-123195147D01*
X147954853Y-123320646D01*
X148053456Y-123468216D01*
X148121376Y-123632188D01*
X148156000Y-123806259D01*
X148156000Y-123983741D01*
X148121376Y-124157812D01*
X148053456Y-124321784D01*
X147954853Y-124469354D01*
X147829354Y-124594853D01*
X147681784Y-124693456D01*
X147517812Y-124761376D01*
X147368512Y-124791073D01*
X147343742Y-124796000D01*
X147166258Y-124796000D01*
X147141488Y-124791073D01*
X146992188Y-124761376D01*
X146828216Y-124693456D01*
X146680646Y-124594853D01*
X146555147Y-124469354D01*
X146456544Y-124321784D01*
X146388624Y-124157812D01*
X146354000Y-123983741D01*
X146354000Y-123806259D01*
X146388624Y-123632188D01*
X146456544Y-123468216D01*
X146555147Y-123320646D01*
X146680646Y-123195147D01*
X146828216Y-123096544D01*
X146992188Y-123028624D01*
X147141488Y-122998927D01*
X147166258Y-122994000D01*
X147343742Y-122994000D01*
X147368512Y-122998927D01*
G37*
G36*
X142288512Y-122998927D02*
G01*
X142437812Y-123028624D01*
X142601784Y-123096544D01*
X142749354Y-123195147D01*
X142874853Y-123320646D01*
X142973456Y-123468216D01*
X143041376Y-123632188D01*
X143076000Y-123806259D01*
X143076000Y-123983741D01*
X143041376Y-124157812D01*
X142973456Y-124321784D01*
X142874853Y-124469354D01*
X142749354Y-124594853D01*
X142601784Y-124693456D01*
X142437812Y-124761376D01*
X142288512Y-124791073D01*
X142263742Y-124796000D01*
X142086258Y-124796000D01*
X142061488Y-124791073D01*
X141912188Y-124761376D01*
X141748216Y-124693456D01*
X141600646Y-124594853D01*
X141475147Y-124469354D01*
X141376544Y-124321784D01*
X141308624Y-124157812D01*
X141274000Y-123983741D01*
X141274000Y-123806259D01*
X141308624Y-123632188D01*
X141376544Y-123468216D01*
X141475147Y-123320646D01*
X141600646Y-123195147D01*
X141748216Y-123096544D01*
X141912188Y-123028624D01*
X142061488Y-122998927D01*
X142086258Y-122994000D01*
X142263742Y-122994000D01*
X142288512Y-122998927D01*
G37*
G36*
X162608512Y-122998927D02*
G01*
X162757812Y-123028624D01*
X162921784Y-123096544D01*
X163069354Y-123195147D01*
X163194853Y-123320646D01*
X163293456Y-123468216D01*
X163361376Y-123632188D01*
X163396000Y-123806259D01*
X163396000Y-123983741D01*
X163361376Y-124157812D01*
X163293456Y-124321784D01*
X163194853Y-124469354D01*
X163069354Y-124594853D01*
X162921784Y-124693456D01*
X162757812Y-124761376D01*
X162608512Y-124791073D01*
X162583742Y-124796000D01*
X162406258Y-124796000D01*
X162381488Y-124791073D01*
X162232188Y-124761376D01*
X162068216Y-124693456D01*
X161920646Y-124594853D01*
X161795147Y-124469354D01*
X161696544Y-124321784D01*
X161628624Y-124157812D01*
X161594000Y-123983741D01*
X161594000Y-123806259D01*
X161628624Y-123632188D01*
X161696544Y-123468216D01*
X161795147Y-123320646D01*
X161920646Y-123195147D01*
X162068216Y-123096544D01*
X162232188Y-123028624D01*
X162381488Y-122998927D01*
X162406258Y-122994000D01*
X162583742Y-122994000D01*
X162608512Y-122998927D01*
G37*
G36*
X157528512Y-122998927D02*
G01*
X157677812Y-123028624D01*
X157841784Y-123096544D01*
X157989354Y-123195147D01*
X158114853Y-123320646D01*
X158213456Y-123468216D01*
X158281376Y-123632188D01*
X158316000Y-123806259D01*
X158316000Y-123983741D01*
X158281376Y-124157812D01*
X158213456Y-124321784D01*
X158114853Y-124469354D01*
X157989354Y-124594853D01*
X157841784Y-124693456D01*
X157677812Y-124761376D01*
X157528512Y-124791073D01*
X157503742Y-124796000D01*
X157326258Y-124796000D01*
X157301488Y-124791073D01*
X157152188Y-124761376D01*
X156988216Y-124693456D01*
X156840646Y-124594853D01*
X156715147Y-124469354D01*
X156616544Y-124321784D01*
X156548624Y-124157812D01*
X156514000Y-123983741D01*
X156514000Y-123806259D01*
X156548624Y-123632188D01*
X156616544Y-123468216D01*
X156715147Y-123320646D01*
X156840646Y-123195147D01*
X156988216Y-123096544D01*
X157152188Y-123028624D01*
X157301488Y-122998927D01*
X157326258Y-122994000D01*
X157503742Y-122994000D01*
X157528512Y-122998927D01*
G37*
G36*
X160068512Y-122998927D02*
G01*
X160217812Y-123028624D01*
X160381784Y-123096544D01*
X160529354Y-123195147D01*
X160654853Y-123320646D01*
X160753456Y-123468216D01*
X160821376Y-123632188D01*
X160856000Y-123806259D01*
X160856000Y-123983741D01*
X160821376Y-124157812D01*
X160753456Y-124321784D01*
X160654853Y-124469354D01*
X160529354Y-124594853D01*
X160381784Y-124693456D01*
X160217812Y-124761376D01*
X160068512Y-124791073D01*
X160043742Y-124796000D01*
X159866258Y-124796000D01*
X159841488Y-124791073D01*
X159692188Y-124761376D01*
X159528216Y-124693456D01*
X159380646Y-124594853D01*
X159255147Y-124469354D01*
X159156544Y-124321784D01*
X159088624Y-124157812D01*
X159054000Y-123983741D01*
X159054000Y-123806259D01*
X159088624Y-123632188D01*
X159156544Y-123468216D01*
X159255147Y-123320646D01*
X159380646Y-123195147D01*
X159528216Y-123096544D01*
X159692188Y-123028624D01*
X159841488Y-122998927D01*
X159866258Y-122994000D01*
X160043742Y-122994000D01*
X160068512Y-122998927D01*
G37*
G36*
X149908512Y-122998927D02*
G01*
X150057812Y-123028624D01*
X150221784Y-123096544D01*
X150369354Y-123195147D01*
X150494853Y-123320646D01*
X150593456Y-123468216D01*
X150661376Y-123632188D01*
X150696000Y-123806259D01*
X150696000Y-123983741D01*
X150661376Y-124157812D01*
X150593456Y-124321784D01*
X150494853Y-124469354D01*
X150369354Y-124594853D01*
X150221784Y-124693456D01*
X150057812Y-124761376D01*
X149908512Y-124791073D01*
X149883742Y-124796000D01*
X149706258Y-124796000D01*
X149681488Y-124791073D01*
X149532188Y-124761376D01*
X149368216Y-124693456D01*
X149220646Y-124594853D01*
X149095147Y-124469354D01*
X148996544Y-124321784D01*
X148928624Y-124157812D01*
X148894000Y-123983741D01*
X148894000Y-123806259D01*
X148928624Y-123632188D01*
X148996544Y-123468216D01*
X149095147Y-123320646D01*
X149220646Y-123195147D01*
X149368216Y-123096544D01*
X149532188Y-123028624D01*
X149681488Y-122998927D01*
X149706258Y-122994000D01*
X149883742Y-122994000D01*
X149908512Y-122998927D01*
G37*
G36*
X152448512Y-122998927D02*
G01*
X152597812Y-123028624D01*
X152761784Y-123096544D01*
X152909354Y-123195147D01*
X153034853Y-123320646D01*
X153133456Y-123468216D01*
X153201376Y-123632188D01*
X153236000Y-123806259D01*
X153236000Y-123983741D01*
X153201376Y-124157812D01*
X153133456Y-124321784D01*
X153034853Y-124469354D01*
X152909354Y-124594853D01*
X152761784Y-124693456D01*
X152597812Y-124761376D01*
X152448512Y-124791073D01*
X152423742Y-124796000D01*
X152246258Y-124796000D01*
X152221488Y-124791073D01*
X152072188Y-124761376D01*
X151908216Y-124693456D01*
X151760646Y-124594853D01*
X151635147Y-124469354D01*
X151536544Y-124321784D01*
X151468624Y-124157812D01*
X151434000Y-123983741D01*
X151434000Y-123806259D01*
X151468624Y-123632188D01*
X151536544Y-123468216D01*
X151635147Y-123320646D01*
X151760646Y-123195147D01*
X151908216Y-123096544D01*
X152072188Y-123028624D01*
X152221488Y-122998927D01*
X152246258Y-122994000D01*
X152423742Y-122994000D01*
X152448512Y-122998927D01*
G37*
G36*
X154988512Y-122998927D02*
G01*
X155137812Y-123028624D01*
X155301784Y-123096544D01*
X155449354Y-123195147D01*
X155574853Y-123320646D01*
X155673456Y-123468216D01*
X155741376Y-123632188D01*
X155776000Y-123806259D01*
X155776000Y-123983741D01*
X155741376Y-124157812D01*
X155673456Y-124321784D01*
X155574853Y-124469354D01*
X155449354Y-124594853D01*
X155301784Y-124693456D01*
X155137812Y-124761376D01*
X154988512Y-124791073D01*
X154963742Y-124796000D01*
X154786258Y-124796000D01*
X154761488Y-124791073D01*
X154612188Y-124761376D01*
X154448216Y-124693456D01*
X154300646Y-124594853D01*
X154175147Y-124469354D01*
X154076544Y-124321784D01*
X154008624Y-124157812D01*
X153974000Y-123983741D01*
X153974000Y-123806259D01*
X154008624Y-123632188D01*
X154076544Y-123468216D01*
X154175147Y-123320646D01*
X154300646Y-123195147D01*
X154448216Y-123096544D01*
X154612188Y-123028624D01*
X154761488Y-122998927D01*
X154786258Y-122994000D01*
X154963742Y-122994000D01*
X154988512Y-122998927D01*
G37*
G36*
X165148512Y-122998927D02*
G01*
X165297812Y-123028624D01*
X165461784Y-123096544D01*
X165609354Y-123195147D01*
X165734853Y-123320646D01*
X165833456Y-123468216D01*
X165901376Y-123632188D01*
X165936000Y-123806259D01*
X165936000Y-123983741D01*
X165901376Y-124157812D01*
X165833456Y-124321784D01*
X165734853Y-124469354D01*
X165609354Y-124594853D01*
X165461784Y-124693456D01*
X165297812Y-124761376D01*
X165148512Y-124791073D01*
X165123742Y-124796000D01*
X164946258Y-124796000D01*
X164921488Y-124791073D01*
X164772188Y-124761376D01*
X164608216Y-124693456D01*
X164460646Y-124594853D01*
X164335147Y-124469354D01*
X164236544Y-124321784D01*
X164168624Y-124157812D01*
X164134000Y-123983741D01*
X164134000Y-123806259D01*
X164168624Y-123632188D01*
X164236544Y-123468216D01*
X164335147Y-123320646D01*
X164460646Y-123195147D01*
X164608216Y-123096544D01*
X164772188Y-123028624D01*
X164921488Y-122998927D01*
X164946258Y-122994000D01*
X165123742Y-122994000D01*
X165148512Y-122998927D01*
G37*
G36*
X152448512Y-120458927D02*
G01*
X152597812Y-120488624D01*
X152761784Y-120556544D01*
X152909354Y-120655147D01*
X153034853Y-120780646D01*
X153133456Y-120928216D01*
X153201376Y-121092188D01*
X153236000Y-121266259D01*
X153236000Y-121443741D01*
X153201376Y-121617812D01*
X153133456Y-121781784D01*
X153034853Y-121929354D01*
X152909354Y-122054853D01*
X152761784Y-122153456D01*
X152597812Y-122221376D01*
X152448512Y-122251073D01*
X152423742Y-122256000D01*
X152246258Y-122256000D01*
X152221488Y-122251073D01*
X152072188Y-122221376D01*
X151908216Y-122153456D01*
X151760646Y-122054853D01*
X151635147Y-121929354D01*
X151536544Y-121781784D01*
X151468624Y-121617812D01*
X151434000Y-121443741D01*
X151434000Y-121266259D01*
X151468624Y-121092188D01*
X151536544Y-120928216D01*
X151635147Y-120780646D01*
X151760646Y-120655147D01*
X151908216Y-120556544D01*
X152072188Y-120488624D01*
X152221488Y-120458927D01*
X152246258Y-120454000D01*
X152423742Y-120454000D01*
X152448512Y-120458927D01*
G37*
G36*
X162608512Y-120458927D02*
G01*
X162757812Y-120488624D01*
X162921784Y-120556544D01*
X163069354Y-120655147D01*
X163194853Y-120780646D01*
X163293456Y-120928216D01*
X163361376Y-121092188D01*
X163396000Y-121266259D01*
X163396000Y-121443741D01*
X163361376Y-121617812D01*
X163293456Y-121781784D01*
X163194853Y-121929354D01*
X163069354Y-122054853D01*
X162921784Y-122153456D01*
X162757812Y-122221376D01*
X162608512Y-122251073D01*
X162583742Y-122256000D01*
X162406258Y-122256000D01*
X162381488Y-122251073D01*
X162232188Y-122221376D01*
X162068216Y-122153456D01*
X161920646Y-122054853D01*
X161795147Y-121929354D01*
X161696544Y-121781784D01*
X161628624Y-121617812D01*
X161594000Y-121443741D01*
X161594000Y-121266259D01*
X161628624Y-121092188D01*
X161696544Y-120928216D01*
X161795147Y-120780646D01*
X161920646Y-120655147D01*
X162068216Y-120556544D01*
X162232188Y-120488624D01*
X162381488Y-120458927D01*
X162406258Y-120454000D01*
X162583742Y-120454000D01*
X162608512Y-120458927D01*
G37*
G36*
X165148512Y-120458927D02*
G01*
X165297812Y-120488624D01*
X165461784Y-120556544D01*
X165609354Y-120655147D01*
X165734853Y-120780646D01*
X165833456Y-120928216D01*
X165901376Y-121092188D01*
X165936000Y-121266259D01*
X165936000Y-121443741D01*
X165901376Y-121617812D01*
X165833456Y-121781784D01*
X165734853Y-121929354D01*
X165609354Y-122054853D01*
X165461784Y-122153456D01*
X165297812Y-122221376D01*
X165148512Y-122251073D01*
X165123742Y-122256000D01*
X164946258Y-122256000D01*
X164921488Y-122251073D01*
X164772188Y-122221376D01*
X164608216Y-122153456D01*
X164460646Y-122054853D01*
X164335147Y-121929354D01*
X164236544Y-121781784D01*
X164168624Y-121617812D01*
X164134000Y-121443741D01*
X164134000Y-121266259D01*
X164168624Y-121092188D01*
X164236544Y-120928216D01*
X164335147Y-120780646D01*
X164460646Y-120655147D01*
X164608216Y-120556544D01*
X164772188Y-120488624D01*
X164921488Y-120458927D01*
X164946258Y-120454000D01*
X165123742Y-120454000D01*
X165148512Y-120458927D01*
G37*
G36*
X160068512Y-120458927D02*
G01*
X160217812Y-120488624D01*
X160381784Y-120556544D01*
X160529354Y-120655147D01*
X160654853Y-120780646D01*
X160753456Y-120928216D01*
X160821376Y-121092188D01*
X160856000Y-121266259D01*
X160856000Y-121443741D01*
X160821376Y-121617812D01*
X160753456Y-121781784D01*
X160654853Y-121929354D01*
X160529354Y-122054853D01*
X160381784Y-122153456D01*
X160217812Y-122221376D01*
X160068512Y-122251073D01*
X160043742Y-122256000D01*
X159866258Y-122256000D01*
X159841488Y-122251073D01*
X159692188Y-122221376D01*
X159528216Y-122153456D01*
X159380646Y-122054853D01*
X159255147Y-121929354D01*
X159156544Y-121781784D01*
X159088624Y-121617812D01*
X159054000Y-121443741D01*
X159054000Y-121266259D01*
X159088624Y-121092188D01*
X159156544Y-120928216D01*
X159255147Y-120780646D01*
X159380646Y-120655147D01*
X159528216Y-120556544D01*
X159692188Y-120488624D01*
X159841488Y-120458927D01*
X159866258Y-120454000D01*
X160043742Y-120454000D01*
X160068512Y-120458927D01*
G37*
G36*
X157528512Y-120458927D02*
G01*
X157677812Y-120488624D01*
X157841784Y-120556544D01*
X157989354Y-120655147D01*
X158114853Y-120780646D01*
X158213456Y-120928216D01*
X158281376Y-121092188D01*
X158316000Y-121266259D01*
X158316000Y-121443741D01*
X158281376Y-121617812D01*
X158213456Y-121781784D01*
X158114853Y-121929354D01*
X157989354Y-122054853D01*
X157841784Y-122153456D01*
X157677812Y-122221376D01*
X157528512Y-122251073D01*
X157503742Y-122256000D01*
X157326258Y-122256000D01*
X157301488Y-122251073D01*
X157152188Y-122221376D01*
X156988216Y-122153456D01*
X156840646Y-122054853D01*
X156715147Y-121929354D01*
X156616544Y-121781784D01*
X156548624Y-121617812D01*
X156514000Y-121443741D01*
X156514000Y-121266259D01*
X156548624Y-121092188D01*
X156616544Y-120928216D01*
X156715147Y-120780646D01*
X156840646Y-120655147D01*
X156988216Y-120556544D01*
X157152188Y-120488624D01*
X157301488Y-120458927D01*
X157326258Y-120454000D01*
X157503742Y-120454000D01*
X157528512Y-120458927D01*
G37*
G36*
X154988512Y-120458927D02*
G01*
X155137812Y-120488624D01*
X155301784Y-120556544D01*
X155449354Y-120655147D01*
X155574853Y-120780646D01*
X155673456Y-120928216D01*
X155741376Y-121092188D01*
X155776000Y-121266259D01*
X155776000Y-121443741D01*
X155741376Y-121617812D01*
X155673456Y-121781784D01*
X155574853Y-121929354D01*
X155449354Y-122054853D01*
X155301784Y-122153456D01*
X155137812Y-122221376D01*
X154988512Y-122251073D01*
X154963742Y-122256000D01*
X154786258Y-122256000D01*
X154761488Y-122251073D01*
X154612188Y-122221376D01*
X154448216Y-122153456D01*
X154300646Y-122054853D01*
X154175147Y-121929354D01*
X154076544Y-121781784D01*
X154008624Y-121617812D01*
X153974000Y-121443741D01*
X153974000Y-121266259D01*
X154008624Y-121092188D01*
X154076544Y-120928216D01*
X154175147Y-120780646D01*
X154300646Y-120655147D01*
X154448216Y-120556544D01*
X154612188Y-120488624D01*
X154761488Y-120458927D01*
X154786258Y-120454000D01*
X154963742Y-120454000D01*
X154988512Y-120458927D01*
G37*
G36*
X144828512Y-120458927D02*
G01*
X144977812Y-120488624D01*
X145141784Y-120556544D01*
X145289354Y-120655147D01*
X145414853Y-120780646D01*
X145513456Y-120928216D01*
X145581376Y-121092188D01*
X145616000Y-121266259D01*
X145616000Y-121443741D01*
X145581376Y-121617812D01*
X145513456Y-121781784D01*
X145414853Y-121929354D01*
X145289354Y-122054853D01*
X145141784Y-122153456D01*
X144977812Y-122221376D01*
X144828512Y-122251073D01*
X144803742Y-122256000D01*
X144626258Y-122256000D01*
X144601488Y-122251073D01*
X144452188Y-122221376D01*
X144288216Y-122153456D01*
X144140646Y-122054853D01*
X144015147Y-121929354D01*
X143916544Y-121781784D01*
X143848624Y-121617812D01*
X143814000Y-121443741D01*
X143814000Y-121266259D01*
X143848624Y-121092188D01*
X143916544Y-120928216D01*
X144015147Y-120780646D01*
X144140646Y-120655147D01*
X144288216Y-120556544D01*
X144452188Y-120488624D01*
X144601488Y-120458927D01*
X144626258Y-120454000D01*
X144803742Y-120454000D01*
X144828512Y-120458927D01*
G37*
G36*
X147368512Y-120458927D02*
G01*
X147517812Y-120488624D01*
X147681784Y-120556544D01*
X147829354Y-120655147D01*
X147954853Y-120780646D01*
X148053456Y-120928216D01*
X148121376Y-121092188D01*
X148156000Y-121266259D01*
X148156000Y-121443741D01*
X148121376Y-121617812D01*
X148053456Y-121781784D01*
X147954853Y-121929354D01*
X147829354Y-122054853D01*
X147681784Y-122153456D01*
X147517812Y-122221376D01*
X147368512Y-122251073D01*
X147343742Y-122256000D01*
X147166258Y-122256000D01*
X147141488Y-122251073D01*
X146992188Y-122221376D01*
X146828216Y-122153456D01*
X146680646Y-122054853D01*
X146555147Y-121929354D01*
X146456544Y-121781784D01*
X146388624Y-121617812D01*
X146354000Y-121443741D01*
X146354000Y-121266259D01*
X146388624Y-121092188D01*
X146456544Y-120928216D01*
X146555147Y-120780646D01*
X146680646Y-120655147D01*
X146828216Y-120556544D01*
X146992188Y-120488624D01*
X147141488Y-120458927D01*
X147166258Y-120454000D01*
X147343742Y-120454000D01*
X147368512Y-120458927D01*
G37*
G36*
X149908512Y-120458927D02*
G01*
X150057812Y-120488624D01*
X150221784Y-120556544D01*
X150369354Y-120655147D01*
X150494853Y-120780646D01*
X150593456Y-120928216D01*
X150661376Y-121092188D01*
X150696000Y-121266259D01*
X150696000Y-121443741D01*
X150661376Y-121617812D01*
X150593456Y-121781784D01*
X150494853Y-121929354D01*
X150369354Y-122054853D01*
X150221784Y-122153456D01*
X150057812Y-122221376D01*
X149908512Y-122251073D01*
X149883742Y-122256000D01*
X149706258Y-122256000D01*
X149681488Y-122251073D01*
X149532188Y-122221376D01*
X149368216Y-122153456D01*
X149220646Y-122054853D01*
X149095147Y-121929354D01*
X148996544Y-121781784D01*
X148928624Y-121617812D01*
X148894000Y-121443741D01*
X148894000Y-121266259D01*
X148928624Y-121092188D01*
X148996544Y-120928216D01*
X149095147Y-120780646D01*
X149220646Y-120655147D01*
X149368216Y-120556544D01*
X149532188Y-120488624D01*
X149681488Y-120458927D01*
X149706258Y-120454000D01*
X149883742Y-120454000D01*
X149908512Y-120458927D01*
G37*
G36*
X167688512Y-120458927D02*
G01*
X167837812Y-120488624D01*
X168001784Y-120556544D01*
X168149354Y-120655147D01*
X168274853Y-120780646D01*
X168373456Y-120928216D01*
X168441376Y-121092188D01*
X168476000Y-121266259D01*
X168476000Y-121443741D01*
X168441376Y-121617812D01*
X168373456Y-121781784D01*
X168274853Y-121929354D01*
X168149354Y-122054853D01*
X168001784Y-122153456D01*
X167837812Y-122221376D01*
X167688512Y-122251073D01*
X167663742Y-122256000D01*
X167486258Y-122256000D01*
X167461488Y-122251073D01*
X167312188Y-122221376D01*
X167148216Y-122153456D01*
X167000646Y-122054853D01*
X166875147Y-121929354D01*
X166776544Y-121781784D01*
X166708624Y-121617812D01*
X166674000Y-121443741D01*
X166674000Y-121266259D01*
X166708624Y-121092188D01*
X166776544Y-120928216D01*
X166875147Y-120780646D01*
X167000646Y-120655147D01*
X167148216Y-120556544D01*
X167312188Y-120488624D01*
X167461488Y-120458927D01*
X167486258Y-120454000D01*
X167663742Y-120454000D01*
X167688512Y-120458927D01*
G37*
G36*
X142288512Y-120458927D02*
G01*
X142437812Y-120488624D01*
X142601784Y-120556544D01*
X142749354Y-120655147D01*
X142874853Y-120780646D01*
X142973456Y-120928216D01*
X143041376Y-121092188D01*
X143076000Y-121266259D01*
X143076000Y-121443741D01*
X143041376Y-121617812D01*
X142973456Y-121781784D01*
X142874853Y-121929354D01*
X142749354Y-122054853D01*
X142601784Y-122153456D01*
X142437812Y-122221376D01*
X142288512Y-122251073D01*
X142263742Y-122256000D01*
X142086258Y-122256000D01*
X142061488Y-122251073D01*
X141912188Y-122221376D01*
X141748216Y-122153456D01*
X141600646Y-122054853D01*
X141475147Y-121929354D01*
X141376544Y-121781784D01*
X141308624Y-121617812D01*
X141274000Y-121443741D01*
X141274000Y-121266259D01*
X141308624Y-121092188D01*
X141376544Y-120928216D01*
X141475147Y-120780646D01*
X141600646Y-120655147D01*
X141748216Y-120556544D01*
X141912188Y-120488624D01*
X142061488Y-120458927D01*
X142086258Y-120454000D01*
X142263742Y-120454000D01*
X142288512Y-120458927D01*
G37*
G36*
X165148512Y-117918927D02*
G01*
X165297812Y-117948624D01*
X165461784Y-118016544D01*
X165609354Y-118115147D01*
X165734853Y-118240646D01*
X165833456Y-118388216D01*
X165901376Y-118552188D01*
X165936000Y-118726259D01*
X165936000Y-118903741D01*
X165901376Y-119077812D01*
X165833456Y-119241784D01*
X165734853Y-119389354D01*
X165609354Y-119514853D01*
X165461784Y-119613456D01*
X165297812Y-119681376D01*
X165148512Y-119711073D01*
X165123742Y-119716000D01*
X164946258Y-119716000D01*
X164921488Y-119711073D01*
X164772188Y-119681376D01*
X164608216Y-119613456D01*
X164460646Y-119514853D01*
X164335147Y-119389354D01*
X164236544Y-119241784D01*
X164168624Y-119077812D01*
X164134000Y-118903741D01*
X164134000Y-118726259D01*
X164168624Y-118552188D01*
X164236544Y-118388216D01*
X164335147Y-118240646D01*
X164460646Y-118115147D01*
X164608216Y-118016544D01*
X164772188Y-117948624D01*
X164921488Y-117918927D01*
X164946258Y-117914000D01*
X165123742Y-117914000D01*
X165148512Y-117918927D01*
G37*
G36*
X152448512Y-117918927D02*
G01*
X152597812Y-117948624D01*
X152761784Y-118016544D01*
X152909354Y-118115147D01*
X153034853Y-118240646D01*
X153133456Y-118388216D01*
X153201376Y-118552188D01*
X153236000Y-118726259D01*
X153236000Y-118903741D01*
X153201376Y-119077812D01*
X153133456Y-119241784D01*
X153034853Y-119389354D01*
X152909354Y-119514853D01*
X152761784Y-119613456D01*
X152597812Y-119681376D01*
X152448512Y-119711073D01*
X152423742Y-119716000D01*
X152246258Y-119716000D01*
X152221488Y-119711073D01*
X152072188Y-119681376D01*
X151908216Y-119613456D01*
X151760646Y-119514853D01*
X151635147Y-119389354D01*
X151536544Y-119241784D01*
X151468624Y-119077812D01*
X151434000Y-118903741D01*
X151434000Y-118726259D01*
X151468624Y-118552188D01*
X151536544Y-118388216D01*
X151635147Y-118240646D01*
X151760646Y-118115147D01*
X151908216Y-118016544D01*
X152072188Y-117948624D01*
X152221488Y-117918927D01*
X152246258Y-117914000D01*
X152423742Y-117914000D01*
X152448512Y-117918927D01*
G37*
G36*
X147368512Y-117918927D02*
G01*
X147517812Y-117948624D01*
X147681784Y-118016544D01*
X147829354Y-118115147D01*
X147954853Y-118240646D01*
X148053456Y-118388216D01*
X148121376Y-118552188D01*
X148156000Y-118726259D01*
X148156000Y-118903741D01*
X148121376Y-119077812D01*
X148053456Y-119241784D01*
X147954853Y-119389354D01*
X147829354Y-119514853D01*
X147681784Y-119613456D01*
X147517812Y-119681376D01*
X147368512Y-119711073D01*
X147343742Y-119716000D01*
X147166258Y-119716000D01*
X147141488Y-119711073D01*
X146992188Y-119681376D01*
X146828216Y-119613456D01*
X146680646Y-119514853D01*
X146555147Y-119389354D01*
X146456544Y-119241784D01*
X146388624Y-119077812D01*
X146354000Y-118903741D01*
X146354000Y-118726259D01*
X146388624Y-118552188D01*
X146456544Y-118388216D01*
X146555147Y-118240646D01*
X146680646Y-118115147D01*
X146828216Y-118016544D01*
X146992188Y-117948624D01*
X147141488Y-117918927D01*
X147166258Y-117914000D01*
X147343742Y-117914000D01*
X147368512Y-117918927D01*
G37*
G36*
X142288512Y-117918927D02*
G01*
X142437812Y-117948624D01*
X142601784Y-118016544D01*
X142749354Y-118115147D01*
X142874853Y-118240646D01*
X142973456Y-118388216D01*
X143041376Y-118552188D01*
X143076000Y-118726259D01*
X143076000Y-118903741D01*
X143041376Y-119077812D01*
X142973456Y-119241784D01*
X142874853Y-119389354D01*
X142749354Y-119514853D01*
X142601784Y-119613456D01*
X142437812Y-119681376D01*
X142288512Y-119711073D01*
X142263742Y-119716000D01*
X142086258Y-119716000D01*
X142061488Y-119711073D01*
X141912188Y-119681376D01*
X141748216Y-119613456D01*
X141600646Y-119514853D01*
X141475147Y-119389354D01*
X141376544Y-119241784D01*
X141308624Y-119077812D01*
X141274000Y-118903741D01*
X141274000Y-118726259D01*
X141308624Y-118552188D01*
X141376544Y-118388216D01*
X141475147Y-118240646D01*
X141600646Y-118115147D01*
X141748216Y-118016544D01*
X141912188Y-117948624D01*
X142061488Y-117918927D01*
X142086258Y-117914000D01*
X142263742Y-117914000D01*
X142288512Y-117918927D01*
G37*
G36*
X149908512Y-117918927D02*
G01*
X150057812Y-117948624D01*
X150221784Y-118016544D01*
X150369354Y-118115147D01*
X150494853Y-118240646D01*
X150593456Y-118388216D01*
X150661376Y-118552188D01*
X150696000Y-118726259D01*
X150696000Y-118903741D01*
X150661376Y-119077812D01*
X150593456Y-119241784D01*
X150494853Y-119389354D01*
X150369354Y-119514853D01*
X150221784Y-119613456D01*
X150057812Y-119681376D01*
X149908512Y-119711073D01*
X149883742Y-119716000D01*
X149706258Y-119716000D01*
X149681488Y-119711073D01*
X149532188Y-119681376D01*
X149368216Y-119613456D01*
X149220646Y-119514853D01*
X149095147Y-119389354D01*
X148996544Y-119241784D01*
X148928624Y-119077812D01*
X148894000Y-118903741D01*
X148894000Y-118726259D01*
X148928624Y-118552188D01*
X148996544Y-118388216D01*
X149095147Y-118240646D01*
X149220646Y-118115147D01*
X149368216Y-118016544D01*
X149532188Y-117948624D01*
X149681488Y-117918927D01*
X149706258Y-117914000D01*
X149883742Y-117914000D01*
X149908512Y-117918927D01*
G37*
G36*
X154988512Y-117918927D02*
G01*
X155137812Y-117948624D01*
X155301784Y-118016544D01*
X155449354Y-118115147D01*
X155574853Y-118240646D01*
X155673456Y-118388216D01*
X155741376Y-118552188D01*
X155776000Y-118726259D01*
X155776000Y-118903741D01*
X155741376Y-119077812D01*
X155673456Y-119241784D01*
X155574853Y-119389354D01*
X155449354Y-119514853D01*
X155301784Y-119613456D01*
X155137812Y-119681376D01*
X154988512Y-119711073D01*
X154963742Y-119716000D01*
X154786258Y-119716000D01*
X154761488Y-119711073D01*
X154612188Y-119681376D01*
X154448216Y-119613456D01*
X154300646Y-119514853D01*
X154175147Y-119389354D01*
X154076544Y-119241784D01*
X154008624Y-119077812D01*
X153974000Y-118903741D01*
X153974000Y-118726259D01*
X154008624Y-118552188D01*
X154076544Y-118388216D01*
X154175147Y-118240646D01*
X154300646Y-118115147D01*
X154448216Y-118016544D01*
X154612188Y-117948624D01*
X154761488Y-117918927D01*
X154786258Y-117914000D01*
X154963742Y-117914000D01*
X154988512Y-117918927D01*
G37*
G36*
X157528512Y-117918927D02*
G01*
X157677812Y-117948624D01*
X157841784Y-118016544D01*
X157989354Y-118115147D01*
X158114853Y-118240646D01*
X158213456Y-118388216D01*
X158281376Y-118552188D01*
X158316000Y-118726259D01*
X158316000Y-118903741D01*
X158281376Y-119077812D01*
X158213456Y-119241784D01*
X158114853Y-119389354D01*
X157989354Y-119514853D01*
X157841784Y-119613456D01*
X157677812Y-119681376D01*
X157528512Y-119711073D01*
X157503742Y-119716000D01*
X157326258Y-119716000D01*
X157301488Y-119711073D01*
X157152188Y-119681376D01*
X156988216Y-119613456D01*
X156840646Y-119514853D01*
X156715147Y-119389354D01*
X156616544Y-119241784D01*
X156548624Y-119077812D01*
X156514000Y-118903741D01*
X156514000Y-118726259D01*
X156548624Y-118552188D01*
X156616544Y-118388216D01*
X156715147Y-118240646D01*
X156840646Y-118115147D01*
X156988216Y-118016544D01*
X157152188Y-117948624D01*
X157301488Y-117918927D01*
X157326258Y-117914000D01*
X157503742Y-117914000D01*
X157528512Y-117918927D01*
G37*
G36*
X144828512Y-117918927D02*
G01*
X144977812Y-117948624D01*
X145141784Y-118016544D01*
X145289354Y-118115147D01*
X145414853Y-118240646D01*
X145513456Y-118388216D01*
X145581376Y-118552188D01*
X145616000Y-118726259D01*
X145616000Y-118903741D01*
X145581376Y-119077812D01*
X145513456Y-119241784D01*
X145414853Y-119389354D01*
X145289354Y-119514853D01*
X145141784Y-119613456D01*
X144977812Y-119681376D01*
X144828512Y-119711073D01*
X144803742Y-119716000D01*
X144626258Y-119716000D01*
X144601488Y-119711073D01*
X144452188Y-119681376D01*
X144288216Y-119613456D01*
X144140646Y-119514853D01*
X144015147Y-119389354D01*
X143916544Y-119241784D01*
X143848624Y-119077812D01*
X143814000Y-118903741D01*
X143814000Y-118726259D01*
X143848624Y-118552188D01*
X143916544Y-118388216D01*
X144015147Y-118240646D01*
X144140646Y-118115147D01*
X144288216Y-118016544D01*
X144452188Y-117948624D01*
X144601488Y-117918927D01*
X144626258Y-117914000D01*
X144803742Y-117914000D01*
X144828512Y-117918927D01*
G37*
G36*
X160068512Y-117918927D02*
G01*
X160217812Y-117948624D01*
X160381784Y-118016544D01*
X160529354Y-118115147D01*
X160654853Y-118240646D01*
X160753456Y-118388216D01*
X160821376Y-118552188D01*
X160856000Y-118726259D01*
X160856000Y-118903741D01*
X160821376Y-119077812D01*
X160753456Y-119241784D01*
X160654853Y-119389354D01*
X160529354Y-119514853D01*
X160381784Y-119613456D01*
X160217812Y-119681376D01*
X160068512Y-119711073D01*
X160043742Y-119716000D01*
X159866258Y-119716000D01*
X159841488Y-119711073D01*
X159692188Y-119681376D01*
X159528216Y-119613456D01*
X159380646Y-119514853D01*
X159255147Y-119389354D01*
X159156544Y-119241784D01*
X159088624Y-119077812D01*
X159054000Y-118903741D01*
X159054000Y-118726259D01*
X159088624Y-118552188D01*
X159156544Y-118388216D01*
X159255147Y-118240646D01*
X159380646Y-118115147D01*
X159528216Y-118016544D01*
X159692188Y-117948624D01*
X159841488Y-117918927D01*
X159866258Y-117914000D01*
X160043742Y-117914000D01*
X160068512Y-117918927D01*
G37*
G36*
X162608512Y-117918927D02*
G01*
X162757812Y-117948624D01*
X162921784Y-118016544D01*
X163069354Y-118115147D01*
X163194853Y-118240646D01*
X163293456Y-118388216D01*
X163361376Y-118552188D01*
X163396000Y-118726259D01*
X163396000Y-118903741D01*
X163361376Y-119077812D01*
X163293456Y-119241784D01*
X163194853Y-119389354D01*
X163069354Y-119514853D01*
X162921784Y-119613456D01*
X162757812Y-119681376D01*
X162608512Y-119711073D01*
X162583742Y-119716000D01*
X162406258Y-119716000D01*
X162381488Y-119711073D01*
X162232188Y-119681376D01*
X162068216Y-119613456D01*
X161920646Y-119514853D01*
X161795147Y-119389354D01*
X161696544Y-119241784D01*
X161628624Y-119077812D01*
X161594000Y-118903741D01*
X161594000Y-118726259D01*
X161628624Y-118552188D01*
X161696544Y-118388216D01*
X161795147Y-118240646D01*
X161920646Y-118115147D01*
X162068216Y-118016544D01*
X162232188Y-117948624D01*
X162381488Y-117918927D01*
X162406258Y-117914000D01*
X162583742Y-117914000D01*
X162608512Y-117918927D01*
G37*
G36*
X167688512Y-117918927D02*
G01*
X167837812Y-117948624D01*
X168001784Y-118016544D01*
X168149354Y-118115147D01*
X168274853Y-118240646D01*
X168373456Y-118388216D01*
X168441376Y-118552188D01*
X168476000Y-118726259D01*
X168476000Y-118903741D01*
X168441376Y-119077812D01*
X168373456Y-119241784D01*
X168274853Y-119389354D01*
X168149354Y-119514853D01*
X168001784Y-119613456D01*
X167837812Y-119681376D01*
X167688512Y-119711073D01*
X167663742Y-119716000D01*
X167486258Y-119716000D01*
X167461488Y-119711073D01*
X167312188Y-119681376D01*
X167148216Y-119613456D01*
X167000646Y-119514853D01*
X166875147Y-119389354D01*
X166776544Y-119241784D01*
X166708624Y-119077812D01*
X166674000Y-118903741D01*
X166674000Y-118726259D01*
X166708624Y-118552188D01*
X166776544Y-118388216D01*
X166875147Y-118240646D01*
X167000646Y-118115147D01*
X167148216Y-118016544D01*
X167312188Y-117948624D01*
X167461488Y-117918927D01*
X167486258Y-117914000D01*
X167663742Y-117914000D01*
X167688512Y-117918927D01*
G37*
G36*
X170228512Y-117918927D02*
G01*
X170377812Y-117948624D01*
X170541784Y-118016544D01*
X170689354Y-118115147D01*
X170814853Y-118240646D01*
X170913456Y-118388216D01*
X170981376Y-118552188D01*
X171016000Y-118726259D01*
X171016000Y-118903741D01*
X170981376Y-119077812D01*
X170913456Y-119241784D01*
X170814853Y-119389354D01*
X170689354Y-119514853D01*
X170541784Y-119613456D01*
X170377812Y-119681376D01*
X170228512Y-119711073D01*
X170203742Y-119716000D01*
X170026258Y-119716000D01*
X170001488Y-119711073D01*
X169852188Y-119681376D01*
X169688216Y-119613456D01*
X169540646Y-119514853D01*
X169415147Y-119389354D01*
X169316544Y-119241784D01*
X169248624Y-119077812D01*
X169214000Y-118903741D01*
X169214000Y-118726259D01*
X169248624Y-118552188D01*
X169316544Y-118388216D01*
X169415147Y-118240646D01*
X169540646Y-118115147D01*
X169688216Y-118016544D01*
X169852188Y-117948624D01*
X170001488Y-117918927D01*
X170026258Y-117914000D01*
X170203742Y-117914000D01*
X170228512Y-117918927D01*
G37*
G36*
X175241000Y-116121000D02*
G01*
X172739000Y-116121000D01*
X172739000Y-113619000D01*
X175241000Y-113619000D01*
X175241000Y-116121000D01*
G37*
G36*
X163702724Y-113186497D02*
G01*
X163929906Y-113231686D01*
X164179412Y-113335035D01*
X164403962Y-113485075D01*
X164594925Y-113676038D01*
X164744965Y-113900588D01*
X164848314Y-114150094D01*
X164901000Y-114414968D01*
X164901000Y-114685032D01*
X164848314Y-114949906D01*
X164744965Y-115199412D01*
X164594925Y-115423962D01*
X164403962Y-115614925D01*
X164179412Y-115764965D01*
X163929906Y-115868314D01*
X163702724Y-115913503D01*
X163665033Y-115921000D01*
X163394967Y-115921000D01*
X163357276Y-115913503D01*
X163130094Y-115868314D01*
X162880588Y-115764965D01*
X162656038Y-115614925D01*
X162465075Y-115423962D01*
X162315035Y-115199412D01*
X162211686Y-114949906D01*
X162159000Y-114685032D01*
X162159000Y-114414968D01*
X162211686Y-114150094D01*
X162315035Y-113900588D01*
X162465075Y-113676038D01*
X162656038Y-113485075D01*
X162880588Y-113335035D01*
X163130094Y-113231686D01*
X163357276Y-113186497D01*
X163394967Y-113179000D01*
X163665033Y-113179000D01*
X163702724Y-113186497D01*
G37*
G36*
X174354903Y-110167075D02*
G01*
X174582571Y-110261378D01*
X174787466Y-110398285D01*
X174961715Y-110572534D01*
X175098622Y-110777429D01*
X175192925Y-111005097D01*
X175241000Y-111246787D01*
X175241000Y-111493213D01*
X175192925Y-111734903D01*
X175098622Y-111962571D01*
X174961715Y-112167466D01*
X174787466Y-112341715D01*
X174582571Y-112478622D01*
X174582570Y-112478623D01*
X174582569Y-112478623D01*
X174354903Y-112572925D01*
X174113214Y-112621000D01*
X173866786Y-112621000D01*
X173625097Y-112572925D01*
X173397431Y-112478623D01*
X173397430Y-112478623D01*
X173397429Y-112478622D01*
X173192534Y-112341715D01*
X173018285Y-112167466D01*
X172881378Y-111962571D01*
X172787075Y-111734903D01*
X172739000Y-111493213D01*
X172739000Y-111246787D01*
X172787075Y-111005097D01*
X172881378Y-110777429D01*
X173018285Y-110572534D01*
X173192534Y-110398285D01*
X173397429Y-110261378D01*
X173625097Y-110167075D01*
X173866786Y-110119000D01*
X174113214Y-110119000D01*
X174354903Y-110167075D01*
G37*
G36*
X108698512Y-110333927D02*
G01*
X108847812Y-110363624D01*
X109011784Y-110431544D01*
X109159354Y-110530147D01*
X109284853Y-110655646D01*
X109383456Y-110803216D01*
X109451376Y-110967188D01*
X109486000Y-111141259D01*
X109486000Y-111318741D01*
X109451376Y-111492812D01*
X109383456Y-111656784D01*
X109284853Y-111804354D01*
X109159354Y-111929853D01*
X109011784Y-112028456D01*
X108847812Y-112096376D01*
X108698512Y-112126073D01*
X108673742Y-112131000D01*
X108496258Y-112131000D01*
X108471488Y-112126073D01*
X108322188Y-112096376D01*
X108158216Y-112028456D01*
X108010646Y-111929853D01*
X107885147Y-111804354D01*
X107786544Y-111656784D01*
X107718624Y-111492812D01*
X107684000Y-111318741D01*
X107684000Y-111141259D01*
X107718624Y-110967188D01*
X107786544Y-110803216D01*
X107885147Y-110655646D01*
X108010646Y-110530147D01*
X108158216Y-110431544D01*
X108322188Y-110363624D01*
X108471488Y-110333927D01*
X108496258Y-110329000D01*
X108673742Y-110329000D01*
X108698512Y-110333927D01*
G37*
G36*
X166596564Y-107544389D02*
G01*
X166787833Y-107623615D01*
X166787835Y-107623616D01*
X166959973Y-107738635D01*
X167106365Y-107885027D01*
X167178653Y-107993213D01*
X167221385Y-108057167D01*
X167300611Y-108248436D01*
X167341000Y-108451484D01*
X167341000Y-108658516D01*
X167300611Y-108861564D01*
X167221385Y-109052833D01*
X167221384Y-109052835D01*
X167106365Y-109224973D01*
X166959973Y-109371365D01*
X166787835Y-109486384D01*
X166787834Y-109486385D01*
X166787833Y-109486385D01*
X166596564Y-109565611D01*
X166393516Y-109606000D01*
X166186484Y-109606000D01*
X165983436Y-109565611D01*
X165792167Y-109486385D01*
X165792166Y-109486385D01*
X165792165Y-109486384D01*
X165620027Y-109371365D01*
X165473635Y-109224973D01*
X165358616Y-109052835D01*
X165358615Y-109052833D01*
X165279389Y-108861564D01*
X165239000Y-108658516D01*
X165239000Y-108451484D01*
X165279389Y-108248436D01*
X165358615Y-108057167D01*
X165401348Y-107993213D01*
X165473635Y-107885027D01*
X165620027Y-107738635D01*
X165792165Y-107623616D01*
X165792167Y-107623615D01*
X165983436Y-107544389D01*
X166186484Y-107504000D01*
X166393516Y-107504000D01*
X166596564Y-107544389D01*
G37*
G36*
X114606564Y-107544389D02*
G01*
X114797833Y-107623615D01*
X114797835Y-107623616D01*
X114969973Y-107738635D01*
X115116365Y-107885027D01*
X115188653Y-107993213D01*
X115231385Y-108057167D01*
X115310611Y-108248436D01*
X115351000Y-108451484D01*
X115351000Y-108658516D01*
X115310611Y-108861564D01*
X115231385Y-109052833D01*
X115231384Y-109052835D01*
X115116365Y-109224973D01*
X114969973Y-109371365D01*
X114797835Y-109486384D01*
X114797834Y-109486385D01*
X114797833Y-109486385D01*
X114606564Y-109565611D01*
X114403516Y-109606000D01*
X114196484Y-109606000D01*
X113993436Y-109565611D01*
X113802167Y-109486385D01*
X113802166Y-109486385D01*
X113802165Y-109486384D01*
X113630027Y-109371365D01*
X113483635Y-109224973D01*
X113368616Y-109052835D01*
X113368615Y-109052833D01*
X113289389Y-108861564D01*
X113249000Y-108658516D01*
X113249000Y-108451484D01*
X113289389Y-108248436D01*
X113368615Y-108057167D01*
X113411348Y-107993213D01*
X113483635Y-107885027D01*
X113630027Y-107738635D01*
X113802165Y-107623616D01*
X113802167Y-107623615D01*
X113993436Y-107544389D01*
X114196484Y-107504000D01*
X114403516Y-107504000D01*
X114606564Y-107544389D01*
G37*
G36*
X174354903Y-106667075D02*
G01*
X174582571Y-106761378D01*
X174787466Y-106898285D01*
X174961715Y-107072534D01*
X174961716Y-107072536D01*
X175098623Y-107277431D01*
X175192925Y-107505097D01*
X175241000Y-107746786D01*
X175241000Y-107993214D01*
X175192925Y-108234903D01*
X175103215Y-108451484D01*
X175098622Y-108462571D01*
X174961715Y-108667466D01*
X174787466Y-108841715D01*
X174582571Y-108978622D01*
X174582570Y-108978623D01*
X174582569Y-108978623D01*
X174354903Y-109072925D01*
X174113214Y-109121000D01*
X173866786Y-109121000D01*
X173625097Y-109072925D01*
X173397431Y-108978623D01*
X173397430Y-108978623D01*
X173397429Y-108978622D01*
X173192534Y-108841715D01*
X173018285Y-108667466D01*
X172881378Y-108462571D01*
X172876786Y-108451484D01*
X172787075Y-108234903D01*
X172739000Y-107993214D01*
X172739000Y-107746786D01*
X172787075Y-107505097D01*
X172881377Y-107277431D01*
X173018284Y-107072536D01*
X173018285Y-107072534D01*
X173192534Y-106898285D01*
X173397429Y-106761378D01*
X173625097Y-106667075D01*
X173866786Y-106619000D01*
X174113214Y-106619000D01*
X174354903Y-106667075D01*
G37*
G36*
X167882585Y-102448802D02*
G01*
X168032410Y-102478604D01*
X168314674Y-102595521D01*
X168568705Y-102765259D01*
X168784741Y-102981295D01*
X168954479Y-103235326D01*
X169071396Y-103517590D01*
X169131000Y-103817240D01*
X169131000Y-104122760D01*
X169071396Y-104422410D01*
X168954479Y-104704674D01*
X168784741Y-104958705D01*
X168568705Y-105174741D01*
X168314674Y-105344479D01*
X168032410Y-105461396D01*
X167882585Y-105491198D01*
X167732761Y-105521000D01*
X167427239Y-105521000D01*
X167277415Y-105491198D01*
X167127590Y-105461396D01*
X166845326Y-105344479D01*
X166591295Y-105174741D01*
X166375259Y-104958705D01*
X166205521Y-104704674D01*
X166088604Y-104422410D01*
X166029000Y-104122760D01*
X166029000Y-103817240D01*
X166088604Y-103517590D01*
X166205521Y-103235326D01*
X166375259Y-102981295D01*
X166591295Y-102765259D01*
X166845326Y-102595521D01*
X167127590Y-102478604D01*
X167277415Y-102448802D01*
X167427239Y-102419000D01*
X167732761Y-102419000D01*
X167882585Y-102448802D01*
G37*
G36*
X117222724Y-101196497D02*
G01*
X117449906Y-101241686D01*
X117699412Y-101345035D01*
X117923962Y-101495075D01*
X118114925Y-101686038D01*
X118264965Y-101910588D01*
X118368314Y-102160094D01*
X118421000Y-102424968D01*
X118421000Y-102695032D01*
X118368314Y-102959906D01*
X118264965Y-103209412D01*
X118114925Y-103433962D01*
X117923962Y-103624925D01*
X117699412Y-103774965D01*
X117449906Y-103878314D01*
X117222724Y-103923503D01*
X117185033Y-103931000D01*
X116914967Y-103931000D01*
X116877276Y-103923503D01*
X116650094Y-103878314D01*
X116400588Y-103774965D01*
X116176038Y-103624925D01*
X115985075Y-103433962D01*
X115835035Y-103209412D01*
X115731686Y-102959906D01*
X115679000Y-102695032D01*
X115679000Y-102424968D01*
X115731686Y-102160094D01*
X115835035Y-101910588D01*
X115985075Y-101686038D01*
X116176038Y-101495075D01*
X116400588Y-101345035D01*
X116650094Y-101241686D01*
X116877276Y-101196497D01*
X116914967Y-101189000D01*
X117185033Y-101189000D01*
X117222724Y-101196497D01*
G37*
G36*
X163792724Y-95016497D02*
G01*
X164019906Y-95061686D01*
X164269412Y-95165035D01*
X164493962Y-95315075D01*
X164684925Y-95506038D01*
X164834965Y-95730588D01*
X164938314Y-95980094D01*
X164991000Y-96244968D01*
X164991000Y-96515032D01*
X164938314Y-96779906D01*
X164834965Y-97029412D01*
X164684925Y-97253962D01*
X164493962Y-97444925D01*
X164269412Y-97594965D01*
X164019906Y-97698314D01*
X163792724Y-97743503D01*
X163755033Y-97751000D01*
X163484967Y-97751000D01*
X163447276Y-97743503D01*
X163220094Y-97698314D01*
X162970588Y-97594965D01*
X162746038Y-97444925D01*
X162555075Y-97253962D01*
X162405035Y-97029412D01*
X162301686Y-96779906D01*
X162249000Y-96515032D01*
X162249000Y-96244968D01*
X162301686Y-95980094D01*
X162405035Y-95730588D01*
X162555075Y-95506038D01*
X162746038Y-95315075D01*
X162970588Y-95165035D01*
X163220094Y-95061686D01*
X163447276Y-95016497D01*
X163484967Y-95009000D01*
X163755033Y-95009000D01*
X163792724Y-95016497D01*
G37*
G36*
X117882585Y-93448802D02*
G01*
X118032410Y-93478604D01*
X118314674Y-93595521D01*
X118568705Y-93765259D01*
X118784741Y-93981295D01*
X118954479Y-94235326D01*
X119071396Y-94517590D01*
X119131000Y-94817240D01*
X119131000Y-95122760D01*
X119071396Y-95422410D01*
X118954479Y-95704674D01*
X118784741Y-95958705D01*
X118568705Y-96174741D01*
X118314674Y-96344479D01*
X118032410Y-96461396D01*
X117882585Y-96491198D01*
X117732761Y-96521000D01*
X117427239Y-96521000D01*
X117277415Y-96491198D01*
X117127590Y-96461396D01*
X116845326Y-96344479D01*
X116591295Y-96174741D01*
X116375259Y-95958705D01*
X116205521Y-95704674D01*
X116088604Y-95422410D01*
X116029000Y-95122760D01*
X116029000Y-94817240D01*
X116088604Y-94517590D01*
X116205521Y-94235326D01*
X116375259Y-93981295D01*
X116591295Y-93765259D01*
X116845326Y-93595521D01*
X117127590Y-93478604D01*
X117277415Y-93448802D01*
X117427239Y-93419000D01*
X117732761Y-93419000D01*
X117882585Y-93448802D01*
G37*
G36*
X175241000Y-92056000D02*
G01*
X172739000Y-92056000D01*
X172739000Y-89554000D01*
X175241000Y-89554000D01*
X175241000Y-92056000D01*
G37*
G36*
X166676564Y-89374389D02*
G01*
X166867833Y-89453615D01*
X166867835Y-89453616D01*
X167018070Y-89554000D01*
X167039973Y-89568635D01*
X167186365Y-89715027D01*
X167301385Y-89887167D01*
X167380611Y-90078436D01*
X167421000Y-90281484D01*
X167421000Y-90488516D01*
X167380611Y-90691564D01*
X167301385Y-90882833D01*
X167301384Y-90882835D01*
X167186365Y-91054973D01*
X167039973Y-91201365D01*
X166867835Y-91316384D01*
X166867834Y-91316385D01*
X166867833Y-91316385D01*
X166676564Y-91395611D01*
X166473516Y-91436000D01*
X166266484Y-91436000D01*
X166063436Y-91395611D01*
X165872167Y-91316385D01*
X165872166Y-91316385D01*
X165872165Y-91316384D01*
X165700027Y-91201365D01*
X165553635Y-91054973D01*
X165438616Y-90882835D01*
X165438615Y-90882833D01*
X165359389Y-90691564D01*
X165319000Y-90488516D01*
X165319000Y-90281484D01*
X165359389Y-90078436D01*
X165438615Y-89887167D01*
X165553635Y-89715027D01*
X165700027Y-89568635D01*
X165721930Y-89554000D01*
X165872165Y-89453616D01*
X165872167Y-89453615D01*
X166063436Y-89374389D01*
X166266484Y-89334000D01*
X166473516Y-89334000D01*
X166676564Y-89374389D01*
G37*
G36*
X114686564Y-89374389D02*
G01*
X114877833Y-89453615D01*
X114877835Y-89453616D01*
X115028070Y-89554000D01*
X115049973Y-89568635D01*
X115196365Y-89715027D01*
X115311385Y-89887167D01*
X115390611Y-90078436D01*
X115431000Y-90281484D01*
X115431000Y-90488516D01*
X115390611Y-90691564D01*
X115311385Y-90882833D01*
X115311384Y-90882835D01*
X115196365Y-91054973D01*
X115049973Y-91201365D01*
X114877835Y-91316384D01*
X114877834Y-91316385D01*
X114877833Y-91316385D01*
X114686564Y-91395611D01*
X114483516Y-91436000D01*
X114276484Y-91436000D01*
X114073436Y-91395611D01*
X113882167Y-91316385D01*
X113882166Y-91316385D01*
X113882165Y-91316384D01*
X113710027Y-91201365D01*
X113563635Y-91054973D01*
X113448616Y-90882835D01*
X113448615Y-90882833D01*
X113369389Y-90691564D01*
X113329000Y-90488516D01*
X113329000Y-90281484D01*
X113369389Y-90078436D01*
X113448615Y-89887167D01*
X113563635Y-89715027D01*
X113710027Y-89568635D01*
X113731930Y-89554000D01*
X113882165Y-89453616D01*
X113882167Y-89453615D01*
X114073436Y-89374389D01*
X114276484Y-89334000D01*
X114483516Y-89334000D01*
X114686564Y-89374389D01*
G37*
G36*
X174354903Y-86102075D02*
G01*
X174582571Y-86196378D01*
X174787466Y-86333285D01*
X174961715Y-86507534D01*
X175098622Y-86712429D01*
X175192925Y-86940097D01*
X175241000Y-87181787D01*
X175241000Y-87428213D01*
X175192925Y-87669903D01*
X175098622Y-87897571D01*
X174961715Y-88102466D01*
X174787466Y-88276715D01*
X174582571Y-88413622D01*
X174582570Y-88413623D01*
X174582569Y-88413623D01*
X174354903Y-88507925D01*
X174113214Y-88556000D01*
X173866786Y-88556000D01*
X173625097Y-88507925D01*
X173397431Y-88413623D01*
X173397430Y-88413623D01*
X173397429Y-88413622D01*
X173192534Y-88276715D01*
X173018285Y-88102466D01*
X172881378Y-87897571D01*
X172787075Y-87669903D01*
X172739000Y-87428213D01*
X172739000Y-87181787D01*
X172787075Y-86940097D01*
X172881378Y-86712429D01*
X173018285Y-86507534D01*
X173192534Y-86333285D01*
X173397429Y-86196378D01*
X173625097Y-86102075D01*
X173866786Y-86054000D01*
X174113214Y-86054000D01*
X174354903Y-86102075D01*
G37*
G36*
X117312724Y-83026497D02*
G01*
X117539906Y-83071686D01*
X117789412Y-83175035D01*
X118013962Y-83325075D01*
X118204925Y-83516038D01*
X118354965Y-83740588D01*
X118458314Y-83990094D01*
X118511000Y-84254968D01*
X118511000Y-84525032D01*
X118458314Y-84789906D01*
X118354965Y-85039412D01*
X118204925Y-85263962D01*
X118013962Y-85454925D01*
X117789412Y-85604965D01*
X117539906Y-85708314D01*
X117312724Y-85753503D01*
X117275033Y-85761000D01*
X117004967Y-85761000D01*
X116967276Y-85753503D01*
X116740094Y-85708314D01*
X116490588Y-85604965D01*
X116266038Y-85454925D01*
X116075075Y-85263962D01*
X115925035Y-85039412D01*
X115821686Y-84789906D01*
X115769000Y-84525032D01*
X115769000Y-84254968D01*
X115821686Y-83990094D01*
X115925035Y-83740588D01*
X116075075Y-83516038D01*
X116266038Y-83325075D01*
X116490588Y-83175035D01*
X116740094Y-83071686D01*
X116967276Y-83026497D01*
X117004967Y-83019000D01*
X117275033Y-83019000D01*
X117312724Y-83026497D01*
G37*
G36*
X174354903Y-82602075D02*
G01*
X174582571Y-82696378D01*
X174787466Y-82833285D01*
X174961715Y-83007534D01*
X175073636Y-83175035D01*
X175098623Y-83212431D01*
X175192925Y-83440097D01*
X175241000Y-83681787D01*
X175241000Y-83928213D01*
X175192925Y-84169903D01*
X175098622Y-84397571D01*
X174961715Y-84602466D01*
X174787466Y-84776715D01*
X174582571Y-84913622D01*
X174582570Y-84913623D01*
X174582569Y-84913623D01*
X174354903Y-85007925D01*
X174113214Y-85056000D01*
X173866786Y-85056000D01*
X173625097Y-85007925D01*
X173397431Y-84913623D01*
X173397430Y-84913623D01*
X173397429Y-84913622D01*
X173192534Y-84776715D01*
X173018285Y-84602466D01*
X172881378Y-84397571D01*
X172787075Y-84169903D01*
X172739000Y-83928213D01*
X172739000Y-83681787D01*
X172787075Y-83440097D01*
X172881377Y-83212431D01*
X172906364Y-83175035D01*
X173018285Y-83007534D01*
X173192534Y-82833285D01*
X173397429Y-82696378D01*
X173625097Y-82602075D01*
X173866786Y-82554000D01*
X174113214Y-82554000D01*
X174354903Y-82602075D01*
G37*
G36*
X160068512Y-79078927D02*
G01*
X160217812Y-79108624D01*
X160381784Y-79176544D01*
X160529354Y-79275147D01*
X160654853Y-79400646D01*
X160753456Y-79548216D01*
X160821376Y-79712188D01*
X160856000Y-79886259D01*
X160856000Y-80063741D01*
X160821376Y-80237812D01*
X160753456Y-80401784D01*
X160654853Y-80549354D01*
X160529354Y-80674853D01*
X160381784Y-80773456D01*
X160217812Y-80841376D01*
X160068512Y-80871073D01*
X160043742Y-80876000D01*
X159866258Y-80876000D01*
X159841488Y-80871073D01*
X159692188Y-80841376D01*
X159528216Y-80773456D01*
X159380646Y-80674853D01*
X159255147Y-80549354D01*
X159156544Y-80401784D01*
X159088624Y-80237812D01*
X159054000Y-80063741D01*
X159054000Y-79886259D01*
X159088624Y-79712188D01*
X159156544Y-79548216D01*
X159255147Y-79400646D01*
X159380646Y-79275147D01*
X159528216Y-79176544D01*
X159692188Y-79108624D01*
X159841488Y-79078927D01*
X159866258Y-79074000D01*
X160043742Y-79074000D01*
X160068512Y-79078927D01*
G37*
G36*
X167688512Y-79078927D02*
G01*
X167837812Y-79108624D01*
X168001784Y-79176544D01*
X168149354Y-79275147D01*
X168274853Y-79400646D01*
X168373456Y-79548216D01*
X168441376Y-79712188D01*
X168476000Y-79886259D01*
X168476000Y-80063741D01*
X168441376Y-80237812D01*
X168373456Y-80401784D01*
X168274853Y-80549354D01*
X168149354Y-80674853D01*
X168001784Y-80773456D01*
X167837812Y-80841376D01*
X167688512Y-80871073D01*
X167663742Y-80876000D01*
X167486258Y-80876000D01*
X167461488Y-80871073D01*
X167312188Y-80841376D01*
X167148216Y-80773456D01*
X167000646Y-80674853D01*
X166875147Y-80549354D01*
X166776544Y-80401784D01*
X166708624Y-80237812D01*
X166674000Y-80063741D01*
X166674000Y-79886259D01*
X166708624Y-79712188D01*
X166776544Y-79548216D01*
X166875147Y-79400646D01*
X167000646Y-79275147D01*
X167148216Y-79176544D01*
X167312188Y-79108624D01*
X167461488Y-79078927D01*
X167486258Y-79074000D01*
X167663742Y-79074000D01*
X167688512Y-79078927D01*
G37*
G36*
X165148512Y-79078927D02*
G01*
X165297812Y-79108624D01*
X165461784Y-79176544D01*
X165609354Y-79275147D01*
X165734853Y-79400646D01*
X165833456Y-79548216D01*
X165901376Y-79712188D01*
X165936000Y-79886259D01*
X165936000Y-80063741D01*
X165901376Y-80237812D01*
X165833456Y-80401784D01*
X165734853Y-80549354D01*
X165609354Y-80674853D01*
X165461784Y-80773456D01*
X165297812Y-80841376D01*
X165148512Y-80871073D01*
X165123742Y-80876000D01*
X164946258Y-80876000D01*
X164921488Y-80871073D01*
X164772188Y-80841376D01*
X164608216Y-80773456D01*
X164460646Y-80674853D01*
X164335147Y-80549354D01*
X164236544Y-80401784D01*
X164168624Y-80237812D01*
X164134000Y-80063741D01*
X164134000Y-79886259D01*
X164168624Y-79712188D01*
X164236544Y-79548216D01*
X164335147Y-79400646D01*
X164460646Y-79275147D01*
X164608216Y-79176544D01*
X164772188Y-79108624D01*
X164921488Y-79078927D01*
X164946258Y-79074000D01*
X165123742Y-79074000D01*
X165148512Y-79078927D01*
G37*
G36*
X162608512Y-79078927D02*
G01*
X162757812Y-79108624D01*
X162921784Y-79176544D01*
X163069354Y-79275147D01*
X163194853Y-79400646D01*
X163293456Y-79548216D01*
X163361376Y-79712188D01*
X163396000Y-79886259D01*
X163396000Y-80063741D01*
X163361376Y-80237812D01*
X163293456Y-80401784D01*
X163194853Y-80549354D01*
X163069354Y-80674853D01*
X162921784Y-80773456D01*
X162757812Y-80841376D01*
X162608512Y-80871073D01*
X162583742Y-80876000D01*
X162406258Y-80876000D01*
X162381488Y-80871073D01*
X162232188Y-80841376D01*
X162068216Y-80773456D01*
X161920646Y-80674853D01*
X161795147Y-80549354D01*
X161696544Y-80401784D01*
X161628624Y-80237812D01*
X161594000Y-80063741D01*
X161594000Y-79886259D01*
X161628624Y-79712188D01*
X161696544Y-79548216D01*
X161795147Y-79400646D01*
X161920646Y-79275147D01*
X162068216Y-79176544D01*
X162232188Y-79108624D01*
X162381488Y-79078927D01*
X162406258Y-79074000D01*
X162583742Y-79074000D01*
X162608512Y-79078927D01*
G37*
G36*
X147368512Y-79078927D02*
G01*
X147517812Y-79108624D01*
X147681784Y-79176544D01*
X147829354Y-79275147D01*
X147954853Y-79400646D01*
X148053456Y-79548216D01*
X148121376Y-79712188D01*
X148156000Y-79886259D01*
X148156000Y-80063741D01*
X148121376Y-80237812D01*
X148053456Y-80401784D01*
X147954853Y-80549354D01*
X147829354Y-80674853D01*
X147681784Y-80773456D01*
X147517812Y-80841376D01*
X147368512Y-80871073D01*
X147343742Y-80876000D01*
X147166258Y-80876000D01*
X147141488Y-80871073D01*
X146992188Y-80841376D01*
X146828216Y-80773456D01*
X146680646Y-80674853D01*
X146555147Y-80549354D01*
X146456544Y-80401784D01*
X146388624Y-80237812D01*
X146354000Y-80063741D01*
X146354000Y-79886259D01*
X146388624Y-79712188D01*
X146456544Y-79548216D01*
X146555147Y-79400646D01*
X146680646Y-79275147D01*
X146828216Y-79176544D01*
X146992188Y-79108624D01*
X147141488Y-79078927D01*
X147166258Y-79074000D01*
X147343742Y-79074000D01*
X147368512Y-79078927D01*
G37*
G36*
X157528512Y-79078927D02*
G01*
X157677812Y-79108624D01*
X157841784Y-79176544D01*
X157989354Y-79275147D01*
X158114853Y-79400646D01*
X158213456Y-79548216D01*
X158281376Y-79712188D01*
X158316000Y-79886259D01*
X158316000Y-80063741D01*
X158281376Y-80237812D01*
X158213456Y-80401784D01*
X158114853Y-80549354D01*
X157989354Y-80674853D01*
X157841784Y-80773456D01*
X157677812Y-80841376D01*
X157528512Y-80871073D01*
X157503742Y-80876000D01*
X157326258Y-80876000D01*
X157301488Y-80871073D01*
X157152188Y-80841376D01*
X156988216Y-80773456D01*
X156840646Y-80674853D01*
X156715147Y-80549354D01*
X156616544Y-80401784D01*
X156548624Y-80237812D01*
X156514000Y-80063741D01*
X156514000Y-79886259D01*
X156548624Y-79712188D01*
X156616544Y-79548216D01*
X156715147Y-79400646D01*
X156840646Y-79275147D01*
X156988216Y-79176544D01*
X157152188Y-79108624D01*
X157301488Y-79078927D01*
X157326258Y-79074000D01*
X157503742Y-79074000D01*
X157528512Y-79078927D01*
G37*
G36*
X154988512Y-79078927D02*
G01*
X155137812Y-79108624D01*
X155301784Y-79176544D01*
X155449354Y-79275147D01*
X155574853Y-79400646D01*
X155673456Y-79548216D01*
X155741376Y-79712188D01*
X155776000Y-79886259D01*
X155776000Y-80063741D01*
X155741376Y-80237812D01*
X155673456Y-80401784D01*
X155574853Y-80549354D01*
X155449354Y-80674853D01*
X155301784Y-80773456D01*
X155137812Y-80841376D01*
X154988512Y-80871073D01*
X154963742Y-80876000D01*
X154786258Y-80876000D01*
X154761488Y-80871073D01*
X154612188Y-80841376D01*
X154448216Y-80773456D01*
X154300646Y-80674853D01*
X154175147Y-80549354D01*
X154076544Y-80401784D01*
X154008624Y-80237812D01*
X153974000Y-80063741D01*
X153974000Y-79886259D01*
X154008624Y-79712188D01*
X154076544Y-79548216D01*
X154175147Y-79400646D01*
X154300646Y-79275147D01*
X154448216Y-79176544D01*
X154612188Y-79108624D01*
X154761488Y-79078927D01*
X154786258Y-79074000D01*
X154963742Y-79074000D01*
X154988512Y-79078927D01*
G37*
G36*
X152448512Y-79078927D02*
G01*
X152597812Y-79108624D01*
X152761784Y-79176544D01*
X152909354Y-79275147D01*
X153034853Y-79400646D01*
X153133456Y-79548216D01*
X153201376Y-79712188D01*
X153236000Y-79886259D01*
X153236000Y-80063741D01*
X153201376Y-80237812D01*
X153133456Y-80401784D01*
X153034853Y-80549354D01*
X152909354Y-80674853D01*
X152761784Y-80773456D01*
X152597812Y-80841376D01*
X152448512Y-80871073D01*
X152423742Y-80876000D01*
X152246258Y-80876000D01*
X152221488Y-80871073D01*
X152072188Y-80841376D01*
X151908216Y-80773456D01*
X151760646Y-80674853D01*
X151635147Y-80549354D01*
X151536544Y-80401784D01*
X151468624Y-80237812D01*
X151434000Y-80063741D01*
X151434000Y-79886259D01*
X151468624Y-79712188D01*
X151536544Y-79548216D01*
X151635147Y-79400646D01*
X151760646Y-79275147D01*
X151908216Y-79176544D01*
X152072188Y-79108624D01*
X152221488Y-79078927D01*
X152246258Y-79074000D01*
X152423742Y-79074000D01*
X152448512Y-79078927D01*
G37*
G36*
X144828512Y-79078927D02*
G01*
X144977812Y-79108624D01*
X145141784Y-79176544D01*
X145289354Y-79275147D01*
X145414853Y-79400646D01*
X145513456Y-79548216D01*
X145581376Y-79712188D01*
X145616000Y-79886259D01*
X145616000Y-80063741D01*
X145581376Y-80237812D01*
X145513456Y-80401784D01*
X145414853Y-80549354D01*
X145289354Y-80674853D01*
X145141784Y-80773456D01*
X144977812Y-80841376D01*
X144828512Y-80871073D01*
X144803742Y-80876000D01*
X144626258Y-80876000D01*
X144601488Y-80871073D01*
X144452188Y-80841376D01*
X144288216Y-80773456D01*
X144140646Y-80674853D01*
X144015147Y-80549354D01*
X143916544Y-80401784D01*
X143848624Y-80237812D01*
X143814000Y-80063741D01*
X143814000Y-79886259D01*
X143848624Y-79712188D01*
X143916544Y-79548216D01*
X144015147Y-79400646D01*
X144140646Y-79275147D01*
X144288216Y-79176544D01*
X144452188Y-79108624D01*
X144601488Y-79078927D01*
X144626258Y-79074000D01*
X144803742Y-79074000D01*
X144828512Y-79078927D01*
G37*
G36*
X142288512Y-79078927D02*
G01*
X142437812Y-79108624D01*
X142601784Y-79176544D01*
X142749354Y-79275147D01*
X142874853Y-79400646D01*
X142973456Y-79548216D01*
X143041376Y-79712188D01*
X143076000Y-79886259D01*
X143076000Y-80063741D01*
X143041376Y-80237812D01*
X142973456Y-80401784D01*
X142874853Y-80549354D01*
X142749354Y-80674853D01*
X142601784Y-80773456D01*
X142437812Y-80841376D01*
X142288512Y-80871073D01*
X142263742Y-80876000D01*
X142086258Y-80876000D01*
X142061488Y-80871073D01*
X141912188Y-80841376D01*
X141748216Y-80773456D01*
X141600646Y-80674853D01*
X141475147Y-80549354D01*
X141376544Y-80401784D01*
X141308624Y-80237812D01*
X141274000Y-80063741D01*
X141274000Y-79886259D01*
X141308624Y-79712188D01*
X141376544Y-79548216D01*
X141475147Y-79400646D01*
X141600646Y-79275147D01*
X141748216Y-79176544D01*
X141912188Y-79108624D01*
X142061488Y-79078927D01*
X142086258Y-79074000D01*
X142263742Y-79074000D01*
X142288512Y-79078927D01*
G37*
G36*
X149908512Y-79078927D02*
G01*
X150057812Y-79108624D01*
X150221784Y-79176544D01*
X150369354Y-79275147D01*
X150494853Y-79400646D01*
X150593456Y-79548216D01*
X150661376Y-79712188D01*
X150696000Y-79886259D01*
X150696000Y-80063741D01*
X150661376Y-80237812D01*
X150593456Y-80401784D01*
X150494853Y-80549354D01*
X150369354Y-80674853D01*
X150221784Y-80773456D01*
X150057812Y-80841376D01*
X149908512Y-80871073D01*
X149883742Y-80876000D01*
X149706258Y-80876000D01*
X149681488Y-80871073D01*
X149532188Y-80841376D01*
X149368216Y-80773456D01*
X149220646Y-80674853D01*
X149095147Y-80549354D01*
X148996544Y-80401784D01*
X148928624Y-80237812D01*
X148894000Y-80063741D01*
X148894000Y-79886259D01*
X148928624Y-79712188D01*
X148996544Y-79548216D01*
X149095147Y-79400646D01*
X149220646Y-79275147D01*
X149368216Y-79176544D01*
X149532188Y-79108624D01*
X149681488Y-79078927D01*
X149706258Y-79074000D01*
X149883742Y-79074000D01*
X149908512Y-79078927D01*
G37*
G36*
X167688512Y-76538927D02*
G01*
X167837812Y-76568624D01*
X168001784Y-76636544D01*
X168149354Y-76735147D01*
X168274853Y-76860646D01*
X168373456Y-77008216D01*
X168441376Y-77172188D01*
X168476000Y-77346259D01*
X168476000Y-77523741D01*
X168441376Y-77697812D01*
X168373456Y-77861784D01*
X168274853Y-78009354D01*
X168149354Y-78134853D01*
X168001784Y-78233456D01*
X167837812Y-78301376D01*
X167688512Y-78331073D01*
X167663742Y-78336000D01*
X167486258Y-78336000D01*
X167461488Y-78331073D01*
X167312188Y-78301376D01*
X167148216Y-78233456D01*
X167000646Y-78134853D01*
X166875147Y-78009354D01*
X166776544Y-77861784D01*
X166708624Y-77697812D01*
X166674000Y-77523741D01*
X166674000Y-77346259D01*
X166708624Y-77172188D01*
X166776544Y-77008216D01*
X166875147Y-76860646D01*
X167000646Y-76735147D01*
X167148216Y-76636544D01*
X167312188Y-76568624D01*
X167461488Y-76538927D01*
X167486258Y-76534000D01*
X167663742Y-76534000D01*
X167688512Y-76538927D01*
G37*
G36*
X149908512Y-76538927D02*
G01*
X150057812Y-76568624D01*
X150221784Y-76636544D01*
X150369354Y-76735147D01*
X150494853Y-76860646D01*
X150593456Y-77008216D01*
X150661376Y-77172188D01*
X150696000Y-77346259D01*
X150696000Y-77523741D01*
X150661376Y-77697812D01*
X150593456Y-77861784D01*
X150494853Y-78009354D01*
X150369354Y-78134853D01*
X150221784Y-78233456D01*
X150057812Y-78301376D01*
X149908512Y-78331073D01*
X149883742Y-78336000D01*
X149706258Y-78336000D01*
X149681488Y-78331073D01*
X149532188Y-78301376D01*
X149368216Y-78233456D01*
X149220646Y-78134853D01*
X149095147Y-78009354D01*
X148996544Y-77861784D01*
X148928624Y-77697812D01*
X148894000Y-77523741D01*
X148894000Y-77346259D01*
X148928624Y-77172188D01*
X148996544Y-77008216D01*
X149095147Y-76860646D01*
X149220646Y-76735147D01*
X149368216Y-76636544D01*
X149532188Y-76568624D01*
X149681488Y-76538927D01*
X149706258Y-76534000D01*
X149883742Y-76534000D01*
X149908512Y-76538927D01*
G37*
G36*
X147368512Y-76538927D02*
G01*
X147517812Y-76568624D01*
X147681784Y-76636544D01*
X147829354Y-76735147D01*
X147954853Y-76860646D01*
X148053456Y-77008216D01*
X148121376Y-77172188D01*
X148156000Y-77346259D01*
X148156000Y-77523741D01*
X148121376Y-77697812D01*
X148053456Y-77861784D01*
X147954853Y-78009354D01*
X147829354Y-78134853D01*
X147681784Y-78233456D01*
X147517812Y-78301376D01*
X147368512Y-78331073D01*
X147343742Y-78336000D01*
X147166258Y-78336000D01*
X147141488Y-78331073D01*
X146992188Y-78301376D01*
X146828216Y-78233456D01*
X146680646Y-78134853D01*
X146555147Y-78009354D01*
X146456544Y-77861784D01*
X146388624Y-77697812D01*
X146354000Y-77523741D01*
X146354000Y-77346259D01*
X146388624Y-77172188D01*
X146456544Y-77008216D01*
X146555147Y-76860646D01*
X146680646Y-76735147D01*
X146828216Y-76636544D01*
X146992188Y-76568624D01*
X147141488Y-76538927D01*
X147166258Y-76534000D01*
X147343742Y-76534000D01*
X147368512Y-76538927D01*
G37*
G36*
X142288512Y-76538927D02*
G01*
X142437812Y-76568624D01*
X142601784Y-76636544D01*
X142749354Y-76735147D01*
X142874853Y-76860646D01*
X142973456Y-77008216D01*
X143041376Y-77172188D01*
X143076000Y-77346259D01*
X143076000Y-77523741D01*
X143041376Y-77697812D01*
X142973456Y-77861784D01*
X142874853Y-78009354D01*
X142749354Y-78134853D01*
X142601784Y-78233456D01*
X142437812Y-78301376D01*
X142288512Y-78331073D01*
X142263742Y-78336000D01*
X142086258Y-78336000D01*
X142061488Y-78331073D01*
X141912188Y-78301376D01*
X141748216Y-78233456D01*
X141600646Y-78134853D01*
X141475147Y-78009354D01*
X141376544Y-77861784D01*
X141308624Y-77697812D01*
X141274000Y-77523741D01*
X141274000Y-77346259D01*
X141308624Y-77172188D01*
X141376544Y-77008216D01*
X141475147Y-76860646D01*
X141600646Y-76735147D01*
X141748216Y-76636544D01*
X141912188Y-76568624D01*
X142061488Y-76538927D01*
X142086258Y-76534000D01*
X142263742Y-76534000D01*
X142288512Y-76538927D01*
G37*
G36*
X157528512Y-76538927D02*
G01*
X157677812Y-76568624D01*
X157841784Y-76636544D01*
X157989354Y-76735147D01*
X158114853Y-76860646D01*
X158213456Y-77008216D01*
X158281376Y-77172188D01*
X158316000Y-77346259D01*
X158316000Y-77523741D01*
X158281376Y-77697812D01*
X158213456Y-77861784D01*
X158114853Y-78009354D01*
X157989354Y-78134853D01*
X157841784Y-78233456D01*
X157677812Y-78301376D01*
X157528512Y-78331073D01*
X157503742Y-78336000D01*
X157326258Y-78336000D01*
X157301488Y-78331073D01*
X157152188Y-78301376D01*
X156988216Y-78233456D01*
X156840646Y-78134853D01*
X156715147Y-78009354D01*
X156616544Y-77861784D01*
X156548624Y-77697812D01*
X156514000Y-77523741D01*
X156514000Y-77346259D01*
X156548624Y-77172188D01*
X156616544Y-77008216D01*
X156715147Y-76860646D01*
X156840646Y-76735147D01*
X156988216Y-76636544D01*
X157152188Y-76568624D01*
X157301488Y-76538927D01*
X157326258Y-76534000D01*
X157503742Y-76534000D01*
X157528512Y-76538927D01*
G37*
G36*
X154988512Y-76538927D02*
G01*
X155137812Y-76568624D01*
X155301784Y-76636544D01*
X155449354Y-76735147D01*
X155574853Y-76860646D01*
X155673456Y-77008216D01*
X155741376Y-77172188D01*
X155776000Y-77346259D01*
X155776000Y-77523741D01*
X155741376Y-77697812D01*
X155673456Y-77861784D01*
X155574853Y-78009354D01*
X155449354Y-78134853D01*
X155301784Y-78233456D01*
X155137812Y-78301376D01*
X154988512Y-78331073D01*
X154963742Y-78336000D01*
X154786258Y-78336000D01*
X154761488Y-78331073D01*
X154612188Y-78301376D01*
X154448216Y-78233456D01*
X154300646Y-78134853D01*
X154175147Y-78009354D01*
X154076544Y-77861784D01*
X154008624Y-77697812D01*
X153974000Y-77523741D01*
X153974000Y-77346259D01*
X154008624Y-77172188D01*
X154076544Y-77008216D01*
X154175147Y-76860646D01*
X154300646Y-76735147D01*
X154448216Y-76636544D01*
X154612188Y-76568624D01*
X154761488Y-76538927D01*
X154786258Y-76534000D01*
X154963742Y-76534000D01*
X154988512Y-76538927D01*
G37*
G36*
X152448512Y-76538927D02*
G01*
X152597812Y-76568624D01*
X152761784Y-76636544D01*
X152909354Y-76735147D01*
X153034853Y-76860646D01*
X153133456Y-77008216D01*
X153201376Y-77172188D01*
X153236000Y-77346259D01*
X153236000Y-77523741D01*
X153201376Y-77697812D01*
X153133456Y-77861784D01*
X153034853Y-78009354D01*
X152909354Y-78134853D01*
X152761784Y-78233456D01*
X152597812Y-78301376D01*
X152448512Y-78331073D01*
X152423742Y-78336000D01*
X152246258Y-78336000D01*
X152221488Y-78331073D01*
X152072188Y-78301376D01*
X151908216Y-78233456D01*
X151760646Y-78134853D01*
X151635147Y-78009354D01*
X151536544Y-77861784D01*
X151468624Y-77697812D01*
X151434000Y-77523741D01*
X151434000Y-77346259D01*
X151468624Y-77172188D01*
X151536544Y-77008216D01*
X151635147Y-76860646D01*
X151760646Y-76735147D01*
X151908216Y-76636544D01*
X152072188Y-76568624D01*
X152221488Y-76538927D01*
X152246258Y-76534000D01*
X152423742Y-76534000D01*
X152448512Y-76538927D01*
G37*
G36*
X160068512Y-76538927D02*
G01*
X160217812Y-76568624D01*
X160381784Y-76636544D01*
X160529354Y-76735147D01*
X160654853Y-76860646D01*
X160753456Y-77008216D01*
X160821376Y-77172188D01*
X160856000Y-77346259D01*
X160856000Y-77523741D01*
X160821376Y-77697812D01*
X160753456Y-77861784D01*
X160654853Y-78009354D01*
X160529354Y-78134853D01*
X160381784Y-78233456D01*
X160217812Y-78301376D01*
X160068512Y-78331073D01*
X160043742Y-78336000D01*
X159866258Y-78336000D01*
X159841488Y-78331073D01*
X159692188Y-78301376D01*
X159528216Y-78233456D01*
X159380646Y-78134853D01*
X159255147Y-78009354D01*
X159156544Y-77861784D01*
X159088624Y-77697812D01*
X159054000Y-77523741D01*
X159054000Y-77346259D01*
X159088624Y-77172188D01*
X159156544Y-77008216D01*
X159255147Y-76860646D01*
X159380646Y-76735147D01*
X159528216Y-76636544D01*
X159692188Y-76568624D01*
X159841488Y-76538927D01*
X159866258Y-76534000D01*
X160043742Y-76534000D01*
X160068512Y-76538927D01*
G37*
G36*
X162608512Y-76538927D02*
G01*
X162757812Y-76568624D01*
X162921784Y-76636544D01*
X163069354Y-76735147D01*
X163194853Y-76860646D01*
X163293456Y-77008216D01*
X163361376Y-77172188D01*
X163396000Y-77346259D01*
X163396000Y-77523741D01*
X163361376Y-77697812D01*
X163293456Y-77861784D01*
X163194853Y-78009354D01*
X163069354Y-78134853D01*
X162921784Y-78233456D01*
X162757812Y-78301376D01*
X162608512Y-78331073D01*
X162583742Y-78336000D01*
X162406258Y-78336000D01*
X162381488Y-78331073D01*
X162232188Y-78301376D01*
X162068216Y-78233456D01*
X161920646Y-78134853D01*
X161795147Y-78009354D01*
X161696544Y-77861784D01*
X161628624Y-77697812D01*
X161594000Y-77523741D01*
X161594000Y-77346259D01*
X161628624Y-77172188D01*
X161696544Y-77008216D01*
X161795147Y-76860646D01*
X161920646Y-76735147D01*
X162068216Y-76636544D01*
X162232188Y-76568624D01*
X162381488Y-76538927D01*
X162406258Y-76534000D01*
X162583742Y-76534000D01*
X162608512Y-76538927D01*
G37*
G36*
X165148512Y-76538927D02*
G01*
X165297812Y-76568624D01*
X165461784Y-76636544D01*
X165609354Y-76735147D01*
X165734853Y-76860646D01*
X165833456Y-77008216D01*
X165901376Y-77172188D01*
X165936000Y-77346259D01*
X165936000Y-77523741D01*
X165901376Y-77697812D01*
X165833456Y-77861784D01*
X165734853Y-78009354D01*
X165609354Y-78134853D01*
X165461784Y-78233456D01*
X165297812Y-78301376D01*
X165148512Y-78331073D01*
X165123742Y-78336000D01*
X164946258Y-78336000D01*
X164921488Y-78331073D01*
X164772188Y-78301376D01*
X164608216Y-78233456D01*
X164460646Y-78134853D01*
X164335147Y-78009354D01*
X164236544Y-77861784D01*
X164168624Y-77697812D01*
X164134000Y-77523741D01*
X164134000Y-77346259D01*
X164168624Y-77172188D01*
X164236544Y-77008216D01*
X164335147Y-76860646D01*
X164460646Y-76735147D01*
X164608216Y-76636544D01*
X164772188Y-76568624D01*
X164921488Y-76538927D01*
X164946258Y-76534000D01*
X165123742Y-76534000D01*
X165148512Y-76538927D01*
G37*
G36*
X144828512Y-76538927D02*
G01*
X144977812Y-76568624D01*
X145141784Y-76636544D01*
X145289354Y-76735147D01*
X145414853Y-76860646D01*
X145513456Y-77008216D01*
X145581376Y-77172188D01*
X145616000Y-77346259D01*
X145616000Y-77523741D01*
X145581376Y-77697812D01*
X145513456Y-77861784D01*
X145414853Y-78009354D01*
X145289354Y-78134853D01*
X145141784Y-78233456D01*
X144977812Y-78301376D01*
X144828512Y-78331073D01*
X144803742Y-78336000D01*
X144626258Y-78336000D01*
X144601488Y-78331073D01*
X144452188Y-78301376D01*
X144288216Y-78233456D01*
X144140646Y-78134853D01*
X144015147Y-78009354D01*
X143916544Y-77861784D01*
X143848624Y-77697812D01*
X143814000Y-77523741D01*
X143814000Y-77346259D01*
X143848624Y-77172188D01*
X143916544Y-77008216D01*
X144015147Y-76860646D01*
X144140646Y-76735147D01*
X144288216Y-76636544D01*
X144452188Y-76568624D01*
X144601488Y-76538927D01*
X144626258Y-76534000D01*
X144803742Y-76534000D01*
X144828512Y-76538927D01*
G37*
G36*
X110882585Y-73448802D02*
G01*
X111032410Y-73478604D01*
X111314674Y-73595521D01*
X111568705Y-73765259D01*
X111784741Y-73981295D01*
X111954479Y-74235326D01*
X112071396Y-74517590D01*
X112131000Y-74817240D01*
X112131000Y-75122760D01*
X112071396Y-75422410D01*
X111954479Y-75704674D01*
X111784741Y-75958705D01*
X111568705Y-76174741D01*
X111314674Y-76344479D01*
X111032410Y-76461396D01*
X110882585Y-76491198D01*
X110732761Y-76521000D01*
X110427239Y-76521000D01*
X110277415Y-76491198D01*
X110127590Y-76461396D01*
X109845326Y-76344479D01*
X109591295Y-76174741D01*
X109375259Y-75958705D01*
X109205521Y-75704674D01*
X109088604Y-75422410D01*
X109029000Y-75122760D01*
X109029000Y-74817240D01*
X109088604Y-74517590D01*
X109205521Y-74235326D01*
X109375259Y-73981295D01*
X109591295Y-73765259D01*
X109845326Y-73595521D01*
X110127590Y-73478604D01*
X110277415Y-73448802D01*
X110427239Y-73419000D01*
X110732761Y-73419000D01*
X110882585Y-73448802D01*
G37*
G36*
X174882585Y-73448802D02*
G01*
X175032410Y-73478604D01*
X175314674Y-73595521D01*
X175568705Y-73765259D01*
X175784741Y-73981295D01*
X175954479Y-74235326D01*
X176071396Y-74517590D01*
X176131000Y-74817240D01*
X176131000Y-75122760D01*
X176071396Y-75422410D01*
X175954479Y-75704674D01*
X175784741Y-75958705D01*
X175568705Y-76174741D01*
X175314674Y-76344479D01*
X175032410Y-76461396D01*
X174882585Y-76491198D01*
X174732761Y-76521000D01*
X174427239Y-76521000D01*
X174277415Y-76491198D01*
X174127590Y-76461396D01*
X173845326Y-76344479D01*
X173591295Y-76174741D01*
X173375259Y-75958705D01*
X173205521Y-75704674D01*
X173088604Y-75422410D01*
X173029000Y-75122760D01*
X173029000Y-74817240D01*
X173088604Y-74517590D01*
X173205521Y-74235326D01*
X173375259Y-73981295D01*
X173591295Y-73765259D01*
X173845326Y-73595521D01*
X174127590Y-73478604D01*
X174277415Y-73448802D01*
X174427239Y-73419000D01*
X174732761Y-73419000D01*
X174882585Y-73448802D01*
G37*
G36*
X165148512Y-73998927D02*
G01*
X165297812Y-74028624D01*
X165461784Y-74096544D01*
X165609354Y-74195147D01*
X165734853Y-74320646D01*
X165833456Y-74468216D01*
X165901376Y-74632188D01*
X165936000Y-74806259D01*
X165936000Y-74983741D01*
X165901376Y-75157812D01*
X165833456Y-75321784D01*
X165734853Y-75469354D01*
X165609354Y-75594853D01*
X165461784Y-75693456D01*
X165297812Y-75761376D01*
X165148512Y-75791073D01*
X165123742Y-75796000D01*
X164946258Y-75796000D01*
X164921488Y-75791073D01*
X164772188Y-75761376D01*
X164608216Y-75693456D01*
X164460646Y-75594853D01*
X164335147Y-75469354D01*
X164236544Y-75321784D01*
X164168624Y-75157812D01*
X164134000Y-74983741D01*
X164134000Y-74806259D01*
X164168624Y-74632188D01*
X164236544Y-74468216D01*
X164335147Y-74320646D01*
X164460646Y-74195147D01*
X164608216Y-74096544D01*
X164772188Y-74028624D01*
X164921488Y-73998927D01*
X164946258Y-73994000D01*
X165123742Y-73994000D01*
X165148512Y-73998927D01*
G37*
G36*
X162608512Y-73998927D02*
G01*
X162757812Y-74028624D01*
X162921784Y-74096544D01*
X163069354Y-74195147D01*
X163194853Y-74320646D01*
X163293456Y-74468216D01*
X163361376Y-74632188D01*
X163396000Y-74806259D01*
X163396000Y-74983741D01*
X163361376Y-75157812D01*
X163293456Y-75321784D01*
X163194853Y-75469354D01*
X163069354Y-75594853D01*
X162921784Y-75693456D01*
X162757812Y-75761376D01*
X162608512Y-75791073D01*
X162583742Y-75796000D01*
X162406258Y-75796000D01*
X162381488Y-75791073D01*
X162232188Y-75761376D01*
X162068216Y-75693456D01*
X161920646Y-75594853D01*
X161795147Y-75469354D01*
X161696544Y-75321784D01*
X161628624Y-75157812D01*
X161594000Y-74983741D01*
X161594000Y-74806259D01*
X161628624Y-74632188D01*
X161696544Y-74468216D01*
X161795147Y-74320646D01*
X161920646Y-74195147D01*
X162068216Y-74096544D01*
X162232188Y-74028624D01*
X162381488Y-73998927D01*
X162406258Y-73994000D01*
X162583742Y-73994000D01*
X162608512Y-73998927D01*
G37*
G36*
X160068512Y-73998927D02*
G01*
X160217812Y-74028624D01*
X160381784Y-74096544D01*
X160529354Y-74195147D01*
X160654853Y-74320646D01*
X160753456Y-74468216D01*
X160821376Y-74632188D01*
X160856000Y-74806259D01*
X160856000Y-74983741D01*
X160821376Y-75157812D01*
X160753456Y-75321784D01*
X160654853Y-75469354D01*
X160529354Y-75594853D01*
X160381784Y-75693456D01*
X160217812Y-75761376D01*
X160068512Y-75791073D01*
X160043742Y-75796000D01*
X159866258Y-75796000D01*
X159841488Y-75791073D01*
X159692188Y-75761376D01*
X159528216Y-75693456D01*
X159380646Y-75594853D01*
X159255147Y-75469354D01*
X159156544Y-75321784D01*
X159088624Y-75157812D01*
X159054000Y-74983741D01*
X159054000Y-74806259D01*
X159088624Y-74632188D01*
X159156544Y-74468216D01*
X159255147Y-74320646D01*
X159380646Y-74195147D01*
X159528216Y-74096544D01*
X159692188Y-74028624D01*
X159841488Y-73998927D01*
X159866258Y-73994000D01*
X160043742Y-73994000D01*
X160068512Y-73998927D01*
G37*
G36*
X157528512Y-73998927D02*
G01*
X157677812Y-74028624D01*
X157841784Y-74096544D01*
X157989354Y-74195147D01*
X158114853Y-74320646D01*
X158213456Y-74468216D01*
X158281376Y-74632188D01*
X158316000Y-74806259D01*
X158316000Y-74983741D01*
X158281376Y-75157812D01*
X158213456Y-75321784D01*
X158114853Y-75469354D01*
X157989354Y-75594853D01*
X157841784Y-75693456D01*
X157677812Y-75761376D01*
X157528512Y-75791073D01*
X157503742Y-75796000D01*
X157326258Y-75796000D01*
X157301488Y-75791073D01*
X157152188Y-75761376D01*
X156988216Y-75693456D01*
X156840646Y-75594853D01*
X156715147Y-75469354D01*
X156616544Y-75321784D01*
X156548624Y-75157812D01*
X156514000Y-74983741D01*
X156514000Y-74806259D01*
X156548624Y-74632188D01*
X156616544Y-74468216D01*
X156715147Y-74320646D01*
X156840646Y-74195147D01*
X156988216Y-74096544D01*
X157152188Y-74028624D01*
X157301488Y-73998927D01*
X157326258Y-73994000D01*
X157503742Y-73994000D01*
X157528512Y-73998927D01*
G37*
G36*
X154988512Y-73998927D02*
G01*
X155137812Y-74028624D01*
X155301784Y-74096544D01*
X155449354Y-74195147D01*
X155574853Y-74320646D01*
X155673456Y-74468216D01*
X155741376Y-74632188D01*
X155776000Y-74806259D01*
X155776000Y-74983741D01*
X155741376Y-75157812D01*
X155673456Y-75321784D01*
X155574853Y-75469354D01*
X155449354Y-75594853D01*
X155301784Y-75693456D01*
X155137812Y-75761376D01*
X154988512Y-75791073D01*
X154963742Y-75796000D01*
X154786258Y-75796000D01*
X154761488Y-75791073D01*
X154612188Y-75761376D01*
X154448216Y-75693456D01*
X154300646Y-75594853D01*
X154175147Y-75469354D01*
X154076544Y-75321784D01*
X154008624Y-75157812D01*
X153974000Y-74983741D01*
X153974000Y-74806259D01*
X154008624Y-74632188D01*
X154076544Y-74468216D01*
X154175147Y-74320646D01*
X154300646Y-74195147D01*
X154448216Y-74096544D01*
X154612188Y-74028624D01*
X154761488Y-73998927D01*
X154786258Y-73994000D01*
X154963742Y-73994000D01*
X154988512Y-73998927D01*
G37*
G36*
X149908512Y-73998927D02*
G01*
X150057812Y-74028624D01*
X150221784Y-74096544D01*
X150369354Y-74195147D01*
X150494853Y-74320646D01*
X150593456Y-74468216D01*
X150661376Y-74632188D01*
X150696000Y-74806259D01*
X150696000Y-74983741D01*
X150661376Y-75157812D01*
X150593456Y-75321784D01*
X150494853Y-75469354D01*
X150369354Y-75594853D01*
X150221784Y-75693456D01*
X150057812Y-75761376D01*
X149908512Y-75791073D01*
X149883742Y-75796000D01*
X149706258Y-75796000D01*
X149681488Y-75791073D01*
X149532188Y-75761376D01*
X149368216Y-75693456D01*
X149220646Y-75594853D01*
X149095147Y-75469354D01*
X148996544Y-75321784D01*
X148928624Y-75157812D01*
X148894000Y-74983741D01*
X148894000Y-74806259D01*
X148928624Y-74632188D01*
X148996544Y-74468216D01*
X149095147Y-74320646D01*
X149220646Y-74195147D01*
X149368216Y-74096544D01*
X149532188Y-74028624D01*
X149681488Y-73998927D01*
X149706258Y-73994000D01*
X149883742Y-73994000D01*
X149908512Y-73998927D01*
G37*
G36*
X144828512Y-73998927D02*
G01*
X144977812Y-74028624D01*
X145141784Y-74096544D01*
X145289354Y-74195147D01*
X145414853Y-74320646D01*
X145513456Y-74468216D01*
X145581376Y-74632188D01*
X145616000Y-74806259D01*
X145616000Y-74983741D01*
X145581376Y-75157812D01*
X145513456Y-75321784D01*
X145414853Y-75469354D01*
X145289354Y-75594853D01*
X145141784Y-75693456D01*
X144977812Y-75761376D01*
X144828512Y-75791073D01*
X144803742Y-75796000D01*
X144626258Y-75796000D01*
X144601488Y-75791073D01*
X144452188Y-75761376D01*
X144288216Y-75693456D01*
X144140646Y-75594853D01*
X144015147Y-75469354D01*
X143916544Y-75321784D01*
X143848624Y-75157812D01*
X143814000Y-74983741D01*
X143814000Y-74806259D01*
X143848624Y-74632188D01*
X143916544Y-74468216D01*
X144015147Y-74320646D01*
X144140646Y-74195147D01*
X144288216Y-74096544D01*
X144452188Y-74028624D01*
X144601488Y-73998927D01*
X144626258Y-73994000D01*
X144803742Y-73994000D01*
X144828512Y-73998927D01*
G37*
G36*
X167688512Y-73998927D02*
G01*
X167837812Y-74028624D01*
X168001784Y-74096544D01*
X168149354Y-74195147D01*
X168274853Y-74320646D01*
X168373456Y-74468216D01*
X168441376Y-74632188D01*
X168476000Y-74806259D01*
X168476000Y-74983741D01*
X168441376Y-75157812D01*
X168373456Y-75321784D01*
X168274853Y-75469354D01*
X168149354Y-75594853D01*
X168001784Y-75693456D01*
X167837812Y-75761376D01*
X167688512Y-75791073D01*
X167663742Y-75796000D01*
X167486258Y-75796000D01*
X167461488Y-75791073D01*
X167312188Y-75761376D01*
X167148216Y-75693456D01*
X167000646Y-75594853D01*
X166875147Y-75469354D01*
X166776544Y-75321784D01*
X166708624Y-75157812D01*
X166674000Y-74983741D01*
X166674000Y-74806259D01*
X166708624Y-74632188D01*
X166776544Y-74468216D01*
X166875147Y-74320646D01*
X167000646Y-74195147D01*
X167148216Y-74096544D01*
X167312188Y-74028624D01*
X167461488Y-73998927D01*
X167486258Y-73994000D01*
X167663742Y-73994000D01*
X167688512Y-73998927D01*
G37*
G36*
X142288512Y-73998927D02*
G01*
X142437812Y-74028624D01*
X142601784Y-74096544D01*
X142749354Y-74195147D01*
X142874853Y-74320646D01*
X142973456Y-74468216D01*
X143041376Y-74632188D01*
X143076000Y-74806259D01*
X143076000Y-74983741D01*
X143041376Y-75157812D01*
X142973456Y-75321784D01*
X142874853Y-75469354D01*
X142749354Y-75594853D01*
X142601784Y-75693456D01*
X142437812Y-75761376D01*
X142288512Y-75791073D01*
X142263742Y-75796000D01*
X142086258Y-75796000D01*
X142061488Y-75791073D01*
X141912188Y-75761376D01*
X141748216Y-75693456D01*
X141600646Y-75594853D01*
X141475147Y-75469354D01*
X141376544Y-75321784D01*
X141308624Y-75157812D01*
X141274000Y-74983741D01*
X141274000Y-74806259D01*
X141308624Y-74632188D01*
X141376544Y-74468216D01*
X141475147Y-74320646D01*
X141600646Y-74195147D01*
X141748216Y-74096544D01*
X141912188Y-74028624D01*
X142061488Y-73998927D01*
X142086258Y-73994000D01*
X142263742Y-73994000D01*
X142288512Y-73998927D01*
G37*
G36*
X147368512Y-73998927D02*
G01*
X147517812Y-74028624D01*
X147681784Y-74096544D01*
X147829354Y-74195147D01*
X147954853Y-74320646D01*
X148053456Y-74468216D01*
X148121376Y-74632188D01*
X148156000Y-74806259D01*
X148156000Y-74983741D01*
X148121376Y-75157812D01*
X148053456Y-75321784D01*
X147954853Y-75469354D01*
X147829354Y-75594853D01*
X147681784Y-75693456D01*
X147517812Y-75761376D01*
X147368512Y-75791073D01*
X147343742Y-75796000D01*
X147166258Y-75796000D01*
X147141488Y-75791073D01*
X146992188Y-75761376D01*
X146828216Y-75693456D01*
X146680646Y-75594853D01*
X146555147Y-75469354D01*
X146456544Y-75321784D01*
X146388624Y-75157812D01*
X146354000Y-74983741D01*
X146354000Y-74806259D01*
X146388624Y-74632188D01*
X146456544Y-74468216D01*
X146555147Y-74320646D01*
X146680646Y-74195147D01*
X146828216Y-74096544D01*
X146992188Y-74028624D01*
X147141488Y-73998927D01*
X147166258Y-73994000D01*
X147343742Y-73994000D01*
X147368512Y-73998927D01*
G37*
G36*
X152448512Y-73998927D02*
G01*
X152597812Y-74028624D01*
X152761784Y-74096544D01*
X152909354Y-74195147D01*
X153034853Y-74320646D01*
X153133456Y-74468216D01*
X153201376Y-74632188D01*
X153236000Y-74806259D01*
X153236000Y-74983741D01*
X153201376Y-75157812D01*
X153133456Y-75321784D01*
X153034853Y-75469354D01*
X152909354Y-75594853D01*
X152761784Y-75693456D01*
X152597812Y-75761376D01*
X152448512Y-75791073D01*
X152423742Y-75796000D01*
X152246258Y-75796000D01*
X152221488Y-75791073D01*
X152072188Y-75761376D01*
X151908216Y-75693456D01*
X151760646Y-75594853D01*
X151635147Y-75469354D01*
X151536544Y-75321784D01*
X151468624Y-75157812D01*
X151434000Y-74983741D01*
X151434000Y-74806259D01*
X151468624Y-74632188D01*
X151536544Y-74468216D01*
X151635147Y-74320646D01*
X151760646Y-74195147D01*
X151908216Y-74096544D01*
X152072188Y-74028624D01*
X152221488Y-73998927D01*
X152246258Y-73994000D01*
X152423742Y-73994000D01*
X152448512Y-73998927D01*
G37*
G36*
X147368512Y-71458927D02*
G01*
X147517812Y-71488624D01*
X147681784Y-71556544D01*
X147829354Y-71655147D01*
X147954853Y-71780646D01*
X148053456Y-71928216D01*
X148121376Y-72092188D01*
X148156000Y-72266259D01*
X148156000Y-72443741D01*
X148121376Y-72617812D01*
X148053456Y-72781784D01*
X147954853Y-72929354D01*
X147829354Y-73054853D01*
X147681784Y-73153456D01*
X147517812Y-73221376D01*
X147368512Y-73251073D01*
X147343742Y-73256000D01*
X147166258Y-73256000D01*
X147141488Y-73251073D01*
X146992188Y-73221376D01*
X146828216Y-73153456D01*
X146680646Y-73054853D01*
X146555147Y-72929354D01*
X146456544Y-72781784D01*
X146388624Y-72617812D01*
X146354000Y-72443741D01*
X146354000Y-72266259D01*
X146388624Y-72092188D01*
X146456544Y-71928216D01*
X146555147Y-71780646D01*
X146680646Y-71655147D01*
X146828216Y-71556544D01*
X146992188Y-71488624D01*
X147141488Y-71458927D01*
X147166258Y-71454000D01*
X147343742Y-71454000D01*
X147368512Y-71458927D01*
G37*
G36*
X160068512Y-71458927D02*
G01*
X160217812Y-71488624D01*
X160381784Y-71556544D01*
X160529354Y-71655147D01*
X160654853Y-71780646D01*
X160753456Y-71928216D01*
X160821376Y-72092188D01*
X160856000Y-72266259D01*
X160856000Y-72443741D01*
X160821376Y-72617812D01*
X160753456Y-72781784D01*
X160654853Y-72929354D01*
X160529354Y-73054853D01*
X160381784Y-73153456D01*
X160217812Y-73221376D01*
X160068512Y-73251073D01*
X160043742Y-73256000D01*
X159866258Y-73256000D01*
X159841488Y-73251073D01*
X159692188Y-73221376D01*
X159528216Y-73153456D01*
X159380646Y-73054853D01*
X159255147Y-72929354D01*
X159156544Y-72781784D01*
X159088624Y-72617812D01*
X159054000Y-72443741D01*
X159054000Y-72266259D01*
X159088624Y-72092188D01*
X159156544Y-71928216D01*
X159255147Y-71780646D01*
X159380646Y-71655147D01*
X159528216Y-71556544D01*
X159692188Y-71488624D01*
X159841488Y-71458927D01*
X159866258Y-71454000D01*
X160043742Y-71454000D01*
X160068512Y-71458927D01*
G37*
G36*
X162608512Y-71458927D02*
G01*
X162757812Y-71488624D01*
X162921784Y-71556544D01*
X163069354Y-71655147D01*
X163194853Y-71780646D01*
X163293456Y-71928216D01*
X163361376Y-72092188D01*
X163396000Y-72266259D01*
X163396000Y-72443741D01*
X163361376Y-72617812D01*
X163293456Y-72781784D01*
X163194853Y-72929354D01*
X163069354Y-73054853D01*
X162921784Y-73153456D01*
X162757812Y-73221376D01*
X162608512Y-73251073D01*
X162583742Y-73256000D01*
X162406258Y-73256000D01*
X162381488Y-73251073D01*
X162232188Y-73221376D01*
X162068216Y-73153456D01*
X161920646Y-73054853D01*
X161795147Y-72929354D01*
X161696544Y-72781784D01*
X161628624Y-72617812D01*
X161594000Y-72443741D01*
X161594000Y-72266259D01*
X161628624Y-72092188D01*
X161696544Y-71928216D01*
X161795147Y-71780646D01*
X161920646Y-71655147D01*
X162068216Y-71556544D01*
X162232188Y-71488624D01*
X162381488Y-71458927D01*
X162406258Y-71454000D01*
X162583742Y-71454000D01*
X162608512Y-71458927D01*
G37*
G36*
X144828512Y-71458927D02*
G01*
X144977812Y-71488624D01*
X145141784Y-71556544D01*
X145289354Y-71655147D01*
X145414853Y-71780646D01*
X145513456Y-71928216D01*
X145581376Y-72092188D01*
X145616000Y-72266259D01*
X145616000Y-72443741D01*
X145581376Y-72617812D01*
X145513456Y-72781784D01*
X145414853Y-72929354D01*
X145289354Y-73054853D01*
X145141784Y-73153456D01*
X144977812Y-73221376D01*
X144828512Y-73251073D01*
X144803742Y-73256000D01*
X144626258Y-73256000D01*
X144601488Y-73251073D01*
X144452188Y-73221376D01*
X144288216Y-73153456D01*
X144140646Y-73054853D01*
X144015147Y-72929354D01*
X143916544Y-72781784D01*
X143848624Y-72617812D01*
X143814000Y-72443741D01*
X143814000Y-72266259D01*
X143848624Y-72092188D01*
X143916544Y-71928216D01*
X144015147Y-71780646D01*
X144140646Y-71655147D01*
X144288216Y-71556544D01*
X144452188Y-71488624D01*
X144601488Y-71458927D01*
X144626258Y-71454000D01*
X144803742Y-71454000D01*
X144828512Y-71458927D01*
G37*
G36*
X142288512Y-71458927D02*
G01*
X142437812Y-71488624D01*
X142601784Y-71556544D01*
X142749354Y-71655147D01*
X142874853Y-71780646D01*
X142973456Y-71928216D01*
X143041376Y-72092188D01*
X143076000Y-72266259D01*
X143076000Y-72443741D01*
X143041376Y-72617812D01*
X142973456Y-72781784D01*
X142874853Y-72929354D01*
X142749354Y-73054853D01*
X142601784Y-73153456D01*
X142437812Y-73221376D01*
X142288512Y-73251073D01*
X142263742Y-73256000D01*
X142086258Y-73256000D01*
X142061488Y-73251073D01*
X141912188Y-73221376D01*
X141748216Y-73153456D01*
X141600646Y-73054853D01*
X141475147Y-72929354D01*
X141376544Y-72781784D01*
X141308624Y-72617812D01*
X141274000Y-72443741D01*
X141274000Y-72266259D01*
X141308624Y-72092188D01*
X141376544Y-71928216D01*
X141475147Y-71780646D01*
X141600646Y-71655147D01*
X141748216Y-71556544D01*
X141912188Y-71488624D01*
X142061488Y-71458927D01*
X142086258Y-71454000D01*
X142263742Y-71454000D01*
X142288512Y-71458927D01*
G37*
G36*
X167688512Y-71458927D02*
G01*
X167837812Y-71488624D01*
X168001784Y-71556544D01*
X168149354Y-71655147D01*
X168274853Y-71780646D01*
X168373456Y-71928216D01*
X168441376Y-72092188D01*
X168476000Y-72266259D01*
X168476000Y-72443741D01*
X168441376Y-72617812D01*
X168373456Y-72781784D01*
X168274853Y-72929354D01*
X168149354Y-73054853D01*
X168001784Y-73153456D01*
X167837812Y-73221376D01*
X167688512Y-73251073D01*
X167663742Y-73256000D01*
X167486258Y-73256000D01*
X167461488Y-73251073D01*
X167312188Y-73221376D01*
X167148216Y-73153456D01*
X167000646Y-73054853D01*
X166875147Y-72929354D01*
X166776544Y-72781784D01*
X166708624Y-72617812D01*
X166674000Y-72443741D01*
X166674000Y-72266259D01*
X166708624Y-72092188D01*
X166776544Y-71928216D01*
X166875147Y-71780646D01*
X167000646Y-71655147D01*
X167148216Y-71556544D01*
X167312188Y-71488624D01*
X167461488Y-71458927D01*
X167486258Y-71454000D01*
X167663742Y-71454000D01*
X167688512Y-71458927D01*
G37*
G36*
X149908512Y-71458927D02*
G01*
X150057812Y-71488624D01*
X150221784Y-71556544D01*
X150369354Y-71655147D01*
X150494853Y-71780646D01*
X150593456Y-71928216D01*
X150661376Y-72092188D01*
X150696000Y-72266259D01*
X150696000Y-72443741D01*
X150661376Y-72617812D01*
X150593456Y-72781784D01*
X150494853Y-72929354D01*
X150369354Y-73054853D01*
X150221784Y-73153456D01*
X150057812Y-73221376D01*
X149908512Y-73251073D01*
X149883742Y-73256000D01*
X149706258Y-73256000D01*
X149681488Y-73251073D01*
X149532188Y-73221376D01*
X149368216Y-73153456D01*
X149220646Y-73054853D01*
X149095147Y-72929354D01*
X148996544Y-72781784D01*
X148928624Y-72617812D01*
X148894000Y-72443741D01*
X148894000Y-72266259D01*
X148928624Y-72092188D01*
X148996544Y-71928216D01*
X149095147Y-71780646D01*
X149220646Y-71655147D01*
X149368216Y-71556544D01*
X149532188Y-71488624D01*
X149681488Y-71458927D01*
X149706258Y-71454000D01*
X149883742Y-71454000D01*
X149908512Y-71458927D01*
G37*
G36*
X152448512Y-71458927D02*
G01*
X152597812Y-71488624D01*
X152761784Y-71556544D01*
X152909354Y-71655147D01*
X153034853Y-71780646D01*
X153133456Y-71928216D01*
X153201376Y-72092188D01*
X153236000Y-72266259D01*
X153236000Y-72443741D01*
X153201376Y-72617812D01*
X153133456Y-72781784D01*
X153034853Y-72929354D01*
X152909354Y-73054853D01*
X152761784Y-73153456D01*
X152597812Y-73221376D01*
X152448512Y-73251073D01*
X152423742Y-73256000D01*
X152246258Y-73256000D01*
X152221488Y-73251073D01*
X152072188Y-73221376D01*
X151908216Y-73153456D01*
X151760646Y-73054853D01*
X151635147Y-72929354D01*
X151536544Y-72781784D01*
X151468624Y-72617812D01*
X151434000Y-72443741D01*
X151434000Y-72266259D01*
X151468624Y-72092188D01*
X151536544Y-71928216D01*
X151635147Y-71780646D01*
X151760646Y-71655147D01*
X151908216Y-71556544D01*
X152072188Y-71488624D01*
X152221488Y-71458927D01*
X152246258Y-71454000D01*
X152423742Y-71454000D01*
X152448512Y-71458927D01*
G37*
G36*
X154988512Y-71458927D02*
G01*
X155137812Y-71488624D01*
X155301784Y-71556544D01*
X155449354Y-71655147D01*
X155574853Y-71780646D01*
X155673456Y-71928216D01*
X155741376Y-72092188D01*
X155776000Y-72266259D01*
X155776000Y-72443741D01*
X155741376Y-72617812D01*
X155673456Y-72781784D01*
X155574853Y-72929354D01*
X155449354Y-73054853D01*
X155301784Y-73153456D01*
X155137812Y-73221376D01*
X154988512Y-73251073D01*
X154963742Y-73256000D01*
X154786258Y-73256000D01*
X154761488Y-73251073D01*
X154612188Y-73221376D01*
X154448216Y-73153456D01*
X154300646Y-73054853D01*
X154175147Y-72929354D01*
X154076544Y-72781784D01*
X154008624Y-72617812D01*
X153974000Y-72443741D01*
X153974000Y-72266259D01*
X154008624Y-72092188D01*
X154076544Y-71928216D01*
X154175147Y-71780646D01*
X154300646Y-71655147D01*
X154448216Y-71556544D01*
X154612188Y-71488624D01*
X154761488Y-71458927D01*
X154786258Y-71454000D01*
X154963742Y-71454000D01*
X154988512Y-71458927D01*
G37*
G36*
X157528512Y-71458927D02*
G01*
X157677812Y-71488624D01*
X157841784Y-71556544D01*
X157989354Y-71655147D01*
X158114853Y-71780646D01*
X158213456Y-71928216D01*
X158281376Y-72092188D01*
X158316000Y-72266259D01*
X158316000Y-72443741D01*
X158281376Y-72617812D01*
X158213456Y-72781784D01*
X158114853Y-72929354D01*
X157989354Y-73054853D01*
X157841784Y-73153456D01*
X157677812Y-73221376D01*
X157528512Y-73251073D01*
X157503742Y-73256000D01*
X157326258Y-73256000D01*
X157301488Y-73251073D01*
X157152188Y-73221376D01*
X156988216Y-73153456D01*
X156840646Y-73054853D01*
X156715147Y-72929354D01*
X156616544Y-72781784D01*
X156548624Y-72617812D01*
X156514000Y-72443741D01*
X156514000Y-72266259D01*
X156548624Y-72092188D01*
X156616544Y-71928216D01*
X156715147Y-71780646D01*
X156840646Y-71655147D01*
X156988216Y-71556544D01*
X157152188Y-71488624D01*
X157301488Y-71458927D01*
X157326258Y-71454000D01*
X157503742Y-71454000D01*
X157528512Y-71458927D01*
G37*
G36*
X165148512Y-71458927D02*
G01*
X165297812Y-71488624D01*
X165461784Y-71556544D01*
X165609354Y-71655147D01*
X165734853Y-71780646D01*
X165833456Y-71928216D01*
X165901376Y-72092188D01*
X165936000Y-72266259D01*
X165936000Y-72443741D01*
X165901376Y-72617812D01*
X165833456Y-72781784D01*
X165734853Y-72929354D01*
X165609354Y-73054853D01*
X165461784Y-73153456D01*
X165297812Y-73221376D01*
X165148512Y-73251073D01*
X165123742Y-73256000D01*
X164946258Y-73256000D01*
X164921488Y-73251073D01*
X164772188Y-73221376D01*
X164608216Y-73153456D01*
X164460646Y-73054853D01*
X164335147Y-72929354D01*
X164236544Y-72781784D01*
X164168624Y-72617812D01*
X164134000Y-72443741D01*
X164134000Y-72266259D01*
X164168624Y-72092188D01*
X164236544Y-71928216D01*
X164335147Y-71780646D01*
X164460646Y-71655147D01*
X164608216Y-71556544D01*
X164772188Y-71488624D01*
X164921488Y-71458927D01*
X164946258Y-71454000D01*
X165123742Y-71454000D01*
X165148512Y-71458927D01*
G37*
G36*
X167688512Y-68918927D02*
G01*
X167837812Y-68948624D01*
X168001784Y-69016544D01*
X168149354Y-69115147D01*
X168274853Y-69240646D01*
X168373456Y-69388216D01*
X168441376Y-69552188D01*
X168476000Y-69726259D01*
X168476000Y-69903741D01*
X168441376Y-70077812D01*
X168373456Y-70241784D01*
X168274853Y-70389354D01*
X168149354Y-70514853D01*
X168001784Y-70613456D01*
X167837812Y-70681376D01*
X167688512Y-70711073D01*
X167663742Y-70716000D01*
X167486258Y-70716000D01*
X167461488Y-70711073D01*
X167312188Y-70681376D01*
X167148216Y-70613456D01*
X167000646Y-70514853D01*
X166875147Y-70389354D01*
X166776544Y-70241784D01*
X166708624Y-70077812D01*
X166674000Y-69903741D01*
X166674000Y-69726259D01*
X166708624Y-69552188D01*
X166776544Y-69388216D01*
X166875147Y-69240646D01*
X167000646Y-69115147D01*
X167148216Y-69016544D01*
X167312188Y-68948624D01*
X167461488Y-68918927D01*
X167486258Y-68914000D01*
X167663742Y-68914000D01*
X167688512Y-68918927D01*
G37*
G36*
X144828512Y-68918927D02*
G01*
X144977812Y-68948624D01*
X145141784Y-69016544D01*
X145289354Y-69115147D01*
X145414853Y-69240646D01*
X145513456Y-69388216D01*
X145581376Y-69552188D01*
X145616000Y-69726259D01*
X145616000Y-69903741D01*
X145581376Y-70077812D01*
X145513456Y-70241784D01*
X145414853Y-70389354D01*
X145289354Y-70514853D01*
X145141784Y-70613456D01*
X144977812Y-70681376D01*
X144828512Y-70711073D01*
X144803742Y-70716000D01*
X144626258Y-70716000D01*
X144601488Y-70711073D01*
X144452188Y-70681376D01*
X144288216Y-70613456D01*
X144140646Y-70514853D01*
X144015147Y-70389354D01*
X143916544Y-70241784D01*
X143848624Y-70077812D01*
X143814000Y-69903741D01*
X143814000Y-69726259D01*
X143848624Y-69552188D01*
X143916544Y-69388216D01*
X144015147Y-69240646D01*
X144140646Y-69115147D01*
X144288216Y-69016544D01*
X144452188Y-68948624D01*
X144601488Y-68918927D01*
X144626258Y-68914000D01*
X144803742Y-68914000D01*
X144828512Y-68918927D01*
G37*
G36*
X142288512Y-68918927D02*
G01*
X142437812Y-68948624D01*
X142601784Y-69016544D01*
X142749354Y-69115147D01*
X142874853Y-69240646D01*
X142973456Y-69388216D01*
X143041376Y-69552188D01*
X143076000Y-69726259D01*
X143076000Y-69903741D01*
X143041376Y-70077812D01*
X142973456Y-70241784D01*
X142874853Y-70389354D01*
X142749354Y-70514853D01*
X142601784Y-70613456D01*
X142437812Y-70681376D01*
X142288512Y-70711073D01*
X142263742Y-70716000D01*
X142086258Y-70716000D01*
X142061488Y-70711073D01*
X141912188Y-70681376D01*
X141748216Y-70613456D01*
X141600646Y-70514853D01*
X141475147Y-70389354D01*
X141376544Y-70241784D01*
X141308624Y-70077812D01*
X141274000Y-69903741D01*
X141274000Y-69726259D01*
X141308624Y-69552188D01*
X141376544Y-69388216D01*
X141475147Y-69240646D01*
X141600646Y-69115147D01*
X141748216Y-69016544D01*
X141912188Y-68948624D01*
X142061488Y-68918927D01*
X142086258Y-68914000D01*
X142263742Y-68914000D01*
X142288512Y-68918927D01*
G37*
G36*
X149908512Y-68918927D02*
G01*
X150057812Y-68948624D01*
X150221784Y-69016544D01*
X150369354Y-69115147D01*
X150494853Y-69240646D01*
X150593456Y-69388216D01*
X150661376Y-69552188D01*
X150696000Y-69726259D01*
X150696000Y-69903741D01*
X150661376Y-70077812D01*
X150593456Y-70241784D01*
X150494853Y-70389354D01*
X150369354Y-70514853D01*
X150221784Y-70613456D01*
X150057812Y-70681376D01*
X149908512Y-70711073D01*
X149883742Y-70716000D01*
X149706258Y-70716000D01*
X149681488Y-70711073D01*
X149532188Y-70681376D01*
X149368216Y-70613456D01*
X149220646Y-70514853D01*
X149095147Y-70389354D01*
X148996544Y-70241784D01*
X148928624Y-70077812D01*
X148894000Y-69903741D01*
X148894000Y-69726259D01*
X148928624Y-69552188D01*
X148996544Y-69388216D01*
X149095147Y-69240646D01*
X149220646Y-69115147D01*
X149368216Y-69016544D01*
X149532188Y-68948624D01*
X149681488Y-68918927D01*
X149706258Y-68914000D01*
X149883742Y-68914000D01*
X149908512Y-68918927D01*
G37*
G36*
X152448512Y-68918927D02*
G01*
X152597812Y-68948624D01*
X152761784Y-69016544D01*
X152909354Y-69115147D01*
X153034853Y-69240646D01*
X153133456Y-69388216D01*
X153201376Y-69552188D01*
X153236000Y-69726259D01*
X153236000Y-69903741D01*
X153201376Y-70077812D01*
X153133456Y-70241784D01*
X153034853Y-70389354D01*
X152909354Y-70514853D01*
X152761784Y-70613456D01*
X152597812Y-70681376D01*
X152448512Y-70711073D01*
X152423742Y-70716000D01*
X152246258Y-70716000D01*
X152221488Y-70711073D01*
X152072188Y-70681376D01*
X151908216Y-70613456D01*
X151760646Y-70514853D01*
X151635147Y-70389354D01*
X151536544Y-70241784D01*
X151468624Y-70077812D01*
X151434000Y-69903741D01*
X151434000Y-69726259D01*
X151468624Y-69552188D01*
X151536544Y-69388216D01*
X151635147Y-69240646D01*
X151760646Y-69115147D01*
X151908216Y-69016544D01*
X152072188Y-68948624D01*
X152221488Y-68918927D01*
X152246258Y-68914000D01*
X152423742Y-68914000D01*
X152448512Y-68918927D01*
G37*
G36*
X147368512Y-68918927D02*
G01*
X147517812Y-68948624D01*
X147681784Y-69016544D01*
X147829354Y-69115147D01*
X147954853Y-69240646D01*
X148053456Y-69388216D01*
X148121376Y-69552188D01*
X148156000Y-69726259D01*
X148156000Y-69903741D01*
X148121376Y-70077812D01*
X148053456Y-70241784D01*
X147954853Y-70389354D01*
X147829354Y-70514853D01*
X147681784Y-70613456D01*
X147517812Y-70681376D01*
X147368512Y-70711073D01*
X147343742Y-70716000D01*
X147166258Y-70716000D01*
X147141488Y-70711073D01*
X146992188Y-70681376D01*
X146828216Y-70613456D01*
X146680646Y-70514853D01*
X146555147Y-70389354D01*
X146456544Y-70241784D01*
X146388624Y-70077812D01*
X146354000Y-69903741D01*
X146354000Y-69726259D01*
X146388624Y-69552188D01*
X146456544Y-69388216D01*
X146555147Y-69240646D01*
X146680646Y-69115147D01*
X146828216Y-69016544D01*
X146992188Y-68948624D01*
X147141488Y-68918927D01*
X147166258Y-68914000D01*
X147343742Y-68914000D01*
X147368512Y-68918927D01*
G37*
G36*
X157528512Y-68918927D02*
G01*
X157677812Y-68948624D01*
X157841784Y-69016544D01*
X157989354Y-69115147D01*
X158114853Y-69240646D01*
X158213456Y-69388216D01*
X158281376Y-69552188D01*
X158316000Y-69726259D01*
X158316000Y-69903741D01*
X158281376Y-70077812D01*
X158213456Y-70241784D01*
X158114853Y-70389354D01*
X157989354Y-70514853D01*
X157841784Y-70613456D01*
X157677812Y-70681376D01*
X157528512Y-70711073D01*
X157503742Y-70716000D01*
X157326258Y-70716000D01*
X157301488Y-70711073D01*
X157152188Y-70681376D01*
X156988216Y-70613456D01*
X156840646Y-70514853D01*
X156715147Y-70389354D01*
X156616544Y-70241784D01*
X156548624Y-70077812D01*
X156514000Y-69903741D01*
X156514000Y-69726259D01*
X156548624Y-69552188D01*
X156616544Y-69388216D01*
X156715147Y-69240646D01*
X156840646Y-69115147D01*
X156988216Y-69016544D01*
X157152188Y-68948624D01*
X157301488Y-68918927D01*
X157326258Y-68914000D01*
X157503742Y-68914000D01*
X157528512Y-68918927D01*
G37*
G36*
X160068512Y-68918927D02*
G01*
X160217812Y-68948624D01*
X160381784Y-69016544D01*
X160529354Y-69115147D01*
X160654853Y-69240646D01*
X160753456Y-69388216D01*
X160821376Y-69552188D01*
X160856000Y-69726259D01*
X160856000Y-69903741D01*
X160821376Y-70077812D01*
X160753456Y-70241784D01*
X160654853Y-70389354D01*
X160529354Y-70514853D01*
X160381784Y-70613456D01*
X160217812Y-70681376D01*
X160068512Y-70711073D01*
X160043742Y-70716000D01*
X159866258Y-70716000D01*
X159841488Y-70711073D01*
X159692188Y-70681376D01*
X159528216Y-70613456D01*
X159380646Y-70514853D01*
X159255147Y-70389354D01*
X159156544Y-70241784D01*
X159088624Y-70077812D01*
X159054000Y-69903741D01*
X159054000Y-69726259D01*
X159088624Y-69552188D01*
X159156544Y-69388216D01*
X159255147Y-69240646D01*
X159380646Y-69115147D01*
X159528216Y-69016544D01*
X159692188Y-68948624D01*
X159841488Y-68918927D01*
X159866258Y-68914000D01*
X160043742Y-68914000D01*
X160068512Y-68918927D01*
G37*
G36*
X162608512Y-68918927D02*
G01*
X162757812Y-68948624D01*
X162921784Y-69016544D01*
X163069354Y-69115147D01*
X163194853Y-69240646D01*
X163293456Y-69388216D01*
X163361376Y-69552188D01*
X163396000Y-69726259D01*
X163396000Y-69903741D01*
X163361376Y-70077812D01*
X163293456Y-70241784D01*
X163194853Y-70389354D01*
X163069354Y-70514853D01*
X162921784Y-70613456D01*
X162757812Y-70681376D01*
X162608512Y-70711073D01*
X162583742Y-70716000D01*
X162406258Y-70716000D01*
X162381488Y-70711073D01*
X162232188Y-70681376D01*
X162068216Y-70613456D01*
X161920646Y-70514853D01*
X161795147Y-70389354D01*
X161696544Y-70241784D01*
X161628624Y-70077812D01*
X161594000Y-69903741D01*
X161594000Y-69726259D01*
X161628624Y-69552188D01*
X161696544Y-69388216D01*
X161795147Y-69240646D01*
X161920646Y-69115147D01*
X162068216Y-69016544D01*
X162232188Y-68948624D01*
X162381488Y-68918927D01*
X162406258Y-68914000D01*
X162583742Y-68914000D01*
X162608512Y-68918927D01*
G37*
G36*
X165148512Y-68918927D02*
G01*
X165297812Y-68948624D01*
X165461784Y-69016544D01*
X165609354Y-69115147D01*
X165734853Y-69240646D01*
X165833456Y-69388216D01*
X165901376Y-69552188D01*
X165936000Y-69726259D01*
X165936000Y-69903741D01*
X165901376Y-70077812D01*
X165833456Y-70241784D01*
X165734853Y-70389354D01*
X165609354Y-70514853D01*
X165461784Y-70613456D01*
X165297812Y-70681376D01*
X165148512Y-70711073D01*
X165123742Y-70716000D01*
X164946258Y-70716000D01*
X164921488Y-70711073D01*
X164772188Y-70681376D01*
X164608216Y-70613456D01*
X164460646Y-70514853D01*
X164335147Y-70389354D01*
X164236544Y-70241784D01*
X164168624Y-70077812D01*
X164134000Y-69903741D01*
X164134000Y-69726259D01*
X164168624Y-69552188D01*
X164236544Y-69388216D01*
X164335147Y-69240646D01*
X164460646Y-69115147D01*
X164608216Y-69016544D01*
X164772188Y-68948624D01*
X164921488Y-68918927D01*
X164946258Y-68914000D01*
X165123742Y-68914000D01*
X165148512Y-68918927D01*
G37*
G36*
X170228512Y-68918927D02*
G01*
X170377812Y-68948624D01*
X170541784Y-69016544D01*
X170689354Y-69115147D01*
X170814853Y-69240646D01*
X170913456Y-69388216D01*
X170981376Y-69552188D01*
X171016000Y-69726259D01*
X171016000Y-69903741D01*
X170981376Y-70077812D01*
X170913456Y-70241784D01*
X170814853Y-70389354D01*
X170689354Y-70514853D01*
X170541784Y-70613456D01*
X170377812Y-70681376D01*
X170228512Y-70711073D01*
X170203742Y-70716000D01*
X170026258Y-70716000D01*
X170001488Y-70711073D01*
X169852188Y-70681376D01*
X169688216Y-70613456D01*
X169540646Y-70514853D01*
X169415147Y-70389354D01*
X169316544Y-70241784D01*
X169248624Y-70077812D01*
X169214000Y-69903741D01*
X169214000Y-69726259D01*
X169248624Y-69552188D01*
X169316544Y-69388216D01*
X169415147Y-69240646D01*
X169540646Y-69115147D01*
X169688216Y-69016544D01*
X169852188Y-68948624D01*
X170001488Y-68918927D01*
X170026258Y-68914000D01*
X170203742Y-68914000D01*
X170228512Y-68918927D01*
G37*
G36*
X154988512Y-68918927D02*
G01*
X155137812Y-68948624D01*
X155301784Y-69016544D01*
X155449354Y-69115147D01*
X155574853Y-69240646D01*
X155673456Y-69388216D01*
X155741376Y-69552188D01*
X155776000Y-69726259D01*
X155776000Y-69903741D01*
X155741376Y-70077812D01*
X155673456Y-70241784D01*
X155574853Y-70389354D01*
X155449354Y-70514853D01*
X155301784Y-70613456D01*
X155137812Y-70681376D01*
X154988512Y-70711073D01*
X154963742Y-70716000D01*
X154786258Y-70716000D01*
X154761488Y-70711073D01*
X154612188Y-70681376D01*
X154448216Y-70613456D01*
X154300646Y-70514853D01*
X154175147Y-70389354D01*
X154076544Y-70241784D01*
X154008624Y-70077812D01*
X153974000Y-69903741D01*
X153974000Y-69726259D01*
X154008624Y-69552188D01*
X154076544Y-69388216D01*
X154175147Y-69240646D01*
X154300646Y-69115147D01*
X154448216Y-69016544D01*
X154612188Y-68948624D01*
X154761488Y-68918927D01*
X154786258Y-68914000D01*
X154963742Y-68914000D01*
X154988512Y-68918927D01*
G37*
G36*
X175241000Y-67121000D02*
G01*
X172739000Y-67121000D01*
X172739000Y-64619000D01*
X175241000Y-64619000D01*
X175241000Y-67121000D01*
G37*
G36*
X163702724Y-64186497D02*
G01*
X163929906Y-64231686D01*
X164179412Y-64335035D01*
X164403962Y-64485075D01*
X164594925Y-64676038D01*
X164744965Y-64900588D01*
X164848314Y-65150094D01*
X164901000Y-65414968D01*
X164901000Y-65685032D01*
X164848314Y-65949906D01*
X164744965Y-66199412D01*
X164594925Y-66423962D01*
X164403962Y-66614925D01*
X164179412Y-66764965D01*
X163929906Y-66868314D01*
X163702724Y-66913503D01*
X163665033Y-66921000D01*
X163394967Y-66921000D01*
X163357276Y-66913503D01*
X163130094Y-66868314D01*
X162880588Y-66764965D01*
X162656038Y-66614925D01*
X162465075Y-66423962D01*
X162315035Y-66199412D01*
X162211686Y-65949906D01*
X162159000Y-65685032D01*
X162159000Y-65414968D01*
X162211686Y-65150094D01*
X162315035Y-64900588D01*
X162465075Y-64676038D01*
X162656038Y-64485075D01*
X162880588Y-64335035D01*
X163130094Y-64231686D01*
X163357276Y-64186497D01*
X163394967Y-64179000D01*
X163665033Y-64179000D01*
X163702724Y-64186497D01*
G37*
G36*
X174354903Y-61167075D02*
G01*
X174582571Y-61261378D01*
X174787466Y-61398285D01*
X174961715Y-61572534D01*
X175098622Y-61777429D01*
X175192925Y-62005097D01*
X175241000Y-62246787D01*
X175241000Y-62493213D01*
X175192925Y-62734903D01*
X175098622Y-62962571D01*
X174961715Y-63167466D01*
X174787466Y-63341715D01*
X174582571Y-63478622D01*
X174582570Y-63478623D01*
X174582569Y-63478623D01*
X174354903Y-63572925D01*
X174113214Y-63621000D01*
X173866786Y-63621000D01*
X173625097Y-63572925D01*
X173397431Y-63478623D01*
X173397430Y-63478623D01*
X173397429Y-63478622D01*
X173192534Y-63341715D01*
X173018285Y-63167466D01*
X172881378Y-62962571D01*
X172787075Y-62734903D01*
X172739000Y-62493213D01*
X172739000Y-62246787D01*
X172787075Y-62005097D01*
X172881378Y-61777429D01*
X173018285Y-61572534D01*
X173192534Y-61398285D01*
X173397429Y-61261378D01*
X173625097Y-61167075D01*
X173866786Y-61119000D01*
X174113214Y-61119000D01*
X174354903Y-61167075D01*
G37*
G36*
X108698512Y-61333927D02*
G01*
X108847812Y-61363624D01*
X109011784Y-61431544D01*
X109159354Y-61530147D01*
X109284853Y-61655646D01*
X109383456Y-61803216D01*
X109451376Y-61967188D01*
X109486000Y-62141259D01*
X109486000Y-62318741D01*
X109451376Y-62492812D01*
X109383456Y-62656784D01*
X109284853Y-62804354D01*
X109159354Y-62929853D01*
X109011784Y-63028456D01*
X108847812Y-63096376D01*
X108698512Y-63126073D01*
X108673742Y-63131000D01*
X108496258Y-63131000D01*
X108471488Y-63126073D01*
X108322188Y-63096376D01*
X108158216Y-63028456D01*
X108010646Y-62929853D01*
X107885147Y-62804354D01*
X107786544Y-62656784D01*
X107718624Y-62492812D01*
X107684000Y-62318741D01*
X107684000Y-62141259D01*
X107718624Y-61967188D01*
X107786544Y-61803216D01*
X107885147Y-61655646D01*
X108010646Y-61530147D01*
X108158216Y-61431544D01*
X108322188Y-61363624D01*
X108471488Y-61333927D01*
X108496258Y-61329000D01*
X108673742Y-61329000D01*
X108698512Y-61333927D01*
G37*
G36*
X166596564Y-58544389D02*
G01*
X166787833Y-58623615D01*
X166787835Y-58623616D01*
X166959973Y-58738635D01*
X167106365Y-58885027D01*
X167178653Y-58993213D01*
X167221385Y-59057167D01*
X167300611Y-59248436D01*
X167341000Y-59451484D01*
X167341000Y-59658516D01*
X167300611Y-59861564D01*
X167221385Y-60052833D01*
X167221384Y-60052835D01*
X167106365Y-60224973D01*
X166959973Y-60371365D01*
X166787835Y-60486384D01*
X166787834Y-60486385D01*
X166787833Y-60486385D01*
X166596564Y-60565611D01*
X166393516Y-60606000D01*
X166186484Y-60606000D01*
X165983436Y-60565611D01*
X165792167Y-60486385D01*
X165792166Y-60486385D01*
X165792165Y-60486384D01*
X165620027Y-60371365D01*
X165473635Y-60224973D01*
X165358616Y-60052835D01*
X165358615Y-60052833D01*
X165279389Y-59861564D01*
X165239000Y-59658516D01*
X165239000Y-59451484D01*
X165279389Y-59248436D01*
X165358615Y-59057167D01*
X165401348Y-58993213D01*
X165473635Y-58885027D01*
X165620027Y-58738635D01*
X165792165Y-58623616D01*
X165792167Y-58623615D01*
X165983436Y-58544389D01*
X166186484Y-58504000D01*
X166393516Y-58504000D01*
X166596564Y-58544389D01*
G37*
G36*
X114606564Y-58544389D02*
G01*
X114797833Y-58623615D01*
X114797835Y-58623616D01*
X114969973Y-58738635D01*
X115116365Y-58885027D01*
X115188653Y-58993213D01*
X115231385Y-59057167D01*
X115310611Y-59248436D01*
X115351000Y-59451484D01*
X115351000Y-59658516D01*
X115310611Y-59861564D01*
X115231385Y-60052833D01*
X115231384Y-60052835D01*
X115116365Y-60224973D01*
X114969973Y-60371365D01*
X114797835Y-60486384D01*
X114797834Y-60486385D01*
X114797833Y-60486385D01*
X114606564Y-60565611D01*
X114403516Y-60606000D01*
X114196484Y-60606000D01*
X113993436Y-60565611D01*
X113802167Y-60486385D01*
X113802166Y-60486385D01*
X113802165Y-60486384D01*
X113630027Y-60371365D01*
X113483635Y-60224973D01*
X113368616Y-60052835D01*
X113368615Y-60052833D01*
X113289389Y-59861564D01*
X113249000Y-59658516D01*
X113249000Y-59451484D01*
X113289389Y-59248436D01*
X113368615Y-59057167D01*
X113411348Y-58993213D01*
X113483635Y-58885027D01*
X113630027Y-58738635D01*
X113802165Y-58623616D01*
X113802167Y-58623615D01*
X113993436Y-58544389D01*
X114196484Y-58504000D01*
X114403516Y-58504000D01*
X114606564Y-58544389D01*
G37*
G36*
X174354903Y-57667075D02*
G01*
X174582571Y-57761378D01*
X174787466Y-57898285D01*
X174961715Y-58072534D01*
X174961716Y-58072536D01*
X175098623Y-58277431D01*
X175192925Y-58505097D01*
X175241000Y-58746786D01*
X175241000Y-58993214D01*
X175192925Y-59234903D01*
X175103215Y-59451484D01*
X175098622Y-59462571D01*
X174961715Y-59667466D01*
X174787466Y-59841715D01*
X174582571Y-59978622D01*
X174582570Y-59978623D01*
X174582569Y-59978623D01*
X174354903Y-60072925D01*
X174113214Y-60121000D01*
X173866786Y-60121000D01*
X173625097Y-60072925D01*
X173397431Y-59978623D01*
X173397430Y-59978623D01*
X173397429Y-59978622D01*
X173192534Y-59841715D01*
X173018285Y-59667466D01*
X172881378Y-59462571D01*
X172876786Y-59451484D01*
X172787075Y-59234903D01*
X172739000Y-58993214D01*
X172739000Y-58746786D01*
X172787075Y-58505097D01*
X172881377Y-58277431D01*
X173018284Y-58072536D01*
X173018285Y-58072534D01*
X173192534Y-57898285D01*
X173397429Y-57761378D01*
X173625097Y-57667075D01*
X173866786Y-57619000D01*
X174113214Y-57619000D01*
X174354903Y-57667075D01*
G37*
G36*
X167882585Y-53448802D02*
G01*
X168032410Y-53478604D01*
X168314674Y-53595521D01*
X168568705Y-53765259D01*
X168784741Y-53981295D01*
X168954479Y-54235326D01*
X169071396Y-54517590D01*
X169131000Y-54817240D01*
X169131000Y-55122760D01*
X169071396Y-55422410D01*
X168954479Y-55704674D01*
X168784741Y-55958705D01*
X168568705Y-56174741D01*
X168314674Y-56344479D01*
X168032410Y-56461396D01*
X167882585Y-56491198D01*
X167732761Y-56521000D01*
X167427239Y-56521000D01*
X167277415Y-56491198D01*
X167127590Y-56461396D01*
X166845326Y-56344479D01*
X166591295Y-56174741D01*
X166375259Y-55958705D01*
X166205521Y-55704674D01*
X166088604Y-55422410D01*
X166029000Y-55122760D01*
X166029000Y-54817240D01*
X166088604Y-54517590D01*
X166205521Y-54235326D01*
X166375259Y-53981295D01*
X166591295Y-53765259D01*
X166845326Y-53595521D01*
X167127590Y-53478604D01*
X167277415Y-53448802D01*
X167427239Y-53419000D01*
X167732761Y-53419000D01*
X167882585Y-53448802D01*
G37*
G36*
X117222724Y-52196497D02*
G01*
X117449906Y-52241686D01*
X117699412Y-52345035D01*
X117923962Y-52495075D01*
X118114925Y-52686038D01*
X118264965Y-52910588D01*
X118368314Y-53160094D01*
X118421000Y-53424968D01*
X118421000Y-53695032D01*
X118368314Y-53959906D01*
X118264965Y-54209412D01*
X118114925Y-54433962D01*
X117923962Y-54624925D01*
X117699412Y-54774965D01*
X117449906Y-54878314D01*
X117222724Y-54923503D01*
X117185033Y-54931000D01*
X116914967Y-54931000D01*
X116877276Y-54923503D01*
X116650094Y-54878314D01*
X116400588Y-54774965D01*
X116176038Y-54624925D01*
X115985075Y-54433962D01*
X115835035Y-54209412D01*
X115731686Y-53959906D01*
X115679000Y-53695032D01*
X115679000Y-53424968D01*
X115731686Y-53160094D01*
X115835035Y-52910588D01*
X115985075Y-52686038D01*
X116176038Y-52495075D01*
X116400588Y-52345035D01*
X116650094Y-52241686D01*
X116877276Y-52196497D01*
X116914967Y-52189000D01*
X117185033Y-52189000D01*
X117222724Y-52196497D01*
G37*
M02*
