G04 #@! TF.GenerationSoftware,KiCad,Pcbnew,5.1.5-52549c5~86~ubuntu18.04.1*
G04 #@! TF.CreationDate,2020-07-01T00:42:29-05:00*
G04 #@! TF.ProjectId,RAK811_LORA_ADAPTABLE_NODE_PANEL,52414b38-3131-45f4-9c4f-52415f414441,rev?*
G04 #@! TF.SameCoordinates,Original*
G04 #@! TF.FileFunction,Copper,L2,Bot*
G04 #@! TF.FilePolarity,Positive*
%FSLAX46Y46*%
G04 Gerber Fmt 4.6, Leading zero omitted, Abs format (unit mm)*
G04 Created by KiCad (PCBNEW 5.1.5-52549c5~86~ubuntu18.04.1) date 2020-07-01 00:42:29*
%MOMM*%
%LPD*%
G04 APERTURE LIST*
%ADD10R,2.400000X2.400000*%
%ADD11C,2.400000*%
%ADD12R,2.200000X1.050000*%
%ADD13R,1.050000X1.000000*%
%ADD14C,1.700000*%
%ADD15O,1.700000X1.700000*%
%ADD16C,0.100000*%
%ADD17R,1.500000X1.000000*%
%ADD18C,2.000000*%
%ADD19R,2.000000X1.200000*%
%ADD20R,1.200000X2.000000*%
%ADD21R,1.000000X1.500000*%
%ADD22C,0.800000*%
%ADD23C,0.500000*%
%ADD24C,0.250000*%
G04 APERTURE END LIST*
D10*
X173990000Y-114870000D03*
D11*
X173990000Y-111370000D03*
X173990000Y-107870000D03*
D12*
X106840000Y-119055000D03*
D13*
X108365000Y-117580000D03*
D12*
X106840000Y-116105000D03*
D14*
X142175000Y-126435000D03*
D15*
X142175000Y-123895000D03*
X142175000Y-121355000D03*
G04 #@! TA.AperFunction,SMDPad,CuDef*
D16*
G36*
X111645000Y-117465000D02*
G01*
X111645000Y-116915000D01*
X111645602Y-116915000D01*
X111645602Y-116890466D01*
X111650412Y-116841635D01*
X111659984Y-116793510D01*
X111674228Y-116746555D01*
X111693005Y-116701222D01*
X111716136Y-116657949D01*
X111743396Y-116617150D01*
X111774524Y-116579221D01*
X111809221Y-116544524D01*
X111847150Y-116513396D01*
X111887949Y-116486136D01*
X111931222Y-116463005D01*
X111976555Y-116444228D01*
X112023510Y-116429984D01*
X112071635Y-116420412D01*
X112120466Y-116415602D01*
X112145000Y-116415602D01*
X112145000Y-116415000D01*
X112645000Y-116415000D01*
X112645000Y-116415602D01*
X112669534Y-116415602D01*
X112718365Y-116420412D01*
X112766490Y-116429984D01*
X112813445Y-116444228D01*
X112858778Y-116463005D01*
X112902051Y-116486136D01*
X112942850Y-116513396D01*
X112980779Y-116544524D01*
X113015476Y-116579221D01*
X113046604Y-116617150D01*
X113073864Y-116657949D01*
X113096995Y-116701222D01*
X113115772Y-116746555D01*
X113130016Y-116793510D01*
X113139588Y-116841635D01*
X113144398Y-116890466D01*
X113144398Y-116915000D01*
X113145000Y-116915000D01*
X113145000Y-117465000D01*
X111645000Y-117465000D01*
G37*
G04 #@! TD.AperFunction*
G04 #@! TA.AperFunction,SMDPad,CuDef*
G36*
X113144398Y-119515000D02*
G01*
X113144398Y-119539534D01*
X113139588Y-119588365D01*
X113130016Y-119636490D01*
X113115772Y-119683445D01*
X113096995Y-119728778D01*
X113073864Y-119772051D01*
X113046604Y-119812850D01*
X113015476Y-119850779D01*
X112980779Y-119885476D01*
X112942850Y-119916604D01*
X112902051Y-119943864D01*
X112858778Y-119966995D01*
X112813445Y-119985772D01*
X112766490Y-120000016D01*
X112718365Y-120009588D01*
X112669534Y-120014398D01*
X112645000Y-120014398D01*
X112645000Y-120015000D01*
X112145000Y-120015000D01*
X112145000Y-120014398D01*
X112120466Y-120014398D01*
X112071635Y-120009588D01*
X112023510Y-120000016D01*
X111976555Y-119985772D01*
X111931222Y-119966995D01*
X111887949Y-119943864D01*
X111847150Y-119916604D01*
X111809221Y-119885476D01*
X111774524Y-119850779D01*
X111743396Y-119812850D01*
X111716136Y-119772051D01*
X111693005Y-119728778D01*
X111674228Y-119683445D01*
X111659984Y-119636490D01*
X111650412Y-119588365D01*
X111645602Y-119539534D01*
X111645602Y-119515000D01*
X111645000Y-119515000D01*
X111645000Y-118965000D01*
X113145000Y-118965000D01*
X113145000Y-119515000D01*
X113144398Y-119515000D01*
G37*
G04 #@! TD.AperFunction*
D17*
X112395000Y-118215000D03*
D18*
X114380000Y-139385000D03*
X166370000Y-139385000D03*
D19*
X117520000Y-119430000D03*
X117520000Y-121230000D03*
X117520000Y-128430000D03*
X117520000Y-126630000D03*
D20*
X119270000Y-130680000D03*
X121070000Y-130680000D03*
X122870000Y-130680000D03*
X124670000Y-130680000D03*
X126470000Y-130680000D03*
X130070000Y-130680000D03*
X131870000Y-130680000D03*
X133670000Y-130680000D03*
X135470000Y-130680000D03*
X137270000Y-130680000D03*
D19*
X139020000Y-128430000D03*
X139020000Y-126630000D03*
X139020000Y-119430000D03*
X139020000Y-121230000D03*
D20*
X137270000Y-117180000D03*
X135470000Y-117180000D03*
X133670000Y-117180000D03*
X131870000Y-117180000D03*
X130070000Y-117180000D03*
X119270000Y-117180000D03*
X121070000Y-117180000D03*
X122870000Y-117180000D03*
X124670000Y-117180000D03*
X126470000Y-117180000D03*
D19*
X139020000Y-124830000D03*
X139020000Y-123030000D03*
X117520000Y-123030000D03*
X117520000Y-124830000D03*
D20*
X128270000Y-130680000D03*
X128270000Y-117180000D03*
D10*
X173990000Y-139805000D03*
D11*
X173990000Y-136305000D03*
X173990000Y-132805000D03*
D14*
X167575000Y-118815000D03*
D15*
X165035000Y-118815000D03*
X162495000Y-118815000D03*
X159955000Y-118815000D03*
X157415000Y-118815000D03*
X154875000Y-118815000D03*
X152335000Y-118815000D03*
X149795000Y-118815000D03*
X147255000Y-118815000D03*
X144715000Y-118815000D03*
X142175000Y-118815000D03*
G04 #@! TA.AperFunction,SMDPad,CuDef*
D16*
G36*
X136410000Y-103090000D02*
G01*
X135860000Y-103090000D01*
X135860000Y-103089398D01*
X135835466Y-103089398D01*
X135786635Y-103084588D01*
X135738510Y-103075016D01*
X135691555Y-103060772D01*
X135646222Y-103041995D01*
X135602949Y-103018864D01*
X135562150Y-102991604D01*
X135524221Y-102960476D01*
X135489524Y-102925779D01*
X135458396Y-102887850D01*
X135431136Y-102847051D01*
X135408005Y-102803778D01*
X135389228Y-102758445D01*
X135374984Y-102711490D01*
X135365412Y-102663365D01*
X135360602Y-102614534D01*
X135360602Y-102590000D01*
X135360000Y-102590000D01*
X135360000Y-102090000D01*
X135360602Y-102090000D01*
X135360602Y-102065466D01*
X135365412Y-102016635D01*
X135374984Y-101968510D01*
X135389228Y-101921555D01*
X135408005Y-101876222D01*
X135431136Y-101832949D01*
X135458396Y-101792150D01*
X135489524Y-101754221D01*
X135524221Y-101719524D01*
X135562150Y-101688396D01*
X135602949Y-101661136D01*
X135646222Y-101638005D01*
X135691555Y-101619228D01*
X135738510Y-101604984D01*
X135786635Y-101595412D01*
X135835466Y-101590602D01*
X135860000Y-101590602D01*
X135860000Y-101590000D01*
X136410000Y-101590000D01*
X136410000Y-103090000D01*
G37*
G04 #@! TD.AperFunction*
G04 #@! TA.AperFunction,SMDPad,CuDef*
G36*
X138460000Y-101590602D02*
G01*
X138484534Y-101590602D01*
X138533365Y-101595412D01*
X138581490Y-101604984D01*
X138628445Y-101619228D01*
X138673778Y-101638005D01*
X138717051Y-101661136D01*
X138757850Y-101688396D01*
X138795779Y-101719524D01*
X138830476Y-101754221D01*
X138861604Y-101792150D01*
X138888864Y-101832949D01*
X138911995Y-101876222D01*
X138930772Y-101921555D01*
X138945016Y-101968510D01*
X138954588Y-102016635D01*
X138959398Y-102065466D01*
X138959398Y-102090000D01*
X138960000Y-102090000D01*
X138960000Y-102590000D01*
X138959398Y-102590000D01*
X138959398Y-102614534D01*
X138954588Y-102663365D01*
X138945016Y-102711490D01*
X138930772Y-102758445D01*
X138911995Y-102803778D01*
X138888864Y-102847051D01*
X138861604Y-102887850D01*
X138830476Y-102925779D01*
X138795779Y-102960476D01*
X138757850Y-102991604D01*
X138717051Y-103018864D01*
X138673778Y-103041995D01*
X138628445Y-103060772D01*
X138581490Y-103075016D01*
X138533365Y-103084588D01*
X138484534Y-103089398D01*
X138460000Y-103089398D01*
X138460000Y-103090000D01*
X137910000Y-103090000D01*
X137910000Y-101590000D01*
X138460000Y-101590000D01*
X138460000Y-101590602D01*
G37*
G04 #@! TD.AperFunction*
D21*
X137160000Y-102340000D03*
D18*
X166290000Y-108555000D03*
X114300000Y-108555000D03*
D14*
X142175000Y-128975000D03*
D15*
X144715000Y-128975000D03*
X147255000Y-128975000D03*
X149795000Y-128975000D03*
X152335000Y-128975000D03*
X154875000Y-128975000D03*
X157415000Y-128975000D03*
X159955000Y-128975000D03*
X162495000Y-128975000D03*
X165035000Y-128975000D03*
X167575000Y-128975000D03*
D14*
X167575000Y-126435000D03*
D15*
X167575000Y-123895000D03*
X167575000Y-121355000D03*
D14*
X170115000Y-118815000D03*
X108585000Y-111230000D03*
X144715000Y-123895000D03*
D15*
X147255000Y-123895000D03*
X149795000Y-123895000D03*
X152335000Y-123895000D03*
X154875000Y-123895000D03*
X157415000Y-123895000D03*
X159955000Y-123895000D03*
X162495000Y-123895000D03*
X165035000Y-123895000D03*
D14*
X144715000Y-126435000D03*
D15*
X147255000Y-126435000D03*
X149795000Y-126435000D03*
X152335000Y-126435000D03*
X154875000Y-126435000D03*
X157415000Y-126435000D03*
X159955000Y-126435000D03*
X162495000Y-126435000D03*
X165035000Y-126435000D03*
D14*
X144715000Y-121355000D03*
D15*
X147255000Y-121355000D03*
X149795000Y-121355000D03*
X152335000Y-121355000D03*
X154875000Y-121355000D03*
X157415000Y-121355000D03*
X159955000Y-121355000D03*
X162495000Y-121355000D03*
X165035000Y-121355000D03*
X165035000Y-72355000D03*
X162495000Y-72355000D03*
X159955000Y-72355000D03*
X157415000Y-72355000D03*
X154875000Y-72355000D03*
X152335000Y-72355000D03*
X149795000Y-72355000D03*
X147255000Y-72355000D03*
D14*
X144715000Y-72355000D03*
D15*
X165035000Y-74895000D03*
X162495000Y-74895000D03*
X159955000Y-74895000D03*
X157415000Y-74895000D03*
X154875000Y-74895000D03*
X152335000Y-74895000D03*
X149795000Y-74895000D03*
X147255000Y-74895000D03*
D14*
X144715000Y-74895000D03*
D15*
X165035000Y-77435000D03*
X162495000Y-77435000D03*
X159955000Y-77435000D03*
X157415000Y-77435000D03*
X154875000Y-77435000D03*
X152335000Y-77435000D03*
X149795000Y-77435000D03*
X147255000Y-77435000D03*
D14*
X144715000Y-77435000D03*
X108585000Y-62230000D03*
X170115000Y-69815000D03*
D11*
X173990000Y-58870000D03*
X173990000Y-62370000D03*
D10*
X173990000Y-65870000D03*
D15*
X142175000Y-69815000D03*
X144715000Y-69815000D03*
X147255000Y-69815000D03*
X149795000Y-69815000D03*
X152335000Y-69815000D03*
X154875000Y-69815000D03*
X157415000Y-69815000D03*
X159955000Y-69815000D03*
X162495000Y-69815000D03*
X165035000Y-69815000D03*
D14*
X167575000Y-69815000D03*
D15*
X167575000Y-79975000D03*
X165035000Y-79975000D03*
X162495000Y-79975000D03*
X159955000Y-79975000D03*
X157415000Y-79975000D03*
X154875000Y-79975000D03*
X152335000Y-79975000D03*
X149795000Y-79975000D03*
X147255000Y-79975000D03*
X144715000Y-79975000D03*
D14*
X142175000Y-79975000D03*
D15*
X142175000Y-72355000D03*
X142175000Y-74895000D03*
D14*
X142175000Y-77435000D03*
D15*
X167575000Y-72355000D03*
X167575000Y-74895000D03*
D14*
X167575000Y-77435000D03*
D18*
X114300000Y-59555000D03*
X166290000Y-59555000D03*
D17*
X112395000Y-69215000D03*
G04 #@! TA.AperFunction,SMDPad,CuDef*
D16*
G36*
X113144398Y-70515000D02*
G01*
X113144398Y-70539534D01*
X113139588Y-70588365D01*
X113130016Y-70636490D01*
X113115772Y-70683445D01*
X113096995Y-70728778D01*
X113073864Y-70772051D01*
X113046604Y-70812850D01*
X113015476Y-70850779D01*
X112980779Y-70885476D01*
X112942850Y-70916604D01*
X112902051Y-70943864D01*
X112858778Y-70966995D01*
X112813445Y-70985772D01*
X112766490Y-71000016D01*
X112718365Y-71009588D01*
X112669534Y-71014398D01*
X112645000Y-71014398D01*
X112645000Y-71015000D01*
X112145000Y-71015000D01*
X112145000Y-71014398D01*
X112120466Y-71014398D01*
X112071635Y-71009588D01*
X112023510Y-71000016D01*
X111976555Y-70985772D01*
X111931222Y-70966995D01*
X111887949Y-70943864D01*
X111847150Y-70916604D01*
X111809221Y-70885476D01*
X111774524Y-70850779D01*
X111743396Y-70812850D01*
X111716136Y-70772051D01*
X111693005Y-70728778D01*
X111674228Y-70683445D01*
X111659984Y-70636490D01*
X111650412Y-70588365D01*
X111645602Y-70539534D01*
X111645602Y-70515000D01*
X111645000Y-70515000D01*
X111645000Y-69965000D01*
X113145000Y-69965000D01*
X113145000Y-70515000D01*
X113144398Y-70515000D01*
G37*
G04 #@! TD.AperFunction*
G04 #@! TA.AperFunction,SMDPad,CuDef*
G36*
X111645000Y-68465000D02*
G01*
X111645000Y-67915000D01*
X111645602Y-67915000D01*
X111645602Y-67890466D01*
X111650412Y-67841635D01*
X111659984Y-67793510D01*
X111674228Y-67746555D01*
X111693005Y-67701222D01*
X111716136Y-67657949D01*
X111743396Y-67617150D01*
X111774524Y-67579221D01*
X111809221Y-67544524D01*
X111847150Y-67513396D01*
X111887949Y-67486136D01*
X111931222Y-67463005D01*
X111976555Y-67444228D01*
X112023510Y-67429984D01*
X112071635Y-67420412D01*
X112120466Y-67415602D01*
X112145000Y-67415602D01*
X112145000Y-67415000D01*
X112645000Y-67415000D01*
X112645000Y-67415602D01*
X112669534Y-67415602D01*
X112718365Y-67420412D01*
X112766490Y-67429984D01*
X112813445Y-67444228D01*
X112858778Y-67463005D01*
X112902051Y-67486136D01*
X112942850Y-67513396D01*
X112980779Y-67544524D01*
X113015476Y-67579221D01*
X113046604Y-67617150D01*
X113073864Y-67657949D01*
X113096995Y-67701222D01*
X113115772Y-67746555D01*
X113130016Y-67793510D01*
X113139588Y-67841635D01*
X113144398Y-67890466D01*
X113144398Y-67915000D01*
X113145000Y-67915000D01*
X113145000Y-68465000D01*
X111645000Y-68465000D01*
G37*
G04 #@! TD.AperFunction*
D12*
X106840000Y-67105000D03*
D13*
X108365000Y-68580000D03*
D12*
X106840000Y-70055000D03*
D20*
X128270000Y-68180000D03*
X128270000Y-81680000D03*
D19*
X117520000Y-75830000D03*
X117520000Y-74030000D03*
X139020000Y-74030000D03*
X139020000Y-75830000D03*
D20*
X126470000Y-68180000D03*
X124670000Y-68180000D03*
X122870000Y-68180000D03*
X121070000Y-68180000D03*
X119270000Y-68180000D03*
X130070000Y-68180000D03*
X131870000Y-68180000D03*
X133670000Y-68180000D03*
X135470000Y-68180000D03*
X137270000Y-68180000D03*
D19*
X139020000Y-72230000D03*
X139020000Y-70430000D03*
X139020000Y-77630000D03*
X139020000Y-79430000D03*
D20*
X137270000Y-81680000D03*
X135470000Y-81680000D03*
X133670000Y-81680000D03*
X131870000Y-81680000D03*
X130070000Y-81680000D03*
X126470000Y-81680000D03*
X124670000Y-81680000D03*
X122870000Y-81680000D03*
X121070000Y-81680000D03*
X119270000Y-81680000D03*
D19*
X117520000Y-77630000D03*
X117520000Y-79430000D03*
X117520000Y-72230000D03*
X117520000Y-70430000D03*
D11*
X173990000Y-83805000D03*
X173990000Y-87305000D03*
D10*
X173990000Y-90805000D03*
D21*
X137160000Y-53340000D03*
G04 #@! TA.AperFunction,SMDPad,CuDef*
D16*
G36*
X138460000Y-52590602D02*
G01*
X138484534Y-52590602D01*
X138533365Y-52595412D01*
X138581490Y-52604984D01*
X138628445Y-52619228D01*
X138673778Y-52638005D01*
X138717051Y-52661136D01*
X138757850Y-52688396D01*
X138795779Y-52719524D01*
X138830476Y-52754221D01*
X138861604Y-52792150D01*
X138888864Y-52832949D01*
X138911995Y-52876222D01*
X138930772Y-52921555D01*
X138945016Y-52968510D01*
X138954588Y-53016635D01*
X138959398Y-53065466D01*
X138959398Y-53090000D01*
X138960000Y-53090000D01*
X138960000Y-53590000D01*
X138959398Y-53590000D01*
X138959398Y-53614534D01*
X138954588Y-53663365D01*
X138945016Y-53711490D01*
X138930772Y-53758445D01*
X138911995Y-53803778D01*
X138888864Y-53847051D01*
X138861604Y-53887850D01*
X138830476Y-53925779D01*
X138795779Y-53960476D01*
X138757850Y-53991604D01*
X138717051Y-54018864D01*
X138673778Y-54041995D01*
X138628445Y-54060772D01*
X138581490Y-54075016D01*
X138533365Y-54084588D01*
X138484534Y-54089398D01*
X138460000Y-54089398D01*
X138460000Y-54090000D01*
X137910000Y-54090000D01*
X137910000Y-52590000D01*
X138460000Y-52590000D01*
X138460000Y-52590602D01*
G37*
G04 #@! TD.AperFunction*
G04 #@! TA.AperFunction,SMDPad,CuDef*
G36*
X136410000Y-54090000D02*
G01*
X135860000Y-54090000D01*
X135860000Y-54089398D01*
X135835466Y-54089398D01*
X135786635Y-54084588D01*
X135738510Y-54075016D01*
X135691555Y-54060772D01*
X135646222Y-54041995D01*
X135602949Y-54018864D01*
X135562150Y-53991604D01*
X135524221Y-53960476D01*
X135489524Y-53925779D01*
X135458396Y-53887850D01*
X135431136Y-53847051D01*
X135408005Y-53803778D01*
X135389228Y-53758445D01*
X135374984Y-53711490D01*
X135365412Y-53663365D01*
X135360602Y-53614534D01*
X135360602Y-53590000D01*
X135360000Y-53590000D01*
X135360000Y-53090000D01*
X135360602Y-53090000D01*
X135360602Y-53065466D01*
X135365412Y-53016635D01*
X135374984Y-52968510D01*
X135389228Y-52921555D01*
X135408005Y-52876222D01*
X135431136Y-52832949D01*
X135458396Y-52792150D01*
X135489524Y-52754221D01*
X135524221Y-52719524D01*
X135562150Y-52688396D01*
X135602949Y-52661136D01*
X135646222Y-52638005D01*
X135691555Y-52619228D01*
X135738510Y-52604984D01*
X135786635Y-52595412D01*
X135835466Y-52590602D01*
X135860000Y-52590602D01*
X135860000Y-52590000D01*
X136410000Y-52590000D01*
X136410000Y-54090000D01*
G37*
G04 #@! TD.AperFunction*
D18*
X166370000Y-90385000D03*
X114380000Y-90385000D03*
D22*
X167640000Y-86995000D03*
X170815000Y-60325000D03*
X170815000Y-109325000D03*
X167640000Y-135995000D03*
X143510000Y-53975000D03*
X142239998Y-67944998D03*
X143510000Y-102975000D03*
X142239998Y-116944998D03*
X137160000Y-54394990D03*
X139700000Y-66675000D03*
X137160000Y-103394990D03*
X139700000Y-115675000D03*
D23*
X115570000Y-55880000D02*
X114300000Y-57150000D01*
X118110000Y-55880000D02*
X115570000Y-55880000D01*
X135860000Y-53340000D02*
X120650000Y-53340000D01*
X114300000Y-57150000D02*
X114300000Y-59555000D01*
X120650000Y-53340000D02*
X118110000Y-55880000D01*
X114300000Y-106150000D02*
X114300000Y-108555000D01*
X135860000Y-102340000D02*
X120650000Y-102340000D01*
X118110000Y-104880000D02*
X115570000Y-104880000D01*
X120650000Y-102340000D02*
X118110000Y-104880000D01*
X115570000Y-104880000D02*
X114300000Y-106150000D01*
X166370000Y-88265000D02*
X167640000Y-86995000D01*
X169545000Y-59055000D02*
X170815000Y-60325000D01*
X166290000Y-59555000D02*
X167140000Y-59555000D01*
X167640000Y-59055000D02*
X169545000Y-59055000D01*
X167140000Y-59555000D02*
X167640000Y-59055000D01*
X159224998Y-52489998D02*
X165290001Y-58555001D01*
X140594832Y-52489998D02*
X159224998Y-52489998D01*
X139744830Y-53340000D02*
X140594832Y-52489998D01*
X165290001Y-58555001D02*
X166290000Y-59555000D01*
X138460000Y-53340000D02*
X139744830Y-53340000D01*
X166370000Y-90385000D02*
X166370000Y-88265000D01*
X139744830Y-102340000D02*
X140594832Y-101489998D01*
X159224998Y-101489998D02*
X165290001Y-107555001D01*
X165290001Y-107555001D02*
X166290000Y-108555000D01*
X166370000Y-139385000D02*
X166370000Y-137265000D01*
X140594832Y-101489998D02*
X159224998Y-101489998D01*
X167640000Y-108055000D02*
X169545000Y-108055000D01*
X167140000Y-108555000D02*
X167640000Y-108055000D01*
X169545000Y-108055000D02*
X170815000Y-109325000D01*
X138460000Y-102340000D02*
X139744830Y-102340000D01*
X166370000Y-137265000D02*
X167640000Y-135995000D01*
X166290000Y-108555000D02*
X167140000Y-108555000D01*
D24*
X117685000Y-79595000D02*
X117520000Y-79430000D01*
D23*
X117520000Y-79430000D02*
X109275000Y-79430000D01*
X106840000Y-71080000D02*
X106840000Y-70055000D01*
X106840000Y-76995000D02*
X106840000Y-71080000D01*
X109275000Y-79430000D02*
X106840000Y-76995000D01*
X117520000Y-70430000D02*
X118165000Y-70430000D01*
X119020000Y-74030000D02*
X120015000Y-73035000D01*
X117520000Y-74030000D02*
X119020000Y-74030000D01*
X119020000Y-75830000D02*
X120015000Y-74835000D01*
X117520000Y-75830000D02*
X119020000Y-75830000D01*
X120015000Y-74835000D02*
X120015000Y-73025000D01*
X120015000Y-73035000D02*
X120015000Y-73025000D01*
X120015000Y-76635000D02*
X120015000Y-74835000D01*
X119020000Y-77630000D02*
X120015000Y-76635000D01*
X117520000Y-77630000D02*
X119020000Y-77630000D01*
X117520000Y-79430000D02*
X119020000Y-79430000D01*
X119270000Y-79900000D02*
X119270000Y-81680000D01*
X119380000Y-79790000D02*
X119270000Y-79900000D01*
X119270000Y-70375000D02*
X119270000Y-68180000D01*
X120015000Y-73025000D02*
X120015000Y-71120000D01*
X120015000Y-71120000D02*
X119270000Y-70375000D01*
X119215000Y-70430000D02*
X117520000Y-70430000D01*
X119270000Y-70375000D02*
X119215000Y-70430000D01*
X120015000Y-78740000D02*
X119380000Y-79375000D01*
X120015000Y-76635000D02*
X120015000Y-78740000D01*
X119020000Y-79430000D02*
X119380000Y-79375000D01*
X119380000Y-79375000D02*
X119380000Y-79790000D01*
X131870000Y-80180000D02*
X130430000Y-78740000D01*
X131870000Y-81680000D02*
X131870000Y-80180000D01*
X130430000Y-78740000D02*
X120015000Y-78740000D01*
X130430000Y-77520000D02*
X130430000Y-78740000D01*
X137520000Y-70430000D02*
X130430000Y-77520000D01*
X139020000Y-70430000D02*
X137520000Y-70430000D01*
X119270000Y-81680000D02*
X115805000Y-81680000D01*
X115805000Y-81680000D02*
X113030000Y-84455000D01*
X119270000Y-66680000D02*
X116090000Y-63500000D01*
X119270000Y-68180000D02*
X119270000Y-66680000D01*
X116090000Y-63500000D02*
X113665000Y-63500000D01*
X113665000Y-63500000D02*
X111125000Y-60960000D01*
X111125000Y-60960000D02*
X111125000Y-60325000D01*
X111125000Y-60325000D02*
X109855000Y-59055000D01*
X109855000Y-59055000D02*
X107315000Y-59055000D01*
X107315000Y-59055000D02*
X106045000Y-60325000D01*
X106840000Y-66080000D02*
X106840000Y-67105000D01*
X106045000Y-65285000D02*
X106840000Y-66080000D01*
X106045000Y-60325000D02*
X106045000Y-65285000D01*
X139635000Y-69815000D02*
X139020000Y-70430000D01*
X142175000Y-69815000D02*
X139635000Y-69815000D01*
X142175000Y-69815000D02*
X142175000Y-68009996D01*
X142175000Y-68009996D02*
X142239998Y-67944998D01*
X113030000Y-87620787D02*
X113030000Y-84455000D01*
X114380000Y-88970787D02*
X113030000Y-87620787D01*
X114380000Y-90385000D02*
X114380000Y-88970787D01*
X165735000Y-61595000D02*
X158115000Y-53975000D01*
X168275000Y-61595000D02*
X165735000Y-61595000D01*
X173990000Y-62370000D02*
X169050000Y-62370000D01*
X158115000Y-53975000D02*
X143510000Y-53975000D01*
X169050000Y-62370000D02*
X168275000Y-61595000D01*
X116090000Y-112500000D02*
X113665000Y-112500000D01*
X117520000Y-128430000D02*
X109275000Y-128430000D01*
X119270000Y-128900000D02*
X119270000Y-130680000D01*
X131870000Y-130680000D02*
X131870000Y-129180000D01*
X130430000Y-127740000D02*
X120015000Y-127740000D01*
X130430000Y-126520000D02*
X130430000Y-127740000D01*
X137520000Y-119430000D02*
X130430000Y-126520000D01*
X158115000Y-102975000D02*
X143510000Y-102975000D01*
X169050000Y-111370000D02*
X168275000Y-110595000D01*
X165735000Y-110595000D02*
X158115000Y-102975000D01*
X119270000Y-119375000D02*
X119270000Y-117180000D01*
X131870000Y-129180000D02*
X130430000Y-127740000D01*
X117520000Y-126630000D02*
X119020000Y-126630000D01*
X119270000Y-119375000D02*
X119215000Y-119430000D01*
X120015000Y-125635000D02*
X120015000Y-127740000D01*
X168275000Y-110595000D02*
X165735000Y-110595000D01*
X173990000Y-111370000D02*
X169050000Y-111370000D01*
D24*
X117685000Y-128595000D02*
X117520000Y-128430000D01*
D23*
X106840000Y-125995000D02*
X106840000Y-120080000D01*
X119270000Y-115680000D02*
X116090000Y-112500000D01*
X119270000Y-117180000D02*
X119270000Y-115680000D01*
X119215000Y-119430000D02*
X117520000Y-119430000D01*
X120015000Y-123835000D02*
X120015000Y-122025000D01*
X117520000Y-123030000D02*
X119020000Y-123030000D01*
X139635000Y-118815000D02*
X139020000Y-119430000D01*
X106045000Y-114285000D02*
X106840000Y-115080000D01*
X106045000Y-109325000D02*
X106045000Y-114285000D01*
X114380000Y-137970787D02*
X113030000Y-136620787D01*
X114380000Y-139385000D02*
X114380000Y-137970787D01*
X139020000Y-119430000D02*
X137520000Y-119430000D01*
X120015000Y-122035000D02*
X120015000Y-122025000D01*
X142175000Y-118815000D02*
X139635000Y-118815000D01*
X119020000Y-123030000D02*
X120015000Y-122035000D01*
X109275000Y-128430000D02*
X106840000Y-125995000D01*
X119020000Y-126630000D02*
X120015000Y-125635000D01*
X120015000Y-127740000D02*
X119380000Y-128375000D01*
X119020000Y-128430000D02*
X119380000Y-128375000D01*
X119020000Y-124830000D02*
X120015000Y-123835000D01*
X117520000Y-124830000D02*
X119020000Y-124830000D01*
X107315000Y-108055000D02*
X106045000Y-109325000D01*
X106840000Y-115080000D02*
X106840000Y-116105000D01*
X111125000Y-109960000D02*
X111125000Y-109325000D01*
X111125000Y-109325000D02*
X109855000Y-108055000D01*
X117520000Y-128430000D02*
X119020000Y-128430000D01*
X142175000Y-118815000D02*
X142175000Y-117009996D01*
X142175000Y-117009996D02*
X142239998Y-116944998D01*
X106840000Y-120080000D02*
X106840000Y-119055000D01*
X109855000Y-108055000D02*
X107315000Y-108055000D01*
X119270000Y-130680000D02*
X115805000Y-130680000D01*
X115805000Y-130680000D02*
X113030000Y-133455000D01*
X120015000Y-120120000D02*
X119270000Y-119375000D01*
X119380000Y-128375000D02*
X119380000Y-128790000D01*
X113665000Y-112500000D02*
X111125000Y-109960000D01*
X117520000Y-119430000D02*
X118165000Y-119430000D01*
X119380000Y-128790000D02*
X119270000Y-128900000D01*
X120015000Y-125635000D02*
X120015000Y-123835000D01*
X113030000Y-136620787D02*
X113030000Y-133455000D01*
X120015000Y-122025000D02*
X120015000Y-120120000D01*
X173990000Y-83805000D02*
X173990000Y-79375000D01*
X173990000Y-79375000D02*
X170815000Y-76200000D01*
X170815000Y-76200000D02*
X170815000Y-73025000D01*
X170145000Y-72355000D02*
X167575000Y-72355000D01*
X170815000Y-73025000D02*
X170145000Y-72355000D01*
X170815000Y-125200000D02*
X170815000Y-122025000D01*
X170145000Y-121355000D02*
X167575000Y-121355000D01*
X170815000Y-122025000D02*
X170145000Y-121355000D01*
X173990000Y-132805000D02*
X173990000Y-128375000D01*
X173990000Y-128375000D02*
X170815000Y-125200000D01*
X167575000Y-74895000D02*
X168240000Y-74895000D01*
X169545000Y-75565000D02*
X169545000Y-76835000D01*
X169545000Y-76835000D02*
X171450000Y-78740000D01*
X172292944Y-87305000D02*
X171450000Y-86462056D01*
X173990000Y-87305000D02*
X172292944Y-87305000D01*
X171450000Y-86462056D02*
X171450000Y-78740000D01*
X168875000Y-74895000D02*
X167575000Y-74895000D01*
X169545000Y-75565000D02*
X168875000Y-74895000D01*
X169545000Y-124565000D02*
X169545000Y-125835000D01*
X168875000Y-123895000D02*
X167575000Y-123895000D01*
X169545000Y-124565000D02*
X168875000Y-123895000D01*
X173990000Y-136305000D02*
X172292944Y-136305000D01*
X171450000Y-135462056D02*
X171450000Y-127740000D01*
X169545000Y-125835000D02*
X171450000Y-127740000D01*
X172292944Y-136305000D02*
X171450000Y-135462056D01*
X167575000Y-123895000D02*
X168240000Y-123895000D01*
D24*
X173990000Y-90805000D02*
X172540000Y-90805000D01*
D23*
X169239489Y-78434489D02*
X170180000Y-79375000D01*
X170180000Y-79375000D02*
X170180000Y-88900000D01*
X172085000Y-90805000D02*
X173990000Y-90805000D01*
X170180000Y-88900000D02*
X172085000Y-90805000D01*
X168574489Y-78434489D02*
X167575000Y-77435000D01*
X169239489Y-78434489D02*
X168574489Y-78434489D01*
D24*
X173990000Y-139805000D02*
X172540000Y-139805000D01*
D23*
X169239489Y-127434489D02*
X170180000Y-128375000D01*
X170180000Y-128375000D02*
X170180000Y-137900000D01*
X172085000Y-139805000D02*
X173990000Y-139805000D01*
X170180000Y-137900000D02*
X172085000Y-139805000D01*
X168574489Y-127434489D02*
X167575000Y-126435000D01*
X169239489Y-127434489D02*
X168574489Y-127434489D01*
X112395000Y-67915000D02*
X111095000Y-67915000D01*
X111095000Y-67915000D02*
X109855000Y-66675000D01*
X109855000Y-66675000D02*
X109855000Y-63500000D01*
X109855000Y-63500000D02*
X108585000Y-62230000D01*
X112395000Y-116915000D02*
X111095000Y-116915000D01*
X111095000Y-116915000D02*
X109855000Y-115675000D01*
X109855000Y-115675000D02*
X109855000Y-112500000D01*
X109855000Y-112500000D02*
X108585000Y-111230000D01*
X112395000Y-70515000D02*
X110520000Y-70515000D01*
X110520000Y-70515000D02*
X109855000Y-69850000D01*
X109390000Y-68580000D02*
X108365000Y-68580000D01*
X109855000Y-69045000D02*
X109390000Y-68580000D01*
X109855000Y-69850000D02*
X109855000Y-69045000D01*
X109855000Y-118045000D02*
X109390000Y-117580000D01*
X109855000Y-118850000D02*
X109855000Y-118045000D01*
X112395000Y-119515000D02*
X110520000Y-119515000D01*
X110520000Y-119515000D02*
X109855000Y-118850000D01*
X109390000Y-117580000D02*
X108365000Y-117580000D01*
D24*
X117520000Y-72230000D02*
X118270000Y-72230000D01*
D23*
X116020000Y-72230000D02*
X114935000Y-71145000D01*
X117520000Y-72230000D02*
X116020000Y-72230000D01*
X114935000Y-71145000D02*
X114935000Y-69850000D01*
X114300000Y-69215000D02*
X112395000Y-69215000D01*
X114935000Y-69850000D02*
X114300000Y-69215000D01*
D24*
X117520000Y-121230000D02*
X118270000Y-121230000D01*
D23*
X116020000Y-121230000D02*
X114935000Y-120145000D01*
X117520000Y-121230000D02*
X116020000Y-121230000D01*
X114935000Y-120145000D02*
X114935000Y-118850000D01*
X114300000Y-118215000D02*
X112395000Y-118215000D01*
X114935000Y-118850000D02*
X114300000Y-118215000D01*
X142050000Y-72230000D02*
X142175000Y-72355000D01*
X139020000Y-72230000D02*
X142050000Y-72230000D01*
X142050000Y-121230000D02*
X142175000Y-121355000D01*
X139020000Y-121230000D02*
X142050000Y-121230000D01*
X141310000Y-74030000D02*
X142175000Y-74895000D01*
X139020000Y-74030000D02*
X141310000Y-74030000D01*
X141310000Y-123030000D02*
X142175000Y-123895000D01*
X139020000Y-123030000D02*
X141310000Y-123030000D01*
X140570000Y-75830000D02*
X142175000Y-77435000D01*
X139020000Y-75830000D02*
X140570000Y-75830000D01*
X140570000Y-124830000D02*
X142175000Y-126435000D01*
X139020000Y-124830000D02*
X140570000Y-124830000D01*
X167575000Y-83250000D02*
X156845000Y-93980000D01*
X156845000Y-93980000D02*
X128905000Y-93980000D01*
X121070000Y-86145000D02*
X121070000Y-81680000D01*
X128905000Y-93980000D02*
X121070000Y-86145000D01*
X167575000Y-83250000D02*
X167575000Y-79975000D01*
X167575000Y-132250000D02*
X156845000Y-142980000D01*
X156845000Y-142980000D02*
X128905000Y-142980000D01*
X121070000Y-135145000D02*
X121070000Y-130680000D01*
X128905000Y-142980000D02*
X121070000Y-135145000D01*
X167575000Y-132250000D02*
X167575000Y-128975000D01*
X122870000Y-84770000D02*
X122870000Y-81680000D01*
X154940000Y-92710000D02*
X130810000Y-92710000D01*
X130810000Y-92710000D02*
X122870000Y-84770000D01*
X165035000Y-82615000D02*
X154940000Y-92710000D01*
X165035000Y-82615000D02*
X165035000Y-79975000D01*
X122870000Y-133770000D02*
X122870000Y-130680000D01*
X154940000Y-141710000D02*
X130810000Y-141710000D01*
X130810000Y-141710000D02*
X122870000Y-133770000D01*
X165035000Y-131615000D02*
X154940000Y-141710000D01*
X165035000Y-131615000D02*
X165035000Y-128975000D01*
X162495000Y-81850000D02*
X152905000Y-91440000D01*
X152905000Y-91440000D02*
X131445000Y-91440000D01*
X124670000Y-84665000D02*
X124670000Y-81680000D01*
X131445000Y-91440000D02*
X124670000Y-84665000D01*
X162495000Y-81850000D02*
X162495000Y-79975000D01*
X131445000Y-140440000D02*
X124670000Y-133665000D01*
X162495000Y-130850000D02*
X162495000Y-128975000D01*
X124670000Y-133665000D02*
X124670000Y-130680000D01*
X162495000Y-130850000D02*
X152905000Y-140440000D01*
X152905000Y-140440000D02*
X131445000Y-140440000D01*
X159955000Y-81980000D02*
X151765000Y-90170000D01*
X151765000Y-90170000D02*
X132080000Y-90170000D01*
X126470000Y-84560000D02*
X126470000Y-81680000D01*
X132080000Y-90170000D02*
X126470000Y-84560000D01*
X159955000Y-81980000D02*
X159955000Y-79975000D01*
X159955000Y-130980000D02*
X151765000Y-139170000D01*
X151765000Y-139170000D02*
X132080000Y-139170000D01*
X126470000Y-133560000D02*
X126470000Y-130680000D01*
X132080000Y-139170000D02*
X126470000Y-133560000D01*
X159955000Y-130980000D02*
X159955000Y-128975000D01*
X157415000Y-82485000D02*
X151000000Y-88900000D01*
X151000000Y-88900000D02*
X132715000Y-88900000D01*
X128270000Y-84455000D02*
X128270000Y-81680000D01*
X132715000Y-88900000D02*
X128270000Y-84455000D01*
X157415000Y-82485000D02*
X157415000Y-79975000D01*
X157415000Y-131485000D02*
X151000000Y-137900000D01*
X151000000Y-137900000D02*
X132715000Y-137900000D01*
X128270000Y-133455000D02*
X128270000Y-130680000D01*
X132715000Y-137900000D02*
X128270000Y-133455000D01*
X157415000Y-131485000D02*
X157415000Y-128975000D01*
X154875000Y-82485000D02*
X149730000Y-87630000D01*
X149730000Y-87630000D02*
X133985000Y-87630000D01*
X130070000Y-83715000D02*
X130070000Y-81680000D01*
X133985000Y-87630000D02*
X130070000Y-83715000D01*
X154875000Y-82485000D02*
X154875000Y-79975000D01*
X149730000Y-136630000D02*
X133985000Y-136630000D01*
X130070000Y-132715000D02*
X130070000Y-130680000D01*
X133985000Y-136630000D02*
X130070000Y-132715000D01*
X154875000Y-131485000D02*
X149730000Y-136630000D01*
X154875000Y-131485000D02*
X154875000Y-128975000D01*
X135890000Y-86360000D02*
X133670000Y-84140000D01*
X133670000Y-84140000D02*
X133670000Y-81680000D01*
X147363492Y-86360000D02*
X135890000Y-86360000D01*
X152335000Y-81388492D02*
X147363492Y-86360000D01*
X152335000Y-81388492D02*
X152335000Y-79975000D01*
X147363492Y-135360000D02*
X135890000Y-135360000D01*
X152335000Y-130388492D02*
X147363492Y-135360000D01*
X152335000Y-130388492D02*
X152335000Y-128975000D01*
X135890000Y-135360000D02*
X133670000Y-133140000D01*
X133670000Y-133140000D02*
X133670000Y-130680000D01*
X149795000Y-81850000D02*
X146555000Y-85090000D01*
X146555000Y-85090000D02*
X137160000Y-85090000D01*
X135470000Y-83400000D02*
X135470000Y-81680000D01*
X137160000Y-85090000D02*
X135470000Y-83400000D01*
X149795000Y-81850000D02*
X149795000Y-79975000D01*
X137160000Y-134090000D02*
X135470000Y-132400000D01*
X149795000Y-130850000D02*
X149795000Y-128975000D01*
X149795000Y-130850000D02*
X146555000Y-134090000D01*
X146555000Y-134090000D02*
X137160000Y-134090000D01*
X135470000Y-132400000D02*
X135470000Y-130680000D01*
D24*
X137270000Y-81680000D02*
X137270000Y-82025000D01*
D23*
X147255000Y-82485000D02*
X145920000Y-83820000D01*
X145920000Y-83820000D02*
X137795000Y-83820000D01*
X137270000Y-83295000D02*
X137270000Y-81680000D01*
X137795000Y-83820000D02*
X137270000Y-83295000D01*
X147255000Y-82485000D02*
X147255000Y-79975000D01*
D24*
X137270000Y-130680000D02*
X137270000Y-131025000D01*
D23*
X147255000Y-131485000D02*
X145920000Y-132820000D01*
X145920000Y-132820000D02*
X137795000Y-132820000D01*
X137270000Y-132295000D02*
X137270000Y-130680000D01*
X137795000Y-132820000D02*
X137270000Y-132295000D01*
X147255000Y-131485000D02*
X147255000Y-128975000D01*
D24*
X144715000Y-80710000D02*
X144715000Y-79975000D01*
D23*
X144715000Y-81850000D02*
X144015000Y-82550000D01*
X144015000Y-82550000D02*
X140335000Y-82550000D01*
X139020000Y-81235000D02*
X139020000Y-79430000D01*
X140335000Y-82550000D02*
X139020000Y-81235000D01*
X144715000Y-81850000D02*
X144715000Y-79975000D01*
X140335000Y-131550000D02*
X139020000Y-130235000D01*
X144715000Y-130850000D02*
X144715000Y-128975000D01*
D24*
X144715000Y-129710000D02*
X144715000Y-128975000D01*
D23*
X144715000Y-130850000D02*
X144015000Y-131550000D01*
X144015000Y-131550000D02*
X140335000Y-131550000D01*
X139020000Y-130235000D02*
X139020000Y-128430000D01*
X139830000Y-77630000D02*
X139020000Y-77630000D01*
X142175000Y-79975000D02*
X139830000Y-77630000D01*
X142175000Y-128975000D02*
X139830000Y-126630000D01*
X139830000Y-126630000D02*
X139020000Y-126630000D01*
X136745000Y-65405000D02*
X135470000Y-66680000D01*
X135470000Y-66680000D02*
X135470000Y-68180000D01*
X145415000Y-65405000D02*
X136745000Y-65405000D01*
X147255000Y-69815000D02*
X147255000Y-67245000D01*
X147255000Y-67245000D02*
X145415000Y-65405000D01*
X145415000Y-114405000D02*
X136745000Y-114405000D01*
X147255000Y-118815000D02*
X147255000Y-116245000D01*
X147255000Y-116245000D02*
X145415000Y-114405000D01*
X136745000Y-114405000D02*
X135470000Y-115680000D01*
X135470000Y-115680000D02*
X135470000Y-117180000D01*
X133670000Y-65720000D02*
X133670000Y-68180000D01*
X135124978Y-64265022D02*
X133670000Y-65720000D01*
X149795000Y-69815000D02*
X149795000Y-66740000D01*
X147320022Y-64265022D02*
X135124978Y-64265022D01*
X149795000Y-66740000D02*
X147320022Y-64265022D01*
X149795000Y-118815000D02*
X149795000Y-115740000D01*
X147320022Y-113265022D02*
X135124978Y-113265022D01*
X149795000Y-115740000D02*
X147320022Y-113265022D01*
X133670000Y-114720000D02*
X133670000Y-117180000D01*
X135124978Y-113265022D02*
X133670000Y-114720000D01*
X131870000Y-64980000D02*
X131870000Y-68180000D01*
X133985000Y-62865000D02*
X131870000Y-64980000D01*
X147955000Y-62865000D02*
X133985000Y-62865000D01*
X152335000Y-69815000D02*
X152335000Y-67245000D01*
X152335000Y-67245000D02*
X147955000Y-62865000D01*
X131870000Y-113980000D02*
X131870000Y-117180000D01*
X133985000Y-111865000D02*
X131870000Y-113980000D01*
X147955000Y-111865000D02*
X133985000Y-111865000D01*
X152335000Y-118815000D02*
X152335000Y-116245000D01*
X152335000Y-116245000D02*
X147955000Y-111865000D01*
X130070000Y-64240000D02*
X130070000Y-68180000D01*
X132715000Y-61595000D02*
X130070000Y-64240000D01*
X148590000Y-61595000D02*
X132715000Y-61595000D01*
X154875000Y-69815000D02*
X154875000Y-67880000D01*
X154875000Y-67880000D02*
X148590000Y-61595000D01*
X154875000Y-116880000D02*
X148590000Y-110595000D01*
X130070000Y-113240000D02*
X130070000Y-117180000D01*
X132715000Y-110595000D02*
X130070000Y-113240000D01*
X148590000Y-110595000D02*
X132715000Y-110595000D01*
X154875000Y-118815000D02*
X154875000Y-116880000D01*
X128270000Y-64135000D02*
X128270000Y-68180000D01*
X132080000Y-60325000D02*
X128270000Y-64135000D01*
X149916746Y-60325000D02*
X132080000Y-60325000D01*
X157415000Y-69815000D02*
X157415000Y-67823254D01*
X157415000Y-67823254D02*
X149916746Y-60325000D01*
X128270000Y-113135000D02*
X128270000Y-117180000D01*
X132080000Y-109325000D02*
X128270000Y-113135000D01*
X149916746Y-109325000D02*
X132080000Y-109325000D01*
X157415000Y-118815000D02*
X157415000Y-116823254D01*
X157415000Y-116823254D02*
X149916746Y-109325000D01*
X126470000Y-64030000D02*
X126470000Y-66680000D01*
X131445000Y-59055000D02*
X126470000Y-64030000D01*
X126470000Y-66680000D02*
X126470000Y-68180000D01*
X151130000Y-59055000D02*
X131445000Y-59055000D01*
X159955000Y-69815000D02*
X159955000Y-67880000D01*
X159955000Y-67880000D02*
X151130000Y-59055000D01*
X126470000Y-113030000D02*
X126470000Y-115680000D01*
X131445000Y-108055000D02*
X126470000Y-113030000D01*
X126470000Y-115680000D02*
X126470000Y-117180000D01*
X151130000Y-108055000D02*
X131445000Y-108055000D01*
X159955000Y-118815000D02*
X159955000Y-116880000D01*
X159955000Y-116880000D02*
X151130000Y-108055000D01*
X130175000Y-57785000D02*
X124670000Y-63290000D01*
X152270000Y-57785000D02*
X130175000Y-57785000D01*
X162495000Y-69815000D02*
X162495000Y-68010000D01*
X124670000Y-63290000D02*
X124670000Y-68180000D01*
X162495000Y-68010000D02*
X152270000Y-57785000D01*
X124670000Y-112290000D02*
X124670000Y-117180000D01*
X162495000Y-117010000D02*
X152270000Y-106785000D01*
X130175000Y-106785000D02*
X124670000Y-112290000D01*
X152270000Y-106785000D02*
X130175000Y-106785000D01*
X162495000Y-118815000D02*
X162495000Y-117010000D01*
X122870000Y-66680000D02*
X122870000Y-68180000D01*
X122870000Y-61915000D02*
X122870000Y-66680000D01*
X165035000Y-68010000D02*
X166370000Y-66675000D01*
X165035000Y-69815000D02*
X165035000Y-68010000D01*
X128270000Y-56515000D02*
X122870000Y-61915000D01*
X164465000Y-62865000D02*
X159385000Y-62865000D01*
X153035000Y-56515000D02*
X128270000Y-56515000D01*
X166370000Y-66675000D02*
X166370000Y-64770000D01*
X159385000Y-62865000D02*
X153035000Y-56515000D01*
X166370000Y-64770000D02*
X164465000Y-62865000D01*
X122870000Y-115680000D02*
X122870000Y-117180000D01*
X122870000Y-110915000D02*
X122870000Y-115680000D01*
X165035000Y-117010000D02*
X166370000Y-115675000D01*
X165035000Y-118815000D02*
X165035000Y-117010000D01*
X128270000Y-105515000D02*
X122870000Y-110915000D01*
X164465000Y-111865000D02*
X159385000Y-111865000D01*
X153035000Y-105515000D02*
X128270000Y-105515000D01*
X166370000Y-115675000D02*
X166370000Y-113770000D01*
X159385000Y-111865000D02*
X153035000Y-105515000D01*
X166370000Y-113770000D02*
X164465000Y-111865000D01*
X127635000Y-55245000D02*
X121070000Y-61810000D01*
X160655000Y-61595000D02*
X154305000Y-55245000D01*
X164465000Y-61595000D02*
X160655000Y-61595000D01*
X121070000Y-61810000D02*
X121070000Y-68180000D01*
X167575000Y-68612919D02*
X168275000Y-67912919D01*
X167005000Y-62865000D02*
X165735000Y-62865000D01*
X167575000Y-69815000D02*
X167575000Y-68612919D01*
X154305000Y-55245000D02*
X127635000Y-55245000D01*
X168275000Y-67912919D02*
X168275000Y-64135000D01*
X168275000Y-64135000D02*
X167005000Y-62865000D01*
X165735000Y-62865000D02*
X164465000Y-61595000D01*
X127635000Y-104245000D02*
X121070000Y-110810000D01*
X160655000Y-110595000D02*
X154305000Y-104245000D01*
X164465000Y-110595000D02*
X160655000Y-110595000D01*
X121070000Y-110810000D02*
X121070000Y-117180000D01*
X167575000Y-117612919D02*
X168275000Y-116912919D01*
X167005000Y-111865000D02*
X165735000Y-111865000D01*
X168275000Y-113135000D02*
X167005000Y-111865000D01*
X165735000Y-111865000D02*
X164465000Y-110595000D01*
X167575000Y-118815000D02*
X167575000Y-117612919D01*
X154305000Y-104245000D02*
X127635000Y-104245000D01*
X168275000Y-116912919D02*
X168275000Y-113135000D01*
X170815000Y-51435000D02*
X137795000Y-51435000D01*
X137160000Y-52070000D02*
X137160000Y-53340000D01*
X137795000Y-51435000D02*
X137160000Y-52070000D01*
X137270000Y-68180000D02*
X137270000Y-67835000D01*
X173990000Y-58870000D02*
X173990000Y-55880000D01*
X173990000Y-55880000D02*
X172085000Y-53975000D01*
X172085000Y-52705000D02*
X170815000Y-51435000D01*
X172085000Y-53975000D02*
X172085000Y-52705000D01*
X137160000Y-53340000D02*
X137160000Y-54394990D01*
X140265685Y-66675000D02*
X139700000Y-66675000D01*
X144715000Y-67880000D02*
X143510000Y-66675000D01*
X143510000Y-66675000D02*
X140265685Y-66675000D01*
X137270000Y-68180000D02*
X138370000Y-68180000D01*
X138370000Y-68180000D02*
X139700000Y-66850000D01*
X144715000Y-69815000D02*
X144715000Y-67880000D01*
X139700000Y-66850000D02*
X139700000Y-66675000D01*
X137270000Y-117180000D02*
X138370000Y-117180000D01*
X138370000Y-117180000D02*
X139700000Y-115850000D01*
X170815000Y-100435000D02*
X137795000Y-100435000D01*
X137160000Y-101070000D02*
X137160000Y-102340000D01*
X137795000Y-100435000D02*
X137160000Y-101070000D01*
X137270000Y-117180000D02*
X137270000Y-116835000D01*
X172085000Y-102975000D02*
X172085000Y-101705000D01*
X137160000Y-102340000D02*
X137160000Y-103394990D01*
X173990000Y-107870000D02*
X173990000Y-104880000D01*
X173990000Y-104880000D02*
X172085000Y-102975000D01*
X172085000Y-101705000D02*
X170815000Y-100435000D01*
X140265685Y-115675000D02*
X139700000Y-115675000D01*
X144715000Y-116880000D02*
X143510000Y-115675000D01*
X143510000Y-115675000D02*
X140265685Y-115675000D01*
X144715000Y-118815000D02*
X144715000Y-116880000D01*
X139700000Y-115850000D02*
X139700000Y-115675000D01*
X170115000Y-69815000D02*
X172120000Y-69815000D01*
X173990000Y-67945000D02*
X173990000Y-65870000D01*
X172120000Y-69815000D02*
X173990000Y-67945000D01*
X173990000Y-116945000D02*
X173990000Y-114870000D01*
X172120000Y-118815000D02*
X173990000Y-116945000D01*
X170115000Y-118815000D02*
X172120000Y-118815000D01*
M02*
