G04 #@! TF.GenerationSoftware,KiCad,Pcbnew,5.1.5-52549c5~86~ubuntu18.04.1*
G04 #@! TF.CreationDate,2020-07-01T00:42:29-05:00*
G04 #@! TF.ProjectId,RAK811_LORA_ADAPTABLE_NODE_PANEL,52414b38-3131-45f4-9c4f-52415f414441,rev?*
G04 #@! TF.SameCoordinates,Original*
G04 #@! TF.FileFunction,Legend,Bot*
G04 #@! TF.FilePolarity,Positive*
%FSLAX46Y46*%
G04 Gerber Fmt 4.6, Leading zero omitted, Abs format (unit mm)*
G04 Created by KiCad (PCBNEW 5.1.5-52549c5~86~ubuntu18.04.1) date 2020-07-01 00:42:29*
%MOMM*%
%LPD*%
G04 APERTURE LIST*
%ADD10C,0.150000*%
%ADD11C,0.120000*%
%ADD12C,0.010000*%
%ADD13C,3.102000*%
%ADD14R,2.502000X2.502000*%
%ADD15C,2.502000*%
%ADD16R,2.302000X1.152000*%
%ADD17R,1.152000X1.102000*%
%ADD18C,1.802000*%
%ADD19O,1.802000X1.802000*%
%ADD20C,0.100000*%
%ADD21R,1.602000X1.102000*%
%ADD22C,2.742000*%
%ADD23C,2.102000*%
%ADD24R,2.102000X1.302000*%
%ADD25R,1.302000X2.102000*%
%ADD26R,1.102000X1.602000*%
G04 APERTURE END LIST*
D10*
X139713690Y-106492380D02*
X139713690Y-107206666D01*
X139761309Y-107349523D01*
X139856547Y-107444761D01*
X139999404Y-107492380D01*
X140094642Y-107492380D01*
X139237500Y-107492380D02*
X139237500Y-106492380D01*
X138856547Y-106492380D01*
X138761309Y-106540000D01*
X138713690Y-106587619D01*
X138666071Y-106682857D01*
X138666071Y-106825714D01*
X138713690Y-106920952D01*
X138761309Y-106968571D01*
X138856547Y-107016190D01*
X139237500Y-107016190D01*
X137713690Y-107492380D02*
X138285119Y-107492380D01*
X137999404Y-107492380D02*
X137999404Y-106492380D01*
X138094642Y-106635238D01*
X138189880Y-106730476D01*
X138285119Y-106778095D01*
X136189880Y-106968571D02*
X136047023Y-107016190D01*
X135999404Y-107063809D01*
X135951785Y-107159047D01*
X135951785Y-107301904D01*
X135999404Y-107397142D01*
X136047023Y-107444761D01*
X136142261Y-107492380D01*
X136523214Y-107492380D01*
X136523214Y-106492380D01*
X136189880Y-106492380D01*
X136094642Y-106540000D01*
X136047023Y-106587619D01*
X135999404Y-106682857D01*
X135999404Y-106778095D01*
X136047023Y-106873333D01*
X136094642Y-106920952D01*
X136189880Y-106968571D01*
X136523214Y-106968571D01*
X135570833Y-107206666D02*
X135094642Y-107206666D01*
X135666071Y-107492380D02*
X135332738Y-106492380D01*
X134999404Y-107492380D01*
X134808928Y-106492380D02*
X134237500Y-106492380D01*
X134523214Y-107492380D02*
X134523214Y-106492380D01*
X134047023Y-106492380D02*
X133475595Y-106492380D01*
X133761309Y-107492380D02*
X133761309Y-106492380D01*
X139475595Y-109142380D02*
X140047023Y-109142380D01*
X139761309Y-109142380D02*
X139761309Y-108142380D01*
X139856547Y-108285238D01*
X139951785Y-108380476D01*
X140047023Y-108428095D01*
X139047023Y-108761428D02*
X138285119Y-108761428D01*
X137856547Y-108237619D02*
X137808928Y-108190000D01*
X137713690Y-108142380D01*
X137475595Y-108142380D01*
X137380357Y-108190000D01*
X137332738Y-108237619D01*
X137285119Y-108332857D01*
X137285119Y-108428095D01*
X137332738Y-108570952D01*
X137904166Y-109142380D01*
X137285119Y-109142380D01*
X135761309Y-108618571D02*
X135618452Y-108666190D01*
X135570833Y-108713809D01*
X135523214Y-108809047D01*
X135523214Y-108951904D01*
X135570833Y-109047142D01*
X135618452Y-109094761D01*
X135713690Y-109142380D01*
X136094642Y-109142380D01*
X136094642Y-108142380D01*
X135761309Y-108142380D01*
X135666071Y-108190000D01*
X135618452Y-108237619D01*
X135570833Y-108332857D01*
X135570833Y-108428095D01*
X135618452Y-108523333D01*
X135666071Y-108570952D01*
X135761309Y-108618571D01*
X136094642Y-108618571D01*
X135237500Y-108142380D02*
X134666071Y-108142380D01*
X134951785Y-109142380D02*
X134951785Y-108142380D01*
X133808928Y-109142380D02*
X134380357Y-109142380D01*
X134094642Y-109142380D02*
X134094642Y-108142380D01*
X134189880Y-108285238D01*
X134285119Y-108380476D01*
X134380357Y-108428095D01*
X133380357Y-108761428D02*
X132618452Y-108761428D01*
X132999404Y-109142380D02*
X132999404Y-108380476D01*
X131808928Y-108618571D02*
X131666071Y-108666190D01*
X131618452Y-108713809D01*
X131570833Y-108809047D01*
X131570833Y-108951904D01*
X131618452Y-109047142D01*
X131666071Y-109094761D01*
X131761309Y-109142380D01*
X132142261Y-109142380D01*
X132142261Y-108142380D01*
X131808928Y-108142380D01*
X131713690Y-108190000D01*
X131666071Y-108237619D01*
X131618452Y-108332857D01*
X131618452Y-108428095D01*
X131666071Y-108523333D01*
X131713690Y-108570952D01*
X131808928Y-108618571D01*
X132142261Y-108618571D01*
X131285119Y-108142380D02*
X130713690Y-108142380D01*
X130999404Y-109142380D02*
X130999404Y-108142380D01*
X130427976Y-108237619D02*
X130380357Y-108190000D01*
X130285119Y-108142380D01*
X130047023Y-108142380D01*
X129951785Y-108190000D01*
X129904166Y-108237619D01*
X129856547Y-108332857D01*
X129856547Y-108428095D01*
X129904166Y-108570952D01*
X130475595Y-109142380D01*
X129856547Y-109142380D01*
X140047023Y-109887619D02*
X139999404Y-109840000D01*
X139904166Y-109792380D01*
X139666071Y-109792380D01*
X139570833Y-109840000D01*
X139523214Y-109887619D01*
X139475595Y-109982857D01*
X139475595Y-110078095D01*
X139523214Y-110220952D01*
X140094642Y-110792380D01*
X139475595Y-110792380D01*
X139047023Y-110411428D02*
X138285119Y-110411428D01*
X137904166Y-109792380D02*
X137285119Y-109792380D01*
X137618452Y-110173333D01*
X137475595Y-110173333D01*
X137380357Y-110220952D01*
X137332738Y-110268571D01*
X137285119Y-110363809D01*
X137285119Y-110601904D01*
X137332738Y-110697142D01*
X137380357Y-110744761D01*
X137475595Y-110792380D01*
X137761309Y-110792380D01*
X137856547Y-110744761D01*
X137904166Y-110697142D01*
X135761309Y-110268571D02*
X135618452Y-110316190D01*
X135570833Y-110363809D01*
X135523214Y-110459047D01*
X135523214Y-110601904D01*
X135570833Y-110697142D01*
X135618452Y-110744761D01*
X135713690Y-110792380D01*
X136094642Y-110792380D01*
X136094642Y-109792380D01*
X135761309Y-109792380D01*
X135666071Y-109840000D01*
X135618452Y-109887619D01*
X135570833Y-109982857D01*
X135570833Y-110078095D01*
X135618452Y-110173333D01*
X135666071Y-110220952D01*
X135761309Y-110268571D01*
X136094642Y-110268571D01*
X135237500Y-109792380D02*
X134666071Y-109792380D01*
X134951785Y-110792380D02*
X134951785Y-109792380D01*
X134380357Y-109887619D02*
X134332738Y-109840000D01*
X134237500Y-109792380D01*
X133999404Y-109792380D01*
X133904166Y-109840000D01*
X133856547Y-109887619D01*
X133808928Y-109982857D01*
X133808928Y-110078095D01*
X133856547Y-110220952D01*
X134427976Y-110792380D01*
X133808928Y-110792380D01*
X158971666Y-139242380D02*
X159305000Y-138766190D01*
X159543095Y-139242380D02*
X159543095Y-138242380D01*
X159162142Y-138242380D01*
X159066904Y-138290000D01*
X159019285Y-138337619D01*
X158971666Y-138432857D01*
X158971666Y-138575714D01*
X159019285Y-138670952D01*
X159066904Y-138718571D01*
X159162142Y-138766190D01*
X159543095Y-138766190D01*
X158590714Y-138956666D02*
X158114523Y-138956666D01*
X158685952Y-139242380D02*
X158352619Y-138242380D01*
X158019285Y-139242380D01*
X157685952Y-139242380D02*
X157685952Y-138242380D01*
X157114523Y-139242380D02*
X157543095Y-138670952D01*
X157114523Y-138242380D02*
X157685952Y-138813809D01*
X156543095Y-138670952D02*
X156638333Y-138623333D01*
X156685952Y-138575714D01*
X156733571Y-138480476D01*
X156733571Y-138432857D01*
X156685952Y-138337619D01*
X156638333Y-138290000D01*
X156543095Y-138242380D01*
X156352619Y-138242380D01*
X156257380Y-138290000D01*
X156209761Y-138337619D01*
X156162142Y-138432857D01*
X156162142Y-138480476D01*
X156209761Y-138575714D01*
X156257380Y-138623333D01*
X156352619Y-138670952D01*
X156543095Y-138670952D01*
X156638333Y-138718571D01*
X156685952Y-138766190D01*
X156733571Y-138861428D01*
X156733571Y-139051904D01*
X156685952Y-139147142D01*
X156638333Y-139194761D01*
X156543095Y-139242380D01*
X156352619Y-139242380D01*
X156257380Y-139194761D01*
X156209761Y-139147142D01*
X156162142Y-139051904D01*
X156162142Y-138861428D01*
X156209761Y-138766190D01*
X156257380Y-138718571D01*
X156352619Y-138670952D01*
X155209761Y-139242380D02*
X155781190Y-139242380D01*
X155495476Y-139242380D02*
X155495476Y-138242380D01*
X155590714Y-138385238D01*
X155685952Y-138480476D01*
X155781190Y-138528095D01*
X154257380Y-139242380D02*
X154828809Y-139242380D01*
X154543095Y-139242380D02*
X154543095Y-138242380D01*
X154638333Y-138385238D01*
X154733571Y-138480476D01*
X154828809Y-138528095D01*
X152590714Y-139242380D02*
X153066904Y-139242380D01*
X153066904Y-138242380D01*
X152066904Y-138242380D02*
X151876428Y-138242380D01*
X151781190Y-138290000D01*
X151685952Y-138385238D01*
X151638333Y-138575714D01*
X151638333Y-138909047D01*
X151685952Y-139099523D01*
X151781190Y-139194761D01*
X151876428Y-139242380D01*
X152066904Y-139242380D01*
X152162142Y-139194761D01*
X152257380Y-139099523D01*
X152305000Y-138909047D01*
X152305000Y-138575714D01*
X152257380Y-138385238D01*
X152162142Y-138290000D01*
X152066904Y-138242380D01*
X150638333Y-139242380D02*
X150971666Y-138766190D01*
X151209761Y-139242380D02*
X151209761Y-138242380D01*
X150828809Y-138242380D01*
X150733571Y-138290000D01*
X150685952Y-138337619D01*
X150638333Y-138432857D01*
X150638333Y-138575714D01*
X150685952Y-138670952D01*
X150733571Y-138718571D01*
X150828809Y-138766190D01*
X151209761Y-138766190D01*
X150257380Y-138956666D02*
X149781190Y-138956666D01*
X150352619Y-139242380D02*
X150019285Y-138242380D01*
X149685952Y-139242380D01*
X160519285Y-140606666D02*
X160043095Y-140606666D01*
X160614523Y-140892380D02*
X160281190Y-139892380D01*
X159947857Y-140892380D01*
X159614523Y-140892380D02*
X159614523Y-139892380D01*
X159376428Y-139892380D01*
X159233571Y-139940000D01*
X159138333Y-140035238D01*
X159090714Y-140130476D01*
X159043095Y-140320952D01*
X159043095Y-140463809D01*
X159090714Y-140654285D01*
X159138333Y-140749523D01*
X159233571Y-140844761D01*
X159376428Y-140892380D01*
X159614523Y-140892380D01*
X158662142Y-140606666D02*
X158185952Y-140606666D01*
X158757380Y-140892380D02*
X158424047Y-139892380D01*
X158090714Y-140892380D01*
X157757380Y-140892380D02*
X157757380Y-139892380D01*
X157376428Y-139892380D01*
X157281190Y-139940000D01*
X157233571Y-139987619D01*
X157185952Y-140082857D01*
X157185952Y-140225714D01*
X157233571Y-140320952D01*
X157281190Y-140368571D01*
X157376428Y-140416190D01*
X157757380Y-140416190D01*
X156900238Y-139892380D02*
X156328809Y-139892380D01*
X156614523Y-140892380D02*
X156614523Y-139892380D01*
X156043095Y-140606666D02*
X155566904Y-140606666D01*
X156138333Y-140892380D02*
X155805000Y-139892380D01*
X155471666Y-140892380D01*
X154805000Y-140368571D02*
X154662142Y-140416190D01*
X154614523Y-140463809D01*
X154566904Y-140559047D01*
X154566904Y-140701904D01*
X154614523Y-140797142D01*
X154662142Y-140844761D01*
X154757380Y-140892380D01*
X155138333Y-140892380D01*
X155138333Y-139892380D01*
X154805000Y-139892380D01*
X154709761Y-139940000D01*
X154662142Y-139987619D01*
X154614523Y-140082857D01*
X154614523Y-140178095D01*
X154662142Y-140273333D01*
X154709761Y-140320952D01*
X154805000Y-140368571D01*
X155138333Y-140368571D01*
X153662142Y-140892380D02*
X154138333Y-140892380D01*
X154138333Y-139892380D01*
X153328809Y-140368571D02*
X152995476Y-140368571D01*
X152852619Y-140892380D02*
X153328809Y-140892380D01*
X153328809Y-139892380D01*
X152852619Y-139892380D01*
X151662142Y-140892380D02*
X151662142Y-139892380D01*
X151090714Y-140892380D01*
X151090714Y-139892380D01*
X150424047Y-139892380D02*
X150233571Y-139892380D01*
X150138333Y-139940000D01*
X150043095Y-140035238D01*
X149995476Y-140225714D01*
X149995476Y-140559047D01*
X150043095Y-140749523D01*
X150138333Y-140844761D01*
X150233571Y-140892380D01*
X150424047Y-140892380D01*
X150519285Y-140844761D01*
X150614523Y-140749523D01*
X150662142Y-140559047D01*
X150662142Y-140225714D01*
X150614523Y-140035238D01*
X150519285Y-139940000D01*
X150424047Y-139892380D01*
X149566904Y-140892380D02*
X149566904Y-139892380D01*
X149328809Y-139892380D01*
X149185952Y-139940000D01*
X149090714Y-140035238D01*
X149043095Y-140130476D01*
X148995476Y-140320952D01*
X148995476Y-140463809D01*
X149043095Y-140654285D01*
X149090714Y-140749523D01*
X149185952Y-140844761D01*
X149328809Y-140892380D01*
X149566904Y-140892380D01*
X148566904Y-140368571D02*
X148233571Y-140368571D01*
X148090714Y-140892380D02*
X148566904Y-140892380D01*
X148566904Y-139892380D01*
X148090714Y-139892380D01*
X155495476Y-141542380D02*
X155162142Y-142542380D01*
X154828809Y-141542380D01*
X153543095Y-141542380D02*
X153447857Y-141542380D01*
X153352619Y-141590000D01*
X153305000Y-141637619D01*
X153257380Y-141732857D01*
X153209761Y-141923333D01*
X153209761Y-142161428D01*
X153257380Y-142351904D01*
X153305000Y-142447142D01*
X153352619Y-142494761D01*
X153447857Y-142542380D01*
X153543095Y-142542380D01*
X153638333Y-142494761D01*
X153685952Y-142447142D01*
X153733571Y-142351904D01*
X153781190Y-142161428D01*
X153781190Y-141923333D01*
X153733571Y-141732857D01*
X153685952Y-141637619D01*
X153638333Y-141590000D01*
X153543095Y-141542380D01*
X113043690Y-129987380D02*
X113043690Y-130701666D01*
X113091309Y-130844523D01*
X113186547Y-130939761D01*
X113329404Y-130987380D01*
X113424642Y-130987380D01*
X112567500Y-130987380D02*
X112567500Y-129987380D01*
X112186547Y-129987380D01*
X112091309Y-130035000D01*
X112043690Y-130082619D01*
X111996071Y-130177857D01*
X111996071Y-130320714D01*
X112043690Y-130415952D01*
X112091309Y-130463571D01*
X112186547Y-130511190D01*
X112567500Y-130511190D01*
X111615119Y-130082619D02*
X111567500Y-130035000D01*
X111472261Y-129987380D01*
X111234166Y-129987380D01*
X111138928Y-130035000D01*
X111091309Y-130082619D01*
X111043690Y-130177857D01*
X111043690Y-130273095D01*
X111091309Y-130415952D01*
X111662738Y-130987380D01*
X111043690Y-130987380D01*
X109900833Y-130701666D02*
X109424642Y-130701666D01*
X109996071Y-130987380D02*
X109662738Y-129987380D01*
X109329404Y-130987380D01*
X108996071Y-130987380D02*
X108996071Y-129987380D01*
X108424642Y-130987380D01*
X108424642Y-129987380D01*
X108091309Y-129987380D02*
X107519880Y-129987380D01*
X107805595Y-130987380D02*
X107805595Y-129987380D01*
X112805595Y-132637380D02*
X113377023Y-132637380D01*
X113091309Y-132637380D02*
X113091309Y-131637380D01*
X113186547Y-131780238D01*
X113281785Y-131875476D01*
X113377023Y-131923095D01*
X112377023Y-132256428D02*
X111615119Y-132256428D01*
X111186547Y-131732619D02*
X111138928Y-131685000D01*
X111043690Y-131637380D01*
X110805595Y-131637380D01*
X110710357Y-131685000D01*
X110662738Y-131732619D01*
X110615119Y-131827857D01*
X110615119Y-131923095D01*
X110662738Y-132065952D01*
X111234166Y-132637380D01*
X110615119Y-132637380D01*
X109138928Y-131637380D02*
X109138928Y-132351666D01*
X109186547Y-132494523D01*
X109281785Y-132589761D01*
X109424642Y-132637380D01*
X109519880Y-132637380D01*
X108234166Y-131637380D02*
X108424642Y-131637380D01*
X108519880Y-131685000D01*
X108567500Y-131732619D01*
X108662738Y-131875476D01*
X108710357Y-132065952D01*
X108710357Y-132446904D01*
X108662738Y-132542142D01*
X108615119Y-132589761D01*
X108519880Y-132637380D01*
X108329404Y-132637380D01*
X108234166Y-132589761D01*
X108186547Y-132542142D01*
X108138928Y-132446904D01*
X108138928Y-132208809D01*
X108186547Y-132113571D01*
X108234166Y-132065952D01*
X108329404Y-132018333D01*
X108519880Y-132018333D01*
X108615119Y-132065952D01*
X108662738Y-132113571D01*
X108710357Y-132208809D01*
X113377023Y-133382619D02*
X113329404Y-133335000D01*
X113234166Y-133287380D01*
X112996071Y-133287380D01*
X112900833Y-133335000D01*
X112853214Y-133382619D01*
X112805595Y-133477857D01*
X112805595Y-133573095D01*
X112853214Y-133715952D01*
X113424642Y-134287380D01*
X112805595Y-134287380D01*
X112377023Y-133906428D02*
X111615119Y-133906428D01*
X111234166Y-133287380D02*
X110615119Y-133287380D01*
X110948452Y-133668333D01*
X110805595Y-133668333D01*
X110710357Y-133715952D01*
X110662738Y-133763571D01*
X110615119Y-133858809D01*
X110615119Y-134096904D01*
X110662738Y-134192142D01*
X110710357Y-134239761D01*
X110805595Y-134287380D01*
X111091309Y-134287380D01*
X111186547Y-134239761D01*
X111234166Y-134192142D01*
X109424642Y-133287380D02*
X109424642Y-134096904D01*
X109377023Y-134192142D01*
X109329404Y-134239761D01*
X109234166Y-134287380D01*
X109043690Y-134287380D01*
X108948452Y-134239761D01*
X108900833Y-134192142D01*
X108853214Y-134096904D01*
X108853214Y-133287380D01*
X108377023Y-134192142D02*
X108329404Y-134239761D01*
X108377023Y-134287380D01*
X108424642Y-134239761D01*
X108377023Y-134192142D01*
X108377023Y-134287380D01*
X107567500Y-133763571D02*
X107900833Y-133763571D01*
X107900833Y-134287380D02*
X107900833Y-133287380D01*
X107424642Y-133287380D01*
X106567500Y-134287380D02*
X107043690Y-134287380D01*
X107043690Y-133287380D01*
X158971666Y-90242380D02*
X159305000Y-89766190D01*
X159543095Y-90242380D02*
X159543095Y-89242380D01*
X159162142Y-89242380D01*
X159066904Y-89290000D01*
X159019285Y-89337619D01*
X158971666Y-89432857D01*
X158971666Y-89575714D01*
X159019285Y-89670952D01*
X159066904Y-89718571D01*
X159162142Y-89766190D01*
X159543095Y-89766190D01*
X158590714Y-89956666D02*
X158114523Y-89956666D01*
X158685952Y-90242380D02*
X158352619Y-89242380D01*
X158019285Y-90242380D01*
X157685952Y-90242380D02*
X157685952Y-89242380D01*
X157114523Y-90242380D02*
X157543095Y-89670952D01*
X157114523Y-89242380D02*
X157685952Y-89813809D01*
X156543095Y-89670952D02*
X156638333Y-89623333D01*
X156685952Y-89575714D01*
X156733571Y-89480476D01*
X156733571Y-89432857D01*
X156685952Y-89337619D01*
X156638333Y-89290000D01*
X156543095Y-89242380D01*
X156352619Y-89242380D01*
X156257380Y-89290000D01*
X156209761Y-89337619D01*
X156162142Y-89432857D01*
X156162142Y-89480476D01*
X156209761Y-89575714D01*
X156257380Y-89623333D01*
X156352619Y-89670952D01*
X156543095Y-89670952D01*
X156638333Y-89718571D01*
X156685952Y-89766190D01*
X156733571Y-89861428D01*
X156733571Y-90051904D01*
X156685952Y-90147142D01*
X156638333Y-90194761D01*
X156543095Y-90242380D01*
X156352619Y-90242380D01*
X156257380Y-90194761D01*
X156209761Y-90147142D01*
X156162142Y-90051904D01*
X156162142Y-89861428D01*
X156209761Y-89766190D01*
X156257380Y-89718571D01*
X156352619Y-89670952D01*
X155209761Y-90242380D02*
X155781190Y-90242380D01*
X155495476Y-90242380D02*
X155495476Y-89242380D01*
X155590714Y-89385238D01*
X155685952Y-89480476D01*
X155781190Y-89528095D01*
X154257380Y-90242380D02*
X154828809Y-90242380D01*
X154543095Y-90242380D02*
X154543095Y-89242380D01*
X154638333Y-89385238D01*
X154733571Y-89480476D01*
X154828809Y-89528095D01*
X152590714Y-90242380D02*
X153066904Y-90242380D01*
X153066904Y-89242380D01*
X152066904Y-89242380D02*
X151876428Y-89242380D01*
X151781190Y-89290000D01*
X151685952Y-89385238D01*
X151638333Y-89575714D01*
X151638333Y-89909047D01*
X151685952Y-90099523D01*
X151781190Y-90194761D01*
X151876428Y-90242380D01*
X152066904Y-90242380D01*
X152162142Y-90194761D01*
X152257380Y-90099523D01*
X152305000Y-89909047D01*
X152305000Y-89575714D01*
X152257380Y-89385238D01*
X152162142Y-89290000D01*
X152066904Y-89242380D01*
X150638333Y-90242380D02*
X150971666Y-89766190D01*
X151209761Y-90242380D02*
X151209761Y-89242380D01*
X150828809Y-89242380D01*
X150733571Y-89290000D01*
X150685952Y-89337619D01*
X150638333Y-89432857D01*
X150638333Y-89575714D01*
X150685952Y-89670952D01*
X150733571Y-89718571D01*
X150828809Y-89766190D01*
X151209761Y-89766190D01*
X150257380Y-89956666D02*
X149781190Y-89956666D01*
X150352619Y-90242380D02*
X150019285Y-89242380D01*
X149685952Y-90242380D01*
X160519285Y-91606666D02*
X160043095Y-91606666D01*
X160614523Y-91892380D02*
X160281190Y-90892380D01*
X159947857Y-91892380D01*
X159614523Y-91892380D02*
X159614523Y-90892380D01*
X159376428Y-90892380D01*
X159233571Y-90940000D01*
X159138333Y-91035238D01*
X159090714Y-91130476D01*
X159043095Y-91320952D01*
X159043095Y-91463809D01*
X159090714Y-91654285D01*
X159138333Y-91749523D01*
X159233571Y-91844761D01*
X159376428Y-91892380D01*
X159614523Y-91892380D01*
X158662142Y-91606666D02*
X158185952Y-91606666D01*
X158757380Y-91892380D02*
X158424047Y-90892380D01*
X158090714Y-91892380D01*
X157757380Y-91892380D02*
X157757380Y-90892380D01*
X157376428Y-90892380D01*
X157281190Y-90940000D01*
X157233571Y-90987619D01*
X157185952Y-91082857D01*
X157185952Y-91225714D01*
X157233571Y-91320952D01*
X157281190Y-91368571D01*
X157376428Y-91416190D01*
X157757380Y-91416190D01*
X156900238Y-90892380D02*
X156328809Y-90892380D01*
X156614523Y-91892380D02*
X156614523Y-90892380D01*
X156043095Y-91606666D02*
X155566904Y-91606666D01*
X156138333Y-91892380D02*
X155805000Y-90892380D01*
X155471666Y-91892380D01*
X154805000Y-91368571D02*
X154662142Y-91416190D01*
X154614523Y-91463809D01*
X154566904Y-91559047D01*
X154566904Y-91701904D01*
X154614523Y-91797142D01*
X154662142Y-91844761D01*
X154757380Y-91892380D01*
X155138333Y-91892380D01*
X155138333Y-90892380D01*
X154805000Y-90892380D01*
X154709761Y-90940000D01*
X154662142Y-90987619D01*
X154614523Y-91082857D01*
X154614523Y-91178095D01*
X154662142Y-91273333D01*
X154709761Y-91320952D01*
X154805000Y-91368571D01*
X155138333Y-91368571D01*
X153662142Y-91892380D02*
X154138333Y-91892380D01*
X154138333Y-90892380D01*
X153328809Y-91368571D02*
X152995476Y-91368571D01*
X152852619Y-91892380D02*
X153328809Y-91892380D01*
X153328809Y-90892380D01*
X152852619Y-90892380D01*
X151662142Y-91892380D02*
X151662142Y-90892380D01*
X151090714Y-91892380D01*
X151090714Y-90892380D01*
X150424047Y-90892380D02*
X150233571Y-90892380D01*
X150138333Y-90940000D01*
X150043095Y-91035238D01*
X149995476Y-91225714D01*
X149995476Y-91559047D01*
X150043095Y-91749523D01*
X150138333Y-91844761D01*
X150233571Y-91892380D01*
X150424047Y-91892380D01*
X150519285Y-91844761D01*
X150614523Y-91749523D01*
X150662142Y-91559047D01*
X150662142Y-91225714D01*
X150614523Y-91035238D01*
X150519285Y-90940000D01*
X150424047Y-90892380D01*
X149566904Y-91892380D02*
X149566904Y-90892380D01*
X149328809Y-90892380D01*
X149185952Y-90940000D01*
X149090714Y-91035238D01*
X149043095Y-91130476D01*
X148995476Y-91320952D01*
X148995476Y-91463809D01*
X149043095Y-91654285D01*
X149090714Y-91749523D01*
X149185952Y-91844761D01*
X149328809Y-91892380D01*
X149566904Y-91892380D01*
X148566904Y-91368571D02*
X148233571Y-91368571D01*
X148090714Y-91892380D02*
X148566904Y-91892380D01*
X148566904Y-90892380D01*
X148090714Y-90892380D01*
X155495476Y-92542380D02*
X155162142Y-93542380D01*
X154828809Y-92542380D01*
X153543095Y-92542380D02*
X153447857Y-92542380D01*
X153352619Y-92590000D01*
X153305000Y-92637619D01*
X153257380Y-92732857D01*
X153209761Y-92923333D01*
X153209761Y-93161428D01*
X153257380Y-93351904D01*
X153305000Y-93447142D01*
X153352619Y-93494761D01*
X153447857Y-93542380D01*
X153543095Y-93542380D01*
X153638333Y-93494761D01*
X153685952Y-93447142D01*
X153733571Y-93351904D01*
X153781190Y-93161428D01*
X153781190Y-92923333D01*
X153733571Y-92732857D01*
X153685952Y-92637619D01*
X153638333Y-92590000D01*
X153543095Y-92542380D01*
X139713690Y-57492380D02*
X139713690Y-58206666D01*
X139761309Y-58349523D01*
X139856547Y-58444761D01*
X139999404Y-58492380D01*
X140094642Y-58492380D01*
X139237500Y-58492380D02*
X139237500Y-57492380D01*
X138856547Y-57492380D01*
X138761309Y-57540000D01*
X138713690Y-57587619D01*
X138666071Y-57682857D01*
X138666071Y-57825714D01*
X138713690Y-57920952D01*
X138761309Y-57968571D01*
X138856547Y-58016190D01*
X139237500Y-58016190D01*
X137713690Y-58492380D02*
X138285119Y-58492380D01*
X137999404Y-58492380D02*
X137999404Y-57492380D01*
X138094642Y-57635238D01*
X138189880Y-57730476D01*
X138285119Y-57778095D01*
X136189880Y-57968571D02*
X136047023Y-58016190D01*
X135999404Y-58063809D01*
X135951785Y-58159047D01*
X135951785Y-58301904D01*
X135999404Y-58397142D01*
X136047023Y-58444761D01*
X136142261Y-58492380D01*
X136523214Y-58492380D01*
X136523214Y-57492380D01*
X136189880Y-57492380D01*
X136094642Y-57540000D01*
X136047023Y-57587619D01*
X135999404Y-57682857D01*
X135999404Y-57778095D01*
X136047023Y-57873333D01*
X136094642Y-57920952D01*
X136189880Y-57968571D01*
X136523214Y-57968571D01*
X135570833Y-58206666D02*
X135094642Y-58206666D01*
X135666071Y-58492380D02*
X135332738Y-57492380D01*
X134999404Y-58492380D01*
X134808928Y-57492380D02*
X134237500Y-57492380D01*
X134523214Y-58492380D02*
X134523214Y-57492380D01*
X134047023Y-57492380D02*
X133475595Y-57492380D01*
X133761309Y-58492380D02*
X133761309Y-57492380D01*
X139475595Y-60142380D02*
X140047023Y-60142380D01*
X139761309Y-60142380D02*
X139761309Y-59142380D01*
X139856547Y-59285238D01*
X139951785Y-59380476D01*
X140047023Y-59428095D01*
X139047023Y-59761428D02*
X138285119Y-59761428D01*
X137856547Y-59237619D02*
X137808928Y-59190000D01*
X137713690Y-59142380D01*
X137475595Y-59142380D01*
X137380357Y-59190000D01*
X137332738Y-59237619D01*
X137285119Y-59332857D01*
X137285119Y-59428095D01*
X137332738Y-59570952D01*
X137904166Y-60142380D01*
X137285119Y-60142380D01*
X135761309Y-59618571D02*
X135618452Y-59666190D01*
X135570833Y-59713809D01*
X135523214Y-59809047D01*
X135523214Y-59951904D01*
X135570833Y-60047142D01*
X135618452Y-60094761D01*
X135713690Y-60142380D01*
X136094642Y-60142380D01*
X136094642Y-59142380D01*
X135761309Y-59142380D01*
X135666071Y-59190000D01*
X135618452Y-59237619D01*
X135570833Y-59332857D01*
X135570833Y-59428095D01*
X135618452Y-59523333D01*
X135666071Y-59570952D01*
X135761309Y-59618571D01*
X136094642Y-59618571D01*
X135237500Y-59142380D02*
X134666071Y-59142380D01*
X134951785Y-60142380D02*
X134951785Y-59142380D01*
X133808928Y-60142380D02*
X134380357Y-60142380D01*
X134094642Y-60142380D02*
X134094642Y-59142380D01*
X134189880Y-59285238D01*
X134285119Y-59380476D01*
X134380357Y-59428095D01*
X133380357Y-59761428D02*
X132618452Y-59761428D01*
X132999404Y-60142380D02*
X132999404Y-59380476D01*
X131808928Y-59618571D02*
X131666071Y-59666190D01*
X131618452Y-59713809D01*
X131570833Y-59809047D01*
X131570833Y-59951904D01*
X131618452Y-60047142D01*
X131666071Y-60094761D01*
X131761309Y-60142380D01*
X132142261Y-60142380D01*
X132142261Y-59142380D01*
X131808928Y-59142380D01*
X131713690Y-59190000D01*
X131666071Y-59237619D01*
X131618452Y-59332857D01*
X131618452Y-59428095D01*
X131666071Y-59523333D01*
X131713690Y-59570952D01*
X131808928Y-59618571D01*
X132142261Y-59618571D01*
X131285119Y-59142380D02*
X130713690Y-59142380D01*
X130999404Y-60142380D02*
X130999404Y-59142380D01*
X130427976Y-59237619D02*
X130380357Y-59190000D01*
X130285119Y-59142380D01*
X130047023Y-59142380D01*
X129951785Y-59190000D01*
X129904166Y-59237619D01*
X129856547Y-59332857D01*
X129856547Y-59428095D01*
X129904166Y-59570952D01*
X130475595Y-60142380D01*
X129856547Y-60142380D01*
X140047023Y-60887619D02*
X139999404Y-60840000D01*
X139904166Y-60792380D01*
X139666071Y-60792380D01*
X139570833Y-60840000D01*
X139523214Y-60887619D01*
X139475595Y-60982857D01*
X139475595Y-61078095D01*
X139523214Y-61220952D01*
X140094642Y-61792380D01*
X139475595Y-61792380D01*
X139047023Y-61411428D02*
X138285119Y-61411428D01*
X137904166Y-60792380D02*
X137285119Y-60792380D01*
X137618452Y-61173333D01*
X137475595Y-61173333D01*
X137380357Y-61220952D01*
X137332738Y-61268571D01*
X137285119Y-61363809D01*
X137285119Y-61601904D01*
X137332738Y-61697142D01*
X137380357Y-61744761D01*
X137475595Y-61792380D01*
X137761309Y-61792380D01*
X137856547Y-61744761D01*
X137904166Y-61697142D01*
X135761309Y-61268571D02*
X135618452Y-61316190D01*
X135570833Y-61363809D01*
X135523214Y-61459047D01*
X135523214Y-61601904D01*
X135570833Y-61697142D01*
X135618452Y-61744761D01*
X135713690Y-61792380D01*
X136094642Y-61792380D01*
X136094642Y-60792380D01*
X135761309Y-60792380D01*
X135666071Y-60840000D01*
X135618452Y-60887619D01*
X135570833Y-60982857D01*
X135570833Y-61078095D01*
X135618452Y-61173333D01*
X135666071Y-61220952D01*
X135761309Y-61268571D01*
X136094642Y-61268571D01*
X135237500Y-60792380D02*
X134666071Y-60792380D01*
X134951785Y-61792380D02*
X134951785Y-60792380D01*
X134380357Y-60887619D02*
X134332738Y-60840000D01*
X134237500Y-60792380D01*
X133999404Y-60792380D01*
X133904166Y-60840000D01*
X133856547Y-60887619D01*
X133808928Y-60982857D01*
X133808928Y-61078095D01*
X133856547Y-61220952D01*
X134427976Y-61792380D01*
X133808928Y-61792380D01*
X113043690Y-80987380D02*
X113043690Y-81701666D01*
X113091309Y-81844523D01*
X113186547Y-81939761D01*
X113329404Y-81987380D01*
X113424642Y-81987380D01*
X112567500Y-81987380D02*
X112567500Y-80987380D01*
X112186547Y-80987380D01*
X112091309Y-81035000D01*
X112043690Y-81082619D01*
X111996071Y-81177857D01*
X111996071Y-81320714D01*
X112043690Y-81415952D01*
X112091309Y-81463571D01*
X112186547Y-81511190D01*
X112567500Y-81511190D01*
X111615119Y-81082619D02*
X111567500Y-81035000D01*
X111472261Y-80987380D01*
X111234166Y-80987380D01*
X111138928Y-81035000D01*
X111091309Y-81082619D01*
X111043690Y-81177857D01*
X111043690Y-81273095D01*
X111091309Y-81415952D01*
X111662738Y-81987380D01*
X111043690Y-81987380D01*
X109900833Y-81701666D02*
X109424642Y-81701666D01*
X109996071Y-81987380D02*
X109662738Y-80987380D01*
X109329404Y-81987380D01*
X108996071Y-81987380D02*
X108996071Y-80987380D01*
X108424642Y-81987380D01*
X108424642Y-80987380D01*
X108091309Y-80987380D02*
X107519880Y-80987380D01*
X107805595Y-81987380D02*
X107805595Y-80987380D01*
X112805595Y-83637380D02*
X113377023Y-83637380D01*
X113091309Y-83637380D02*
X113091309Y-82637380D01*
X113186547Y-82780238D01*
X113281785Y-82875476D01*
X113377023Y-82923095D01*
X112377023Y-83256428D02*
X111615119Y-83256428D01*
X111186547Y-82732619D02*
X111138928Y-82685000D01*
X111043690Y-82637380D01*
X110805595Y-82637380D01*
X110710357Y-82685000D01*
X110662738Y-82732619D01*
X110615119Y-82827857D01*
X110615119Y-82923095D01*
X110662738Y-83065952D01*
X111234166Y-83637380D01*
X110615119Y-83637380D01*
X109138928Y-82637380D02*
X109138928Y-83351666D01*
X109186547Y-83494523D01*
X109281785Y-83589761D01*
X109424642Y-83637380D01*
X109519880Y-83637380D01*
X108234166Y-82637380D02*
X108424642Y-82637380D01*
X108519880Y-82685000D01*
X108567500Y-82732619D01*
X108662738Y-82875476D01*
X108710357Y-83065952D01*
X108710357Y-83446904D01*
X108662738Y-83542142D01*
X108615119Y-83589761D01*
X108519880Y-83637380D01*
X108329404Y-83637380D01*
X108234166Y-83589761D01*
X108186547Y-83542142D01*
X108138928Y-83446904D01*
X108138928Y-83208809D01*
X108186547Y-83113571D01*
X108234166Y-83065952D01*
X108329404Y-83018333D01*
X108519880Y-83018333D01*
X108615119Y-83065952D01*
X108662738Y-83113571D01*
X108710357Y-83208809D01*
X113377023Y-84382619D02*
X113329404Y-84335000D01*
X113234166Y-84287380D01*
X112996071Y-84287380D01*
X112900833Y-84335000D01*
X112853214Y-84382619D01*
X112805595Y-84477857D01*
X112805595Y-84573095D01*
X112853214Y-84715952D01*
X113424642Y-85287380D01*
X112805595Y-85287380D01*
X112377023Y-84906428D02*
X111615119Y-84906428D01*
X111234166Y-84287380D02*
X110615119Y-84287380D01*
X110948452Y-84668333D01*
X110805595Y-84668333D01*
X110710357Y-84715952D01*
X110662738Y-84763571D01*
X110615119Y-84858809D01*
X110615119Y-85096904D01*
X110662738Y-85192142D01*
X110710357Y-85239761D01*
X110805595Y-85287380D01*
X111091309Y-85287380D01*
X111186547Y-85239761D01*
X111234166Y-85192142D01*
X109424642Y-84287380D02*
X109424642Y-85096904D01*
X109377023Y-85192142D01*
X109329404Y-85239761D01*
X109234166Y-85287380D01*
X109043690Y-85287380D01*
X108948452Y-85239761D01*
X108900833Y-85192142D01*
X108853214Y-85096904D01*
X108853214Y-84287380D01*
X108377023Y-85192142D02*
X108329404Y-85239761D01*
X108377023Y-85287380D01*
X108424642Y-85239761D01*
X108377023Y-85192142D01*
X108377023Y-85287380D01*
X107567500Y-84763571D02*
X107900833Y-84763571D01*
X107900833Y-85287380D02*
X107900833Y-84287380D01*
X107424642Y-84287380D01*
X106567500Y-85287380D02*
X107043690Y-85287380D01*
X107043690Y-84287380D01*
D11*
X105480000Y-116230000D02*
X105480000Y-118930000D01*
X108200000Y-116820000D02*
X108830000Y-116820000D01*
X108200000Y-118980000D02*
X108200000Y-118340000D01*
X108200000Y-116180000D02*
X108200000Y-116820000D01*
D12*
G36*
X142319186Y-137273931D02*
G01*
X142235365Y-137718555D01*
X141926080Y-137846053D01*
X141616794Y-137973551D01*
X141245754Y-137721246D01*
X141141843Y-137650996D01*
X141047913Y-137588272D01*
X140968348Y-137535938D01*
X140907530Y-137496857D01*
X140869843Y-137473893D01*
X140859579Y-137468942D01*
X140841090Y-137481676D01*
X140801580Y-137516882D01*
X140745478Y-137570062D01*
X140677213Y-137636718D01*
X140601214Y-137712354D01*
X140521908Y-137792472D01*
X140443725Y-137872574D01*
X140371093Y-137948164D01*
X140308441Y-138014745D01*
X140260197Y-138067818D01*
X140230790Y-138102887D01*
X140223759Y-138114623D01*
X140233877Y-138136260D01*
X140262241Y-138183662D01*
X140305871Y-138252193D01*
X140361782Y-138337215D01*
X140426994Y-138434093D01*
X140464781Y-138489350D01*
X140533657Y-138590248D01*
X140594860Y-138681299D01*
X140645422Y-138757970D01*
X140682372Y-138815728D01*
X140702742Y-138850043D01*
X140705803Y-138857254D01*
X140698864Y-138877748D01*
X140679949Y-138925513D01*
X140651913Y-138993832D01*
X140617609Y-139075989D01*
X140579891Y-139165270D01*
X140541613Y-139254958D01*
X140505630Y-139338338D01*
X140474794Y-139408694D01*
X140451961Y-139459310D01*
X140439983Y-139483471D01*
X140439276Y-139484422D01*
X140420469Y-139489036D01*
X140370382Y-139499328D01*
X140294207Y-139514287D01*
X140197135Y-139532901D01*
X140084357Y-139554159D01*
X140018558Y-139566418D01*
X139898050Y-139589362D01*
X139789203Y-139611195D01*
X139697524Y-139630722D01*
X139628519Y-139646748D01*
X139587696Y-139658079D01*
X139579489Y-139661674D01*
X139571452Y-139686006D01*
X139564967Y-139740959D01*
X139560030Y-139820108D01*
X139556636Y-139917026D01*
X139554782Y-140025287D01*
X139554462Y-140138465D01*
X139555673Y-140250135D01*
X139558410Y-140353868D01*
X139562669Y-140443241D01*
X139568445Y-140511826D01*
X139575733Y-140553197D01*
X139580105Y-140561810D01*
X139606236Y-140572133D01*
X139661607Y-140586892D01*
X139738893Y-140604352D01*
X139830770Y-140622780D01*
X139862842Y-140628741D01*
X140017476Y-140657066D01*
X140139625Y-140679876D01*
X140233327Y-140698080D01*
X140302616Y-140712583D01*
X140351529Y-140724292D01*
X140384103Y-140734115D01*
X140404372Y-140742956D01*
X140416374Y-140751724D01*
X140418053Y-140753457D01*
X140434816Y-140781371D01*
X140460386Y-140835695D01*
X140492212Y-140909777D01*
X140527740Y-140996965D01*
X140564417Y-141090608D01*
X140599689Y-141184052D01*
X140631004Y-141270647D01*
X140655807Y-141343740D01*
X140671546Y-141396678D01*
X140675668Y-141422811D01*
X140675324Y-141423726D01*
X140661359Y-141445086D01*
X140629678Y-141492084D01*
X140583609Y-141559827D01*
X140526482Y-141643423D01*
X140461627Y-141737982D01*
X140443157Y-141764854D01*
X140377301Y-141862275D01*
X140319350Y-141951163D01*
X140272462Y-142026412D01*
X140239793Y-142082920D01*
X140224500Y-142115581D01*
X140223759Y-142119593D01*
X140236608Y-142140684D01*
X140272112Y-142182464D01*
X140325707Y-142240445D01*
X140392829Y-142310135D01*
X140468913Y-142387045D01*
X140549396Y-142466683D01*
X140629713Y-142544561D01*
X140705301Y-142616186D01*
X140771595Y-142677070D01*
X140824031Y-142722721D01*
X140858045Y-142748650D01*
X140867455Y-142752883D01*
X140889357Y-142742912D01*
X140934200Y-142716020D01*
X140994679Y-142676736D01*
X141041211Y-142645117D01*
X141125525Y-142587098D01*
X141225374Y-142518784D01*
X141325527Y-142450579D01*
X141379373Y-142414075D01*
X141561629Y-142290800D01*
X141714619Y-142373520D01*
X141784318Y-142409759D01*
X141843586Y-142437926D01*
X141883689Y-142453991D01*
X141893897Y-142456226D01*
X141906171Y-142439722D01*
X141930387Y-142393082D01*
X141964737Y-142320609D01*
X142007412Y-142226606D01*
X142056606Y-142115374D01*
X142110510Y-141991215D01*
X142167316Y-141858432D01*
X142225218Y-141721327D01*
X142282407Y-141584202D01*
X142337076Y-141451358D01*
X142387416Y-141327098D01*
X142431620Y-141215725D01*
X142467881Y-141121539D01*
X142494391Y-141048844D01*
X142509342Y-141001941D01*
X142511746Y-140985833D01*
X142492689Y-140965286D01*
X142450964Y-140931933D01*
X142395294Y-140892702D01*
X142390622Y-140889599D01*
X142246736Y-140774423D01*
X142130717Y-140640053D01*
X142043570Y-140490784D01*
X141986301Y-140330913D01*
X141959914Y-140164737D01*
X141965415Y-139996552D01*
X142003810Y-139830655D01*
X142076105Y-139671342D01*
X142097374Y-139636487D01*
X142208004Y-139495737D01*
X142338698Y-139382714D01*
X142484936Y-139298003D01*
X142642192Y-139242194D01*
X142805943Y-139215874D01*
X142971667Y-139219630D01*
X143134838Y-139254050D01*
X143290935Y-139319723D01*
X143435433Y-139417235D01*
X143480131Y-139456813D01*
X143593888Y-139580703D01*
X143676782Y-139711124D01*
X143733644Y-139857315D01*
X143765313Y-140002088D01*
X143773131Y-140164860D01*
X143747062Y-140328440D01*
X143689755Y-140487298D01*
X143603856Y-140635906D01*
X143492014Y-140768735D01*
X143356877Y-140880256D01*
X143339117Y-140892011D01*
X143282850Y-140930508D01*
X143240077Y-140963863D01*
X143219628Y-140985160D01*
X143219331Y-140985833D01*
X143223721Y-141008871D01*
X143241124Y-141061157D01*
X143269732Y-141138390D01*
X143307735Y-141236268D01*
X143353326Y-141350491D01*
X143404697Y-141476758D01*
X143460038Y-141610767D01*
X143517542Y-141748218D01*
X143575399Y-141884808D01*
X143631802Y-142016237D01*
X143684942Y-142138205D01*
X143733010Y-142246409D01*
X143774199Y-142336549D01*
X143806699Y-142404323D01*
X143828703Y-142445430D01*
X143837564Y-142456226D01*
X143864640Y-142447819D01*
X143915303Y-142425272D01*
X143980817Y-142392613D01*
X144016841Y-142373520D01*
X144169832Y-142290800D01*
X144352088Y-142414075D01*
X144445125Y-142477228D01*
X144546985Y-142546727D01*
X144642438Y-142612165D01*
X144690250Y-142645117D01*
X144757495Y-142690273D01*
X144814436Y-142726057D01*
X144853646Y-142747938D01*
X144866381Y-142752563D01*
X144884917Y-142740085D01*
X144925941Y-142705252D01*
X144985475Y-142651678D01*
X145059542Y-142582983D01*
X145144165Y-142502781D01*
X145197685Y-142451286D01*
X145291319Y-142359286D01*
X145372241Y-142276999D01*
X145437177Y-142207945D01*
X145482858Y-142155644D01*
X145506011Y-142123616D01*
X145508232Y-142117116D01*
X145497924Y-142092394D01*
X145469439Y-142042405D01*
X145425937Y-141972212D01*
X145370577Y-141886875D01*
X145306520Y-141791456D01*
X145288303Y-141764854D01*
X145221927Y-141668167D01*
X145162378Y-141581117D01*
X145112984Y-141508595D01*
X145077075Y-141455493D01*
X145057981Y-141426703D01*
X145056136Y-141423726D01*
X145058895Y-141400782D01*
X145073538Y-141350336D01*
X145097513Y-141279041D01*
X145128266Y-141193547D01*
X145163244Y-141100507D01*
X145199893Y-141006574D01*
X145235661Y-140918399D01*
X145267994Y-140842634D01*
X145294338Y-140785931D01*
X145312142Y-140754943D01*
X145313407Y-140753457D01*
X145324294Y-140744601D01*
X145342682Y-140735843D01*
X145372606Y-140726277D01*
X145418103Y-140714996D01*
X145483209Y-140701093D01*
X145571961Y-140683663D01*
X145688393Y-140661798D01*
X145836542Y-140634591D01*
X145868618Y-140628741D01*
X145963686Y-140610374D01*
X146046565Y-140592405D01*
X146109930Y-140576569D01*
X146146458Y-140564600D01*
X146151356Y-140561810D01*
X146159427Y-140537072D01*
X146165987Y-140481790D01*
X146171033Y-140402389D01*
X146174559Y-140305296D01*
X146176561Y-140196938D01*
X146177036Y-140083740D01*
X146175977Y-139972128D01*
X146173382Y-139868529D01*
X146169246Y-139779368D01*
X146163563Y-139711072D01*
X146156331Y-139670066D01*
X146151971Y-139661674D01*
X146127698Y-139653208D01*
X146072426Y-139639435D01*
X145991662Y-139621550D01*
X145890912Y-139600748D01*
X145775683Y-139578223D01*
X145712902Y-139566418D01*
X145593787Y-139544151D01*
X145487565Y-139523979D01*
X145399427Y-139506915D01*
X145334566Y-139493969D01*
X145298174Y-139486155D01*
X145292184Y-139484422D01*
X145282061Y-139464890D01*
X145260662Y-139417843D01*
X145230839Y-139350003D01*
X145195445Y-139268091D01*
X145157332Y-139178828D01*
X145119353Y-139088935D01*
X145084360Y-139005135D01*
X145055206Y-138934147D01*
X145034743Y-138882694D01*
X145025823Y-138857497D01*
X145025657Y-138856396D01*
X145035769Y-138836519D01*
X145064117Y-138790777D01*
X145107723Y-138723717D01*
X145163606Y-138639884D01*
X145228787Y-138543826D01*
X145266679Y-138488650D01*
X145335725Y-138387481D01*
X145397050Y-138295630D01*
X145447663Y-138217744D01*
X145484571Y-138158469D01*
X145504782Y-138122451D01*
X145507701Y-138114377D01*
X145495153Y-138095584D01*
X145460463Y-138055457D01*
X145408063Y-137998493D01*
X145342384Y-137929185D01*
X145267856Y-137852031D01*
X145188913Y-137771525D01*
X145109983Y-137692163D01*
X145035500Y-137618440D01*
X144969894Y-137554852D01*
X144917596Y-137505894D01*
X144883039Y-137476061D01*
X144871478Y-137468942D01*
X144852654Y-137478953D01*
X144807631Y-137507078D01*
X144740787Y-137550454D01*
X144656499Y-137606218D01*
X144559144Y-137671506D01*
X144485707Y-137721246D01*
X144114667Y-137973551D01*
X143496095Y-137718555D01*
X143412275Y-137273931D01*
X143328454Y-136829307D01*
X142403006Y-136829307D01*
X142319186Y-137273931D01*
G37*
X142319186Y-137273931D02*
X142235365Y-137718555D01*
X141926080Y-137846053D01*
X141616794Y-137973551D01*
X141245754Y-137721246D01*
X141141843Y-137650996D01*
X141047913Y-137588272D01*
X140968348Y-137535938D01*
X140907530Y-137496857D01*
X140869843Y-137473893D01*
X140859579Y-137468942D01*
X140841090Y-137481676D01*
X140801580Y-137516882D01*
X140745478Y-137570062D01*
X140677213Y-137636718D01*
X140601214Y-137712354D01*
X140521908Y-137792472D01*
X140443725Y-137872574D01*
X140371093Y-137948164D01*
X140308441Y-138014745D01*
X140260197Y-138067818D01*
X140230790Y-138102887D01*
X140223759Y-138114623D01*
X140233877Y-138136260D01*
X140262241Y-138183662D01*
X140305871Y-138252193D01*
X140361782Y-138337215D01*
X140426994Y-138434093D01*
X140464781Y-138489350D01*
X140533657Y-138590248D01*
X140594860Y-138681299D01*
X140645422Y-138757970D01*
X140682372Y-138815728D01*
X140702742Y-138850043D01*
X140705803Y-138857254D01*
X140698864Y-138877748D01*
X140679949Y-138925513D01*
X140651913Y-138993832D01*
X140617609Y-139075989D01*
X140579891Y-139165270D01*
X140541613Y-139254958D01*
X140505630Y-139338338D01*
X140474794Y-139408694D01*
X140451961Y-139459310D01*
X140439983Y-139483471D01*
X140439276Y-139484422D01*
X140420469Y-139489036D01*
X140370382Y-139499328D01*
X140294207Y-139514287D01*
X140197135Y-139532901D01*
X140084357Y-139554159D01*
X140018558Y-139566418D01*
X139898050Y-139589362D01*
X139789203Y-139611195D01*
X139697524Y-139630722D01*
X139628519Y-139646748D01*
X139587696Y-139658079D01*
X139579489Y-139661674D01*
X139571452Y-139686006D01*
X139564967Y-139740959D01*
X139560030Y-139820108D01*
X139556636Y-139917026D01*
X139554782Y-140025287D01*
X139554462Y-140138465D01*
X139555673Y-140250135D01*
X139558410Y-140353868D01*
X139562669Y-140443241D01*
X139568445Y-140511826D01*
X139575733Y-140553197D01*
X139580105Y-140561810D01*
X139606236Y-140572133D01*
X139661607Y-140586892D01*
X139738893Y-140604352D01*
X139830770Y-140622780D01*
X139862842Y-140628741D01*
X140017476Y-140657066D01*
X140139625Y-140679876D01*
X140233327Y-140698080D01*
X140302616Y-140712583D01*
X140351529Y-140724292D01*
X140384103Y-140734115D01*
X140404372Y-140742956D01*
X140416374Y-140751724D01*
X140418053Y-140753457D01*
X140434816Y-140781371D01*
X140460386Y-140835695D01*
X140492212Y-140909777D01*
X140527740Y-140996965D01*
X140564417Y-141090608D01*
X140599689Y-141184052D01*
X140631004Y-141270647D01*
X140655807Y-141343740D01*
X140671546Y-141396678D01*
X140675668Y-141422811D01*
X140675324Y-141423726D01*
X140661359Y-141445086D01*
X140629678Y-141492084D01*
X140583609Y-141559827D01*
X140526482Y-141643423D01*
X140461627Y-141737982D01*
X140443157Y-141764854D01*
X140377301Y-141862275D01*
X140319350Y-141951163D01*
X140272462Y-142026412D01*
X140239793Y-142082920D01*
X140224500Y-142115581D01*
X140223759Y-142119593D01*
X140236608Y-142140684D01*
X140272112Y-142182464D01*
X140325707Y-142240445D01*
X140392829Y-142310135D01*
X140468913Y-142387045D01*
X140549396Y-142466683D01*
X140629713Y-142544561D01*
X140705301Y-142616186D01*
X140771595Y-142677070D01*
X140824031Y-142722721D01*
X140858045Y-142748650D01*
X140867455Y-142752883D01*
X140889357Y-142742912D01*
X140934200Y-142716020D01*
X140994679Y-142676736D01*
X141041211Y-142645117D01*
X141125525Y-142587098D01*
X141225374Y-142518784D01*
X141325527Y-142450579D01*
X141379373Y-142414075D01*
X141561629Y-142290800D01*
X141714619Y-142373520D01*
X141784318Y-142409759D01*
X141843586Y-142437926D01*
X141883689Y-142453991D01*
X141893897Y-142456226D01*
X141906171Y-142439722D01*
X141930387Y-142393082D01*
X141964737Y-142320609D01*
X142007412Y-142226606D01*
X142056606Y-142115374D01*
X142110510Y-141991215D01*
X142167316Y-141858432D01*
X142225218Y-141721327D01*
X142282407Y-141584202D01*
X142337076Y-141451358D01*
X142387416Y-141327098D01*
X142431620Y-141215725D01*
X142467881Y-141121539D01*
X142494391Y-141048844D01*
X142509342Y-141001941D01*
X142511746Y-140985833D01*
X142492689Y-140965286D01*
X142450964Y-140931933D01*
X142395294Y-140892702D01*
X142390622Y-140889599D01*
X142246736Y-140774423D01*
X142130717Y-140640053D01*
X142043570Y-140490784D01*
X141986301Y-140330913D01*
X141959914Y-140164737D01*
X141965415Y-139996552D01*
X142003810Y-139830655D01*
X142076105Y-139671342D01*
X142097374Y-139636487D01*
X142208004Y-139495737D01*
X142338698Y-139382714D01*
X142484936Y-139298003D01*
X142642192Y-139242194D01*
X142805943Y-139215874D01*
X142971667Y-139219630D01*
X143134838Y-139254050D01*
X143290935Y-139319723D01*
X143435433Y-139417235D01*
X143480131Y-139456813D01*
X143593888Y-139580703D01*
X143676782Y-139711124D01*
X143733644Y-139857315D01*
X143765313Y-140002088D01*
X143773131Y-140164860D01*
X143747062Y-140328440D01*
X143689755Y-140487298D01*
X143603856Y-140635906D01*
X143492014Y-140768735D01*
X143356877Y-140880256D01*
X143339117Y-140892011D01*
X143282850Y-140930508D01*
X143240077Y-140963863D01*
X143219628Y-140985160D01*
X143219331Y-140985833D01*
X143223721Y-141008871D01*
X143241124Y-141061157D01*
X143269732Y-141138390D01*
X143307735Y-141236268D01*
X143353326Y-141350491D01*
X143404697Y-141476758D01*
X143460038Y-141610767D01*
X143517542Y-141748218D01*
X143575399Y-141884808D01*
X143631802Y-142016237D01*
X143684942Y-142138205D01*
X143733010Y-142246409D01*
X143774199Y-142336549D01*
X143806699Y-142404323D01*
X143828703Y-142445430D01*
X143837564Y-142456226D01*
X143864640Y-142447819D01*
X143915303Y-142425272D01*
X143980817Y-142392613D01*
X144016841Y-142373520D01*
X144169832Y-142290800D01*
X144352088Y-142414075D01*
X144445125Y-142477228D01*
X144546985Y-142546727D01*
X144642438Y-142612165D01*
X144690250Y-142645117D01*
X144757495Y-142690273D01*
X144814436Y-142726057D01*
X144853646Y-142747938D01*
X144866381Y-142752563D01*
X144884917Y-142740085D01*
X144925941Y-142705252D01*
X144985475Y-142651678D01*
X145059542Y-142582983D01*
X145144165Y-142502781D01*
X145197685Y-142451286D01*
X145291319Y-142359286D01*
X145372241Y-142276999D01*
X145437177Y-142207945D01*
X145482858Y-142155644D01*
X145506011Y-142123616D01*
X145508232Y-142117116D01*
X145497924Y-142092394D01*
X145469439Y-142042405D01*
X145425937Y-141972212D01*
X145370577Y-141886875D01*
X145306520Y-141791456D01*
X145288303Y-141764854D01*
X145221927Y-141668167D01*
X145162378Y-141581117D01*
X145112984Y-141508595D01*
X145077075Y-141455493D01*
X145057981Y-141426703D01*
X145056136Y-141423726D01*
X145058895Y-141400782D01*
X145073538Y-141350336D01*
X145097513Y-141279041D01*
X145128266Y-141193547D01*
X145163244Y-141100507D01*
X145199893Y-141006574D01*
X145235661Y-140918399D01*
X145267994Y-140842634D01*
X145294338Y-140785931D01*
X145312142Y-140754943D01*
X145313407Y-140753457D01*
X145324294Y-140744601D01*
X145342682Y-140735843D01*
X145372606Y-140726277D01*
X145418103Y-140714996D01*
X145483209Y-140701093D01*
X145571961Y-140683663D01*
X145688393Y-140661798D01*
X145836542Y-140634591D01*
X145868618Y-140628741D01*
X145963686Y-140610374D01*
X146046565Y-140592405D01*
X146109930Y-140576569D01*
X146146458Y-140564600D01*
X146151356Y-140561810D01*
X146159427Y-140537072D01*
X146165987Y-140481790D01*
X146171033Y-140402389D01*
X146174559Y-140305296D01*
X146176561Y-140196938D01*
X146177036Y-140083740D01*
X146175977Y-139972128D01*
X146173382Y-139868529D01*
X146169246Y-139779368D01*
X146163563Y-139711072D01*
X146156331Y-139670066D01*
X146151971Y-139661674D01*
X146127698Y-139653208D01*
X146072426Y-139639435D01*
X145991662Y-139621550D01*
X145890912Y-139600748D01*
X145775683Y-139578223D01*
X145712902Y-139566418D01*
X145593787Y-139544151D01*
X145487565Y-139523979D01*
X145399427Y-139506915D01*
X145334566Y-139493969D01*
X145298174Y-139486155D01*
X145292184Y-139484422D01*
X145282061Y-139464890D01*
X145260662Y-139417843D01*
X145230839Y-139350003D01*
X145195445Y-139268091D01*
X145157332Y-139178828D01*
X145119353Y-139088935D01*
X145084360Y-139005135D01*
X145055206Y-138934147D01*
X145034743Y-138882694D01*
X145025823Y-138857497D01*
X145025657Y-138856396D01*
X145035769Y-138836519D01*
X145064117Y-138790777D01*
X145107723Y-138723717D01*
X145163606Y-138639884D01*
X145228787Y-138543826D01*
X145266679Y-138488650D01*
X145335725Y-138387481D01*
X145397050Y-138295630D01*
X145447663Y-138217744D01*
X145484571Y-138158469D01*
X145504782Y-138122451D01*
X145507701Y-138114377D01*
X145495153Y-138095584D01*
X145460463Y-138055457D01*
X145408063Y-137998493D01*
X145342384Y-137929185D01*
X145267856Y-137852031D01*
X145188913Y-137771525D01*
X145109983Y-137692163D01*
X145035500Y-137618440D01*
X144969894Y-137554852D01*
X144917596Y-137505894D01*
X144883039Y-137476061D01*
X144871478Y-137468942D01*
X144852654Y-137478953D01*
X144807631Y-137507078D01*
X144740787Y-137550454D01*
X144656499Y-137606218D01*
X144559144Y-137671506D01*
X144485707Y-137721246D01*
X144114667Y-137973551D01*
X143496095Y-137718555D01*
X143412275Y-137273931D01*
X143328454Y-136829307D01*
X142403006Y-136829307D01*
X142319186Y-137273931D01*
D11*
X112695000Y-116165000D02*
X112095000Y-116165000D01*
X113395000Y-119615000D02*
X113395000Y-116815000D01*
X112095000Y-120265000D02*
X112695000Y-120265000D01*
X111395000Y-116815000D02*
X111395000Y-119615000D01*
X111395000Y-119565000D02*
G75*
G03X112095000Y-120265000I700000J0D01*
G01*
X112695000Y-120265000D02*
G75*
G03X113395000Y-119565000I0J700000D01*
G01*
X113395000Y-116865000D02*
G75*
G03X112695000Y-116165000I-700000J0D01*
G01*
X112095000Y-116165000D02*
G75*
G03X111395000Y-116865000I0J-700000D01*
G01*
X116970000Y-131230000D02*
X118370000Y-131230000D01*
X116970000Y-129330000D02*
X116970000Y-131230000D01*
X116970000Y-116630000D02*
X116970000Y-118530000D01*
X138170000Y-131230000D02*
X139570000Y-131230000D01*
X139570000Y-129330000D02*
X139570000Y-131230000D01*
X139570000Y-116630000D02*
X138170000Y-116630000D01*
X139570000Y-118530000D02*
X139570000Y-116630000D01*
X135110000Y-102040000D02*
X135110000Y-102640000D01*
X138560000Y-101340000D02*
X135760000Y-101340000D01*
X139210000Y-102640000D02*
X139210000Y-102040000D01*
X135760000Y-103340000D02*
X138560000Y-103340000D01*
X138510000Y-103340000D02*
G75*
G03X139210000Y-102640000I0J700000D01*
G01*
X139210000Y-102040000D02*
G75*
G03X138510000Y-101340000I-700000J0D01*
G01*
X135810000Y-101340000D02*
G75*
G03X135110000Y-102040000I0J-700000D01*
G01*
X135110000Y-102640000D02*
G75*
G03X135810000Y-103340000I700000J0D01*
G01*
D12*
G36*
X142319186Y-88273931D02*
G01*
X142235365Y-88718555D01*
X141926080Y-88846053D01*
X141616794Y-88973551D01*
X141245754Y-88721246D01*
X141141843Y-88650996D01*
X141047913Y-88588272D01*
X140968348Y-88535938D01*
X140907530Y-88496857D01*
X140869843Y-88473893D01*
X140859579Y-88468942D01*
X140841090Y-88481676D01*
X140801580Y-88516882D01*
X140745478Y-88570062D01*
X140677213Y-88636718D01*
X140601214Y-88712354D01*
X140521908Y-88792472D01*
X140443725Y-88872574D01*
X140371093Y-88948164D01*
X140308441Y-89014745D01*
X140260197Y-89067818D01*
X140230790Y-89102887D01*
X140223759Y-89114623D01*
X140233877Y-89136260D01*
X140262241Y-89183662D01*
X140305871Y-89252193D01*
X140361782Y-89337215D01*
X140426994Y-89434093D01*
X140464781Y-89489350D01*
X140533657Y-89590248D01*
X140594860Y-89681299D01*
X140645422Y-89757970D01*
X140682372Y-89815728D01*
X140702742Y-89850043D01*
X140705803Y-89857254D01*
X140698864Y-89877748D01*
X140679949Y-89925513D01*
X140651913Y-89993832D01*
X140617609Y-90075989D01*
X140579891Y-90165270D01*
X140541613Y-90254958D01*
X140505630Y-90338338D01*
X140474794Y-90408694D01*
X140451961Y-90459310D01*
X140439983Y-90483471D01*
X140439276Y-90484422D01*
X140420469Y-90489036D01*
X140370382Y-90499328D01*
X140294207Y-90514287D01*
X140197135Y-90532901D01*
X140084357Y-90554159D01*
X140018558Y-90566418D01*
X139898050Y-90589362D01*
X139789203Y-90611195D01*
X139697524Y-90630722D01*
X139628519Y-90646748D01*
X139587696Y-90658079D01*
X139579489Y-90661674D01*
X139571452Y-90686006D01*
X139564967Y-90740959D01*
X139560030Y-90820108D01*
X139556636Y-90917026D01*
X139554782Y-91025287D01*
X139554462Y-91138465D01*
X139555673Y-91250135D01*
X139558410Y-91353868D01*
X139562669Y-91443241D01*
X139568445Y-91511826D01*
X139575733Y-91553197D01*
X139580105Y-91561810D01*
X139606236Y-91572133D01*
X139661607Y-91586892D01*
X139738893Y-91604352D01*
X139830770Y-91622780D01*
X139862842Y-91628741D01*
X140017476Y-91657066D01*
X140139625Y-91679876D01*
X140233327Y-91698080D01*
X140302616Y-91712583D01*
X140351529Y-91724292D01*
X140384103Y-91734115D01*
X140404372Y-91742956D01*
X140416374Y-91751724D01*
X140418053Y-91753457D01*
X140434816Y-91781371D01*
X140460386Y-91835695D01*
X140492212Y-91909777D01*
X140527740Y-91996965D01*
X140564417Y-92090608D01*
X140599689Y-92184052D01*
X140631004Y-92270647D01*
X140655807Y-92343740D01*
X140671546Y-92396678D01*
X140675668Y-92422811D01*
X140675324Y-92423726D01*
X140661359Y-92445086D01*
X140629678Y-92492084D01*
X140583609Y-92559827D01*
X140526482Y-92643423D01*
X140461627Y-92737982D01*
X140443157Y-92764854D01*
X140377301Y-92862275D01*
X140319350Y-92951163D01*
X140272462Y-93026412D01*
X140239793Y-93082920D01*
X140224500Y-93115581D01*
X140223759Y-93119593D01*
X140236608Y-93140684D01*
X140272112Y-93182464D01*
X140325707Y-93240445D01*
X140392829Y-93310135D01*
X140468913Y-93387045D01*
X140549396Y-93466683D01*
X140629713Y-93544561D01*
X140705301Y-93616186D01*
X140771595Y-93677070D01*
X140824031Y-93722721D01*
X140858045Y-93748650D01*
X140867455Y-93752883D01*
X140889357Y-93742912D01*
X140934200Y-93716020D01*
X140994679Y-93676736D01*
X141041211Y-93645117D01*
X141125525Y-93587098D01*
X141225374Y-93518784D01*
X141325527Y-93450579D01*
X141379373Y-93414075D01*
X141561629Y-93290800D01*
X141714619Y-93373520D01*
X141784318Y-93409759D01*
X141843586Y-93437926D01*
X141883689Y-93453991D01*
X141893897Y-93456226D01*
X141906171Y-93439722D01*
X141930387Y-93393082D01*
X141964737Y-93320609D01*
X142007412Y-93226606D01*
X142056606Y-93115374D01*
X142110510Y-92991215D01*
X142167316Y-92858432D01*
X142225218Y-92721327D01*
X142282407Y-92584202D01*
X142337076Y-92451358D01*
X142387416Y-92327098D01*
X142431620Y-92215725D01*
X142467881Y-92121539D01*
X142494391Y-92048844D01*
X142509342Y-92001941D01*
X142511746Y-91985833D01*
X142492689Y-91965286D01*
X142450964Y-91931933D01*
X142395294Y-91892702D01*
X142390622Y-91889599D01*
X142246736Y-91774423D01*
X142130717Y-91640053D01*
X142043570Y-91490784D01*
X141986301Y-91330913D01*
X141959914Y-91164737D01*
X141965415Y-90996552D01*
X142003810Y-90830655D01*
X142076105Y-90671342D01*
X142097374Y-90636487D01*
X142208004Y-90495737D01*
X142338698Y-90382714D01*
X142484936Y-90298003D01*
X142642192Y-90242194D01*
X142805943Y-90215874D01*
X142971667Y-90219630D01*
X143134838Y-90254050D01*
X143290935Y-90319723D01*
X143435433Y-90417235D01*
X143480131Y-90456813D01*
X143593888Y-90580703D01*
X143676782Y-90711124D01*
X143733644Y-90857315D01*
X143765313Y-91002088D01*
X143773131Y-91164860D01*
X143747062Y-91328440D01*
X143689755Y-91487298D01*
X143603856Y-91635906D01*
X143492014Y-91768735D01*
X143356877Y-91880256D01*
X143339117Y-91892011D01*
X143282850Y-91930508D01*
X143240077Y-91963863D01*
X143219628Y-91985160D01*
X143219331Y-91985833D01*
X143223721Y-92008871D01*
X143241124Y-92061157D01*
X143269732Y-92138390D01*
X143307735Y-92236268D01*
X143353326Y-92350491D01*
X143404697Y-92476758D01*
X143460038Y-92610767D01*
X143517542Y-92748218D01*
X143575399Y-92884808D01*
X143631802Y-93016237D01*
X143684942Y-93138205D01*
X143733010Y-93246409D01*
X143774199Y-93336549D01*
X143806699Y-93404323D01*
X143828703Y-93445430D01*
X143837564Y-93456226D01*
X143864640Y-93447819D01*
X143915303Y-93425272D01*
X143980817Y-93392613D01*
X144016841Y-93373520D01*
X144169832Y-93290800D01*
X144352088Y-93414075D01*
X144445125Y-93477228D01*
X144546985Y-93546727D01*
X144642438Y-93612165D01*
X144690250Y-93645117D01*
X144757495Y-93690273D01*
X144814436Y-93726057D01*
X144853646Y-93747938D01*
X144866381Y-93752563D01*
X144884917Y-93740085D01*
X144925941Y-93705252D01*
X144985475Y-93651678D01*
X145059542Y-93582983D01*
X145144165Y-93502781D01*
X145197685Y-93451286D01*
X145291319Y-93359286D01*
X145372241Y-93276999D01*
X145437177Y-93207945D01*
X145482858Y-93155644D01*
X145506011Y-93123616D01*
X145508232Y-93117116D01*
X145497924Y-93092394D01*
X145469439Y-93042405D01*
X145425937Y-92972212D01*
X145370577Y-92886875D01*
X145306520Y-92791456D01*
X145288303Y-92764854D01*
X145221927Y-92668167D01*
X145162378Y-92581117D01*
X145112984Y-92508595D01*
X145077075Y-92455493D01*
X145057981Y-92426703D01*
X145056136Y-92423726D01*
X145058895Y-92400782D01*
X145073538Y-92350336D01*
X145097513Y-92279041D01*
X145128266Y-92193547D01*
X145163244Y-92100507D01*
X145199893Y-92006574D01*
X145235661Y-91918399D01*
X145267994Y-91842634D01*
X145294338Y-91785931D01*
X145312142Y-91754943D01*
X145313407Y-91753457D01*
X145324294Y-91744601D01*
X145342682Y-91735843D01*
X145372606Y-91726277D01*
X145418103Y-91714996D01*
X145483209Y-91701093D01*
X145571961Y-91683663D01*
X145688393Y-91661798D01*
X145836542Y-91634591D01*
X145868618Y-91628741D01*
X145963686Y-91610374D01*
X146046565Y-91592405D01*
X146109930Y-91576569D01*
X146146458Y-91564600D01*
X146151356Y-91561810D01*
X146159427Y-91537072D01*
X146165987Y-91481790D01*
X146171033Y-91402389D01*
X146174559Y-91305296D01*
X146176561Y-91196938D01*
X146177036Y-91083740D01*
X146175977Y-90972128D01*
X146173382Y-90868529D01*
X146169246Y-90779368D01*
X146163563Y-90711072D01*
X146156331Y-90670066D01*
X146151971Y-90661674D01*
X146127698Y-90653208D01*
X146072426Y-90639435D01*
X145991662Y-90621550D01*
X145890912Y-90600748D01*
X145775683Y-90578223D01*
X145712902Y-90566418D01*
X145593787Y-90544151D01*
X145487565Y-90523979D01*
X145399427Y-90506915D01*
X145334566Y-90493969D01*
X145298174Y-90486155D01*
X145292184Y-90484422D01*
X145282061Y-90464890D01*
X145260662Y-90417843D01*
X145230839Y-90350003D01*
X145195445Y-90268091D01*
X145157332Y-90178828D01*
X145119353Y-90088935D01*
X145084360Y-90005135D01*
X145055206Y-89934147D01*
X145034743Y-89882694D01*
X145025823Y-89857497D01*
X145025657Y-89856396D01*
X145035769Y-89836519D01*
X145064117Y-89790777D01*
X145107723Y-89723717D01*
X145163606Y-89639884D01*
X145228787Y-89543826D01*
X145266679Y-89488650D01*
X145335725Y-89387481D01*
X145397050Y-89295630D01*
X145447663Y-89217744D01*
X145484571Y-89158469D01*
X145504782Y-89122451D01*
X145507701Y-89114377D01*
X145495153Y-89095584D01*
X145460463Y-89055457D01*
X145408063Y-88998493D01*
X145342384Y-88929185D01*
X145267856Y-88852031D01*
X145188913Y-88771525D01*
X145109983Y-88692163D01*
X145035500Y-88618440D01*
X144969894Y-88554852D01*
X144917596Y-88505894D01*
X144883039Y-88476061D01*
X144871478Y-88468942D01*
X144852654Y-88478953D01*
X144807631Y-88507078D01*
X144740787Y-88550454D01*
X144656499Y-88606218D01*
X144559144Y-88671506D01*
X144485707Y-88721246D01*
X144114667Y-88973551D01*
X143496095Y-88718555D01*
X143412275Y-88273931D01*
X143328454Y-87829307D01*
X142403006Y-87829307D01*
X142319186Y-88273931D01*
G37*
X142319186Y-88273931D02*
X142235365Y-88718555D01*
X141926080Y-88846053D01*
X141616794Y-88973551D01*
X141245754Y-88721246D01*
X141141843Y-88650996D01*
X141047913Y-88588272D01*
X140968348Y-88535938D01*
X140907530Y-88496857D01*
X140869843Y-88473893D01*
X140859579Y-88468942D01*
X140841090Y-88481676D01*
X140801580Y-88516882D01*
X140745478Y-88570062D01*
X140677213Y-88636718D01*
X140601214Y-88712354D01*
X140521908Y-88792472D01*
X140443725Y-88872574D01*
X140371093Y-88948164D01*
X140308441Y-89014745D01*
X140260197Y-89067818D01*
X140230790Y-89102887D01*
X140223759Y-89114623D01*
X140233877Y-89136260D01*
X140262241Y-89183662D01*
X140305871Y-89252193D01*
X140361782Y-89337215D01*
X140426994Y-89434093D01*
X140464781Y-89489350D01*
X140533657Y-89590248D01*
X140594860Y-89681299D01*
X140645422Y-89757970D01*
X140682372Y-89815728D01*
X140702742Y-89850043D01*
X140705803Y-89857254D01*
X140698864Y-89877748D01*
X140679949Y-89925513D01*
X140651913Y-89993832D01*
X140617609Y-90075989D01*
X140579891Y-90165270D01*
X140541613Y-90254958D01*
X140505630Y-90338338D01*
X140474794Y-90408694D01*
X140451961Y-90459310D01*
X140439983Y-90483471D01*
X140439276Y-90484422D01*
X140420469Y-90489036D01*
X140370382Y-90499328D01*
X140294207Y-90514287D01*
X140197135Y-90532901D01*
X140084357Y-90554159D01*
X140018558Y-90566418D01*
X139898050Y-90589362D01*
X139789203Y-90611195D01*
X139697524Y-90630722D01*
X139628519Y-90646748D01*
X139587696Y-90658079D01*
X139579489Y-90661674D01*
X139571452Y-90686006D01*
X139564967Y-90740959D01*
X139560030Y-90820108D01*
X139556636Y-90917026D01*
X139554782Y-91025287D01*
X139554462Y-91138465D01*
X139555673Y-91250135D01*
X139558410Y-91353868D01*
X139562669Y-91443241D01*
X139568445Y-91511826D01*
X139575733Y-91553197D01*
X139580105Y-91561810D01*
X139606236Y-91572133D01*
X139661607Y-91586892D01*
X139738893Y-91604352D01*
X139830770Y-91622780D01*
X139862842Y-91628741D01*
X140017476Y-91657066D01*
X140139625Y-91679876D01*
X140233327Y-91698080D01*
X140302616Y-91712583D01*
X140351529Y-91724292D01*
X140384103Y-91734115D01*
X140404372Y-91742956D01*
X140416374Y-91751724D01*
X140418053Y-91753457D01*
X140434816Y-91781371D01*
X140460386Y-91835695D01*
X140492212Y-91909777D01*
X140527740Y-91996965D01*
X140564417Y-92090608D01*
X140599689Y-92184052D01*
X140631004Y-92270647D01*
X140655807Y-92343740D01*
X140671546Y-92396678D01*
X140675668Y-92422811D01*
X140675324Y-92423726D01*
X140661359Y-92445086D01*
X140629678Y-92492084D01*
X140583609Y-92559827D01*
X140526482Y-92643423D01*
X140461627Y-92737982D01*
X140443157Y-92764854D01*
X140377301Y-92862275D01*
X140319350Y-92951163D01*
X140272462Y-93026412D01*
X140239793Y-93082920D01*
X140224500Y-93115581D01*
X140223759Y-93119593D01*
X140236608Y-93140684D01*
X140272112Y-93182464D01*
X140325707Y-93240445D01*
X140392829Y-93310135D01*
X140468913Y-93387045D01*
X140549396Y-93466683D01*
X140629713Y-93544561D01*
X140705301Y-93616186D01*
X140771595Y-93677070D01*
X140824031Y-93722721D01*
X140858045Y-93748650D01*
X140867455Y-93752883D01*
X140889357Y-93742912D01*
X140934200Y-93716020D01*
X140994679Y-93676736D01*
X141041211Y-93645117D01*
X141125525Y-93587098D01*
X141225374Y-93518784D01*
X141325527Y-93450579D01*
X141379373Y-93414075D01*
X141561629Y-93290800D01*
X141714619Y-93373520D01*
X141784318Y-93409759D01*
X141843586Y-93437926D01*
X141883689Y-93453991D01*
X141893897Y-93456226D01*
X141906171Y-93439722D01*
X141930387Y-93393082D01*
X141964737Y-93320609D01*
X142007412Y-93226606D01*
X142056606Y-93115374D01*
X142110510Y-92991215D01*
X142167316Y-92858432D01*
X142225218Y-92721327D01*
X142282407Y-92584202D01*
X142337076Y-92451358D01*
X142387416Y-92327098D01*
X142431620Y-92215725D01*
X142467881Y-92121539D01*
X142494391Y-92048844D01*
X142509342Y-92001941D01*
X142511746Y-91985833D01*
X142492689Y-91965286D01*
X142450964Y-91931933D01*
X142395294Y-91892702D01*
X142390622Y-91889599D01*
X142246736Y-91774423D01*
X142130717Y-91640053D01*
X142043570Y-91490784D01*
X141986301Y-91330913D01*
X141959914Y-91164737D01*
X141965415Y-90996552D01*
X142003810Y-90830655D01*
X142076105Y-90671342D01*
X142097374Y-90636487D01*
X142208004Y-90495737D01*
X142338698Y-90382714D01*
X142484936Y-90298003D01*
X142642192Y-90242194D01*
X142805943Y-90215874D01*
X142971667Y-90219630D01*
X143134838Y-90254050D01*
X143290935Y-90319723D01*
X143435433Y-90417235D01*
X143480131Y-90456813D01*
X143593888Y-90580703D01*
X143676782Y-90711124D01*
X143733644Y-90857315D01*
X143765313Y-91002088D01*
X143773131Y-91164860D01*
X143747062Y-91328440D01*
X143689755Y-91487298D01*
X143603856Y-91635906D01*
X143492014Y-91768735D01*
X143356877Y-91880256D01*
X143339117Y-91892011D01*
X143282850Y-91930508D01*
X143240077Y-91963863D01*
X143219628Y-91985160D01*
X143219331Y-91985833D01*
X143223721Y-92008871D01*
X143241124Y-92061157D01*
X143269732Y-92138390D01*
X143307735Y-92236268D01*
X143353326Y-92350491D01*
X143404697Y-92476758D01*
X143460038Y-92610767D01*
X143517542Y-92748218D01*
X143575399Y-92884808D01*
X143631802Y-93016237D01*
X143684942Y-93138205D01*
X143733010Y-93246409D01*
X143774199Y-93336549D01*
X143806699Y-93404323D01*
X143828703Y-93445430D01*
X143837564Y-93456226D01*
X143864640Y-93447819D01*
X143915303Y-93425272D01*
X143980817Y-93392613D01*
X144016841Y-93373520D01*
X144169832Y-93290800D01*
X144352088Y-93414075D01*
X144445125Y-93477228D01*
X144546985Y-93546727D01*
X144642438Y-93612165D01*
X144690250Y-93645117D01*
X144757495Y-93690273D01*
X144814436Y-93726057D01*
X144853646Y-93747938D01*
X144866381Y-93752563D01*
X144884917Y-93740085D01*
X144925941Y-93705252D01*
X144985475Y-93651678D01*
X145059542Y-93582983D01*
X145144165Y-93502781D01*
X145197685Y-93451286D01*
X145291319Y-93359286D01*
X145372241Y-93276999D01*
X145437177Y-93207945D01*
X145482858Y-93155644D01*
X145506011Y-93123616D01*
X145508232Y-93117116D01*
X145497924Y-93092394D01*
X145469439Y-93042405D01*
X145425937Y-92972212D01*
X145370577Y-92886875D01*
X145306520Y-92791456D01*
X145288303Y-92764854D01*
X145221927Y-92668167D01*
X145162378Y-92581117D01*
X145112984Y-92508595D01*
X145077075Y-92455493D01*
X145057981Y-92426703D01*
X145056136Y-92423726D01*
X145058895Y-92400782D01*
X145073538Y-92350336D01*
X145097513Y-92279041D01*
X145128266Y-92193547D01*
X145163244Y-92100507D01*
X145199893Y-92006574D01*
X145235661Y-91918399D01*
X145267994Y-91842634D01*
X145294338Y-91785931D01*
X145312142Y-91754943D01*
X145313407Y-91753457D01*
X145324294Y-91744601D01*
X145342682Y-91735843D01*
X145372606Y-91726277D01*
X145418103Y-91714996D01*
X145483209Y-91701093D01*
X145571961Y-91683663D01*
X145688393Y-91661798D01*
X145836542Y-91634591D01*
X145868618Y-91628741D01*
X145963686Y-91610374D01*
X146046565Y-91592405D01*
X146109930Y-91576569D01*
X146146458Y-91564600D01*
X146151356Y-91561810D01*
X146159427Y-91537072D01*
X146165987Y-91481790D01*
X146171033Y-91402389D01*
X146174559Y-91305296D01*
X146176561Y-91196938D01*
X146177036Y-91083740D01*
X146175977Y-90972128D01*
X146173382Y-90868529D01*
X146169246Y-90779368D01*
X146163563Y-90711072D01*
X146156331Y-90670066D01*
X146151971Y-90661674D01*
X146127698Y-90653208D01*
X146072426Y-90639435D01*
X145991662Y-90621550D01*
X145890912Y-90600748D01*
X145775683Y-90578223D01*
X145712902Y-90566418D01*
X145593787Y-90544151D01*
X145487565Y-90523979D01*
X145399427Y-90506915D01*
X145334566Y-90493969D01*
X145298174Y-90486155D01*
X145292184Y-90484422D01*
X145282061Y-90464890D01*
X145260662Y-90417843D01*
X145230839Y-90350003D01*
X145195445Y-90268091D01*
X145157332Y-90178828D01*
X145119353Y-90088935D01*
X145084360Y-90005135D01*
X145055206Y-89934147D01*
X145034743Y-89882694D01*
X145025823Y-89857497D01*
X145025657Y-89856396D01*
X145035769Y-89836519D01*
X145064117Y-89790777D01*
X145107723Y-89723717D01*
X145163606Y-89639884D01*
X145228787Y-89543826D01*
X145266679Y-89488650D01*
X145335725Y-89387481D01*
X145397050Y-89295630D01*
X145447663Y-89217744D01*
X145484571Y-89158469D01*
X145504782Y-89122451D01*
X145507701Y-89114377D01*
X145495153Y-89095584D01*
X145460463Y-89055457D01*
X145408063Y-88998493D01*
X145342384Y-88929185D01*
X145267856Y-88852031D01*
X145188913Y-88771525D01*
X145109983Y-88692163D01*
X145035500Y-88618440D01*
X144969894Y-88554852D01*
X144917596Y-88505894D01*
X144883039Y-88476061D01*
X144871478Y-88468942D01*
X144852654Y-88478953D01*
X144807631Y-88507078D01*
X144740787Y-88550454D01*
X144656499Y-88606218D01*
X144559144Y-88671506D01*
X144485707Y-88721246D01*
X144114667Y-88973551D01*
X143496095Y-88718555D01*
X143412275Y-88273931D01*
X143328454Y-87829307D01*
X142403006Y-87829307D01*
X142319186Y-88273931D01*
D11*
X112095000Y-67165000D02*
G75*
G03X111395000Y-67865000I0J-700000D01*
G01*
X113395000Y-67865000D02*
G75*
G03X112695000Y-67165000I-700000J0D01*
G01*
X112695000Y-71265000D02*
G75*
G03X113395000Y-70565000I0J700000D01*
G01*
X111395000Y-70565000D02*
G75*
G03X112095000Y-71265000I700000J0D01*
G01*
X111395000Y-67815000D02*
X111395000Y-70615000D01*
X112095000Y-71265000D02*
X112695000Y-71265000D01*
X113395000Y-70615000D02*
X113395000Y-67815000D01*
X112695000Y-67165000D02*
X112095000Y-67165000D01*
X108200000Y-67180000D02*
X108200000Y-67820000D01*
X108200000Y-69980000D02*
X108200000Y-69340000D01*
X108200000Y-67820000D02*
X108830000Y-67820000D01*
X105480000Y-67230000D02*
X105480000Y-69930000D01*
X139570000Y-69530000D02*
X139570000Y-67630000D01*
X139570000Y-67630000D02*
X138170000Y-67630000D01*
X139570000Y-80330000D02*
X139570000Y-82230000D01*
X138170000Y-82230000D02*
X139570000Y-82230000D01*
X116970000Y-67630000D02*
X116970000Y-69530000D01*
X116970000Y-80330000D02*
X116970000Y-82230000D01*
X116970000Y-82230000D02*
X118370000Y-82230000D01*
X135110000Y-53640000D02*
G75*
G03X135810000Y-54340000I700000J0D01*
G01*
X135810000Y-52340000D02*
G75*
G03X135110000Y-53040000I0J-700000D01*
G01*
X139210000Y-53040000D02*
G75*
G03X138510000Y-52340000I-700000J0D01*
G01*
X138510000Y-54340000D02*
G75*
G03X139210000Y-53640000I0J700000D01*
G01*
X135760000Y-54340000D02*
X138560000Y-54340000D01*
X139210000Y-53640000D02*
X139210000Y-53040000D01*
X138560000Y-52340000D02*
X135760000Y-52340000D01*
X135110000Y-53040000D02*
X135110000Y-53640000D01*
D10*
X107173333Y-113832380D02*
X107173333Y-114546666D01*
X107220952Y-114689523D01*
X107316190Y-114784761D01*
X107459047Y-114832380D01*
X107554285Y-114832380D01*
X106792380Y-113832380D02*
X106125714Y-113832380D01*
X106554285Y-114832380D01*
X110047380Y-117381666D02*
X110761666Y-117381666D01*
X110904523Y-117334047D01*
X110999761Y-117238809D01*
X111047380Y-117095952D01*
X111047380Y-117000714D01*
X111047380Y-117857857D02*
X110047380Y-117857857D01*
X110047380Y-118238809D01*
X110095000Y-118334047D01*
X110142619Y-118381666D01*
X110237857Y-118429285D01*
X110380714Y-118429285D01*
X110475952Y-118381666D01*
X110523571Y-118334047D01*
X110571190Y-118238809D01*
X110571190Y-117857857D01*
X110142619Y-118810238D02*
X110095000Y-118857857D01*
X110047380Y-118953095D01*
X110047380Y-119191190D01*
X110095000Y-119286428D01*
X110142619Y-119334047D01*
X110237857Y-119381666D01*
X110333095Y-119381666D01*
X110475952Y-119334047D01*
X111047380Y-118762619D01*
X111047380Y-119381666D01*
X111847380Y-120481666D02*
X111847380Y-121100714D01*
X112228333Y-120767380D01*
X112228333Y-120910238D01*
X112275952Y-121005476D01*
X112323571Y-121053095D01*
X112418809Y-121100714D01*
X112656904Y-121100714D01*
X112752142Y-121053095D01*
X112799761Y-121005476D01*
X112847380Y-120910238D01*
X112847380Y-120624523D01*
X112799761Y-120529285D01*
X112752142Y-120481666D01*
X112847380Y-115900714D02*
X112847380Y-115329285D01*
X112847380Y-115615000D02*
X111847380Y-115615000D01*
X111990238Y-115519761D01*
X112085476Y-115424523D01*
X112133095Y-115329285D01*
X115022380Y-116818095D02*
X115831904Y-116818095D01*
X115927142Y-116865714D01*
X115974761Y-116913333D01*
X116022380Y-117008571D01*
X116022380Y-117199047D01*
X115974761Y-117294285D01*
X115927142Y-117341904D01*
X115831904Y-117389523D01*
X115022380Y-117389523D01*
X116022380Y-118389523D02*
X116022380Y-117818095D01*
X116022380Y-118103809D02*
X115022380Y-118103809D01*
X115165238Y-118008571D01*
X115260476Y-117913333D01*
X115308095Y-117818095D01*
X137993333Y-103592380D02*
X137993333Y-104306666D01*
X138040952Y-104449523D01*
X138136190Y-104544761D01*
X138279047Y-104592380D01*
X138374285Y-104592380D01*
X137517142Y-104592380D02*
X137517142Y-103592380D01*
X137136190Y-103592380D01*
X137040952Y-103640000D01*
X136993333Y-103687619D01*
X136945714Y-103782857D01*
X136945714Y-103925714D01*
X136993333Y-104020952D01*
X137040952Y-104068571D01*
X137136190Y-104116190D01*
X137517142Y-104116190D01*
X135993333Y-104592380D02*
X136564761Y-104592380D01*
X136279047Y-104592380D02*
X136279047Y-103592380D01*
X136374285Y-103735238D01*
X136469523Y-103830476D01*
X136564761Y-103878095D01*
X140093333Y-101792380D02*
X139474285Y-101792380D01*
X139807619Y-102173333D01*
X139664761Y-102173333D01*
X139569523Y-102220952D01*
X139521904Y-102268571D01*
X139474285Y-102363809D01*
X139474285Y-102601904D01*
X139521904Y-102697142D01*
X139569523Y-102744761D01*
X139664761Y-102792380D01*
X139950476Y-102792380D01*
X140045714Y-102744761D01*
X140093333Y-102697142D01*
X134274285Y-102792380D02*
X134845714Y-102792380D01*
X134560000Y-102792380D02*
X134560000Y-101792380D01*
X134655238Y-101935238D01*
X134750476Y-102030476D01*
X134845714Y-102078095D01*
X110047380Y-68381666D02*
X110761666Y-68381666D01*
X110904523Y-68334047D01*
X110999761Y-68238809D01*
X111047380Y-68095952D01*
X111047380Y-68000714D01*
X111047380Y-68857857D02*
X110047380Y-68857857D01*
X110047380Y-69238809D01*
X110095000Y-69334047D01*
X110142619Y-69381666D01*
X110237857Y-69429285D01*
X110380714Y-69429285D01*
X110475952Y-69381666D01*
X110523571Y-69334047D01*
X110571190Y-69238809D01*
X110571190Y-68857857D01*
X110142619Y-69810238D02*
X110095000Y-69857857D01*
X110047380Y-69953095D01*
X110047380Y-70191190D01*
X110095000Y-70286428D01*
X110142619Y-70334047D01*
X110237857Y-70381666D01*
X110333095Y-70381666D01*
X110475952Y-70334047D01*
X111047380Y-69762619D01*
X111047380Y-70381666D01*
X112847380Y-66900714D02*
X112847380Y-66329285D01*
X112847380Y-66615000D02*
X111847380Y-66615000D01*
X111990238Y-66519761D01*
X112085476Y-66424523D01*
X112133095Y-66329285D01*
X111847380Y-71481666D02*
X111847380Y-72100714D01*
X112228333Y-71767380D01*
X112228333Y-71910238D01*
X112275952Y-72005476D01*
X112323571Y-72053095D01*
X112418809Y-72100714D01*
X112656904Y-72100714D01*
X112752142Y-72053095D01*
X112799761Y-72005476D01*
X112847380Y-71910238D01*
X112847380Y-71624523D01*
X112799761Y-71529285D01*
X112752142Y-71481666D01*
X107173333Y-64832380D02*
X107173333Y-65546666D01*
X107220952Y-65689523D01*
X107316190Y-65784761D01*
X107459047Y-65832380D01*
X107554285Y-65832380D01*
X106792380Y-64832380D02*
X106125714Y-64832380D01*
X106554285Y-65832380D01*
X115022380Y-67818095D02*
X115831904Y-67818095D01*
X115927142Y-67865714D01*
X115974761Y-67913333D01*
X116022380Y-68008571D01*
X116022380Y-68199047D01*
X115974761Y-68294285D01*
X115927142Y-68341904D01*
X115831904Y-68389523D01*
X115022380Y-68389523D01*
X116022380Y-69389523D02*
X116022380Y-68818095D01*
X116022380Y-69103809D02*
X115022380Y-69103809D01*
X115165238Y-69008571D01*
X115260476Y-68913333D01*
X115308095Y-68818095D01*
X137993333Y-54592380D02*
X137993333Y-55306666D01*
X138040952Y-55449523D01*
X138136190Y-55544761D01*
X138279047Y-55592380D01*
X138374285Y-55592380D01*
X137517142Y-55592380D02*
X137517142Y-54592380D01*
X137136190Y-54592380D01*
X137040952Y-54640000D01*
X136993333Y-54687619D01*
X136945714Y-54782857D01*
X136945714Y-54925714D01*
X136993333Y-55020952D01*
X137040952Y-55068571D01*
X137136190Y-55116190D01*
X137517142Y-55116190D01*
X135993333Y-55592380D02*
X136564761Y-55592380D01*
X136279047Y-55592380D02*
X136279047Y-54592380D01*
X136374285Y-54735238D01*
X136469523Y-54830476D01*
X136564761Y-54878095D01*
X134274285Y-53792380D02*
X134845714Y-53792380D01*
X134560000Y-53792380D02*
X134560000Y-52792380D01*
X134655238Y-52935238D01*
X134750476Y-53030476D01*
X134845714Y-53078095D01*
X140093333Y-52792380D02*
X139474285Y-52792380D01*
X139807619Y-53173333D01*
X139664761Y-53173333D01*
X139569523Y-53220952D01*
X139521904Y-53268571D01*
X139474285Y-53363809D01*
X139474285Y-53601904D01*
X139521904Y-53697142D01*
X139569523Y-53744761D01*
X139664761Y-53792380D01*
X139950476Y-53792380D01*
X140045714Y-53744761D01*
X140093333Y-53697142D01*
%LPC*%
D13*
X117580000Y-143970000D03*
D14*
X173990000Y-114870000D03*
D15*
X173990000Y-111370000D03*
X173990000Y-107870000D03*
D13*
X167580000Y-103970000D03*
D16*
X106840000Y-119055000D03*
D17*
X108365000Y-117580000D03*
D16*
X106840000Y-116105000D03*
D18*
X142175000Y-126435000D03*
D19*
X142175000Y-123895000D03*
X142175000Y-121355000D03*
D13*
X110580000Y-123970000D03*
D20*
G36*
X113195020Y-117474950D02*
G01*
X113192118Y-117484517D01*
X113187405Y-117493334D01*
X113181062Y-117501062D01*
X113173334Y-117507405D01*
X113164517Y-117512118D01*
X113154950Y-117515020D01*
X113145000Y-117516000D01*
X111645000Y-117516000D01*
X111635050Y-117515020D01*
X111625483Y-117512118D01*
X111616666Y-117507405D01*
X111608938Y-117501062D01*
X111602595Y-117493334D01*
X111597882Y-117484517D01*
X111594980Y-117474950D01*
X111594000Y-117465000D01*
X111594000Y-116915000D01*
X111594602Y-116908888D01*
X111594602Y-116890466D01*
X111594848Y-116885467D01*
X111599658Y-116836636D01*
X111600392Y-116831686D01*
X111609964Y-116783561D01*
X111611180Y-116778705D01*
X111625424Y-116731750D01*
X111627110Y-116727039D01*
X111645887Y-116681706D01*
X111648027Y-116677180D01*
X111671158Y-116633907D01*
X111673731Y-116629616D01*
X111700991Y-116588817D01*
X111703973Y-116584796D01*
X111735101Y-116546867D01*
X111738462Y-116543159D01*
X111773159Y-116508462D01*
X111776867Y-116505101D01*
X111814796Y-116473973D01*
X111818817Y-116470991D01*
X111859616Y-116443731D01*
X111863907Y-116441158D01*
X111907180Y-116418027D01*
X111911706Y-116415887D01*
X111957039Y-116397110D01*
X111961750Y-116395424D01*
X112008705Y-116381180D01*
X112013561Y-116379964D01*
X112061686Y-116370392D01*
X112066636Y-116369658D01*
X112115467Y-116364848D01*
X112120466Y-116364602D01*
X112138888Y-116364602D01*
X112145000Y-116364000D01*
X112645000Y-116364000D01*
X112651112Y-116364602D01*
X112669534Y-116364602D01*
X112674533Y-116364848D01*
X112723364Y-116369658D01*
X112728314Y-116370392D01*
X112776439Y-116379964D01*
X112781295Y-116381180D01*
X112828250Y-116395424D01*
X112832961Y-116397110D01*
X112878294Y-116415887D01*
X112882820Y-116418027D01*
X112926093Y-116441158D01*
X112930384Y-116443731D01*
X112971183Y-116470991D01*
X112975204Y-116473973D01*
X113013133Y-116505101D01*
X113016841Y-116508462D01*
X113051538Y-116543159D01*
X113054899Y-116546867D01*
X113086027Y-116584796D01*
X113089009Y-116588817D01*
X113116269Y-116629616D01*
X113118842Y-116633907D01*
X113141973Y-116677180D01*
X113144113Y-116681706D01*
X113162890Y-116727039D01*
X113164576Y-116731750D01*
X113178820Y-116778705D01*
X113180036Y-116783561D01*
X113189608Y-116831686D01*
X113190342Y-116836636D01*
X113195152Y-116885467D01*
X113195398Y-116890466D01*
X113195398Y-116908888D01*
X113196000Y-116915000D01*
X113196000Y-117465000D01*
X113195020Y-117474950D01*
G37*
G36*
X113195398Y-119521112D02*
G01*
X113195398Y-119539534D01*
X113195152Y-119544533D01*
X113190342Y-119593364D01*
X113189608Y-119598314D01*
X113180036Y-119646439D01*
X113178820Y-119651295D01*
X113164576Y-119698250D01*
X113162890Y-119702961D01*
X113144113Y-119748294D01*
X113141973Y-119752820D01*
X113118842Y-119796093D01*
X113116269Y-119800384D01*
X113089009Y-119841183D01*
X113086027Y-119845204D01*
X113054899Y-119883133D01*
X113051538Y-119886841D01*
X113016841Y-119921538D01*
X113013133Y-119924899D01*
X112975204Y-119956027D01*
X112971183Y-119959009D01*
X112930384Y-119986269D01*
X112926093Y-119988842D01*
X112882820Y-120011973D01*
X112878294Y-120014113D01*
X112832961Y-120032890D01*
X112828250Y-120034576D01*
X112781295Y-120048820D01*
X112776439Y-120050036D01*
X112728314Y-120059608D01*
X112723364Y-120060342D01*
X112674533Y-120065152D01*
X112669534Y-120065398D01*
X112651112Y-120065398D01*
X112645000Y-120066000D01*
X112145000Y-120066000D01*
X112138888Y-120065398D01*
X112120466Y-120065398D01*
X112115467Y-120065152D01*
X112066636Y-120060342D01*
X112061686Y-120059608D01*
X112013561Y-120050036D01*
X112008705Y-120048820D01*
X111961750Y-120034576D01*
X111957039Y-120032890D01*
X111911706Y-120014113D01*
X111907180Y-120011973D01*
X111863907Y-119988842D01*
X111859616Y-119986269D01*
X111818817Y-119959009D01*
X111814796Y-119956027D01*
X111776867Y-119924899D01*
X111773159Y-119921538D01*
X111738462Y-119886841D01*
X111735101Y-119883133D01*
X111703973Y-119845204D01*
X111700991Y-119841183D01*
X111673731Y-119800384D01*
X111671158Y-119796093D01*
X111648027Y-119752820D01*
X111645887Y-119748294D01*
X111627110Y-119702961D01*
X111625424Y-119698250D01*
X111611180Y-119651295D01*
X111609964Y-119646439D01*
X111600392Y-119598314D01*
X111599658Y-119593364D01*
X111594848Y-119544533D01*
X111594602Y-119539534D01*
X111594602Y-119521112D01*
X111594000Y-119515000D01*
X111594000Y-118965000D01*
X111594980Y-118955050D01*
X111597882Y-118945483D01*
X111602595Y-118936666D01*
X111608938Y-118928938D01*
X111616666Y-118922595D01*
X111625483Y-118917882D01*
X111635050Y-118914980D01*
X111645000Y-118914000D01*
X113145000Y-118914000D01*
X113154950Y-118914980D01*
X113164517Y-118917882D01*
X113173334Y-118922595D01*
X113181062Y-118928938D01*
X113187405Y-118936666D01*
X113192118Y-118945483D01*
X113195020Y-118955050D01*
X113196000Y-118965000D01*
X113196000Y-119515000D01*
X113195398Y-119521112D01*
G37*
D21*
X112395000Y-118215000D03*
D22*
X163620000Y-145380000D03*
X117140000Y-133390000D03*
D23*
X114380000Y-139385000D03*
X166370000Y-139385000D03*
D24*
X117520000Y-119430000D03*
X117520000Y-121230000D03*
X117520000Y-128430000D03*
X117520000Y-126630000D03*
D25*
X119270000Y-130680000D03*
X121070000Y-130680000D03*
X122870000Y-130680000D03*
X124670000Y-130680000D03*
X126470000Y-130680000D03*
X130070000Y-130680000D03*
X131870000Y-130680000D03*
X133670000Y-130680000D03*
X135470000Y-130680000D03*
X137270000Y-130680000D03*
D24*
X139020000Y-128430000D03*
X139020000Y-126630000D03*
X139020000Y-119430000D03*
X139020000Y-121230000D03*
D25*
X137270000Y-117180000D03*
X135470000Y-117180000D03*
X133670000Y-117180000D03*
X131870000Y-117180000D03*
X130070000Y-117180000D03*
X119270000Y-117180000D03*
X121070000Y-117180000D03*
X122870000Y-117180000D03*
X124670000Y-117180000D03*
X126470000Y-117180000D03*
D24*
X139020000Y-124830000D03*
X139020000Y-123030000D03*
X117520000Y-123030000D03*
X117520000Y-124830000D03*
D25*
X128270000Y-130680000D03*
X128270000Y-117180000D03*
D14*
X173990000Y-139805000D03*
D15*
X173990000Y-136305000D03*
X173990000Y-132805000D03*
D18*
X167575000Y-118815000D03*
D19*
X165035000Y-118815000D03*
X162495000Y-118815000D03*
X159955000Y-118815000D03*
X157415000Y-118815000D03*
X154875000Y-118815000D03*
X152335000Y-118815000D03*
X149795000Y-118815000D03*
X147255000Y-118815000D03*
X144715000Y-118815000D03*
X142175000Y-118815000D03*
D20*
G36*
X136419950Y-101539980D02*
G01*
X136429517Y-101542882D01*
X136438334Y-101547595D01*
X136446062Y-101553938D01*
X136452405Y-101561666D01*
X136457118Y-101570483D01*
X136460020Y-101580050D01*
X136461000Y-101590000D01*
X136461000Y-103090000D01*
X136460020Y-103099950D01*
X136457118Y-103109517D01*
X136452405Y-103118334D01*
X136446062Y-103126062D01*
X136438334Y-103132405D01*
X136429517Y-103137118D01*
X136419950Y-103140020D01*
X136410000Y-103141000D01*
X135860000Y-103141000D01*
X135853888Y-103140398D01*
X135835466Y-103140398D01*
X135830467Y-103140152D01*
X135781636Y-103135342D01*
X135776686Y-103134608D01*
X135728561Y-103125036D01*
X135723705Y-103123820D01*
X135676750Y-103109576D01*
X135672039Y-103107890D01*
X135626706Y-103089113D01*
X135622180Y-103086973D01*
X135578907Y-103063842D01*
X135574616Y-103061269D01*
X135533817Y-103034009D01*
X135529796Y-103031027D01*
X135491867Y-102999899D01*
X135488159Y-102996538D01*
X135453462Y-102961841D01*
X135450101Y-102958133D01*
X135418973Y-102920204D01*
X135415991Y-102916183D01*
X135388731Y-102875384D01*
X135386158Y-102871093D01*
X135363027Y-102827820D01*
X135360887Y-102823294D01*
X135342110Y-102777961D01*
X135340424Y-102773250D01*
X135326180Y-102726295D01*
X135324964Y-102721439D01*
X135315392Y-102673314D01*
X135314658Y-102668364D01*
X135309848Y-102619533D01*
X135309602Y-102614534D01*
X135309602Y-102596112D01*
X135309000Y-102590000D01*
X135309000Y-102090000D01*
X135309602Y-102083888D01*
X135309602Y-102065466D01*
X135309848Y-102060467D01*
X135314658Y-102011636D01*
X135315392Y-102006686D01*
X135324964Y-101958561D01*
X135326180Y-101953705D01*
X135340424Y-101906750D01*
X135342110Y-101902039D01*
X135360887Y-101856706D01*
X135363027Y-101852180D01*
X135386158Y-101808907D01*
X135388731Y-101804616D01*
X135415991Y-101763817D01*
X135418973Y-101759796D01*
X135450101Y-101721867D01*
X135453462Y-101718159D01*
X135488159Y-101683462D01*
X135491867Y-101680101D01*
X135529796Y-101648973D01*
X135533817Y-101645991D01*
X135574616Y-101618731D01*
X135578907Y-101616158D01*
X135622180Y-101593027D01*
X135626706Y-101590887D01*
X135672039Y-101572110D01*
X135676750Y-101570424D01*
X135723705Y-101556180D01*
X135728561Y-101554964D01*
X135776686Y-101545392D01*
X135781636Y-101544658D01*
X135830467Y-101539848D01*
X135835466Y-101539602D01*
X135853888Y-101539602D01*
X135860000Y-101539000D01*
X136410000Y-101539000D01*
X136419950Y-101539980D01*
G37*
G36*
X138466112Y-101539602D02*
G01*
X138484534Y-101539602D01*
X138489533Y-101539848D01*
X138538364Y-101544658D01*
X138543314Y-101545392D01*
X138591439Y-101554964D01*
X138596295Y-101556180D01*
X138643250Y-101570424D01*
X138647961Y-101572110D01*
X138693294Y-101590887D01*
X138697820Y-101593027D01*
X138741093Y-101616158D01*
X138745384Y-101618731D01*
X138786183Y-101645991D01*
X138790204Y-101648973D01*
X138828133Y-101680101D01*
X138831841Y-101683462D01*
X138866538Y-101718159D01*
X138869899Y-101721867D01*
X138901027Y-101759796D01*
X138904009Y-101763817D01*
X138931269Y-101804616D01*
X138933842Y-101808907D01*
X138956973Y-101852180D01*
X138959113Y-101856706D01*
X138977890Y-101902039D01*
X138979576Y-101906750D01*
X138993820Y-101953705D01*
X138995036Y-101958561D01*
X139004608Y-102006686D01*
X139005342Y-102011636D01*
X139010152Y-102060467D01*
X139010398Y-102065466D01*
X139010398Y-102083888D01*
X139011000Y-102090000D01*
X139011000Y-102590000D01*
X139010398Y-102596112D01*
X139010398Y-102614534D01*
X139010152Y-102619533D01*
X139005342Y-102668364D01*
X139004608Y-102673314D01*
X138995036Y-102721439D01*
X138993820Y-102726295D01*
X138979576Y-102773250D01*
X138977890Y-102777961D01*
X138959113Y-102823294D01*
X138956973Y-102827820D01*
X138933842Y-102871093D01*
X138931269Y-102875384D01*
X138904009Y-102916183D01*
X138901027Y-102920204D01*
X138869899Y-102958133D01*
X138866538Y-102961841D01*
X138831841Y-102996538D01*
X138828133Y-102999899D01*
X138790204Y-103031027D01*
X138786183Y-103034009D01*
X138745384Y-103061269D01*
X138741093Y-103063842D01*
X138697820Y-103086973D01*
X138693294Y-103089113D01*
X138647961Y-103107890D01*
X138643250Y-103109576D01*
X138596295Y-103123820D01*
X138591439Y-103125036D01*
X138543314Y-103134608D01*
X138538364Y-103135342D01*
X138489533Y-103140152D01*
X138484534Y-103140398D01*
X138466112Y-103140398D01*
X138460000Y-103141000D01*
X137910000Y-103141000D01*
X137900050Y-103140020D01*
X137890483Y-103137118D01*
X137881666Y-103132405D01*
X137873938Y-103126062D01*
X137867595Y-103118334D01*
X137862882Y-103109517D01*
X137859980Y-103099950D01*
X137859000Y-103090000D01*
X137859000Y-101590000D01*
X137859980Y-101580050D01*
X137862882Y-101570483D01*
X137867595Y-101561666D01*
X137873938Y-101553938D01*
X137881666Y-101547595D01*
X137890483Y-101542882D01*
X137900050Y-101539980D01*
X137910000Y-101539000D01*
X138460000Y-101539000D01*
X138466112Y-101539602D01*
G37*
D26*
X137160000Y-102340000D03*
D22*
X117050000Y-102560000D03*
X163530000Y-114550000D03*
D23*
X166290000Y-108555000D03*
X114300000Y-108555000D03*
D18*
X142175000Y-128975000D03*
D19*
X144715000Y-128975000D03*
X147255000Y-128975000D03*
X149795000Y-128975000D03*
X152335000Y-128975000D03*
X154875000Y-128975000D03*
X157415000Y-128975000D03*
X159955000Y-128975000D03*
X162495000Y-128975000D03*
X165035000Y-128975000D03*
X167575000Y-128975000D03*
D13*
X174580000Y-123970000D03*
D18*
X167575000Y-126435000D03*
D19*
X167575000Y-123895000D03*
X167575000Y-121355000D03*
D18*
X170115000Y-118815000D03*
X108585000Y-111230000D03*
X144715000Y-123895000D03*
D19*
X147255000Y-123895000D03*
X149795000Y-123895000D03*
X152335000Y-123895000D03*
X154875000Y-123895000D03*
X157415000Y-123895000D03*
X159955000Y-123895000D03*
X162495000Y-123895000D03*
X165035000Y-123895000D03*
D18*
X144715000Y-126435000D03*
D19*
X147255000Y-126435000D03*
X149795000Y-126435000D03*
X152335000Y-126435000D03*
X154875000Y-126435000D03*
X157415000Y-126435000D03*
X159955000Y-126435000D03*
X162495000Y-126435000D03*
X165035000Y-126435000D03*
D18*
X144715000Y-121355000D03*
D19*
X147255000Y-121355000D03*
X149795000Y-121355000D03*
X152335000Y-121355000D03*
X154875000Y-121355000D03*
X157415000Y-121355000D03*
X159955000Y-121355000D03*
X162495000Y-121355000D03*
X165035000Y-121355000D03*
X165035000Y-72355000D03*
X162495000Y-72355000D03*
X159955000Y-72355000D03*
X157415000Y-72355000D03*
X154875000Y-72355000D03*
X152335000Y-72355000D03*
X149795000Y-72355000D03*
X147255000Y-72355000D03*
D18*
X144715000Y-72355000D03*
D19*
X165035000Y-74895000D03*
X162495000Y-74895000D03*
X159955000Y-74895000D03*
X157415000Y-74895000D03*
X154875000Y-74895000D03*
X152335000Y-74895000D03*
X149795000Y-74895000D03*
X147255000Y-74895000D03*
D18*
X144715000Y-74895000D03*
D19*
X165035000Y-77435000D03*
X162495000Y-77435000D03*
X159955000Y-77435000D03*
X157415000Y-77435000D03*
X154875000Y-77435000D03*
X152335000Y-77435000D03*
X149795000Y-77435000D03*
X147255000Y-77435000D03*
D18*
X144715000Y-77435000D03*
X108585000Y-62230000D03*
X170115000Y-69815000D03*
D15*
X173990000Y-58870000D03*
X173990000Y-62370000D03*
D14*
X173990000Y-65870000D03*
D19*
X142175000Y-69815000D03*
X144715000Y-69815000D03*
X147255000Y-69815000D03*
X149795000Y-69815000D03*
X152335000Y-69815000D03*
X154875000Y-69815000D03*
X157415000Y-69815000D03*
X159955000Y-69815000D03*
X162495000Y-69815000D03*
X165035000Y-69815000D03*
D18*
X167575000Y-69815000D03*
D19*
X167575000Y-79975000D03*
X165035000Y-79975000D03*
X162495000Y-79975000D03*
X159955000Y-79975000D03*
X157415000Y-79975000D03*
X154875000Y-79975000D03*
X152335000Y-79975000D03*
X149795000Y-79975000D03*
X147255000Y-79975000D03*
X144715000Y-79975000D03*
D18*
X142175000Y-79975000D03*
D19*
X142175000Y-72355000D03*
X142175000Y-74895000D03*
D18*
X142175000Y-77435000D03*
D19*
X167575000Y-72355000D03*
X167575000Y-74895000D03*
D18*
X167575000Y-77435000D03*
D23*
X114300000Y-59555000D03*
X166290000Y-59555000D03*
D22*
X163530000Y-65550000D03*
X117050000Y-53560000D03*
D21*
X112395000Y-69215000D03*
D20*
G36*
X113195398Y-70521112D02*
G01*
X113195398Y-70539534D01*
X113195152Y-70544533D01*
X113190342Y-70593364D01*
X113189608Y-70598314D01*
X113180036Y-70646439D01*
X113178820Y-70651295D01*
X113164576Y-70698250D01*
X113162890Y-70702961D01*
X113144113Y-70748294D01*
X113141973Y-70752820D01*
X113118842Y-70796093D01*
X113116269Y-70800384D01*
X113089009Y-70841183D01*
X113086027Y-70845204D01*
X113054899Y-70883133D01*
X113051538Y-70886841D01*
X113016841Y-70921538D01*
X113013133Y-70924899D01*
X112975204Y-70956027D01*
X112971183Y-70959009D01*
X112930384Y-70986269D01*
X112926093Y-70988842D01*
X112882820Y-71011973D01*
X112878294Y-71014113D01*
X112832961Y-71032890D01*
X112828250Y-71034576D01*
X112781295Y-71048820D01*
X112776439Y-71050036D01*
X112728314Y-71059608D01*
X112723364Y-71060342D01*
X112674533Y-71065152D01*
X112669534Y-71065398D01*
X112651112Y-71065398D01*
X112645000Y-71066000D01*
X112145000Y-71066000D01*
X112138888Y-71065398D01*
X112120466Y-71065398D01*
X112115467Y-71065152D01*
X112066636Y-71060342D01*
X112061686Y-71059608D01*
X112013561Y-71050036D01*
X112008705Y-71048820D01*
X111961750Y-71034576D01*
X111957039Y-71032890D01*
X111911706Y-71014113D01*
X111907180Y-71011973D01*
X111863907Y-70988842D01*
X111859616Y-70986269D01*
X111818817Y-70959009D01*
X111814796Y-70956027D01*
X111776867Y-70924899D01*
X111773159Y-70921538D01*
X111738462Y-70886841D01*
X111735101Y-70883133D01*
X111703973Y-70845204D01*
X111700991Y-70841183D01*
X111673731Y-70800384D01*
X111671158Y-70796093D01*
X111648027Y-70752820D01*
X111645887Y-70748294D01*
X111627110Y-70702961D01*
X111625424Y-70698250D01*
X111611180Y-70651295D01*
X111609964Y-70646439D01*
X111600392Y-70598314D01*
X111599658Y-70593364D01*
X111594848Y-70544533D01*
X111594602Y-70539534D01*
X111594602Y-70521112D01*
X111594000Y-70515000D01*
X111594000Y-69965000D01*
X111594980Y-69955050D01*
X111597882Y-69945483D01*
X111602595Y-69936666D01*
X111608938Y-69928938D01*
X111616666Y-69922595D01*
X111625483Y-69917882D01*
X111635050Y-69914980D01*
X111645000Y-69914000D01*
X113145000Y-69914000D01*
X113154950Y-69914980D01*
X113164517Y-69917882D01*
X113173334Y-69922595D01*
X113181062Y-69928938D01*
X113187405Y-69936666D01*
X113192118Y-69945483D01*
X113195020Y-69955050D01*
X113196000Y-69965000D01*
X113196000Y-70515000D01*
X113195398Y-70521112D01*
G37*
G36*
X113195020Y-68474950D02*
G01*
X113192118Y-68484517D01*
X113187405Y-68493334D01*
X113181062Y-68501062D01*
X113173334Y-68507405D01*
X113164517Y-68512118D01*
X113154950Y-68515020D01*
X113145000Y-68516000D01*
X111645000Y-68516000D01*
X111635050Y-68515020D01*
X111625483Y-68512118D01*
X111616666Y-68507405D01*
X111608938Y-68501062D01*
X111602595Y-68493334D01*
X111597882Y-68484517D01*
X111594980Y-68474950D01*
X111594000Y-68465000D01*
X111594000Y-67915000D01*
X111594602Y-67908888D01*
X111594602Y-67890466D01*
X111594848Y-67885467D01*
X111599658Y-67836636D01*
X111600392Y-67831686D01*
X111609964Y-67783561D01*
X111611180Y-67778705D01*
X111625424Y-67731750D01*
X111627110Y-67727039D01*
X111645887Y-67681706D01*
X111648027Y-67677180D01*
X111671158Y-67633907D01*
X111673731Y-67629616D01*
X111700991Y-67588817D01*
X111703973Y-67584796D01*
X111735101Y-67546867D01*
X111738462Y-67543159D01*
X111773159Y-67508462D01*
X111776867Y-67505101D01*
X111814796Y-67473973D01*
X111818817Y-67470991D01*
X111859616Y-67443731D01*
X111863907Y-67441158D01*
X111907180Y-67418027D01*
X111911706Y-67415887D01*
X111957039Y-67397110D01*
X111961750Y-67395424D01*
X112008705Y-67381180D01*
X112013561Y-67379964D01*
X112061686Y-67370392D01*
X112066636Y-67369658D01*
X112115467Y-67364848D01*
X112120466Y-67364602D01*
X112138888Y-67364602D01*
X112145000Y-67364000D01*
X112645000Y-67364000D01*
X112651112Y-67364602D01*
X112669534Y-67364602D01*
X112674533Y-67364848D01*
X112723364Y-67369658D01*
X112728314Y-67370392D01*
X112776439Y-67379964D01*
X112781295Y-67381180D01*
X112828250Y-67395424D01*
X112832961Y-67397110D01*
X112878294Y-67415887D01*
X112882820Y-67418027D01*
X112926093Y-67441158D01*
X112930384Y-67443731D01*
X112971183Y-67470991D01*
X112975204Y-67473973D01*
X113013133Y-67505101D01*
X113016841Y-67508462D01*
X113051538Y-67543159D01*
X113054899Y-67546867D01*
X113086027Y-67584796D01*
X113089009Y-67588817D01*
X113116269Y-67629616D01*
X113118842Y-67633907D01*
X113141973Y-67677180D01*
X113144113Y-67681706D01*
X113162890Y-67727039D01*
X113164576Y-67731750D01*
X113178820Y-67778705D01*
X113180036Y-67783561D01*
X113189608Y-67831686D01*
X113190342Y-67836636D01*
X113195152Y-67885467D01*
X113195398Y-67890466D01*
X113195398Y-67908888D01*
X113196000Y-67915000D01*
X113196000Y-68465000D01*
X113195020Y-68474950D01*
G37*
D16*
X106840000Y-67105000D03*
D17*
X108365000Y-68580000D03*
D16*
X106840000Y-70055000D03*
D25*
X128270000Y-68180000D03*
X128270000Y-81680000D03*
D24*
X117520000Y-75830000D03*
X117520000Y-74030000D03*
X139020000Y-74030000D03*
X139020000Y-75830000D03*
D25*
X126470000Y-68180000D03*
X124670000Y-68180000D03*
X122870000Y-68180000D03*
X121070000Y-68180000D03*
X119270000Y-68180000D03*
X130070000Y-68180000D03*
X131870000Y-68180000D03*
X133670000Y-68180000D03*
X135470000Y-68180000D03*
X137270000Y-68180000D03*
D24*
X139020000Y-72230000D03*
X139020000Y-70430000D03*
X139020000Y-77630000D03*
X139020000Y-79430000D03*
D25*
X137270000Y-81680000D03*
X135470000Y-81680000D03*
X133670000Y-81680000D03*
X131870000Y-81680000D03*
X130070000Y-81680000D03*
X126470000Y-81680000D03*
X124670000Y-81680000D03*
X122870000Y-81680000D03*
X121070000Y-81680000D03*
X119270000Y-81680000D03*
D24*
X117520000Y-77630000D03*
X117520000Y-79430000D03*
X117520000Y-72230000D03*
X117520000Y-70430000D03*
D15*
X173990000Y-83805000D03*
X173990000Y-87305000D03*
D14*
X173990000Y-90805000D03*
D26*
X137160000Y-53340000D03*
D20*
G36*
X138466112Y-52539602D02*
G01*
X138484534Y-52539602D01*
X138489533Y-52539848D01*
X138538364Y-52544658D01*
X138543314Y-52545392D01*
X138591439Y-52554964D01*
X138596295Y-52556180D01*
X138643250Y-52570424D01*
X138647961Y-52572110D01*
X138693294Y-52590887D01*
X138697820Y-52593027D01*
X138741093Y-52616158D01*
X138745384Y-52618731D01*
X138786183Y-52645991D01*
X138790204Y-52648973D01*
X138828133Y-52680101D01*
X138831841Y-52683462D01*
X138866538Y-52718159D01*
X138869899Y-52721867D01*
X138901027Y-52759796D01*
X138904009Y-52763817D01*
X138931269Y-52804616D01*
X138933842Y-52808907D01*
X138956973Y-52852180D01*
X138959113Y-52856706D01*
X138977890Y-52902039D01*
X138979576Y-52906750D01*
X138993820Y-52953705D01*
X138995036Y-52958561D01*
X139004608Y-53006686D01*
X139005342Y-53011636D01*
X139010152Y-53060467D01*
X139010398Y-53065466D01*
X139010398Y-53083888D01*
X139011000Y-53090000D01*
X139011000Y-53590000D01*
X139010398Y-53596112D01*
X139010398Y-53614534D01*
X139010152Y-53619533D01*
X139005342Y-53668364D01*
X139004608Y-53673314D01*
X138995036Y-53721439D01*
X138993820Y-53726295D01*
X138979576Y-53773250D01*
X138977890Y-53777961D01*
X138959113Y-53823294D01*
X138956973Y-53827820D01*
X138933842Y-53871093D01*
X138931269Y-53875384D01*
X138904009Y-53916183D01*
X138901027Y-53920204D01*
X138869899Y-53958133D01*
X138866538Y-53961841D01*
X138831841Y-53996538D01*
X138828133Y-53999899D01*
X138790204Y-54031027D01*
X138786183Y-54034009D01*
X138745384Y-54061269D01*
X138741093Y-54063842D01*
X138697820Y-54086973D01*
X138693294Y-54089113D01*
X138647961Y-54107890D01*
X138643250Y-54109576D01*
X138596295Y-54123820D01*
X138591439Y-54125036D01*
X138543314Y-54134608D01*
X138538364Y-54135342D01*
X138489533Y-54140152D01*
X138484534Y-54140398D01*
X138466112Y-54140398D01*
X138460000Y-54141000D01*
X137910000Y-54141000D01*
X137900050Y-54140020D01*
X137890483Y-54137118D01*
X137881666Y-54132405D01*
X137873938Y-54126062D01*
X137867595Y-54118334D01*
X137862882Y-54109517D01*
X137859980Y-54099950D01*
X137859000Y-54090000D01*
X137859000Y-52590000D01*
X137859980Y-52580050D01*
X137862882Y-52570483D01*
X137867595Y-52561666D01*
X137873938Y-52553938D01*
X137881666Y-52547595D01*
X137890483Y-52542882D01*
X137900050Y-52539980D01*
X137910000Y-52539000D01*
X138460000Y-52539000D01*
X138466112Y-52539602D01*
G37*
G36*
X136419950Y-52539980D02*
G01*
X136429517Y-52542882D01*
X136438334Y-52547595D01*
X136446062Y-52553938D01*
X136452405Y-52561666D01*
X136457118Y-52570483D01*
X136460020Y-52580050D01*
X136461000Y-52590000D01*
X136461000Y-54090000D01*
X136460020Y-54099950D01*
X136457118Y-54109517D01*
X136452405Y-54118334D01*
X136446062Y-54126062D01*
X136438334Y-54132405D01*
X136429517Y-54137118D01*
X136419950Y-54140020D01*
X136410000Y-54141000D01*
X135860000Y-54141000D01*
X135853888Y-54140398D01*
X135835466Y-54140398D01*
X135830467Y-54140152D01*
X135781636Y-54135342D01*
X135776686Y-54134608D01*
X135728561Y-54125036D01*
X135723705Y-54123820D01*
X135676750Y-54109576D01*
X135672039Y-54107890D01*
X135626706Y-54089113D01*
X135622180Y-54086973D01*
X135578907Y-54063842D01*
X135574616Y-54061269D01*
X135533817Y-54034009D01*
X135529796Y-54031027D01*
X135491867Y-53999899D01*
X135488159Y-53996538D01*
X135453462Y-53961841D01*
X135450101Y-53958133D01*
X135418973Y-53920204D01*
X135415991Y-53916183D01*
X135388731Y-53875384D01*
X135386158Y-53871093D01*
X135363027Y-53827820D01*
X135360887Y-53823294D01*
X135342110Y-53777961D01*
X135340424Y-53773250D01*
X135326180Y-53726295D01*
X135324964Y-53721439D01*
X135315392Y-53673314D01*
X135314658Y-53668364D01*
X135309848Y-53619533D01*
X135309602Y-53614534D01*
X135309602Y-53596112D01*
X135309000Y-53590000D01*
X135309000Y-53090000D01*
X135309602Y-53083888D01*
X135309602Y-53065466D01*
X135309848Y-53060467D01*
X135314658Y-53011636D01*
X135315392Y-53006686D01*
X135324964Y-52958561D01*
X135326180Y-52953705D01*
X135340424Y-52906750D01*
X135342110Y-52902039D01*
X135360887Y-52856706D01*
X135363027Y-52852180D01*
X135386158Y-52808907D01*
X135388731Y-52804616D01*
X135415991Y-52763817D01*
X135418973Y-52759796D01*
X135450101Y-52721867D01*
X135453462Y-52718159D01*
X135488159Y-52683462D01*
X135491867Y-52680101D01*
X135529796Y-52648973D01*
X135533817Y-52645991D01*
X135574616Y-52618731D01*
X135578907Y-52616158D01*
X135622180Y-52593027D01*
X135626706Y-52590887D01*
X135672039Y-52572110D01*
X135676750Y-52570424D01*
X135723705Y-52556180D01*
X135728561Y-52554964D01*
X135776686Y-52545392D01*
X135781636Y-52544658D01*
X135830467Y-52539848D01*
X135835466Y-52539602D01*
X135853888Y-52539602D01*
X135860000Y-52539000D01*
X136410000Y-52539000D01*
X136419950Y-52539980D01*
G37*
D23*
X166370000Y-90385000D03*
X114380000Y-90385000D03*
D22*
X117140000Y-84390000D03*
X163620000Y-96380000D03*
D13*
X110580000Y-74970000D03*
X117580000Y-94970000D03*
X167580000Y-54970000D03*
X174580000Y-74970000D03*
M02*
