G04 #@! TF.GenerationSoftware,KiCad,Pcbnew,5.1.5-52549c5~86~ubuntu18.04.1*
G04 #@! TF.CreationDate,2020-08-18T00:02:30-05:00*
G04 #@! TF.ProjectId,,58585858-5858-4585-9858-585858585858,rev?*
G04 #@! TF.SameCoordinates,Original*
G04 #@! TF.FileFunction,Soldermask,Top*
G04 #@! TF.FilePolarity,Negative*
%FSLAX46Y46*%
G04 Gerber Fmt 4.6, Leading zero omitted, Abs format (unit mm)*
G04 Created by KiCad (PCBNEW 5.1.5-52549c5~86~ubuntu18.04.1) date 2020-08-18 00:02:30*
%MOMM*%
%LPD*%
G04 APERTURE LIST*
%ADD10C,0.100000*%
G04 APERTURE END LIST*
D10*
G36*
X171777724Y-131316497D02*
G01*
X172004906Y-131361686D01*
X172254412Y-131465035D01*
X172478962Y-131615075D01*
X172669925Y-131806038D01*
X172819965Y-132030588D01*
X172923314Y-132280094D01*
X172976000Y-132544968D01*
X172976000Y-132815032D01*
X172923314Y-133079906D01*
X172819965Y-133329412D01*
X172669925Y-133553962D01*
X172478962Y-133744925D01*
X172254412Y-133894965D01*
X172004906Y-133998314D01*
X171777724Y-134043503D01*
X171740033Y-134051000D01*
X171469967Y-134051000D01*
X171432276Y-134043503D01*
X171205094Y-133998314D01*
X170955588Y-133894965D01*
X170731038Y-133744925D01*
X170540075Y-133553962D01*
X170390035Y-133329412D01*
X170286686Y-133079906D01*
X170234000Y-132815032D01*
X170234000Y-132544968D01*
X170286686Y-132280094D01*
X170390035Y-132030588D01*
X170540075Y-131806038D01*
X170731038Y-131615075D01*
X170955588Y-131465035D01*
X171205094Y-131361686D01*
X171432276Y-131316497D01*
X171469967Y-131309000D01*
X171740033Y-131309000D01*
X171777724Y-131316497D01*
G37*
G36*
X124867585Y-129748802D02*
G01*
X125017410Y-129778604D01*
X125299674Y-129895521D01*
X125553705Y-130065259D01*
X125769741Y-130281295D01*
X125939479Y-130535326D01*
X126056396Y-130817590D01*
X126116000Y-131117240D01*
X126116000Y-131422760D01*
X126056396Y-131722410D01*
X125939479Y-132004674D01*
X125769741Y-132258705D01*
X125553705Y-132474741D01*
X125299674Y-132644479D01*
X125017410Y-132761396D01*
X124867585Y-132791198D01*
X124717761Y-132821000D01*
X124412239Y-132821000D01*
X124262415Y-132791198D01*
X124112590Y-132761396D01*
X123830326Y-132644479D01*
X123576295Y-132474741D01*
X123360259Y-132258705D01*
X123190521Y-132004674D01*
X123073604Y-131722410D01*
X123014000Y-131422760D01*
X123014000Y-131117240D01*
X123073604Y-130817590D01*
X123190521Y-130535326D01*
X123360259Y-130281295D01*
X123576295Y-130065259D01*
X123830326Y-129895521D01*
X124112590Y-129778604D01*
X124262415Y-129748802D01*
X124412239Y-129719000D01*
X124717761Y-129719000D01*
X124867585Y-129748802D01*
G37*
G36*
X183226000Y-128356000D02*
G01*
X180724000Y-128356000D01*
X180724000Y-125854000D01*
X183226000Y-125854000D01*
X183226000Y-128356000D01*
G37*
G36*
X122671564Y-125674389D02*
G01*
X122862833Y-125753615D01*
X122862835Y-125753616D01*
X123013070Y-125854000D01*
X123034973Y-125868635D01*
X123181365Y-126015027D01*
X123296385Y-126187167D01*
X123375611Y-126378436D01*
X123416000Y-126581484D01*
X123416000Y-126788516D01*
X123375611Y-126991564D01*
X123296385Y-127182833D01*
X123296384Y-127182835D01*
X123181365Y-127354973D01*
X123034973Y-127501365D01*
X122862835Y-127616384D01*
X122862834Y-127616385D01*
X122862833Y-127616385D01*
X122671564Y-127695611D01*
X122468516Y-127736000D01*
X122261484Y-127736000D01*
X122058436Y-127695611D01*
X121867167Y-127616385D01*
X121867166Y-127616385D01*
X121867165Y-127616384D01*
X121695027Y-127501365D01*
X121548635Y-127354973D01*
X121433616Y-127182835D01*
X121433615Y-127182833D01*
X121354389Y-126991564D01*
X121314000Y-126788516D01*
X121314000Y-126581484D01*
X121354389Y-126378436D01*
X121433615Y-126187167D01*
X121548635Y-126015027D01*
X121695027Y-125868635D01*
X121716930Y-125854000D01*
X121867165Y-125753616D01*
X121867167Y-125753615D01*
X122058436Y-125674389D01*
X122261484Y-125634000D01*
X122468516Y-125634000D01*
X122671564Y-125674389D01*
G37*
G36*
X174661564Y-125674389D02*
G01*
X174852833Y-125753615D01*
X174852835Y-125753616D01*
X175003070Y-125854000D01*
X175024973Y-125868635D01*
X175171365Y-126015027D01*
X175286385Y-126187167D01*
X175365611Y-126378436D01*
X175406000Y-126581484D01*
X175406000Y-126788516D01*
X175365611Y-126991564D01*
X175286385Y-127182833D01*
X175286384Y-127182835D01*
X175171365Y-127354973D01*
X175024973Y-127501365D01*
X174852835Y-127616384D01*
X174852834Y-127616385D01*
X174852833Y-127616385D01*
X174661564Y-127695611D01*
X174458516Y-127736000D01*
X174251484Y-127736000D01*
X174048436Y-127695611D01*
X173857167Y-127616385D01*
X173857166Y-127616385D01*
X173857165Y-127616384D01*
X173685027Y-127501365D01*
X173538635Y-127354973D01*
X173423616Y-127182835D01*
X173423615Y-127182833D01*
X173344389Y-126991564D01*
X173304000Y-126788516D01*
X173304000Y-126581484D01*
X173344389Y-126378436D01*
X173423615Y-126187167D01*
X173538635Y-126015027D01*
X173685027Y-125868635D01*
X173706930Y-125854000D01*
X173857165Y-125753616D01*
X173857167Y-125753615D01*
X174048436Y-125674389D01*
X174251484Y-125634000D01*
X174458516Y-125634000D01*
X174661564Y-125674389D01*
G37*
G36*
X182339903Y-122402075D02*
G01*
X182567571Y-122496378D01*
X182772466Y-122633285D01*
X182946715Y-122807534D01*
X183083622Y-123012429D01*
X183177925Y-123240097D01*
X183226000Y-123481787D01*
X183226000Y-123728213D01*
X183177925Y-123969903D01*
X183083622Y-124197571D01*
X182946715Y-124402466D01*
X182772466Y-124576715D01*
X182567571Y-124713622D01*
X182567570Y-124713623D01*
X182567569Y-124713623D01*
X182339903Y-124807925D01*
X182098214Y-124856000D01*
X181851786Y-124856000D01*
X181610097Y-124807925D01*
X181382431Y-124713623D01*
X181382430Y-124713623D01*
X181382429Y-124713622D01*
X181177534Y-124576715D01*
X181003285Y-124402466D01*
X180866378Y-124197571D01*
X180772075Y-123969903D01*
X180724000Y-123728213D01*
X180724000Y-123481787D01*
X180772075Y-123240097D01*
X180866378Y-123012429D01*
X181003285Y-122807534D01*
X181177534Y-122633285D01*
X181382429Y-122496378D01*
X181610097Y-122402075D01*
X181851786Y-122354000D01*
X182098214Y-122354000D01*
X182339903Y-122402075D01*
G37*
G36*
X125297724Y-119326497D02*
G01*
X125524906Y-119371686D01*
X125774412Y-119475035D01*
X125998962Y-119625075D01*
X126189925Y-119816038D01*
X126339965Y-120040588D01*
X126443314Y-120290094D01*
X126496000Y-120554968D01*
X126496000Y-120825032D01*
X126443314Y-121089906D01*
X126339965Y-121339412D01*
X126189925Y-121563962D01*
X125998962Y-121754925D01*
X125774412Y-121904965D01*
X125524906Y-122008314D01*
X125297724Y-122053503D01*
X125260033Y-122061000D01*
X124989967Y-122061000D01*
X124952276Y-122053503D01*
X124725094Y-122008314D01*
X124475588Y-121904965D01*
X124251038Y-121754925D01*
X124060075Y-121563962D01*
X123910035Y-121339412D01*
X123806686Y-121089906D01*
X123754000Y-120825032D01*
X123754000Y-120554968D01*
X123806686Y-120290094D01*
X123910035Y-120040588D01*
X124060075Y-119816038D01*
X124251038Y-119625075D01*
X124475588Y-119475035D01*
X124725094Y-119371686D01*
X124952276Y-119326497D01*
X124989967Y-119319000D01*
X125260033Y-119319000D01*
X125297724Y-119326497D01*
G37*
G36*
X182339903Y-118902075D02*
G01*
X182567571Y-118996378D01*
X182772466Y-119133285D01*
X182946715Y-119307534D01*
X183058636Y-119475035D01*
X183083623Y-119512431D01*
X183177925Y-119740097D01*
X183226000Y-119981787D01*
X183226000Y-120228213D01*
X183177925Y-120469903D01*
X183083622Y-120697571D01*
X182946715Y-120902466D01*
X182772466Y-121076715D01*
X182567571Y-121213622D01*
X182567570Y-121213623D01*
X182567569Y-121213623D01*
X182339903Y-121307925D01*
X182098214Y-121356000D01*
X181851786Y-121356000D01*
X181610097Y-121307925D01*
X181382431Y-121213623D01*
X181382430Y-121213623D01*
X181382429Y-121213622D01*
X181177534Y-121076715D01*
X181003285Y-120902466D01*
X180866378Y-120697571D01*
X180772075Y-120469903D01*
X180724000Y-120228213D01*
X180724000Y-119981787D01*
X180772075Y-119740097D01*
X180866377Y-119512431D01*
X180891364Y-119475035D01*
X181003285Y-119307534D01*
X181177534Y-119133285D01*
X181382429Y-118996378D01*
X181610097Y-118902075D01*
X181851786Y-118854000D01*
X182098214Y-118854000D01*
X182339903Y-118902075D01*
G37*
G36*
X161973512Y-115378927D02*
G01*
X162122812Y-115408624D01*
X162286784Y-115476544D01*
X162434354Y-115575147D01*
X162559853Y-115700646D01*
X162658456Y-115848216D01*
X162726376Y-116012188D01*
X162761000Y-116186259D01*
X162761000Y-116363741D01*
X162726376Y-116537812D01*
X162658456Y-116701784D01*
X162559853Y-116849354D01*
X162434354Y-116974853D01*
X162286784Y-117073456D01*
X162122812Y-117141376D01*
X161973512Y-117171073D01*
X161948742Y-117176000D01*
X161771258Y-117176000D01*
X161746488Y-117171073D01*
X161597188Y-117141376D01*
X161433216Y-117073456D01*
X161285646Y-116974853D01*
X161160147Y-116849354D01*
X161061544Y-116701784D01*
X160993624Y-116537812D01*
X160959000Y-116363741D01*
X160959000Y-116186259D01*
X160993624Y-116012188D01*
X161061544Y-115848216D01*
X161160147Y-115700646D01*
X161285646Y-115575147D01*
X161433216Y-115476544D01*
X161597188Y-115408624D01*
X161746488Y-115378927D01*
X161771258Y-115374000D01*
X161948742Y-115374000D01*
X161973512Y-115378927D01*
G37*
G36*
X174673512Y-115378927D02*
G01*
X174822812Y-115408624D01*
X174986784Y-115476544D01*
X175134354Y-115575147D01*
X175259853Y-115700646D01*
X175358456Y-115848216D01*
X175426376Y-116012188D01*
X175461000Y-116186259D01*
X175461000Y-116363741D01*
X175426376Y-116537812D01*
X175358456Y-116701784D01*
X175259853Y-116849354D01*
X175134354Y-116974853D01*
X174986784Y-117073456D01*
X174822812Y-117141376D01*
X174673512Y-117171073D01*
X174648742Y-117176000D01*
X174471258Y-117176000D01*
X174446488Y-117171073D01*
X174297188Y-117141376D01*
X174133216Y-117073456D01*
X173985646Y-116974853D01*
X173860147Y-116849354D01*
X173761544Y-116701784D01*
X173693624Y-116537812D01*
X173659000Y-116363741D01*
X173659000Y-116186259D01*
X173693624Y-116012188D01*
X173761544Y-115848216D01*
X173860147Y-115700646D01*
X173985646Y-115575147D01*
X174133216Y-115476544D01*
X174297188Y-115408624D01*
X174446488Y-115378927D01*
X174471258Y-115374000D01*
X174648742Y-115374000D01*
X174673512Y-115378927D01*
G37*
G36*
X172133512Y-115378927D02*
G01*
X172282812Y-115408624D01*
X172446784Y-115476544D01*
X172594354Y-115575147D01*
X172719853Y-115700646D01*
X172818456Y-115848216D01*
X172886376Y-116012188D01*
X172921000Y-116186259D01*
X172921000Y-116363741D01*
X172886376Y-116537812D01*
X172818456Y-116701784D01*
X172719853Y-116849354D01*
X172594354Y-116974853D01*
X172446784Y-117073456D01*
X172282812Y-117141376D01*
X172133512Y-117171073D01*
X172108742Y-117176000D01*
X171931258Y-117176000D01*
X171906488Y-117171073D01*
X171757188Y-117141376D01*
X171593216Y-117073456D01*
X171445646Y-116974853D01*
X171320147Y-116849354D01*
X171221544Y-116701784D01*
X171153624Y-116537812D01*
X171119000Y-116363741D01*
X171119000Y-116186259D01*
X171153624Y-116012188D01*
X171221544Y-115848216D01*
X171320147Y-115700646D01*
X171445646Y-115575147D01*
X171593216Y-115476544D01*
X171757188Y-115408624D01*
X171906488Y-115378927D01*
X171931258Y-115374000D01*
X172108742Y-115374000D01*
X172133512Y-115378927D01*
G37*
G36*
X169593512Y-115378927D02*
G01*
X169742812Y-115408624D01*
X169906784Y-115476544D01*
X170054354Y-115575147D01*
X170179853Y-115700646D01*
X170278456Y-115848216D01*
X170346376Y-116012188D01*
X170381000Y-116186259D01*
X170381000Y-116363741D01*
X170346376Y-116537812D01*
X170278456Y-116701784D01*
X170179853Y-116849354D01*
X170054354Y-116974853D01*
X169906784Y-117073456D01*
X169742812Y-117141376D01*
X169593512Y-117171073D01*
X169568742Y-117176000D01*
X169391258Y-117176000D01*
X169366488Y-117171073D01*
X169217188Y-117141376D01*
X169053216Y-117073456D01*
X168905646Y-116974853D01*
X168780147Y-116849354D01*
X168681544Y-116701784D01*
X168613624Y-116537812D01*
X168579000Y-116363741D01*
X168579000Y-116186259D01*
X168613624Y-116012188D01*
X168681544Y-115848216D01*
X168780147Y-115700646D01*
X168905646Y-115575147D01*
X169053216Y-115476544D01*
X169217188Y-115408624D01*
X169366488Y-115378927D01*
X169391258Y-115374000D01*
X169568742Y-115374000D01*
X169593512Y-115378927D01*
G37*
G36*
X167053512Y-115378927D02*
G01*
X167202812Y-115408624D01*
X167366784Y-115476544D01*
X167514354Y-115575147D01*
X167639853Y-115700646D01*
X167738456Y-115848216D01*
X167806376Y-116012188D01*
X167841000Y-116186259D01*
X167841000Y-116363741D01*
X167806376Y-116537812D01*
X167738456Y-116701784D01*
X167639853Y-116849354D01*
X167514354Y-116974853D01*
X167366784Y-117073456D01*
X167202812Y-117141376D01*
X167053512Y-117171073D01*
X167028742Y-117176000D01*
X166851258Y-117176000D01*
X166826488Y-117171073D01*
X166677188Y-117141376D01*
X166513216Y-117073456D01*
X166365646Y-116974853D01*
X166240147Y-116849354D01*
X166141544Y-116701784D01*
X166073624Y-116537812D01*
X166039000Y-116363741D01*
X166039000Y-116186259D01*
X166073624Y-116012188D01*
X166141544Y-115848216D01*
X166240147Y-115700646D01*
X166365646Y-115575147D01*
X166513216Y-115476544D01*
X166677188Y-115408624D01*
X166826488Y-115378927D01*
X166851258Y-115374000D01*
X167028742Y-115374000D01*
X167053512Y-115378927D01*
G37*
G36*
X164513512Y-115378927D02*
G01*
X164662812Y-115408624D01*
X164826784Y-115476544D01*
X164974354Y-115575147D01*
X165099853Y-115700646D01*
X165198456Y-115848216D01*
X165266376Y-116012188D01*
X165301000Y-116186259D01*
X165301000Y-116363741D01*
X165266376Y-116537812D01*
X165198456Y-116701784D01*
X165099853Y-116849354D01*
X164974354Y-116974853D01*
X164826784Y-117073456D01*
X164662812Y-117141376D01*
X164513512Y-117171073D01*
X164488742Y-117176000D01*
X164311258Y-117176000D01*
X164286488Y-117171073D01*
X164137188Y-117141376D01*
X163973216Y-117073456D01*
X163825646Y-116974853D01*
X163700147Y-116849354D01*
X163601544Y-116701784D01*
X163533624Y-116537812D01*
X163499000Y-116363741D01*
X163499000Y-116186259D01*
X163533624Y-116012188D01*
X163601544Y-115848216D01*
X163700147Y-115700646D01*
X163825646Y-115575147D01*
X163973216Y-115476544D01*
X164137188Y-115408624D01*
X164286488Y-115378927D01*
X164311258Y-115374000D01*
X164488742Y-115374000D01*
X164513512Y-115378927D01*
G37*
G36*
X159433512Y-115378927D02*
G01*
X159582812Y-115408624D01*
X159746784Y-115476544D01*
X159894354Y-115575147D01*
X160019853Y-115700646D01*
X160118456Y-115848216D01*
X160186376Y-116012188D01*
X160221000Y-116186259D01*
X160221000Y-116363741D01*
X160186376Y-116537812D01*
X160118456Y-116701784D01*
X160019853Y-116849354D01*
X159894354Y-116974853D01*
X159746784Y-117073456D01*
X159582812Y-117141376D01*
X159433512Y-117171073D01*
X159408742Y-117176000D01*
X159231258Y-117176000D01*
X159206488Y-117171073D01*
X159057188Y-117141376D01*
X158893216Y-117073456D01*
X158745646Y-116974853D01*
X158620147Y-116849354D01*
X158521544Y-116701784D01*
X158453624Y-116537812D01*
X158419000Y-116363741D01*
X158419000Y-116186259D01*
X158453624Y-116012188D01*
X158521544Y-115848216D01*
X158620147Y-115700646D01*
X158745646Y-115575147D01*
X158893216Y-115476544D01*
X159057188Y-115408624D01*
X159206488Y-115378927D01*
X159231258Y-115374000D01*
X159408742Y-115374000D01*
X159433512Y-115378927D01*
G37*
G36*
X156893512Y-115378927D02*
G01*
X157042812Y-115408624D01*
X157206784Y-115476544D01*
X157354354Y-115575147D01*
X157479853Y-115700646D01*
X157578456Y-115848216D01*
X157646376Y-116012188D01*
X157681000Y-116186259D01*
X157681000Y-116363741D01*
X157646376Y-116537812D01*
X157578456Y-116701784D01*
X157479853Y-116849354D01*
X157354354Y-116974853D01*
X157206784Y-117073456D01*
X157042812Y-117141376D01*
X156893512Y-117171073D01*
X156868742Y-117176000D01*
X156691258Y-117176000D01*
X156666488Y-117171073D01*
X156517188Y-117141376D01*
X156353216Y-117073456D01*
X156205646Y-116974853D01*
X156080147Y-116849354D01*
X155981544Y-116701784D01*
X155913624Y-116537812D01*
X155879000Y-116363741D01*
X155879000Y-116186259D01*
X155913624Y-116012188D01*
X155981544Y-115848216D01*
X156080147Y-115700646D01*
X156205646Y-115575147D01*
X156353216Y-115476544D01*
X156517188Y-115408624D01*
X156666488Y-115378927D01*
X156691258Y-115374000D01*
X156868742Y-115374000D01*
X156893512Y-115378927D01*
G37*
G36*
X154353512Y-115378927D02*
G01*
X154502812Y-115408624D01*
X154666784Y-115476544D01*
X154814354Y-115575147D01*
X154939853Y-115700646D01*
X155038456Y-115848216D01*
X155106376Y-116012188D01*
X155141000Y-116186259D01*
X155141000Y-116363741D01*
X155106376Y-116537812D01*
X155038456Y-116701784D01*
X154939853Y-116849354D01*
X154814354Y-116974853D01*
X154666784Y-117073456D01*
X154502812Y-117141376D01*
X154353512Y-117171073D01*
X154328742Y-117176000D01*
X154151258Y-117176000D01*
X154126488Y-117171073D01*
X153977188Y-117141376D01*
X153813216Y-117073456D01*
X153665646Y-116974853D01*
X153540147Y-116849354D01*
X153441544Y-116701784D01*
X153373624Y-116537812D01*
X153339000Y-116363741D01*
X153339000Y-116186259D01*
X153373624Y-116012188D01*
X153441544Y-115848216D01*
X153540147Y-115700646D01*
X153665646Y-115575147D01*
X153813216Y-115476544D01*
X153977188Y-115408624D01*
X154126488Y-115378927D01*
X154151258Y-115374000D01*
X154328742Y-115374000D01*
X154353512Y-115378927D01*
G37*
G36*
X149273512Y-115378927D02*
G01*
X149422812Y-115408624D01*
X149586784Y-115476544D01*
X149734354Y-115575147D01*
X149859853Y-115700646D01*
X149958456Y-115848216D01*
X150026376Y-116012188D01*
X150061000Y-116186259D01*
X150061000Y-116363741D01*
X150026376Y-116537812D01*
X149958456Y-116701784D01*
X149859853Y-116849354D01*
X149734354Y-116974853D01*
X149586784Y-117073456D01*
X149422812Y-117141376D01*
X149273512Y-117171073D01*
X149248742Y-117176000D01*
X149071258Y-117176000D01*
X149046488Y-117171073D01*
X148897188Y-117141376D01*
X148733216Y-117073456D01*
X148585646Y-116974853D01*
X148460147Y-116849354D01*
X148361544Y-116701784D01*
X148293624Y-116537812D01*
X148259000Y-116363741D01*
X148259000Y-116186259D01*
X148293624Y-116012188D01*
X148361544Y-115848216D01*
X148460147Y-115700646D01*
X148585646Y-115575147D01*
X148733216Y-115476544D01*
X148897188Y-115408624D01*
X149046488Y-115378927D01*
X149071258Y-115374000D01*
X149248742Y-115374000D01*
X149273512Y-115378927D01*
G37*
G36*
X151813512Y-115378927D02*
G01*
X151962812Y-115408624D01*
X152126784Y-115476544D01*
X152274354Y-115575147D01*
X152399853Y-115700646D01*
X152498456Y-115848216D01*
X152566376Y-116012188D01*
X152601000Y-116186259D01*
X152601000Y-116363741D01*
X152566376Y-116537812D01*
X152498456Y-116701784D01*
X152399853Y-116849354D01*
X152274354Y-116974853D01*
X152126784Y-117073456D01*
X151962812Y-117141376D01*
X151813512Y-117171073D01*
X151788742Y-117176000D01*
X151611258Y-117176000D01*
X151586488Y-117171073D01*
X151437188Y-117141376D01*
X151273216Y-117073456D01*
X151125646Y-116974853D01*
X151000147Y-116849354D01*
X150901544Y-116701784D01*
X150833624Y-116537812D01*
X150799000Y-116363741D01*
X150799000Y-116186259D01*
X150833624Y-116012188D01*
X150901544Y-115848216D01*
X151000147Y-115700646D01*
X151125646Y-115575147D01*
X151273216Y-115476544D01*
X151437188Y-115408624D01*
X151586488Y-115378927D01*
X151611258Y-115374000D01*
X151788742Y-115374000D01*
X151813512Y-115378927D01*
G37*
G36*
X172133512Y-112838927D02*
G01*
X172282812Y-112868624D01*
X172446784Y-112936544D01*
X172594354Y-113035147D01*
X172719853Y-113160646D01*
X172818456Y-113308216D01*
X172886376Y-113472188D01*
X172921000Y-113646259D01*
X172921000Y-113823741D01*
X172886376Y-113997812D01*
X172818456Y-114161784D01*
X172719853Y-114309354D01*
X172594354Y-114434853D01*
X172446784Y-114533456D01*
X172282812Y-114601376D01*
X172133512Y-114631073D01*
X172108742Y-114636000D01*
X171931258Y-114636000D01*
X171906488Y-114631073D01*
X171757188Y-114601376D01*
X171593216Y-114533456D01*
X171445646Y-114434853D01*
X171320147Y-114309354D01*
X171221544Y-114161784D01*
X171153624Y-113997812D01*
X171119000Y-113823741D01*
X171119000Y-113646259D01*
X171153624Y-113472188D01*
X171221544Y-113308216D01*
X171320147Y-113160646D01*
X171445646Y-113035147D01*
X171593216Y-112936544D01*
X171757188Y-112868624D01*
X171906488Y-112838927D01*
X171931258Y-112834000D01*
X172108742Y-112834000D01*
X172133512Y-112838927D01*
G37*
G36*
X174673512Y-112838927D02*
G01*
X174822812Y-112868624D01*
X174986784Y-112936544D01*
X175134354Y-113035147D01*
X175259853Y-113160646D01*
X175358456Y-113308216D01*
X175426376Y-113472188D01*
X175461000Y-113646259D01*
X175461000Y-113823741D01*
X175426376Y-113997812D01*
X175358456Y-114161784D01*
X175259853Y-114309354D01*
X175134354Y-114434853D01*
X174986784Y-114533456D01*
X174822812Y-114601376D01*
X174673512Y-114631073D01*
X174648742Y-114636000D01*
X174471258Y-114636000D01*
X174446488Y-114631073D01*
X174297188Y-114601376D01*
X174133216Y-114533456D01*
X173985646Y-114434853D01*
X173860147Y-114309354D01*
X173761544Y-114161784D01*
X173693624Y-113997812D01*
X173659000Y-113823741D01*
X173659000Y-113646259D01*
X173693624Y-113472188D01*
X173761544Y-113308216D01*
X173860147Y-113160646D01*
X173985646Y-113035147D01*
X174133216Y-112936544D01*
X174297188Y-112868624D01*
X174446488Y-112838927D01*
X174471258Y-112834000D01*
X174648742Y-112834000D01*
X174673512Y-112838927D01*
G37*
G36*
X149273512Y-112838927D02*
G01*
X149422812Y-112868624D01*
X149586784Y-112936544D01*
X149734354Y-113035147D01*
X149859853Y-113160646D01*
X149958456Y-113308216D01*
X150026376Y-113472188D01*
X150061000Y-113646259D01*
X150061000Y-113823741D01*
X150026376Y-113997812D01*
X149958456Y-114161784D01*
X149859853Y-114309354D01*
X149734354Y-114434853D01*
X149586784Y-114533456D01*
X149422812Y-114601376D01*
X149273512Y-114631073D01*
X149248742Y-114636000D01*
X149071258Y-114636000D01*
X149046488Y-114631073D01*
X148897188Y-114601376D01*
X148733216Y-114533456D01*
X148585646Y-114434853D01*
X148460147Y-114309354D01*
X148361544Y-114161784D01*
X148293624Y-113997812D01*
X148259000Y-113823741D01*
X148259000Y-113646259D01*
X148293624Y-113472188D01*
X148361544Y-113308216D01*
X148460147Y-113160646D01*
X148585646Y-113035147D01*
X148733216Y-112936544D01*
X148897188Y-112868624D01*
X149046488Y-112838927D01*
X149071258Y-112834000D01*
X149248742Y-112834000D01*
X149273512Y-112838927D01*
G37*
G36*
X151813512Y-112838927D02*
G01*
X151962812Y-112868624D01*
X152126784Y-112936544D01*
X152274354Y-113035147D01*
X152399853Y-113160646D01*
X152498456Y-113308216D01*
X152566376Y-113472188D01*
X152601000Y-113646259D01*
X152601000Y-113823741D01*
X152566376Y-113997812D01*
X152498456Y-114161784D01*
X152399853Y-114309354D01*
X152274354Y-114434853D01*
X152126784Y-114533456D01*
X151962812Y-114601376D01*
X151813512Y-114631073D01*
X151788742Y-114636000D01*
X151611258Y-114636000D01*
X151586488Y-114631073D01*
X151437188Y-114601376D01*
X151273216Y-114533456D01*
X151125646Y-114434853D01*
X151000147Y-114309354D01*
X150901544Y-114161784D01*
X150833624Y-113997812D01*
X150799000Y-113823741D01*
X150799000Y-113646259D01*
X150833624Y-113472188D01*
X150901544Y-113308216D01*
X151000147Y-113160646D01*
X151125646Y-113035147D01*
X151273216Y-112936544D01*
X151437188Y-112868624D01*
X151586488Y-112838927D01*
X151611258Y-112834000D01*
X151788742Y-112834000D01*
X151813512Y-112838927D01*
G37*
G36*
X154353512Y-112838927D02*
G01*
X154502812Y-112868624D01*
X154666784Y-112936544D01*
X154814354Y-113035147D01*
X154939853Y-113160646D01*
X155038456Y-113308216D01*
X155106376Y-113472188D01*
X155141000Y-113646259D01*
X155141000Y-113823741D01*
X155106376Y-113997812D01*
X155038456Y-114161784D01*
X154939853Y-114309354D01*
X154814354Y-114434853D01*
X154666784Y-114533456D01*
X154502812Y-114601376D01*
X154353512Y-114631073D01*
X154328742Y-114636000D01*
X154151258Y-114636000D01*
X154126488Y-114631073D01*
X153977188Y-114601376D01*
X153813216Y-114533456D01*
X153665646Y-114434853D01*
X153540147Y-114309354D01*
X153441544Y-114161784D01*
X153373624Y-113997812D01*
X153339000Y-113823741D01*
X153339000Y-113646259D01*
X153373624Y-113472188D01*
X153441544Y-113308216D01*
X153540147Y-113160646D01*
X153665646Y-113035147D01*
X153813216Y-112936544D01*
X153977188Y-112868624D01*
X154126488Y-112838927D01*
X154151258Y-112834000D01*
X154328742Y-112834000D01*
X154353512Y-112838927D01*
G37*
G36*
X156893512Y-112838927D02*
G01*
X157042812Y-112868624D01*
X157206784Y-112936544D01*
X157354354Y-113035147D01*
X157479853Y-113160646D01*
X157578456Y-113308216D01*
X157646376Y-113472188D01*
X157681000Y-113646259D01*
X157681000Y-113823741D01*
X157646376Y-113997812D01*
X157578456Y-114161784D01*
X157479853Y-114309354D01*
X157354354Y-114434853D01*
X157206784Y-114533456D01*
X157042812Y-114601376D01*
X156893512Y-114631073D01*
X156868742Y-114636000D01*
X156691258Y-114636000D01*
X156666488Y-114631073D01*
X156517188Y-114601376D01*
X156353216Y-114533456D01*
X156205646Y-114434853D01*
X156080147Y-114309354D01*
X155981544Y-114161784D01*
X155913624Y-113997812D01*
X155879000Y-113823741D01*
X155879000Y-113646259D01*
X155913624Y-113472188D01*
X155981544Y-113308216D01*
X156080147Y-113160646D01*
X156205646Y-113035147D01*
X156353216Y-112936544D01*
X156517188Y-112868624D01*
X156666488Y-112838927D01*
X156691258Y-112834000D01*
X156868742Y-112834000D01*
X156893512Y-112838927D01*
G37*
G36*
X159433512Y-112838927D02*
G01*
X159582812Y-112868624D01*
X159746784Y-112936544D01*
X159894354Y-113035147D01*
X160019853Y-113160646D01*
X160118456Y-113308216D01*
X160186376Y-113472188D01*
X160221000Y-113646259D01*
X160221000Y-113823741D01*
X160186376Y-113997812D01*
X160118456Y-114161784D01*
X160019853Y-114309354D01*
X159894354Y-114434853D01*
X159746784Y-114533456D01*
X159582812Y-114601376D01*
X159433512Y-114631073D01*
X159408742Y-114636000D01*
X159231258Y-114636000D01*
X159206488Y-114631073D01*
X159057188Y-114601376D01*
X158893216Y-114533456D01*
X158745646Y-114434853D01*
X158620147Y-114309354D01*
X158521544Y-114161784D01*
X158453624Y-113997812D01*
X158419000Y-113823741D01*
X158419000Y-113646259D01*
X158453624Y-113472188D01*
X158521544Y-113308216D01*
X158620147Y-113160646D01*
X158745646Y-113035147D01*
X158893216Y-112936544D01*
X159057188Y-112868624D01*
X159206488Y-112838927D01*
X159231258Y-112834000D01*
X159408742Y-112834000D01*
X159433512Y-112838927D01*
G37*
G36*
X161973512Y-112838927D02*
G01*
X162122812Y-112868624D01*
X162286784Y-112936544D01*
X162434354Y-113035147D01*
X162559853Y-113160646D01*
X162658456Y-113308216D01*
X162726376Y-113472188D01*
X162761000Y-113646259D01*
X162761000Y-113823741D01*
X162726376Y-113997812D01*
X162658456Y-114161784D01*
X162559853Y-114309354D01*
X162434354Y-114434853D01*
X162286784Y-114533456D01*
X162122812Y-114601376D01*
X161973512Y-114631073D01*
X161948742Y-114636000D01*
X161771258Y-114636000D01*
X161746488Y-114631073D01*
X161597188Y-114601376D01*
X161433216Y-114533456D01*
X161285646Y-114434853D01*
X161160147Y-114309354D01*
X161061544Y-114161784D01*
X160993624Y-113997812D01*
X160959000Y-113823741D01*
X160959000Y-113646259D01*
X160993624Y-113472188D01*
X161061544Y-113308216D01*
X161160147Y-113160646D01*
X161285646Y-113035147D01*
X161433216Y-112936544D01*
X161597188Y-112868624D01*
X161746488Y-112838927D01*
X161771258Y-112834000D01*
X161948742Y-112834000D01*
X161973512Y-112838927D01*
G37*
G36*
X164513512Y-112838927D02*
G01*
X164662812Y-112868624D01*
X164826784Y-112936544D01*
X164974354Y-113035147D01*
X165099853Y-113160646D01*
X165198456Y-113308216D01*
X165266376Y-113472188D01*
X165301000Y-113646259D01*
X165301000Y-113823741D01*
X165266376Y-113997812D01*
X165198456Y-114161784D01*
X165099853Y-114309354D01*
X164974354Y-114434853D01*
X164826784Y-114533456D01*
X164662812Y-114601376D01*
X164513512Y-114631073D01*
X164488742Y-114636000D01*
X164311258Y-114636000D01*
X164286488Y-114631073D01*
X164137188Y-114601376D01*
X163973216Y-114533456D01*
X163825646Y-114434853D01*
X163700147Y-114309354D01*
X163601544Y-114161784D01*
X163533624Y-113997812D01*
X163499000Y-113823741D01*
X163499000Y-113646259D01*
X163533624Y-113472188D01*
X163601544Y-113308216D01*
X163700147Y-113160646D01*
X163825646Y-113035147D01*
X163973216Y-112936544D01*
X164137188Y-112868624D01*
X164286488Y-112838927D01*
X164311258Y-112834000D01*
X164488742Y-112834000D01*
X164513512Y-112838927D01*
G37*
G36*
X169593512Y-112838927D02*
G01*
X169742812Y-112868624D01*
X169906784Y-112936544D01*
X170054354Y-113035147D01*
X170179853Y-113160646D01*
X170278456Y-113308216D01*
X170346376Y-113472188D01*
X170381000Y-113646259D01*
X170381000Y-113823741D01*
X170346376Y-113997812D01*
X170278456Y-114161784D01*
X170179853Y-114309354D01*
X170054354Y-114434853D01*
X169906784Y-114533456D01*
X169742812Y-114601376D01*
X169593512Y-114631073D01*
X169568742Y-114636000D01*
X169391258Y-114636000D01*
X169366488Y-114631073D01*
X169217188Y-114601376D01*
X169053216Y-114533456D01*
X168905646Y-114434853D01*
X168780147Y-114309354D01*
X168681544Y-114161784D01*
X168613624Y-113997812D01*
X168579000Y-113823741D01*
X168579000Y-113646259D01*
X168613624Y-113472188D01*
X168681544Y-113308216D01*
X168780147Y-113160646D01*
X168905646Y-113035147D01*
X169053216Y-112936544D01*
X169217188Y-112868624D01*
X169366488Y-112838927D01*
X169391258Y-112834000D01*
X169568742Y-112834000D01*
X169593512Y-112838927D01*
G37*
G36*
X167053512Y-112838927D02*
G01*
X167202812Y-112868624D01*
X167366784Y-112936544D01*
X167514354Y-113035147D01*
X167639853Y-113160646D01*
X167738456Y-113308216D01*
X167806376Y-113472188D01*
X167841000Y-113646259D01*
X167841000Y-113823741D01*
X167806376Y-113997812D01*
X167738456Y-114161784D01*
X167639853Y-114309354D01*
X167514354Y-114434853D01*
X167366784Y-114533456D01*
X167202812Y-114601376D01*
X167053512Y-114631073D01*
X167028742Y-114636000D01*
X166851258Y-114636000D01*
X166826488Y-114631073D01*
X166677188Y-114601376D01*
X166513216Y-114533456D01*
X166365646Y-114434853D01*
X166240147Y-114309354D01*
X166141544Y-114161784D01*
X166073624Y-113997812D01*
X166039000Y-113823741D01*
X166039000Y-113646259D01*
X166073624Y-113472188D01*
X166141544Y-113308216D01*
X166240147Y-113160646D01*
X166365646Y-113035147D01*
X166513216Y-112936544D01*
X166677188Y-112868624D01*
X166826488Y-112838927D01*
X166851258Y-112834000D01*
X167028742Y-112834000D01*
X167053512Y-112838927D01*
G37*
G36*
X117867585Y-109748802D02*
G01*
X118017410Y-109778604D01*
X118299674Y-109895521D01*
X118553705Y-110065259D01*
X118769741Y-110281295D01*
X118939479Y-110535326D01*
X119056396Y-110817590D01*
X119116000Y-111117240D01*
X119116000Y-111422760D01*
X119056396Y-111722410D01*
X118939479Y-112004674D01*
X118769741Y-112258705D01*
X118553705Y-112474741D01*
X118299674Y-112644479D01*
X118017410Y-112761396D01*
X117867585Y-112791198D01*
X117717761Y-112821000D01*
X117412239Y-112821000D01*
X117262415Y-112791198D01*
X117112590Y-112761396D01*
X116830326Y-112644479D01*
X116576295Y-112474741D01*
X116360259Y-112258705D01*
X116190521Y-112004674D01*
X116073604Y-111722410D01*
X116014000Y-111422760D01*
X116014000Y-111117240D01*
X116073604Y-110817590D01*
X116190521Y-110535326D01*
X116360259Y-110281295D01*
X116576295Y-110065259D01*
X116830326Y-109895521D01*
X117112590Y-109778604D01*
X117262415Y-109748802D01*
X117412239Y-109719000D01*
X117717761Y-109719000D01*
X117867585Y-109748802D01*
G37*
G36*
X181867585Y-109748802D02*
G01*
X182017410Y-109778604D01*
X182299674Y-109895521D01*
X182553705Y-110065259D01*
X182769741Y-110281295D01*
X182939479Y-110535326D01*
X183056396Y-110817590D01*
X183116000Y-111117240D01*
X183116000Y-111422760D01*
X183056396Y-111722410D01*
X182939479Y-112004674D01*
X182769741Y-112258705D01*
X182553705Y-112474741D01*
X182299674Y-112644479D01*
X182017410Y-112761396D01*
X181867585Y-112791198D01*
X181717761Y-112821000D01*
X181412239Y-112821000D01*
X181262415Y-112791198D01*
X181112590Y-112761396D01*
X180830326Y-112644479D01*
X180576295Y-112474741D01*
X180360259Y-112258705D01*
X180190521Y-112004674D01*
X180073604Y-111722410D01*
X180014000Y-111422760D01*
X180014000Y-111117240D01*
X180073604Y-110817590D01*
X180190521Y-110535326D01*
X180360259Y-110281295D01*
X180576295Y-110065259D01*
X180830326Y-109895521D01*
X181112590Y-109778604D01*
X181262415Y-109748802D01*
X181412239Y-109719000D01*
X181717761Y-109719000D01*
X181867585Y-109748802D01*
G37*
G36*
X172133512Y-110298927D02*
G01*
X172282812Y-110328624D01*
X172446784Y-110396544D01*
X172594354Y-110495147D01*
X172719853Y-110620646D01*
X172818456Y-110768216D01*
X172886376Y-110932188D01*
X172921000Y-111106259D01*
X172921000Y-111283741D01*
X172886376Y-111457812D01*
X172818456Y-111621784D01*
X172719853Y-111769354D01*
X172594354Y-111894853D01*
X172446784Y-111993456D01*
X172282812Y-112061376D01*
X172133512Y-112091073D01*
X172108742Y-112096000D01*
X171931258Y-112096000D01*
X171906488Y-112091073D01*
X171757188Y-112061376D01*
X171593216Y-111993456D01*
X171445646Y-111894853D01*
X171320147Y-111769354D01*
X171221544Y-111621784D01*
X171153624Y-111457812D01*
X171119000Y-111283741D01*
X171119000Y-111106259D01*
X171153624Y-110932188D01*
X171221544Y-110768216D01*
X171320147Y-110620646D01*
X171445646Y-110495147D01*
X171593216Y-110396544D01*
X171757188Y-110328624D01*
X171906488Y-110298927D01*
X171931258Y-110294000D01*
X172108742Y-110294000D01*
X172133512Y-110298927D01*
G37*
G36*
X169593512Y-110298927D02*
G01*
X169742812Y-110328624D01*
X169906784Y-110396544D01*
X170054354Y-110495147D01*
X170179853Y-110620646D01*
X170278456Y-110768216D01*
X170346376Y-110932188D01*
X170381000Y-111106259D01*
X170381000Y-111283741D01*
X170346376Y-111457812D01*
X170278456Y-111621784D01*
X170179853Y-111769354D01*
X170054354Y-111894853D01*
X169906784Y-111993456D01*
X169742812Y-112061376D01*
X169593512Y-112091073D01*
X169568742Y-112096000D01*
X169391258Y-112096000D01*
X169366488Y-112091073D01*
X169217188Y-112061376D01*
X169053216Y-111993456D01*
X168905646Y-111894853D01*
X168780147Y-111769354D01*
X168681544Y-111621784D01*
X168613624Y-111457812D01*
X168579000Y-111283741D01*
X168579000Y-111106259D01*
X168613624Y-110932188D01*
X168681544Y-110768216D01*
X168780147Y-110620646D01*
X168905646Y-110495147D01*
X169053216Y-110396544D01*
X169217188Y-110328624D01*
X169366488Y-110298927D01*
X169391258Y-110294000D01*
X169568742Y-110294000D01*
X169593512Y-110298927D01*
G37*
G36*
X167053512Y-110298927D02*
G01*
X167202812Y-110328624D01*
X167366784Y-110396544D01*
X167514354Y-110495147D01*
X167639853Y-110620646D01*
X167738456Y-110768216D01*
X167806376Y-110932188D01*
X167841000Y-111106259D01*
X167841000Y-111283741D01*
X167806376Y-111457812D01*
X167738456Y-111621784D01*
X167639853Y-111769354D01*
X167514354Y-111894853D01*
X167366784Y-111993456D01*
X167202812Y-112061376D01*
X167053512Y-112091073D01*
X167028742Y-112096000D01*
X166851258Y-112096000D01*
X166826488Y-112091073D01*
X166677188Y-112061376D01*
X166513216Y-111993456D01*
X166365646Y-111894853D01*
X166240147Y-111769354D01*
X166141544Y-111621784D01*
X166073624Y-111457812D01*
X166039000Y-111283741D01*
X166039000Y-111106259D01*
X166073624Y-110932188D01*
X166141544Y-110768216D01*
X166240147Y-110620646D01*
X166365646Y-110495147D01*
X166513216Y-110396544D01*
X166677188Y-110328624D01*
X166826488Y-110298927D01*
X166851258Y-110294000D01*
X167028742Y-110294000D01*
X167053512Y-110298927D01*
G37*
G36*
X164513512Y-110298927D02*
G01*
X164662812Y-110328624D01*
X164826784Y-110396544D01*
X164974354Y-110495147D01*
X165099853Y-110620646D01*
X165198456Y-110768216D01*
X165266376Y-110932188D01*
X165301000Y-111106259D01*
X165301000Y-111283741D01*
X165266376Y-111457812D01*
X165198456Y-111621784D01*
X165099853Y-111769354D01*
X164974354Y-111894853D01*
X164826784Y-111993456D01*
X164662812Y-112061376D01*
X164513512Y-112091073D01*
X164488742Y-112096000D01*
X164311258Y-112096000D01*
X164286488Y-112091073D01*
X164137188Y-112061376D01*
X163973216Y-111993456D01*
X163825646Y-111894853D01*
X163700147Y-111769354D01*
X163601544Y-111621784D01*
X163533624Y-111457812D01*
X163499000Y-111283741D01*
X163499000Y-111106259D01*
X163533624Y-110932188D01*
X163601544Y-110768216D01*
X163700147Y-110620646D01*
X163825646Y-110495147D01*
X163973216Y-110396544D01*
X164137188Y-110328624D01*
X164286488Y-110298927D01*
X164311258Y-110294000D01*
X164488742Y-110294000D01*
X164513512Y-110298927D01*
G37*
G36*
X161973512Y-110298927D02*
G01*
X162122812Y-110328624D01*
X162286784Y-110396544D01*
X162434354Y-110495147D01*
X162559853Y-110620646D01*
X162658456Y-110768216D01*
X162726376Y-110932188D01*
X162761000Y-111106259D01*
X162761000Y-111283741D01*
X162726376Y-111457812D01*
X162658456Y-111621784D01*
X162559853Y-111769354D01*
X162434354Y-111894853D01*
X162286784Y-111993456D01*
X162122812Y-112061376D01*
X161973512Y-112091073D01*
X161948742Y-112096000D01*
X161771258Y-112096000D01*
X161746488Y-112091073D01*
X161597188Y-112061376D01*
X161433216Y-111993456D01*
X161285646Y-111894853D01*
X161160147Y-111769354D01*
X161061544Y-111621784D01*
X160993624Y-111457812D01*
X160959000Y-111283741D01*
X160959000Y-111106259D01*
X160993624Y-110932188D01*
X161061544Y-110768216D01*
X161160147Y-110620646D01*
X161285646Y-110495147D01*
X161433216Y-110396544D01*
X161597188Y-110328624D01*
X161746488Y-110298927D01*
X161771258Y-110294000D01*
X161948742Y-110294000D01*
X161973512Y-110298927D01*
G37*
G36*
X154353512Y-110298927D02*
G01*
X154502812Y-110328624D01*
X154666784Y-110396544D01*
X154814354Y-110495147D01*
X154939853Y-110620646D01*
X155038456Y-110768216D01*
X155106376Y-110932188D01*
X155141000Y-111106259D01*
X155141000Y-111283741D01*
X155106376Y-111457812D01*
X155038456Y-111621784D01*
X154939853Y-111769354D01*
X154814354Y-111894853D01*
X154666784Y-111993456D01*
X154502812Y-112061376D01*
X154353512Y-112091073D01*
X154328742Y-112096000D01*
X154151258Y-112096000D01*
X154126488Y-112091073D01*
X153977188Y-112061376D01*
X153813216Y-111993456D01*
X153665646Y-111894853D01*
X153540147Y-111769354D01*
X153441544Y-111621784D01*
X153373624Y-111457812D01*
X153339000Y-111283741D01*
X153339000Y-111106259D01*
X153373624Y-110932188D01*
X153441544Y-110768216D01*
X153540147Y-110620646D01*
X153665646Y-110495147D01*
X153813216Y-110396544D01*
X153977188Y-110328624D01*
X154126488Y-110298927D01*
X154151258Y-110294000D01*
X154328742Y-110294000D01*
X154353512Y-110298927D01*
G37*
G36*
X151813512Y-110298927D02*
G01*
X151962812Y-110328624D01*
X152126784Y-110396544D01*
X152274354Y-110495147D01*
X152399853Y-110620646D01*
X152498456Y-110768216D01*
X152566376Y-110932188D01*
X152601000Y-111106259D01*
X152601000Y-111283741D01*
X152566376Y-111457812D01*
X152498456Y-111621784D01*
X152399853Y-111769354D01*
X152274354Y-111894853D01*
X152126784Y-111993456D01*
X151962812Y-112061376D01*
X151813512Y-112091073D01*
X151788742Y-112096000D01*
X151611258Y-112096000D01*
X151586488Y-112091073D01*
X151437188Y-112061376D01*
X151273216Y-111993456D01*
X151125646Y-111894853D01*
X151000147Y-111769354D01*
X150901544Y-111621784D01*
X150833624Y-111457812D01*
X150799000Y-111283741D01*
X150799000Y-111106259D01*
X150833624Y-110932188D01*
X150901544Y-110768216D01*
X151000147Y-110620646D01*
X151125646Y-110495147D01*
X151273216Y-110396544D01*
X151437188Y-110328624D01*
X151586488Y-110298927D01*
X151611258Y-110294000D01*
X151788742Y-110294000D01*
X151813512Y-110298927D01*
G37*
G36*
X149273512Y-110298927D02*
G01*
X149422812Y-110328624D01*
X149586784Y-110396544D01*
X149734354Y-110495147D01*
X149859853Y-110620646D01*
X149958456Y-110768216D01*
X150026376Y-110932188D01*
X150061000Y-111106259D01*
X150061000Y-111283741D01*
X150026376Y-111457812D01*
X149958456Y-111621784D01*
X149859853Y-111769354D01*
X149734354Y-111894853D01*
X149586784Y-111993456D01*
X149422812Y-112061376D01*
X149273512Y-112091073D01*
X149248742Y-112096000D01*
X149071258Y-112096000D01*
X149046488Y-112091073D01*
X148897188Y-112061376D01*
X148733216Y-111993456D01*
X148585646Y-111894853D01*
X148460147Y-111769354D01*
X148361544Y-111621784D01*
X148293624Y-111457812D01*
X148259000Y-111283741D01*
X148259000Y-111106259D01*
X148293624Y-110932188D01*
X148361544Y-110768216D01*
X148460147Y-110620646D01*
X148585646Y-110495147D01*
X148733216Y-110396544D01*
X148897188Y-110328624D01*
X149046488Y-110298927D01*
X149071258Y-110294000D01*
X149248742Y-110294000D01*
X149273512Y-110298927D01*
G37*
G36*
X156893512Y-110298927D02*
G01*
X157042812Y-110328624D01*
X157206784Y-110396544D01*
X157354354Y-110495147D01*
X157479853Y-110620646D01*
X157578456Y-110768216D01*
X157646376Y-110932188D01*
X157681000Y-111106259D01*
X157681000Y-111283741D01*
X157646376Y-111457812D01*
X157578456Y-111621784D01*
X157479853Y-111769354D01*
X157354354Y-111894853D01*
X157206784Y-111993456D01*
X157042812Y-112061376D01*
X156893512Y-112091073D01*
X156868742Y-112096000D01*
X156691258Y-112096000D01*
X156666488Y-112091073D01*
X156517188Y-112061376D01*
X156353216Y-111993456D01*
X156205646Y-111894853D01*
X156080147Y-111769354D01*
X155981544Y-111621784D01*
X155913624Y-111457812D01*
X155879000Y-111283741D01*
X155879000Y-111106259D01*
X155913624Y-110932188D01*
X155981544Y-110768216D01*
X156080147Y-110620646D01*
X156205646Y-110495147D01*
X156353216Y-110396544D01*
X156517188Y-110328624D01*
X156666488Y-110298927D01*
X156691258Y-110294000D01*
X156868742Y-110294000D01*
X156893512Y-110298927D01*
G37*
G36*
X174673512Y-110298927D02*
G01*
X174822812Y-110328624D01*
X174986784Y-110396544D01*
X175134354Y-110495147D01*
X175259853Y-110620646D01*
X175358456Y-110768216D01*
X175426376Y-110932188D01*
X175461000Y-111106259D01*
X175461000Y-111283741D01*
X175426376Y-111457812D01*
X175358456Y-111621784D01*
X175259853Y-111769354D01*
X175134354Y-111894853D01*
X174986784Y-111993456D01*
X174822812Y-112061376D01*
X174673512Y-112091073D01*
X174648742Y-112096000D01*
X174471258Y-112096000D01*
X174446488Y-112091073D01*
X174297188Y-112061376D01*
X174133216Y-111993456D01*
X173985646Y-111894853D01*
X173860147Y-111769354D01*
X173761544Y-111621784D01*
X173693624Y-111457812D01*
X173659000Y-111283741D01*
X173659000Y-111106259D01*
X173693624Y-110932188D01*
X173761544Y-110768216D01*
X173860147Y-110620646D01*
X173985646Y-110495147D01*
X174133216Y-110396544D01*
X174297188Y-110328624D01*
X174446488Y-110298927D01*
X174471258Y-110294000D01*
X174648742Y-110294000D01*
X174673512Y-110298927D01*
G37*
G36*
X159433512Y-110298927D02*
G01*
X159582812Y-110328624D01*
X159746784Y-110396544D01*
X159894354Y-110495147D01*
X160019853Y-110620646D01*
X160118456Y-110768216D01*
X160186376Y-110932188D01*
X160221000Y-111106259D01*
X160221000Y-111283741D01*
X160186376Y-111457812D01*
X160118456Y-111621784D01*
X160019853Y-111769354D01*
X159894354Y-111894853D01*
X159746784Y-111993456D01*
X159582812Y-112061376D01*
X159433512Y-112091073D01*
X159408742Y-112096000D01*
X159231258Y-112096000D01*
X159206488Y-112091073D01*
X159057188Y-112061376D01*
X158893216Y-111993456D01*
X158745646Y-111894853D01*
X158620147Y-111769354D01*
X158521544Y-111621784D01*
X158453624Y-111457812D01*
X158419000Y-111283741D01*
X158419000Y-111106259D01*
X158453624Y-110932188D01*
X158521544Y-110768216D01*
X158620147Y-110620646D01*
X158745646Y-110495147D01*
X158893216Y-110396544D01*
X159057188Y-110328624D01*
X159206488Y-110298927D01*
X159231258Y-110294000D01*
X159408742Y-110294000D01*
X159433512Y-110298927D01*
G37*
G36*
X159433512Y-107758927D02*
G01*
X159582812Y-107788624D01*
X159746784Y-107856544D01*
X159894354Y-107955147D01*
X160019853Y-108080646D01*
X160118456Y-108228216D01*
X160186376Y-108392188D01*
X160221000Y-108566259D01*
X160221000Y-108743741D01*
X160186376Y-108917812D01*
X160118456Y-109081784D01*
X160019853Y-109229354D01*
X159894354Y-109354853D01*
X159746784Y-109453456D01*
X159582812Y-109521376D01*
X159433512Y-109551073D01*
X159408742Y-109556000D01*
X159231258Y-109556000D01*
X159206488Y-109551073D01*
X159057188Y-109521376D01*
X158893216Y-109453456D01*
X158745646Y-109354853D01*
X158620147Y-109229354D01*
X158521544Y-109081784D01*
X158453624Y-108917812D01*
X158419000Y-108743741D01*
X158419000Y-108566259D01*
X158453624Y-108392188D01*
X158521544Y-108228216D01*
X158620147Y-108080646D01*
X158745646Y-107955147D01*
X158893216Y-107856544D01*
X159057188Y-107788624D01*
X159206488Y-107758927D01*
X159231258Y-107754000D01*
X159408742Y-107754000D01*
X159433512Y-107758927D01*
G37*
G36*
X172133512Y-107758927D02*
G01*
X172282812Y-107788624D01*
X172446784Y-107856544D01*
X172594354Y-107955147D01*
X172719853Y-108080646D01*
X172818456Y-108228216D01*
X172886376Y-108392188D01*
X172921000Y-108566259D01*
X172921000Y-108743741D01*
X172886376Y-108917812D01*
X172818456Y-109081784D01*
X172719853Y-109229354D01*
X172594354Y-109354853D01*
X172446784Y-109453456D01*
X172282812Y-109521376D01*
X172133512Y-109551073D01*
X172108742Y-109556000D01*
X171931258Y-109556000D01*
X171906488Y-109551073D01*
X171757188Y-109521376D01*
X171593216Y-109453456D01*
X171445646Y-109354853D01*
X171320147Y-109229354D01*
X171221544Y-109081784D01*
X171153624Y-108917812D01*
X171119000Y-108743741D01*
X171119000Y-108566259D01*
X171153624Y-108392188D01*
X171221544Y-108228216D01*
X171320147Y-108080646D01*
X171445646Y-107955147D01*
X171593216Y-107856544D01*
X171757188Y-107788624D01*
X171906488Y-107758927D01*
X171931258Y-107754000D01*
X172108742Y-107754000D01*
X172133512Y-107758927D01*
G37*
G36*
X169593512Y-107758927D02*
G01*
X169742812Y-107788624D01*
X169906784Y-107856544D01*
X170054354Y-107955147D01*
X170179853Y-108080646D01*
X170278456Y-108228216D01*
X170346376Y-108392188D01*
X170381000Y-108566259D01*
X170381000Y-108743741D01*
X170346376Y-108917812D01*
X170278456Y-109081784D01*
X170179853Y-109229354D01*
X170054354Y-109354853D01*
X169906784Y-109453456D01*
X169742812Y-109521376D01*
X169593512Y-109551073D01*
X169568742Y-109556000D01*
X169391258Y-109556000D01*
X169366488Y-109551073D01*
X169217188Y-109521376D01*
X169053216Y-109453456D01*
X168905646Y-109354853D01*
X168780147Y-109229354D01*
X168681544Y-109081784D01*
X168613624Y-108917812D01*
X168579000Y-108743741D01*
X168579000Y-108566259D01*
X168613624Y-108392188D01*
X168681544Y-108228216D01*
X168780147Y-108080646D01*
X168905646Y-107955147D01*
X169053216Y-107856544D01*
X169217188Y-107788624D01*
X169366488Y-107758927D01*
X169391258Y-107754000D01*
X169568742Y-107754000D01*
X169593512Y-107758927D01*
G37*
G36*
X167053512Y-107758927D02*
G01*
X167202812Y-107788624D01*
X167366784Y-107856544D01*
X167514354Y-107955147D01*
X167639853Y-108080646D01*
X167738456Y-108228216D01*
X167806376Y-108392188D01*
X167841000Y-108566259D01*
X167841000Y-108743741D01*
X167806376Y-108917812D01*
X167738456Y-109081784D01*
X167639853Y-109229354D01*
X167514354Y-109354853D01*
X167366784Y-109453456D01*
X167202812Y-109521376D01*
X167053512Y-109551073D01*
X167028742Y-109556000D01*
X166851258Y-109556000D01*
X166826488Y-109551073D01*
X166677188Y-109521376D01*
X166513216Y-109453456D01*
X166365646Y-109354853D01*
X166240147Y-109229354D01*
X166141544Y-109081784D01*
X166073624Y-108917812D01*
X166039000Y-108743741D01*
X166039000Y-108566259D01*
X166073624Y-108392188D01*
X166141544Y-108228216D01*
X166240147Y-108080646D01*
X166365646Y-107955147D01*
X166513216Y-107856544D01*
X166677188Y-107788624D01*
X166826488Y-107758927D01*
X166851258Y-107754000D01*
X167028742Y-107754000D01*
X167053512Y-107758927D01*
G37*
G36*
X164513512Y-107758927D02*
G01*
X164662812Y-107788624D01*
X164826784Y-107856544D01*
X164974354Y-107955147D01*
X165099853Y-108080646D01*
X165198456Y-108228216D01*
X165266376Y-108392188D01*
X165301000Y-108566259D01*
X165301000Y-108743741D01*
X165266376Y-108917812D01*
X165198456Y-109081784D01*
X165099853Y-109229354D01*
X164974354Y-109354853D01*
X164826784Y-109453456D01*
X164662812Y-109521376D01*
X164513512Y-109551073D01*
X164488742Y-109556000D01*
X164311258Y-109556000D01*
X164286488Y-109551073D01*
X164137188Y-109521376D01*
X163973216Y-109453456D01*
X163825646Y-109354853D01*
X163700147Y-109229354D01*
X163601544Y-109081784D01*
X163533624Y-108917812D01*
X163499000Y-108743741D01*
X163499000Y-108566259D01*
X163533624Y-108392188D01*
X163601544Y-108228216D01*
X163700147Y-108080646D01*
X163825646Y-107955147D01*
X163973216Y-107856544D01*
X164137188Y-107788624D01*
X164286488Y-107758927D01*
X164311258Y-107754000D01*
X164488742Y-107754000D01*
X164513512Y-107758927D01*
G37*
G36*
X161973512Y-107758927D02*
G01*
X162122812Y-107788624D01*
X162286784Y-107856544D01*
X162434354Y-107955147D01*
X162559853Y-108080646D01*
X162658456Y-108228216D01*
X162726376Y-108392188D01*
X162761000Y-108566259D01*
X162761000Y-108743741D01*
X162726376Y-108917812D01*
X162658456Y-109081784D01*
X162559853Y-109229354D01*
X162434354Y-109354853D01*
X162286784Y-109453456D01*
X162122812Y-109521376D01*
X161973512Y-109551073D01*
X161948742Y-109556000D01*
X161771258Y-109556000D01*
X161746488Y-109551073D01*
X161597188Y-109521376D01*
X161433216Y-109453456D01*
X161285646Y-109354853D01*
X161160147Y-109229354D01*
X161061544Y-109081784D01*
X160993624Y-108917812D01*
X160959000Y-108743741D01*
X160959000Y-108566259D01*
X160993624Y-108392188D01*
X161061544Y-108228216D01*
X161160147Y-108080646D01*
X161285646Y-107955147D01*
X161433216Y-107856544D01*
X161597188Y-107788624D01*
X161746488Y-107758927D01*
X161771258Y-107754000D01*
X161948742Y-107754000D01*
X161973512Y-107758927D01*
G37*
G36*
X174673512Y-107758927D02*
G01*
X174822812Y-107788624D01*
X174986784Y-107856544D01*
X175134354Y-107955147D01*
X175259853Y-108080646D01*
X175358456Y-108228216D01*
X175426376Y-108392188D01*
X175461000Y-108566259D01*
X175461000Y-108743741D01*
X175426376Y-108917812D01*
X175358456Y-109081784D01*
X175259853Y-109229354D01*
X175134354Y-109354853D01*
X174986784Y-109453456D01*
X174822812Y-109521376D01*
X174673512Y-109551073D01*
X174648742Y-109556000D01*
X174471258Y-109556000D01*
X174446488Y-109551073D01*
X174297188Y-109521376D01*
X174133216Y-109453456D01*
X173985646Y-109354853D01*
X173860147Y-109229354D01*
X173761544Y-109081784D01*
X173693624Y-108917812D01*
X173659000Y-108743741D01*
X173659000Y-108566259D01*
X173693624Y-108392188D01*
X173761544Y-108228216D01*
X173860147Y-108080646D01*
X173985646Y-107955147D01*
X174133216Y-107856544D01*
X174297188Y-107788624D01*
X174446488Y-107758927D01*
X174471258Y-107754000D01*
X174648742Y-107754000D01*
X174673512Y-107758927D01*
G37*
G36*
X149273512Y-107758927D02*
G01*
X149422812Y-107788624D01*
X149586784Y-107856544D01*
X149734354Y-107955147D01*
X149859853Y-108080646D01*
X149958456Y-108228216D01*
X150026376Y-108392188D01*
X150061000Y-108566259D01*
X150061000Y-108743741D01*
X150026376Y-108917812D01*
X149958456Y-109081784D01*
X149859853Y-109229354D01*
X149734354Y-109354853D01*
X149586784Y-109453456D01*
X149422812Y-109521376D01*
X149273512Y-109551073D01*
X149248742Y-109556000D01*
X149071258Y-109556000D01*
X149046488Y-109551073D01*
X148897188Y-109521376D01*
X148733216Y-109453456D01*
X148585646Y-109354853D01*
X148460147Y-109229354D01*
X148361544Y-109081784D01*
X148293624Y-108917812D01*
X148259000Y-108743741D01*
X148259000Y-108566259D01*
X148293624Y-108392188D01*
X148361544Y-108228216D01*
X148460147Y-108080646D01*
X148585646Y-107955147D01*
X148733216Y-107856544D01*
X148897188Y-107788624D01*
X149046488Y-107758927D01*
X149071258Y-107754000D01*
X149248742Y-107754000D01*
X149273512Y-107758927D01*
G37*
G36*
X154353512Y-107758927D02*
G01*
X154502812Y-107788624D01*
X154666784Y-107856544D01*
X154814354Y-107955147D01*
X154939853Y-108080646D01*
X155038456Y-108228216D01*
X155106376Y-108392188D01*
X155141000Y-108566259D01*
X155141000Y-108743741D01*
X155106376Y-108917812D01*
X155038456Y-109081784D01*
X154939853Y-109229354D01*
X154814354Y-109354853D01*
X154666784Y-109453456D01*
X154502812Y-109521376D01*
X154353512Y-109551073D01*
X154328742Y-109556000D01*
X154151258Y-109556000D01*
X154126488Y-109551073D01*
X153977188Y-109521376D01*
X153813216Y-109453456D01*
X153665646Y-109354853D01*
X153540147Y-109229354D01*
X153441544Y-109081784D01*
X153373624Y-108917812D01*
X153339000Y-108743741D01*
X153339000Y-108566259D01*
X153373624Y-108392188D01*
X153441544Y-108228216D01*
X153540147Y-108080646D01*
X153665646Y-107955147D01*
X153813216Y-107856544D01*
X153977188Y-107788624D01*
X154126488Y-107758927D01*
X154151258Y-107754000D01*
X154328742Y-107754000D01*
X154353512Y-107758927D01*
G37*
G36*
X151813512Y-107758927D02*
G01*
X151962812Y-107788624D01*
X152126784Y-107856544D01*
X152274354Y-107955147D01*
X152399853Y-108080646D01*
X152498456Y-108228216D01*
X152566376Y-108392188D01*
X152601000Y-108566259D01*
X152601000Y-108743741D01*
X152566376Y-108917812D01*
X152498456Y-109081784D01*
X152399853Y-109229354D01*
X152274354Y-109354853D01*
X152126784Y-109453456D01*
X151962812Y-109521376D01*
X151813512Y-109551073D01*
X151788742Y-109556000D01*
X151611258Y-109556000D01*
X151586488Y-109551073D01*
X151437188Y-109521376D01*
X151273216Y-109453456D01*
X151125646Y-109354853D01*
X151000147Y-109229354D01*
X150901544Y-109081784D01*
X150833624Y-108917812D01*
X150799000Y-108743741D01*
X150799000Y-108566259D01*
X150833624Y-108392188D01*
X150901544Y-108228216D01*
X151000147Y-108080646D01*
X151125646Y-107955147D01*
X151273216Y-107856544D01*
X151437188Y-107788624D01*
X151586488Y-107758927D01*
X151611258Y-107754000D01*
X151788742Y-107754000D01*
X151813512Y-107758927D01*
G37*
G36*
X156893512Y-107758927D02*
G01*
X157042812Y-107788624D01*
X157206784Y-107856544D01*
X157354354Y-107955147D01*
X157479853Y-108080646D01*
X157578456Y-108228216D01*
X157646376Y-108392188D01*
X157681000Y-108566259D01*
X157681000Y-108743741D01*
X157646376Y-108917812D01*
X157578456Y-109081784D01*
X157479853Y-109229354D01*
X157354354Y-109354853D01*
X157206784Y-109453456D01*
X157042812Y-109521376D01*
X156893512Y-109551073D01*
X156868742Y-109556000D01*
X156691258Y-109556000D01*
X156666488Y-109551073D01*
X156517188Y-109521376D01*
X156353216Y-109453456D01*
X156205646Y-109354853D01*
X156080147Y-109229354D01*
X155981544Y-109081784D01*
X155913624Y-108917812D01*
X155879000Y-108743741D01*
X155879000Y-108566259D01*
X155913624Y-108392188D01*
X155981544Y-108228216D01*
X156080147Y-108080646D01*
X156205646Y-107955147D01*
X156353216Y-107856544D01*
X156517188Y-107788624D01*
X156666488Y-107758927D01*
X156691258Y-107754000D01*
X156868742Y-107754000D01*
X156893512Y-107758927D01*
G37*
G36*
X172133512Y-105218927D02*
G01*
X172282812Y-105248624D01*
X172446784Y-105316544D01*
X172594354Y-105415147D01*
X172719853Y-105540646D01*
X172818456Y-105688216D01*
X172886376Y-105852188D01*
X172921000Y-106026259D01*
X172921000Y-106203741D01*
X172886376Y-106377812D01*
X172818456Y-106541784D01*
X172719853Y-106689354D01*
X172594354Y-106814853D01*
X172446784Y-106913456D01*
X172282812Y-106981376D01*
X172133512Y-107011073D01*
X172108742Y-107016000D01*
X171931258Y-107016000D01*
X171906488Y-107011073D01*
X171757188Y-106981376D01*
X171593216Y-106913456D01*
X171445646Y-106814853D01*
X171320147Y-106689354D01*
X171221544Y-106541784D01*
X171153624Y-106377812D01*
X171119000Y-106203741D01*
X171119000Y-106026259D01*
X171153624Y-105852188D01*
X171221544Y-105688216D01*
X171320147Y-105540646D01*
X171445646Y-105415147D01*
X171593216Y-105316544D01*
X171757188Y-105248624D01*
X171906488Y-105218927D01*
X171931258Y-105214000D01*
X172108742Y-105214000D01*
X172133512Y-105218927D01*
G37*
G36*
X149273512Y-105218927D02*
G01*
X149422812Y-105248624D01*
X149586784Y-105316544D01*
X149734354Y-105415147D01*
X149859853Y-105540646D01*
X149958456Y-105688216D01*
X150026376Y-105852188D01*
X150061000Y-106026259D01*
X150061000Y-106203741D01*
X150026376Y-106377812D01*
X149958456Y-106541784D01*
X149859853Y-106689354D01*
X149734354Y-106814853D01*
X149586784Y-106913456D01*
X149422812Y-106981376D01*
X149273512Y-107011073D01*
X149248742Y-107016000D01*
X149071258Y-107016000D01*
X149046488Y-107011073D01*
X148897188Y-106981376D01*
X148733216Y-106913456D01*
X148585646Y-106814853D01*
X148460147Y-106689354D01*
X148361544Y-106541784D01*
X148293624Y-106377812D01*
X148259000Y-106203741D01*
X148259000Y-106026259D01*
X148293624Y-105852188D01*
X148361544Y-105688216D01*
X148460147Y-105540646D01*
X148585646Y-105415147D01*
X148733216Y-105316544D01*
X148897188Y-105248624D01*
X149046488Y-105218927D01*
X149071258Y-105214000D01*
X149248742Y-105214000D01*
X149273512Y-105218927D01*
G37*
G36*
X151813512Y-105218927D02*
G01*
X151962812Y-105248624D01*
X152126784Y-105316544D01*
X152274354Y-105415147D01*
X152399853Y-105540646D01*
X152498456Y-105688216D01*
X152566376Y-105852188D01*
X152601000Y-106026259D01*
X152601000Y-106203741D01*
X152566376Y-106377812D01*
X152498456Y-106541784D01*
X152399853Y-106689354D01*
X152274354Y-106814853D01*
X152126784Y-106913456D01*
X151962812Y-106981376D01*
X151813512Y-107011073D01*
X151788742Y-107016000D01*
X151611258Y-107016000D01*
X151586488Y-107011073D01*
X151437188Y-106981376D01*
X151273216Y-106913456D01*
X151125646Y-106814853D01*
X151000147Y-106689354D01*
X150901544Y-106541784D01*
X150833624Y-106377812D01*
X150799000Y-106203741D01*
X150799000Y-106026259D01*
X150833624Y-105852188D01*
X150901544Y-105688216D01*
X151000147Y-105540646D01*
X151125646Y-105415147D01*
X151273216Y-105316544D01*
X151437188Y-105248624D01*
X151586488Y-105218927D01*
X151611258Y-105214000D01*
X151788742Y-105214000D01*
X151813512Y-105218927D01*
G37*
G36*
X154353512Y-105218927D02*
G01*
X154502812Y-105248624D01*
X154666784Y-105316544D01*
X154814354Y-105415147D01*
X154939853Y-105540646D01*
X155038456Y-105688216D01*
X155106376Y-105852188D01*
X155141000Y-106026259D01*
X155141000Y-106203741D01*
X155106376Y-106377812D01*
X155038456Y-106541784D01*
X154939853Y-106689354D01*
X154814354Y-106814853D01*
X154666784Y-106913456D01*
X154502812Y-106981376D01*
X154353512Y-107011073D01*
X154328742Y-107016000D01*
X154151258Y-107016000D01*
X154126488Y-107011073D01*
X153977188Y-106981376D01*
X153813216Y-106913456D01*
X153665646Y-106814853D01*
X153540147Y-106689354D01*
X153441544Y-106541784D01*
X153373624Y-106377812D01*
X153339000Y-106203741D01*
X153339000Y-106026259D01*
X153373624Y-105852188D01*
X153441544Y-105688216D01*
X153540147Y-105540646D01*
X153665646Y-105415147D01*
X153813216Y-105316544D01*
X153977188Y-105248624D01*
X154126488Y-105218927D01*
X154151258Y-105214000D01*
X154328742Y-105214000D01*
X154353512Y-105218927D01*
G37*
G36*
X177213512Y-105218927D02*
G01*
X177362812Y-105248624D01*
X177526784Y-105316544D01*
X177674354Y-105415147D01*
X177799853Y-105540646D01*
X177898456Y-105688216D01*
X177966376Y-105852188D01*
X178001000Y-106026259D01*
X178001000Y-106203741D01*
X177966376Y-106377812D01*
X177898456Y-106541784D01*
X177799853Y-106689354D01*
X177674354Y-106814853D01*
X177526784Y-106913456D01*
X177362812Y-106981376D01*
X177213512Y-107011073D01*
X177188742Y-107016000D01*
X177011258Y-107016000D01*
X176986488Y-107011073D01*
X176837188Y-106981376D01*
X176673216Y-106913456D01*
X176525646Y-106814853D01*
X176400147Y-106689354D01*
X176301544Y-106541784D01*
X176233624Y-106377812D01*
X176199000Y-106203741D01*
X176199000Y-106026259D01*
X176233624Y-105852188D01*
X176301544Y-105688216D01*
X176400147Y-105540646D01*
X176525646Y-105415147D01*
X176673216Y-105316544D01*
X176837188Y-105248624D01*
X176986488Y-105218927D01*
X177011258Y-105214000D01*
X177188742Y-105214000D01*
X177213512Y-105218927D01*
G37*
G36*
X174673512Y-105218927D02*
G01*
X174822812Y-105248624D01*
X174986784Y-105316544D01*
X175134354Y-105415147D01*
X175259853Y-105540646D01*
X175358456Y-105688216D01*
X175426376Y-105852188D01*
X175461000Y-106026259D01*
X175461000Y-106203741D01*
X175426376Y-106377812D01*
X175358456Y-106541784D01*
X175259853Y-106689354D01*
X175134354Y-106814853D01*
X174986784Y-106913456D01*
X174822812Y-106981376D01*
X174673512Y-107011073D01*
X174648742Y-107016000D01*
X174471258Y-107016000D01*
X174446488Y-107011073D01*
X174297188Y-106981376D01*
X174133216Y-106913456D01*
X173985646Y-106814853D01*
X173860147Y-106689354D01*
X173761544Y-106541784D01*
X173693624Y-106377812D01*
X173659000Y-106203741D01*
X173659000Y-106026259D01*
X173693624Y-105852188D01*
X173761544Y-105688216D01*
X173860147Y-105540646D01*
X173985646Y-105415147D01*
X174133216Y-105316544D01*
X174297188Y-105248624D01*
X174446488Y-105218927D01*
X174471258Y-105214000D01*
X174648742Y-105214000D01*
X174673512Y-105218927D01*
G37*
G36*
X169593512Y-105218927D02*
G01*
X169742812Y-105248624D01*
X169906784Y-105316544D01*
X170054354Y-105415147D01*
X170179853Y-105540646D01*
X170278456Y-105688216D01*
X170346376Y-105852188D01*
X170381000Y-106026259D01*
X170381000Y-106203741D01*
X170346376Y-106377812D01*
X170278456Y-106541784D01*
X170179853Y-106689354D01*
X170054354Y-106814853D01*
X169906784Y-106913456D01*
X169742812Y-106981376D01*
X169593512Y-107011073D01*
X169568742Y-107016000D01*
X169391258Y-107016000D01*
X169366488Y-107011073D01*
X169217188Y-106981376D01*
X169053216Y-106913456D01*
X168905646Y-106814853D01*
X168780147Y-106689354D01*
X168681544Y-106541784D01*
X168613624Y-106377812D01*
X168579000Y-106203741D01*
X168579000Y-106026259D01*
X168613624Y-105852188D01*
X168681544Y-105688216D01*
X168780147Y-105540646D01*
X168905646Y-105415147D01*
X169053216Y-105316544D01*
X169217188Y-105248624D01*
X169366488Y-105218927D01*
X169391258Y-105214000D01*
X169568742Y-105214000D01*
X169593512Y-105218927D01*
G37*
G36*
X167053512Y-105218927D02*
G01*
X167202812Y-105248624D01*
X167366784Y-105316544D01*
X167514354Y-105415147D01*
X167639853Y-105540646D01*
X167738456Y-105688216D01*
X167806376Y-105852188D01*
X167841000Y-106026259D01*
X167841000Y-106203741D01*
X167806376Y-106377812D01*
X167738456Y-106541784D01*
X167639853Y-106689354D01*
X167514354Y-106814853D01*
X167366784Y-106913456D01*
X167202812Y-106981376D01*
X167053512Y-107011073D01*
X167028742Y-107016000D01*
X166851258Y-107016000D01*
X166826488Y-107011073D01*
X166677188Y-106981376D01*
X166513216Y-106913456D01*
X166365646Y-106814853D01*
X166240147Y-106689354D01*
X166141544Y-106541784D01*
X166073624Y-106377812D01*
X166039000Y-106203741D01*
X166039000Y-106026259D01*
X166073624Y-105852188D01*
X166141544Y-105688216D01*
X166240147Y-105540646D01*
X166365646Y-105415147D01*
X166513216Y-105316544D01*
X166677188Y-105248624D01*
X166826488Y-105218927D01*
X166851258Y-105214000D01*
X167028742Y-105214000D01*
X167053512Y-105218927D01*
G37*
G36*
X164513512Y-105218927D02*
G01*
X164662812Y-105248624D01*
X164826784Y-105316544D01*
X164974354Y-105415147D01*
X165099853Y-105540646D01*
X165198456Y-105688216D01*
X165266376Y-105852188D01*
X165301000Y-106026259D01*
X165301000Y-106203741D01*
X165266376Y-106377812D01*
X165198456Y-106541784D01*
X165099853Y-106689354D01*
X164974354Y-106814853D01*
X164826784Y-106913456D01*
X164662812Y-106981376D01*
X164513512Y-107011073D01*
X164488742Y-107016000D01*
X164311258Y-107016000D01*
X164286488Y-107011073D01*
X164137188Y-106981376D01*
X163973216Y-106913456D01*
X163825646Y-106814853D01*
X163700147Y-106689354D01*
X163601544Y-106541784D01*
X163533624Y-106377812D01*
X163499000Y-106203741D01*
X163499000Y-106026259D01*
X163533624Y-105852188D01*
X163601544Y-105688216D01*
X163700147Y-105540646D01*
X163825646Y-105415147D01*
X163973216Y-105316544D01*
X164137188Y-105248624D01*
X164286488Y-105218927D01*
X164311258Y-105214000D01*
X164488742Y-105214000D01*
X164513512Y-105218927D01*
G37*
G36*
X161973512Y-105218927D02*
G01*
X162122812Y-105248624D01*
X162286784Y-105316544D01*
X162434354Y-105415147D01*
X162559853Y-105540646D01*
X162658456Y-105688216D01*
X162726376Y-105852188D01*
X162761000Y-106026259D01*
X162761000Y-106203741D01*
X162726376Y-106377812D01*
X162658456Y-106541784D01*
X162559853Y-106689354D01*
X162434354Y-106814853D01*
X162286784Y-106913456D01*
X162122812Y-106981376D01*
X161973512Y-107011073D01*
X161948742Y-107016000D01*
X161771258Y-107016000D01*
X161746488Y-107011073D01*
X161597188Y-106981376D01*
X161433216Y-106913456D01*
X161285646Y-106814853D01*
X161160147Y-106689354D01*
X161061544Y-106541784D01*
X160993624Y-106377812D01*
X160959000Y-106203741D01*
X160959000Y-106026259D01*
X160993624Y-105852188D01*
X161061544Y-105688216D01*
X161160147Y-105540646D01*
X161285646Y-105415147D01*
X161433216Y-105316544D01*
X161597188Y-105248624D01*
X161746488Y-105218927D01*
X161771258Y-105214000D01*
X161948742Y-105214000D01*
X161973512Y-105218927D01*
G37*
G36*
X159433512Y-105218927D02*
G01*
X159582812Y-105248624D01*
X159746784Y-105316544D01*
X159894354Y-105415147D01*
X160019853Y-105540646D01*
X160118456Y-105688216D01*
X160186376Y-105852188D01*
X160221000Y-106026259D01*
X160221000Y-106203741D01*
X160186376Y-106377812D01*
X160118456Y-106541784D01*
X160019853Y-106689354D01*
X159894354Y-106814853D01*
X159746784Y-106913456D01*
X159582812Y-106981376D01*
X159433512Y-107011073D01*
X159408742Y-107016000D01*
X159231258Y-107016000D01*
X159206488Y-107011073D01*
X159057188Y-106981376D01*
X158893216Y-106913456D01*
X158745646Y-106814853D01*
X158620147Y-106689354D01*
X158521544Y-106541784D01*
X158453624Y-106377812D01*
X158419000Y-106203741D01*
X158419000Y-106026259D01*
X158453624Y-105852188D01*
X158521544Y-105688216D01*
X158620147Y-105540646D01*
X158745646Y-105415147D01*
X158893216Y-105316544D01*
X159057188Y-105248624D01*
X159206488Y-105218927D01*
X159231258Y-105214000D01*
X159408742Y-105214000D01*
X159433512Y-105218927D01*
G37*
G36*
X156893512Y-105218927D02*
G01*
X157042812Y-105248624D01*
X157206784Y-105316544D01*
X157354354Y-105415147D01*
X157479853Y-105540646D01*
X157578456Y-105688216D01*
X157646376Y-105852188D01*
X157681000Y-106026259D01*
X157681000Y-106203741D01*
X157646376Y-106377812D01*
X157578456Y-106541784D01*
X157479853Y-106689354D01*
X157354354Y-106814853D01*
X157206784Y-106913456D01*
X157042812Y-106981376D01*
X156893512Y-107011073D01*
X156868742Y-107016000D01*
X156691258Y-107016000D01*
X156666488Y-107011073D01*
X156517188Y-106981376D01*
X156353216Y-106913456D01*
X156205646Y-106814853D01*
X156080147Y-106689354D01*
X155981544Y-106541784D01*
X155913624Y-106377812D01*
X155879000Y-106203741D01*
X155879000Y-106026259D01*
X155913624Y-105852188D01*
X155981544Y-105688216D01*
X156080147Y-105540646D01*
X156205646Y-105415147D01*
X156353216Y-105316544D01*
X156517188Y-105248624D01*
X156666488Y-105218927D01*
X156691258Y-105214000D01*
X156868742Y-105214000D01*
X156893512Y-105218927D01*
G37*
G36*
X183226000Y-103421000D02*
G01*
X180724000Y-103421000D01*
X180724000Y-100919000D01*
X183226000Y-100919000D01*
X183226000Y-103421000D01*
G37*
G36*
X171687724Y-100486497D02*
G01*
X171914906Y-100531686D01*
X172164412Y-100635035D01*
X172388962Y-100785075D01*
X172579925Y-100976038D01*
X172729965Y-101200588D01*
X172833314Y-101450094D01*
X172886000Y-101714968D01*
X172886000Y-101985032D01*
X172833314Y-102249906D01*
X172729965Y-102499412D01*
X172579925Y-102723962D01*
X172388962Y-102914925D01*
X172164412Y-103064965D01*
X171914906Y-103168314D01*
X171687724Y-103213503D01*
X171650033Y-103221000D01*
X171379967Y-103221000D01*
X171342276Y-103213503D01*
X171115094Y-103168314D01*
X170865588Y-103064965D01*
X170641038Y-102914925D01*
X170450075Y-102723962D01*
X170300035Y-102499412D01*
X170196686Y-102249906D01*
X170144000Y-101985032D01*
X170144000Y-101714968D01*
X170196686Y-101450094D01*
X170300035Y-101200588D01*
X170450075Y-100976038D01*
X170641038Y-100785075D01*
X170865588Y-100635035D01*
X171115094Y-100531686D01*
X171342276Y-100486497D01*
X171379967Y-100479000D01*
X171650033Y-100479000D01*
X171687724Y-100486497D01*
G37*
G36*
X182339903Y-97467075D02*
G01*
X182567571Y-97561378D01*
X182772466Y-97698285D01*
X182946715Y-97872534D01*
X183083622Y-98077429D01*
X183177925Y-98305097D01*
X183226000Y-98546787D01*
X183226000Y-98793213D01*
X183177925Y-99034903D01*
X183083622Y-99262571D01*
X182946715Y-99467466D01*
X182772466Y-99641715D01*
X182567571Y-99778622D01*
X182567570Y-99778623D01*
X182567569Y-99778623D01*
X182339903Y-99872925D01*
X182098214Y-99921000D01*
X181851786Y-99921000D01*
X181610097Y-99872925D01*
X181382431Y-99778623D01*
X181382430Y-99778623D01*
X181382429Y-99778622D01*
X181177534Y-99641715D01*
X181003285Y-99467466D01*
X180866378Y-99262571D01*
X180772075Y-99034903D01*
X180724000Y-98793213D01*
X180724000Y-98546787D01*
X180772075Y-98305097D01*
X180866378Y-98077429D01*
X181003285Y-97872534D01*
X181177534Y-97698285D01*
X181382429Y-97561378D01*
X181610097Y-97467075D01*
X181851786Y-97419000D01*
X182098214Y-97419000D01*
X182339903Y-97467075D01*
G37*
G36*
X115683512Y-97633927D02*
G01*
X115832812Y-97663624D01*
X115996784Y-97731544D01*
X116144354Y-97830147D01*
X116269853Y-97955646D01*
X116368456Y-98103216D01*
X116436376Y-98267188D01*
X116471000Y-98441259D01*
X116471000Y-98618741D01*
X116436376Y-98792812D01*
X116368456Y-98956784D01*
X116269853Y-99104354D01*
X116144354Y-99229853D01*
X115996784Y-99328456D01*
X115832812Y-99396376D01*
X115683512Y-99426073D01*
X115658742Y-99431000D01*
X115481258Y-99431000D01*
X115456488Y-99426073D01*
X115307188Y-99396376D01*
X115143216Y-99328456D01*
X114995646Y-99229853D01*
X114870147Y-99104354D01*
X114771544Y-98956784D01*
X114703624Y-98792812D01*
X114669000Y-98618741D01*
X114669000Y-98441259D01*
X114703624Y-98267188D01*
X114771544Y-98103216D01*
X114870147Y-97955646D01*
X114995646Y-97830147D01*
X115143216Y-97731544D01*
X115307188Y-97663624D01*
X115456488Y-97633927D01*
X115481258Y-97629000D01*
X115658742Y-97629000D01*
X115683512Y-97633927D01*
G37*
G36*
X174581564Y-94844389D02*
G01*
X174772833Y-94923615D01*
X174772835Y-94923616D01*
X174944973Y-95038635D01*
X175091365Y-95185027D01*
X175163653Y-95293213D01*
X175206385Y-95357167D01*
X175285611Y-95548436D01*
X175326000Y-95751484D01*
X175326000Y-95958516D01*
X175285611Y-96161564D01*
X175206385Y-96352833D01*
X175206384Y-96352835D01*
X175091365Y-96524973D01*
X174944973Y-96671365D01*
X174772835Y-96786384D01*
X174772834Y-96786385D01*
X174772833Y-96786385D01*
X174581564Y-96865611D01*
X174378516Y-96906000D01*
X174171484Y-96906000D01*
X173968436Y-96865611D01*
X173777167Y-96786385D01*
X173777166Y-96786385D01*
X173777165Y-96786384D01*
X173605027Y-96671365D01*
X173458635Y-96524973D01*
X173343616Y-96352835D01*
X173343615Y-96352833D01*
X173264389Y-96161564D01*
X173224000Y-95958516D01*
X173224000Y-95751484D01*
X173264389Y-95548436D01*
X173343615Y-95357167D01*
X173386348Y-95293213D01*
X173458635Y-95185027D01*
X173605027Y-95038635D01*
X173777165Y-94923616D01*
X173777167Y-94923615D01*
X173968436Y-94844389D01*
X174171484Y-94804000D01*
X174378516Y-94804000D01*
X174581564Y-94844389D01*
G37*
G36*
X122591564Y-94844389D02*
G01*
X122782833Y-94923615D01*
X122782835Y-94923616D01*
X122954973Y-95038635D01*
X123101365Y-95185027D01*
X123173653Y-95293213D01*
X123216385Y-95357167D01*
X123295611Y-95548436D01*
X123336000Y-95751484D01*
X123336000Y-95958516D01*
X123295611Y-96161564D01*
X123216385Y-96352833D01*
X123216384Y-96352835D01*
X123101365Y-96524973D01*
X122954973Y-96671365D01*
X122782835Y-96786384D01*
X122782834Y-96786385D01*
X122782833Y-96786385D01*
X122591564Y-96865611D01*
X122388516Y-96906000D01*
X122181484Y-96906000D01*
X121978436Y-96865611D01*
X121787167Y-96786385D01*
X121787166Y-96786385D01*
X121787165Y-96786384D01*
X121615027Y-96671365D01*
X121468635Y-96524973D01*
X121353616Y-96352835D01*
X121353615Y-96352833D01*
X121274389Y-96161564D01*
X121234000Y-95958516D01*
X121234000Y-95751484D01*
X121274389Y-95548436D01*
X121353615Y-95357167D01*
X121396348Y-95293213D01*
X121468635Y-95185027D01*
X121615027Y-95038635D01*
X121787165Y-94923616D01*
X121787167Y-94923615D01*
X121978436Y-94844389D01*
X122181484Y-94804000D01*
X122388516Y-94804000D01*
X122591564Y-94844389D01*
G37*
G36*
X182339903Y-93967075D02*
G01*
X182567571Y-94061378D01*
X182772466Y-94198285D01*
X182946715Y-94372534D01*
X182946716Y-94372536D01*
X183083623Y-94577431D01*
X183177925Y-94805097D01*
X183226000Y-95046786D01*
X183226000Y-95293214D01*
X183177925Y-95534903D01*
X183088215Y-95751484D01*
X183083622Y-95762571D01*
X182946715Y-95967466D01*
X182772466Y-96141715D01*
X182567571Y-96278622D01*
X182567570Y-96278623D01*
X182567569Y-96278623D01*
X182339903Y-96372925D01*
X182098214Y-96421000D01*
X181851786Y-96421000D01*
X181610097Y-96372925D01*
X181382431Y-96278623D01*
X181382430Y-96278623D01*
X181382429Y-96278622D01*
X181177534Y-96141715D01*
X181003285Y-95967466D01*
X180866378Y-95762571D01*
X180861786Y-95751484D01*
X180772075Y-95534903D01*
X180724000Y-95293214D01*
X180724000Y-95046786D01*
X180772075Y-94805097D01*
X180866377Y-94577431D01*
X181003284Y-94372536D01*
X181003285Y-94372534D01*
X181177534Y-94198285D01*
X181382429Y-94061378D01*
X181610097Y-93967075D01*
X181851786Y-93919000D01*
X182098214Y-93919000D01*
X182339903Y-93967075D01*
G37*
G36*
X174867585Y-89748802D02*
G01*
X175017410Y-89778604D01*
X175299674Y-89895521D01*
X175553705Y-90065259D01*
X175769741Y-90281295D01*
X175939479Y-90535326D01*
X176056396Y-90817590D01*
X176116000Y-91117240D01*
X176116000Y-91422760D01*
X176056396Y-91722410D01*
X175939479Y-92004674D01*
X175769741Y-92258705D01*
X175553705Y-92474741D01*
X175299674Y-92644479D01*
X175017410Y-92761396D01*
X174867585Y-92791198D01*
X174717761Y-92821000D01*
X174412239Y-92821000D01*
X174262415Y-92791198D01*
X174112590Y-92761396D01*
X173830326Y-92644479D01*
X173576295Y-92474741D01*
X173360259Y-92258705D01*
X173190521Y-92004674D01*
X173073604Y-91722410D01*
X173014000Y-91422760D01*
X173014000Y-91117240D01*
X173073604Y-90817590D01*
X173190521Y-90535326D01*
X173360259Y-90281295D01*
X173576295Y-90065259D01*
X173830326Y-89895521D01*
X174112590Y-89778604D01*
X174262415Y-89748802D01*
X174412239Y-89719000D01*
X174717761Y-89719000D01*
X174867585Y-89748802D01*
G37*
G36*
X125207724Y-88496497D02*
G01*
X125434906Y-88541686D01*
X125684412Y-88645035D01*
X125908962Y-88795075D01*
X126099925Y-88986038D01*
X126249965Y-89210588D01*
X126353314Y-89460094D01*
X126406000Y-89724968D01*
X126406000Y-89995032D01*
X126353314Y-90259906D01*
X126249965Y-90509412D01*
X126099925Y-90733962D01*
X125908962Y-90924925D01*
X125684412Y-91074965D01*
X125434906Y-91178314D01*
X125207724Y-91223503D01*
X125170033Y-91231000D01*
X124899967Y-91231000D01*
X124862276Y-91223503D01*
X124635094Y-91178314D01*
X124385588Y-91074965D01*
X124161038Y-90924925D01*
X123970075Y-90733962D01*
X123820035Y-90509412D01*
X123716686Y-90259906D01*
X123664000Y-89995032D01*
X123664000Y-89724968D01*
X123716686Y-89460094D01*
X123820035Y-89210588D01*
X123970075Y-88986038D01*
X124161038Y-88795075D01*
X124385588Y-88645035D01*
X124635094Y-88541686D01*
X124862276Y-88496497D01*
X124899967Y-88489000D01*
X125170033Y-88489000D01*
X125207724Y-88496497D01*
G37*
G36*
X171777724Y-82316497D02*
G01*
X172004906Y-82361686D01*
X172254412Y-82465035D01*
X172478962Y-82615075D01*
X172669925Y-82806038D01*
X172819965Y-83030588D01*
X172923314Y-83280094D01*
X172976000Y-83544968D01*
X172976000Y-83815032D01*
X172923314Y-84079906D01*
X172819965Y-84329412D01*
X172669925Y-84553962D01*
X172478962Y-84744925D01*
X172254412Y-84894965D01*
X172004906Y-84998314D01*
X171777724Y-85043503D01*
X171740033Y-85051000D01*
X171469967Y-85051000D01*
X171432276Y-85043503D01*
X171205094Y-84998314D01*
X170955588Y-84894965D01*
X170731038Y-84744925D01*
X170540075Y-84553962D01*
X170390035Y-84329412D01*
X170286686Y-84079906D01*
X170234000Y-83815032D01*
X170234000Y-83544968D01*
X170286686Y-83280094D01*
X170390035Y-83030588D01*
X170540075Y-82806038D01*
X170731038Y-82615075D01*
X170955588Y-82465035D01*
X171205094Y-82361686D01*
X171432276Y-82316497D01*
X171469967Y-82309000D01*
X171740033Y-82309000D01*
X171777724Y-82316497D01*
G37*
G36*
X124867585Y-80748802D02*
G01*
X125017410Y-80778604D01*
X125299674Y-80895521D01*
X125553705Y-81065259D01*
X125769741Y-81281295D01*
X125939479Y-81535326D01*
X126056396Y-81817590D01*
X126116000Y-82117240D01*
X126116000Y-82422760D01*
X126056396Y-82722410D01*
X125939479Y-83004674D01*
X125769741Y-83258705D01*
X125553705Y-83474741D01*
X125299674Y-83644479D01*
X125017410Y-83761396D01*
X124867585Y-83791198D01*
X124717761Y-83821000D01*
X124412239Y-83821000D01*
X124262415Y-83791198D01*
X124112590Y-83761396D01*
X123830326Y-83644479D01*
X123576295Y-83474741D01*
X123360259Y-83258705D01*
X123190521Y-83004674D01*
X123073604Y-82722410D01*
X123014000Y-82422760D01*
X123014000Y-82117240D01*
X123073604Y-81817590D01*
X123190521Y-81535326D01*
X123360259Y-81281295D01*
X123576295Y-81065259D01*
X123830326Y-80895521D01*
X124112590Y-80778604D01*
X124262415Y-80748802D01*
X124412239Y-80719000D01*
X124717761Y-80719000D01*
X124867585Y-80748802D01*
G37*
G36*
X183226000Y-79356000D02*
G01*
X180724000Y-79356000D01*
X180724000Y-76854000D01*
X183226000Y-76854000D01*
X183226000Y-79356000D01*
G37*
G36*
X122671564Y-76674389D02*
G01*
X122862833Y-76753615D01*
X122862835Y-76753616D01*
X123013070Y-76854000D01*
X123034973Y-76868635D01*
X123181365Y-77015027D01*
X123296385Y-77187167D01*
X123375611Y-77378436D01*
X123416000Y-77581484D01*
X123416000Y-77788516D01*
X123375611Y-77991564D01*
X123296385Y-78182833D01*
X123296384Y-78182835D01*
X123181365Y-78354973D01*
X123034973Y-78501365D01*
X122862835Y-78616384D01*
X122862834Y-78616385D01*
X122862833Y-78616385D01*
X122671564Y-78695611D01*
X122468516Y-78736000D01*
X122261484Y-78736000D01*
X122058436Y-78695611D01*
X121867167Y-78616385D01*
X121867166Y-78616385D01*
X121867165Y-78616384D01*
X121695027Y-78501365D01*
X121548635Y-78354973D01*
X121433616Y-78182835D01*
X121433615Y-78182833D01*
X121354389Y-77991564D01*
X121314000Y-77788516D01*
X121314000Y-77581484D01*
X121354389Y-77378436D01*
X121433615Y-77187167D01*
X121548635Y-77015027D01*
X121695027Y-76868635D01*
X121716930Y-76854000D01*
X121867165Y-76753616D01*
X121867167Y-76753615D01*
X122058436Y-76674389D01*
X122261484Y-76634000D01*
X122468516Y-76634000D01*
X122671564Y-76674389D01*
G37*
G36*
X174661564Y-76674389D02*
G01*
X174852833Y-76753615D01*
X174852835Y-76753616D01*
X175003070Y-76854000D01*
X175024973Y-76868635D01*
X175171365Y-77015027D01*
X175286385Y-77187167D01*
X175365611Y-77378436D01*
X175406000Y-77581484D01*
X175406000Y-77788516D01*
X175365611Y-77991564D01*
X175286385Y-78182833D01*
X175286384Y-78182835D01*
X175171365Y-78354973D01*
X175024973Y-78501365D01*
X174852835Y-78616384D01*
X174852834Y-78616385D01*
X174852833Y-78616385D01*
X174661564Y-78695611D01*
X174458516Y-78736000D01*
X174251484Y-78736000D01*
X174048436Y-78695611D01*
X173857167Y-78616385D01*
X173857166Y-78616385D01*
X173857165Y-78616384D01*
X173685027Y-78501365D01*
X173538635Y-78354973D01*
X173423616Y-78182835D01*
X173423615Y-78182833D01*
X173344389Y-77991564D01*
X173304000Y-77788516D01*
X173304000Y-77581484D01*
X173344389Y-77378436D01*
X173423615Y-77187167D01*
X173538635Y-77015027D01*
X173685027Y-76868635D01*
X173706930Y-76854000D01*
X173857165Y-76753616D01*
X173857167Y-76753615D01*
X174048436Y-76674389D01*
X174251484Y-76634000D01*
X174458516Y-76634000D01*
X174661564Y-76674389D01*
G37*
G36*
X182339903Y-73402075D02*
G01*
X182567571Y-73496378D01*
X182772466Y-73633285D01*
X182946715Y-73807534D01*
X183083622Y-74012429D01*
X183177925Y-74240097D01*
X183226000Y-74481787D01*
X183226000Y-74728213D01*
X183177925Y-74969903D01*
X183083622Y-75197571D01*
X182946715Y-75402466D01*
X182772466Y-75576715D01*
X182567571Y-75713622D01*
X182567570Y-75713623D01*
X182567569Y-75713623D01*
X182339903Y-75807925D01*
X182098214Y-75856000D01*
X181851786Y-75856000D01*
X181610097Y-75807925D01*
X181382431Y-75713623D01*
X181382430Y-75713623D01*
X181382429Y-75713622D01*
X181177534Y-75576715D01*
X181003285Y-75402466D01*
X180866378Y-75197571D01*
X180772075Y-74969903D01*
X180724000Y-74728213D01*
X180724000Y-74481787D01*
X180772075Y-74240097D01*
X180866378Y-74012429D01*
X181003285Y-73807534D01*
X181177534Y-73633285D01*
X181382429Y-73496378D01*
X181610097Y-73402075D01*
X181851786Y-73354000D01*
X182098214Y-73354000D01*
X182339903Y-73402075D01*
G37*
G36*
X125297724Y-70326497D02*
G01*
X125524906Y-70371686D01*
X125774412Y-70475035D01*
X125998962Y-70625075D01*
X126189925Y-70816038D01*
X126339965Y-71040588D01*
X126443314Y-71290094D01*
X126496000Y-71554968D01*
X126496000Y-71825032D01*
X126443314Y-72089906D01*
X126339965Y-72339412D01*
X126189925Y-72563962D01*
X125998962Y-72754925D01*
X125774412Y-72904965D01*
X125524906Y-73008314D01*
X125297724Y-73053503D01*
X125260033Y-73061000D01*
X124989967Y-73061000D01*
X124952276Y-73053503D01*
X124725094Y-73008314D01*
X124475588Y-72904965D01*
X124251038Y-72754925D01*
X124060075Y-72563962D01*
X123910035Y-72339412D01*
X123806686Y-72089906D01*
X123754000Y-71825032D01*
X123754000Y-71554968D01*
X123806686Y-71290094D01*
X123910035Y-71040588D01*
X124060075Y-70816038D01*
X124251038Y-70625075D01*
X124475588Y-70475035D01*
X124725094Y-70371686D01*
X124952276Y-70326497D01*
X124989967Y-70319000D01*
X125260033Y-70319000D01*
X125297724Y-70326497D01*
G37*
G36*
X182339903Y-69902075D02*
G01*
X182567571Y-69996378D01*
X182772466Y-70133285D01*
X182946715Y-70307534D01*
X183058636Y-70475035D01*
X183083623Y-70512431D01*
X183177925Y-70740097D01*
X183226000Y-70981787D01*
X183226000Y-71228213D01*
X183177925Y-71469903D01*
X183083622Y-71697571D01*
X182946715Y-71902466D01*
X182772466Y-72076715D01*
X182567571Y-72213622D01*
X182567570Y-72213623D01*
X182567569Y-72213623D01*
X182339903Y-72307925D01*
X182098214Y-72356000D01*
X181851786Y-72356000D01*
X181610097Y-72307925D01*
X181382431Y-72213623D01*
X181382430Y-72213623D01*
X181382429Y-72213622D01*
X181177534Y-72076715D01*
X181003285Y-71902466D01*
X180866378Y-71697571D01*
X180772075Y-71469903D01*
X180724000Y-71228213D01*
X180724000Y-70981787D01*
X180772075Y-70740097D01*
X180866377Y-70512431D01*
X180891364Y-70475035D01*
X181003285Y-70307534D01*
X181177534Y-70133285D01*
X181382429Y-69996378D01*
X181610097Y-69902075D01*
X181851786Y-69854000D01*
X182098214Y-69854000D01*
X182339903Y-69902075D01*
G37*
G36*
X161973512Y-66378927D02*
G01*
X162122812Y-66408624D01*
X162286784Y-66476544D01*
X162434354Y-66575147D01*
X162559853Y-66700646D01*
X162658456Y-66848216D01*
X162726376Y-67012188D01*
X162761000Y-67186259D01*
X162761000Y-67363741D01*
X162726376Y-67537812D01*
X162658456Y-67701784D01*
X162559853Y-67849354D01*
X162434354Y-67974853D01*
X162286784Y-68073456D01*
X162122812Y-68141376D01*
X161973512Y-68171073D01*
X161948742Y-68176000D01*
X161771258Y-68176000D01*
X161746488Y-68171073D01*
X161597188Y-68141376D01*
X161433216Y-68073456D01*
X161285646Y-67974853D01*
X161160147Y-67849354D01*
X161061544Y-67701784D01*
X160993624Y-67537812D01*
X160959000Y-67363741D01*
X160959000Y-67186259D01*
X160993624Y-67012188D01*
X161061544Y-66848216D01*
X161160147Y-66700646D01*
X161285646Y-66575147D01*
X161433216Y-66476544D01*
X161597188Y-66408624D01*
X161746488Y-66378927D01*
X161771258Y-66374000D01*
X161948742Y-66374000D01*
X161973512Y-66378927D01*
G37*
G36*
X172133512Y-66378927D02*
G01*
X172282812Y-66408624D01*
X172446784Y-66476544D01*
X172594354Y-66575147D01*
X172719853Y-66700646D01*
X172818456Y-66848216D01*
X172886376Y-67012188D01*
X172921000Y-67186259D01*
X172921000Y-67363741D01*
X172886376Y-67537812D01*
X172818456Y-67701784D01*
X172719853Y-67849354D01*
X172594354Y-67974853D01*
X172446784Y-68073456D01*
X172282812Y-68141376D01*
X172133512Y-68171073D01*
X172108742Y-68176000D01*
X171931258Y-68176000D01*
X171906488Y-68171073D01*
X171757188Y-68141376D01*
X171593216Y-68073456D01*
X171445646Y-67974853D01*
X171320147Y-67849354D01*
X171221544Y-67701784D01*
X171153624Y-67537812D01*
X171119000Y-67363741D01*
X171119000Y-67186259D01*
X171153624Y-67012188D01*
X171221544Y-66848216D01*
X171320147Y-66700646D01*
X171445646Y-66575147D01*
X171593216Y-66476544D01*
X171757188Y-66408624D01*
X171906488Y-66378927D01*
X171931258Y-66374000D01*
X172108742Y-66374000D01*
X172133512Y-66378927D01*
G37*
G36*
X169593512Y-66378927D02*
G01*
X169742812Y-66408624D01*
X169906784Y-66476544D01*
X170054354Y-66575147D01*
X170179853Y-66700646D01*
X170278456Y-66848216D01*
X170346376Y-67012188D01*
X170381000Y-67186259D01*
X170381000Y-67363741D01*
X170346376Y-67537812D01*
X170278456Y-67701784D01*
X170179853Y-67849354D01*
X170054354Y-67974853D01*
X169906784Y-68073456D01*
X169742812Y-68141376D01*
X169593512Y-68171073D01*
X169568742Y-68176000D01*
X169391258Y-68176000D01*
X169366488Y-68171073D01*
X169217188Y-68141376D01*
X169053216Y-68073456D01*
X168905646Y-67974853D01*
X168780147Y-67849354D01*
X168681544Y-67701784D01*
X168613624Y-67537812D01*
X168579000Y-67363741D01*
X168579000Y-67186259D01*
X168613624Y-67012188D01*
X168681544Y-66848216D01*
X168780147Y-66700646D01*
X168905646Y-66575147D01*
X169053216Y-66476544D01*
X169217188Y-66408624D01*
X169366488Y-66378927D01*
X169391258Y-66374000D01*
X169568742Y-66374000D01*
X169593512Y-66378927D01*
G37*
G36*
X167053512Y-66378927D02*
G01*
X167202812Y-66408624D01*
X167366784Y-66476544D01*
X167514354Y-66575147D01*
X167639853Y-66700646D01*
X167738456Y-66848216D01*
X167806376Y-67012188D01*
X167841000Y-67186259D01*
X167841000Y-67363741D01*
X167806376Y-67537812D01*
X167738456Y-67701784D01*
X167639853Y-67849354D01*
X167514354Y-67974853D01*
X167366784Y-68073456D01*
X167202812Y-68141376D01*
X167053512Y-68171073D01*
X167028742Y-68176000D01*
X166851258Y-68176000D01*
X166826488Y-68171073D01*
X166677188Y-68141376D01*
X166513216Y-68073456D01*
X166365646Y-67974853D01*
X166240147Y-67849354D01*
X166141544Y-67701784D01*
X166073624Y-67537812D01*
X166039000Y-67363741D01*
X166039000Y-67186259D01*
X166073624Y-67012188D01*
X166141544Y-66848216D01*
X166240147Y-66700646D01*
X166365646Y-66575147D01*
X166513216Y-66476544D01*
X166677188Y-66408624D01*
X166826488Y-66378927D01*
X166851258Y-66374000D01*
X167028742Y-66374000D01*
X167053512Y-66378927D01*
G37*
G36*
X174673512Y-66378927D02*
G01*
X174822812Y-66408624D01*
X174986784Y-66476544D01*
X175134354Y-66575147D01*
X175259853Y-66700646D01*
X175358456Y-66848216D01*
X175426376Y-67012188D01*
X175461000Y-67186259D01*
X175461000Y-67363741D01*
X175426376Y-67537812D01*
X175358456Y-67701784D01*
X175259853Y-67849354D01*
X175134354Y-67974853D01*
X174986784Y-68073456D01*
X174822812Y-68141376D01*
X174673512Y-68171073D01*
X174648742Y-68176000D01*
X174471258Y-68176000D01*
X174446488Y-68171073D01*
X174297188Y-68141376D01*
X174133216Y-68073456D01*
X173985646Y-67974853D01*
X173860147Y-67849354D01*
X173761544Y-67701784D01*
X173693624Y-67537812D01*
X173659000Y-67363741D01*
X173659000Y-67186259D01*
X173693624Y-67012188D01*
X173761544Y-66848216D01*
X173860147Y-66700646D01*
X173985646Y-66575147D01*
X174133216Y-66476544D01*
X174297188Y-66408624D01*
X174446488Y-66378927D01*
X174471258Y-66374000D01*
X174648742Y-66374000D01*
X174673512Y-66378927D01*
G37*
G36*
X159433512Y-66378927D02*
G01*
X159582812Y-66408624D01*
X159746784Y-66476544D01*
X159894354Y-66575147D01*
X160019853Y-66700646D01*
X160118456Y-66848216D01*
X160186376Y-67012188D01*
X160221000Y-67186259D01*
X160221000Y-67363741D01*
X160186376Y-67537812D01*
X160118456Y-67701784D01*
X160019853Y-67849354D01*
X159894354Y-67974853D01*
X159746784Y-68073456D01*
X159582812Y-68141376D01*
X159433512Y-68171073D01*
X159408742Y-68176000D01*
X159231258Y-68176000D01*
X159206488Y-68171073D01*
X159057188Y-68141376D01*
X158893216Y-68073456D01*
X158745646Y-67974853D01*
X158620147Y-67849354D01*
X158521544Y-67701784D01*
X158453624Y-67537812D01*
X158419000Y-67363741D01*
X158419000Y-67186259D01*
X158453624Y-67012188D01*
X158521544Y-66848216D01*
X158620147Y-66700646D01*
X158745646Y-66575147D01*
X158893216Y-66476544D01*
X159057188Y-66408624D01*
X159206488Y-66378927D01*
X159231258Y-66374000D01*
X159408742Y-66374000D01*
X159433512Y-66378927D01*
G37*
G36*
X154353512Y-66378927D02*
G01*
X154502812Y-66408624D01*
X154666784Y-66476544D01*
X154814354Y-66575147D01*
X154939853Y-66700646D01*
X155038456Y-66848216D01*
X155106376Y-67012188D01*
X155141000Y-67186259D01*
X155141000Y-67363741D01*
X155106376Y-67537812D01*
X155038456Y-67701784D01*
X154939853Y-67849354D01*
X154814354Y-67974853D01*
X154666784Y-68073456D01*
X154502812Y-68141376D01*
X154353512Y-68171073D01*
X154328742Y-68176000D01*
X154151258Y-68176000D01*
X154126488Y-68171073D01*
X153977188Y-68141376D01*
X153813216Y-68073456D01*
X153665646Y-67974853D01*
X153540147Y-67849354D01*
X153441544Y-67701784D01*
X153373624Y-67537812D01*
X153339000Y-67363741D01*
X153339000Y-67186259D01*
X153373624Y-67012188D01*
X153441544Y-66848216D01*
X153540147Y-66700646D01*
X153665646Y-66575147D01*
X153813216Y-66476544D01*
X153977188Y-66408624D01*
X154126488Y-66378927D01*
X154151258Y-66374000D01*
X154328742Y-66374000D01*
X154353512Y-66378927D01*
G37*
G36*
X151813512Y-66378927D02*
G01*
X151962812Y-66408624D01*
X152126784Y-66476544D01*
X152274354Y-66575147D01*
X152399853Y-66700646D01*
X152498456Y-66848216D01*
X152566376Y-67012188D01*
X152601000Y-67186259D01*
X152601000Y-67363741D01*
X152566376Y-67537812D01*
X152498456Y-67701784D01*
X152399853Y-67849354D01*
X152274354Y-67974853D01*
X152126784Y-68073456D01*
X151962812Y-68141376D01*
X151813512Y-68171073D01*
X151788742Y-68176000D01*
X151611258Y-68176000D01*
X151586488Y-68171073D01*
X151437188Y-68141376D01*
X151273216Y-68073456D01*
X151125646Y-67974853D01*
X151000147Y-67849354D01*
X150901544Y-67701784D01*
X150833624Y-67537812D01*
X150799000Y-67363741D01*
X150799000Y-67186259D01*
X150833624Y-67012188D01*
X150901544Y-66848216D01*
X151000147Y-66700646D01*
X151125646Y-66575147D01*
X151273216Y-66476544D01*
X151437188Y-66408624D01*
X151586488Y-66378927D01*
X151611258Y-66374000D01*
X151788742Y-66374000D01*
X151813512Y-66378927D01*
G37*
G36*
X149273512Y-66378927D02*
G01*
X149422812Y-66408624D01*
X149586784Y-66476544D01*
X149734354Y-66575147D01*
X149859853Y-66700646D01*
X149958456Y-66848216D01*
X150026376Y-67012188D01*
X150061000Y-67186259D01*
X150061000Y-67363741D01*
X150026376Y-67537812D01*
X149958456Y-67701784D01*
X149859853Y-67849354D01*
X149734354Y-67974853D01*
X149586784Y-68073456D01*
X149422812Y-68141376D01*
X149273512Y-68171073D01*
X149248742Y-68176000D01*
X149071258Y-68176000D01*
X149046488Y-68171073D01*
X148897188Y-68141376D01*
X148733216Y-68073456D01*
X148585646Y-67974853D01*
X148460147Y-67849354D01*
X148361544Y-67701784D01*
X148293624Y-67537812D01*
X148259000Y-67363741D01*
X148259000Y-67186259D01*
X148293624Y-67012188D01*
X148361544Y-66848216D01*
X148460147Y-66700646D01*
X148585646Y-66575147D01*
X148733216Y-66476544D01*
X148897188Y-66408624D01*
X149046488Y-66378927D01*
X149071258Y-66374000D01*
X149248742Y-66374000D01*
X149273512Y-66378927D01*
G37*
G36*
X156893512Y-66378927D02*
G01*
X157042812Y-66408624D01*
X157206784Y-66476544D01*
X157354354Y-66575147D01*
X157479853Y-66700646D01*
X157578456Y-66848216D01*
X157646376Y-67012188D01*
X157681000Y-67186259D01*
X157681000Y-67363741D01*
X157646376Y-67537812D01*
X157578456Y-67701784D01*
X157479853Y-67849354D01*
X157354354Y-67974853D01*
X157206784Y-68073456D01*
X157042812Y-68141376D01*
X156893512Y-68171073D01*
X156868742Y-68176000D01*
X156691258Y-68176000D01*
X156666488Y-68171073D01*
X156517188Y-68141376D01*
X156353216Y-68073456D01*
X156205646Y-67974853D01*
X156080147Y-67849354D01*
X155981544Y-67701784D01*
X155913624Y-67537812D01*
X155879000Y-67363741D01*
X155879000Y-67186259D01*
X155913624Y-67012188D01*
X155981544Y-66848216D01*
X156080147Y-66700646D01*
X156205646Y-66575147D01*
X156353216Y-66476544D01*
X156517188Y-66408624D01*
X156666488Y-66378927D01*
X156691258Y-66374000D01*
X156868742Y-66374000D01*
X156893512Y-66378927D01*
G37*
G36*
X164513512Y-66378927D02*
G01*
X164662812Y-66408624D01*
X164826784Y-66476544D01*
X164974354Y-66575147D01*
X165099853Y-66700646D01*
X165198456Y-66848216D01*
X165266376Y-67012188D01*
X165301000Y-67186259D01*
X165301000Y-67363741D01*
X165266376Y-67537812D01*
X165198456Y-67701784D01*
X165099853Y-67849354D01*
X164974354Y-67974853D01*
X164826784Y-68073456D01*
X164662812Y-68141376D01*
X164513512Y-68171073D01*
X164488742Y-68176000D01*
X164311258Y-68176000D01*
X164286488Y-68171073D01*
X164137188Y-68141376D01*
X163973216Y-68073456D01*
X163825646Y-67974853D01*
X163700147Y-67849354D01*
X163601544Y-67701784D01*
X163533624Y-67537812D01*
X163499000Y-67363741D01*
X163499000Y-67186259D01*
X163533624Y-67012188D01*
X163601544Y-66848216D01*
X163700147Y-66700646D01*
X163825646Y-66575147D01*
X163973216Y-66476544D01*
X164137188Y-66408624D01*
X164286488Y-66378927D01*
X164311258Y-66374000D01*
X164488742Y-66374000D01*
X164513512Y-66378927D01*
G37*
G36*
X151813512Y-63838927D02*
G01*
X151962812Y-63868624D01*
X152126784Y-63936544D01*
X152274354Y-64035147D01*
X152399853Y-64160646D01*
X152498456Y-64308216D01*
X152566376Y-64472188D01*
X152601000Y-64646259D01*
X152601000Y-64823741D01*
X152566376Y-64997812D01*
X152498456Y-65161784D01*
X152399853Y-65309354D01*
X152274354Y-65434853D01*
X152126784Y-65533456D01*
X151962812Y-65601376D01*
X151813512Y-65631073D01*
X151788742Y-65636000D01*
X151611258Y-65636000D01*
X151586488Y-65631073D01*
X151437188Y-65601376D01*
X151273216Y-65533456D01*
X151125646Y-65434853D01*
X151000147Y-65309354D01*
X150901544Y-65161784D01*
X150833624Y-64997812D01*
X150799000Y-64823741D01*
X150799000Y-64646259D01*
X150833624Y-64472188D01*
X150901544Y-64308216D01*
X151000147Y-64160646D01*
X151125646Y-64035147D01*
X151273216Y-63936544D01*
X151437188Y-63868624D01*
X151586488Y-63838927D01*
X151611258Y-63834000D01*
X151788742Y-63834000D01*
X151813512Y-63838927D01*
G37*
G36*
X174673512Y-63838927D02*
G01*
X174822812Y-63868624D01*
X174986784Y-63936544D01*
X175134354Y-64035147D01*
X175259853Y-64160646D01*
X175358456Y-64308216D01*
X175426376Y-64472188D01*
X175461000Y-64646259D01*
X175461000Y-64823741D01*
X175426376Y-64997812D01*
X175358456Y-65161784D01*
X175259853Y-65309354D01*
X175134354Y-65434853D01*
X174986784Y-65533456D01*
X174822812Y-65601376D01*
X174673512Y-65631073D01*
X174648742Y-65636000D01*
X174471258Y-65636000D01*
X174446488Y-65631073D01*
X174297188Y-65601376D01*
X174133216Y-65533456D01*
X173985646Y-65434853D01*
X173860147Y-65309354D01*
X173761544Y-65161784D01*
X173693624Y-64997812D01*
X173659000Y-64823741D01*
X173659000Y-64646259D01*
X173693624Y-64472188D01*
X173761544Y-64308216D01*
X173860147Y-64160646D01*
X173985646Y-64035147D01*
X174133216Y-63936544D01*
X174297188Y-63868624D01*
X174446488Y-63838927D01*
X174471258Y-63834000D01*
X174648742Y-63834000D01*
X174673512Y-63838927D01*
G37*
G36*
X149273512Y-63838927D02*
G01*
X149422812Y-63868624D01*
X149586784Y-63936544D01*
X149734354Y-64035147D01*
X149859853Y-64160646D01*
X149958456Y-64308216D01*
X150026376Y-64472188D01*
X150061000Y-64646259D01*
X150061000Y-64823741D01*
X150026376Y-64997812D01*
X149958456Y-65161784D01*
X149859853Y-65309354D01*
X149734354Y-65434853D01*
X149586784Y-65533456D01*
X149422812Y-65601376D01*
X149273512Y-65631073D01*
X149248742Y-65636000D01*
X149071258Y-65636000D01*
X149046488Y-65631073D01*
X148897188Y-65601376D01*
X148733216Y-65533456D01*
X148585646Y-65434853D01*
X148460147Y-65309354D01*
X148361544Y-65161784D01*
X148293624Y-64997812D01*
X148259000Y-64823741D01*
X148259000Y-64646259D01*
X148293624Y-64472188D01*
X148361544Y-64308216D01*
X148460147Y-64160646D01*
X148585646Y-64035147D01*
X148733216Y-63936544D01*
X148897188Y-63868624D01*
X149046488Y-63838927D01*
X149071258Y-63834000D01*
X149248742Y-63834000D01*
X149273512Y-63838927D01*
G37*
G36*
X172133512Y-63838927D02*
G01*
X172282812Y-63868624D01*
X172446784Y-63936544D01*
X172594354Y-64035147D01*
X172719853Y-64160646D01*
X172818456Y-64308216D01*
X172886376Y-64472188D01*
X172921000Y-64646259D01*
X172921000Y-64823741D01*
X172886376Y-64997812D01*
X172818456Y-65161784D01*
X172719853Y-65309354D01*
X172594354Y-65434853D01*
X172446784Y-65533456D01*
X172282812Y-65601376D01*
X172133512Y-65631073D01*
X172108742Y-65636000D01*
X171931258Y-65636000D01*
X171906488Y-65631073D01*
X171757188Y-65601376D01*
X171593216Y-65533456D01*
X171445646Y-65434853D01*
X171320147Y-65309354D01*
X171221544Y-65161784D01*
X171153624Y-64997812D01*
X171119000Y-64823741D01*
X171119000Y-64646259D01*
X171153624Y-64472188D01*
X171221544Y-64308216D01*
X171320147Y-64160646D01*
X171445646Y-64035147D01*
X171593216Y-63936544D01*
X171757188Y-63868624D01*
X171906488Y-63838927D01*
X171931258Y-63834000D01*
X172108742Y-63834000D01*
X172133512Y-63838927D01*
G37*
G36*
X169593512Y-63838927D02*
G01*
X169742812Y-63868624D01*
X169906784Y-63936544D01*
X170054354Y-64035147D01*
X170179853Y-64160646D01*
X170278456Y-64308216D01*
X170346376Y-64472188D01*
X170381000Y-64646259D01*
X170381000Y-64823741D01*
X170346376Y-64997812D01*
X170278456Y-65161784D01*
X170179853Y-65309354D01*
X170054354Y-65434853D01*
X169906784Y-65533456D01*
X169742812Y-65601376D01*
X169593512Y-65631073D01*
X169568742Y-65636000D01*
X169391258Y-65636000D01*
X169366488Y-65631073D01*
X169217188Y-65601376D01*
X169053216Y-65533456D01*
X168905646Y-65434853D01*
X168780147Y-65309354D01*
X168681544Y-65161784D01*
X168613624Y-64997812D01*
X168579000Y-64823741D01*
X168579000Y-64646259D01*
X168613624Y-64472188D01*
X168681544Y-64308216D01*
X168780147Y-64160646D01*
X168905646Y-64035147D01*
X169053216Y-63936544D01*
X169217188Y-63868624D01*
X169366488Y-63838927D01*
X169391258Y-63834000D01*
X169568742Y-63834000D01*
X169593512Y-63838927D01*
G37*
G36*
X167053512Y-63838927D02*
G01*
X167202812Y-63868624D01*
X167366784Y-63936544D01*
X167514354Y-64035147D01*
X167639853Y-64160646D01*
X167738456Y-64308216D01*
X167806376Y-64472188D01*
X167841000Y-64646259D01*
X167841000Y-64823741D01*
X167806376Y-64997812D01*
X167738456Y-65161784D01*
X167639853Y-65309354D01*
X167514354Y-65434853D01*
X167366784Y-65533456D01*
X167202812Y-65601376D01*
X167053512Y-65631073D01*
X167028742Y-65636000D01*
X166851258Y-65636000D01*
X166826488Y-65631073D01*
X166677188Y-65601376D01*
X166513216Y-65533456D01*
X166365646Y-65434853D01*
X166240147Y-65309354D01*
X166141544Y-65161784D01*
X166073624Y-64997812D01*
X166039000Y-64823741D01*
X166039000Y-64646259D01*
X166073624Y-64472188D01*
X166141544Y-64308216D01*
X166240147Y-64160646D01*
X166365646Y-64035147D01*
X166513216Y-63936544D01*
X166677188Y-63868624D01*
X166826488Y-63838927D01*
X166851258Y-63834000D01*
X167028742Y-63834000D01*
X167053512Y-63838927D01*
G37*
G36*
X164513512Y-63838927D02*
G01*
X164662812Y-63868624D01*
X164826784Y-63936544D01*
X164974354Y-64035147D01*
X165099853Y-64160646D01*
X165198456Y-64308216D01*
X165266376Y-64472188D01*
X165301000Y-64646259D01*
X165301000Y-64823741D01*
X165266376Y-64997812D01*
X165198456Y-65161784D01*
X165099853Y-65309354D01*
X164974354Y-65434853D01*
X164826784Y-65533456D01*
X164662812Y-65601376D01*
X164513512Y-65631073D01*
X164488742Y-65636000D01*
X164311258Y-65636000D01*
X164286488Y-65631073D01*
X164137188Y-65601376D01*
X163973216Y-65533456D01*
X163825646Y-65434853D01*
X163700147Y-65309354D01*
X163601544Y-65161784D01*
X163533624Y-64997812D01*
X163499000Y-64823741D01*
X163499000Y-64646259D01*
X163533624Y-64472188D01*
X163601544Y-64308216D01*
X163700147Y-64160646D01*
X163825646Y-64035147D01*
X163973216Y-63936544D01*
X164137188Y-63868624D01*
X164286488Y-63838927D01*
X164311258Y-63834000D01*
X164488742Y-63834000D01*
X164513512Y-63838927D01*
G37*
G36*
X161973512Y-63838927D02*
G01*
X162122812Y-63868624D01*
X162286784Y-63936544D01*
X162434354Y-64035147D01*
X162559853Y-64160646D01*
X162658456Y-64308216D01*
X162726376Y-64472188D01*
X162761000Y-64646259D01*
X162761000Y-64823741D01*
X162726376Y-64997812D01*
X162658456Y-65161784D01*
X162559853Y-65309354D01*
X162434354Y-65434853D01*
X162286784Y-65533456D01*
X162122812Y-65601376D01*
X161973512Y-65631073D01*
X161948742Y-65636000D01*
X161771258Y-65636000D01*
X161746488Y-65631073D01*
X161597188Y-65601376D01*
X161433216Y-65533456D01*
X161285646Y-65434853D01*
X161160147Y-65309354D01*
X161061544Y-65161784D01*
X160993624Y-64997812D01*
X160959000Y-64823741D01*
X160959000Y-64646259D01*
X160993624Y-64472188D01*
X161061544Y-64308216D01*
X161160147Y-64160646D01*
X161285646Y-64035147D01*
X161433216Y-63936544D01*
X161597188Y-63868624D01*
X161746488Y-63838927D01*
X161771258Y-63834000D01*
X161948742Y-63834000D01*
X161973512Y-63838927D01*
G37*
G36*
X159433512Y-63838927D02*
G01*
X159582812Y-63868624D01*
X159746784Y-63936544D01*
X159894354Y-64035147D01*
X160019853Y-64160646D01*
X160118456Y-64308216D01*
X160186376Y-64472188D01*
X160221000Y-64646259D01*
X160221000Y-64823741D01*
X160186376Y-64997812D01*
X160118456Y-65161784D01*
X160019853Y-65309354D01*
X159894354Y-65434853D01*
X159746784Y-65533456D01*
X159582812Y-65601376D01*
X159433512Y-65631073D01*
X159408742Y-65636000D01*
X159231258Y-65636000D01*
X159206488Y-65631073D01*
X159057188Y-65601376D01*
X158893216Y-65533456D01*
X158745646Y-65434853D01*
X158620147Y-65309354D01*
X158521544Y-65161784D01*
X158453624Y-64997812D01*
X158419000Y-64823741D01*
X158419000Y-64646259D01*
X158453624Y-64472188D01*
X158521544Y-64308216D01*
X158620147Y-64160646D01*
X158745646Y-64035147D01*
X158893216Y-63936544D01*
X159057188Y-63868624D01*
X159206488Y-63838927D01*
X159231258Y-63834000D01*
X159408742Y-63834000D01*
X159433512Y-63838927D01*
G37*
G36*
X154353512Y-63838927D02*
G01*
X154502812Y-63868624D01*
X154666784Y-63936544D01*
X154814354Y-64035147D01*
X154939853Y-64160646D01*
X155038456Y-64308216D01*
X155106376Y-64472188D01*
X155141000Y-64646259D01*
X155141000Y-64823741D01*
X155106376Y-64997812D01*
X155038456Y-65161784D01*
X154939853Y-65309354D01*
X154814354Y-65434853D01*
X154666784Y-65533456D01*
X154502812Y-65601376D01*
X154353512Y-65631073D01*
X154328742Y-65636000D01*
X154151258Y-65636000D01*
X154126488Y-65631073D01*
X153977188Y-65601376D01*
X153813216Y-65533456D01*
X153665646Y-65434853D01*
X153540147Y-65309354D01*
X153441544Y-65161784D01*
X153373624Y-64997812D01*
X153339000Y-64823741D01*
X153339000Y-64646259D01*
X153373624Y-64472188D01*
X153441544Y-64308216D01*
X153540147Y-64160646D01*
X153665646Y-64035147D01*
X153813216Y-63936544D01*
X153977188Y-63868624D01*
X154126488Y-63838927D01*
X154151258Y-63834000D01*
X154328742Y-63834000D01*
X154353512Y-63838927D01*
G37*
G36*
X156893512Y-63838927D02*
G01*
X157042812Y-63868624D01*
X157206784Y-63936544D01*
X157354354Y-64035147D01*
X157479853Y-64160646D01*
X157578456Y-64308216D01*
X157646376Y-64472188D01*
X157681000Y-64646259D01*
X157681000Y-64823741D01*
X157646376Y-64997812D01*
X157578456Y-65161784D01*
X157479853Y-65309354D01*
X157354354Y-65434853D01*
X157206784Y-65533456D01*
X157042812Y-65601376D01*
X156893512Y-65631073D01*
X156868742Y-65636000D01*
X156691258Y-65636000D01*
X156666488Y-65631073D01*
X156517188Y-65601376D01*
X156353216Y-65533456D01*
X156205646Y-65434853D01*
X156080147Y-65309354D01*
X155981544Y-65161784D01*
X155913624Y-64997812D01*
X155879000Y-64823741D01*
X155879000Y-64646259D01*
X155913624Y-64472188D01*
X155981544Y-64308216D01*
X156080147Y-64160646D01*
X156205646Y-64035147D01*
X156353216Y-63936544D01*
X156517188Y-63868624D01*
X156666488Y-63838927D01*
X156691258Y-63834000D01*
X156868742Y-63834000D01*
X156893512Y-63838927D01*
G37*
G36*
X181867585Y-60748802D02*
G01*
X182017410Y-60778604D01*
X182299674Y-60895521D01*
X182553705Y-61065259D01*
X182769741Y-61281295D01*
X182939479Y-61535326D01*
X183056396Y-61817590D01*
X183116000Y-62117240D01*
X183116000Y-62422760D01*
X183056396Y-62722410D01*
X182939479Y-63004674D01*
X182769741Y-63258705D01*
X182553705Y-63474741D01*
X182299674Y-63644479D01*
X182017410Y-63761396D01*
X181867585Y-63791198D01*
X181717761Y-63821000D01*
X181412239Y-63821000D01*
X181262415Y-63791198D01*
X181112590Y-63761396D01*
X180830326Y-63644479D01*
X180576295Y-63474741D01*
X180360259Y-63258705D01*
X180190521Y-63004674D01*
X180073604Y-62722410D01*
X180014000Y-62422760D01*
X180014000Y-62117240D01*
X180073604Y-61817590D01*
X180190521Y-61535326D01*
X180360259Y-61281295D01*
X180576295Y-61065259D01*
X180830326Y-60895521D01*
X181112590Y-60778604D01*
X181262415Y-60748802D01*
X181412239Y-60719000D01*
X181717761Y-60719000D01*
X181867585Y-60748802D01*
G37*
G36*
X117867585Y-60748802D02*
G01*
X118017410Y-60778604D01*
X118299674Y-60895521D01*
X118553705Y-61065259D01*
X118769741Y-61281295D01*
X118939479Y-61535326D01*
X119056396Y-61817590D01*
X119116000Y-62117240D01*
X119116000Y-62422760D01*
X119056396Y-62722410D01*
X118939479Y-63004674D01*
X118769741Y-63258705D01*
X118553705Y-63474741D01*
X118299674Y-63644479D01*
X118017410Y-63761396D01*
X117867585Y-63791198D01*
X117717761Y-63821000D01*
X117412239Y-63821000D01*
X117262415Y-63791198D01*
X117112590Y-63761396D01*
X116830326Y-63644479D01*
X116576295Y-63474741D01*
X116360259Y-63258705D01*
X116190521Y-63004674D01*
X116073604Y-62722410D01*
X116014000Y-62422760D01*
X116014000Y-62117240D01*
X116073604Y-61817590D01*
X116190521Y-61535326D01*
X116360259Y-61281295D01*
X116576295Y-61065259D01*
X116830326Y-60895521D01*
X117112590Y-60778604D01*
X117262415Y-60748802D01*
X117412239Y-60719000D01*
X117717761Y-60719000D01*
X117867585Y-60748802D01*
G37*
G36*
X172133512Y-61298927D02*
G01*
X172282812Y-61328624D01*
X172446784Y-61396544D01*
X172594354Y-61495147D01*
X172719853Y-61620646D01*
X172818456Y-61768216D01*
X172886376Y-61932188D01*
X172921000Y-62106259D01*
X172921000Y-62283741D01*
X172886376Y-62457812D01*
X172818456Y-62621784D01*
X172719853Y-62769354D01*
X172594354Y-62894853D01*
X172446784Y-62993456D01*
X172282812Y-63061376D01*
X172133512Y-63091073D01*
X172108742Y-63096000D01*
X171931258Y-63096000D01*
X171906488Y-63091073D01*
X171757188Y-63061376D01*
X171593216Y-62993456D01*
X171445646Y-62894853D01*
X171320147Y-62769354D01*
X171221544Y-62621784D01*
X171153624Y-62457812D01*
X171119000Y-62283741D01*
X171119000Y-62106259D01*
X171153624Y-61932188D01*
X171221544Y-61768216D01*
X171320147Y-61620646D01*
X171445646Y-61495147D01*
X171593216Y-61396544D01*
X171757188Y-61328624D01*
X171906488Y-61298927D01*
X171931258Y-61294000D01*
X172108742Y-61294000D01*
X172133512Y-61298927D01*
G37*
G36*
X169593512Y-61298927D02*
G01*
X169742812Y-61328624D01*
X169906784Y-61396544D01*
X170054354Y-61495147D01*
X170179853Y-61620646D01*
X170278456Y-61768216D01*
X170346376Y-61932188D01*
X170381000Y-62106259D01*
X170381000Y-62283741D01*
X170346376Y-62457812D01*
X170278456Y-62621784D01*
X170179853Y-62769354D01*
X170054354Y-62894853D01*
X169906784Y-62993456D01*
X169742812Y-63061376D01*
X169593512Y-63091073D01*
X169568742Y-63096000D01*
X169391258Y-63096000D01*
X169366488Y-63091073D01*
X169217188Y-63061376D01*
X169053216Y-62993456D01*
X168905646Y-62894853D01*
X168780147Y-62769354D01*
X168681544Y-62621784D01*
X168613624Y-62457812D01*
X168579000Y-62283741D01*
X168579000Y-62106259D01*
X168613624Y-61932188D01*
X168681544Y-61768216D01*
X168780147Y-61620646D01*
X168905646Y-61495147D01*
X169053216Y-61396544D01*
X169217188Y-61328624D01*
X169366488Y-61298927D01*
X169391258Y-61294000D01*
X169568742Y-61294000D01*
X169593512Y-61298927D01*
G37*
G36*
X167053512Y-61298927D02*
G01*
X167202812Y-61328624D01*
X167366784Y-61396544D01*
X167514354Y-61495147D01*
X167639853Y-61620646D01*
X167738456Y-61768216D01*
X167806376Y-61932188D01*
X167841000Y-62106259D01*
X167841000Y-62283741D01*
X167806376Y-62457812D01*
X167738456Y-62621784D01*
X167639853Y-62769354D01*
X167514354Y-62894853D01*
X167366784Y-62993456D01*
X167202812Y-63061376D01*
X167053512Y-63091073D01*
X167028742Y-63096000D01*
X166851258Y-63096000D01*
X166826488Y-63091073D01*
X166677188Y-63061376D01*
X166513216Y-62993456D01*
X166365646Y-62894853D01*
X166240147Y-62769354D01*
X166141544Y-62621784D01*
X166073624Y-62457812D01*
X166039000Y-62283741D01*
X166039000Y-62106259D01*
X166073624Y-61932188D01*
X166141544Y-61768216D01*
X166240147Y-61620646D01*
X166365646Y-61495147D01*
X166513216Y-61396544D01*
X166677188Y-61328624D01*
X166826488Y-61298927D01*
X166851258Y-61294000D01*
X167028742Y-61294000D01*
X167053512Y-61298927D01*
G37*
G36*
X164513512Y-61298927D02*
G01*
X164662812Y-61328624D01*
X164826784Y-61396544D01*
X164974354Y-61495147D01*
X165099853Y-61620646D01*
X165198456Y-61768216D01*
X165266376Y-61932188D01*
X165301000Y-62106259D01*
X165301000Y-62283741D01*
X165266376Y-62457812D01*
X165198456Y-62621784D01*
X165099853Y-62769354D01*
X164974354Y-62894853D01*
X164826784Y-62993456D01*
X164662812Y-63061376D01*
X164513512Y-63091073D01*
X164488742Y-63096000D01*
X164311258Y-63096000D01*
X164286488Y-63091073D01*
X164137188Y-63061376D01*
X163973216Y-62993456D01*
X163825646Y-62894853D01*
X163700147Y-62769354D01*
X163601544Y-62621784D01*
X163533624Y-62457812D01*
X163499000Y-62283741D01*
X163499000Y-62106259D01*
X163533624Y-61932188D01*
X163601544Y-61768216D01*
X163700147Y-61620646D01*
X163825646Y-61495147D01*
X163973216Y-61396544D01*
X164137188Y-61328624D01*
X164286488Y-61298927D01*
X164311258Y-61294000D01*
X164488742Y-61294000D01*
X164513512Y-61298927D01*
G37*
G36*
X161973512Y-61298927D02*
G01*
X162122812Y-61328624D01*
X162286784Y-61396544D01*
X162434354Y-61495147D01*
X162559853Y-61620646D01*
X162658456Y-61768216D01*
X162726376Y-61932188D01*
X162761000Y-62106259D01*
X162761000Y-62283741D01*
X162726376Y-62457812D01*
X162658456Y-62621784D01*
X162559853Y-62769354D01*
X162434354Y-62894853D01*
X162286784Y-62993456D01*
X162122812Y-63061376D01*
X161973512Y-63091073D01*
X161948742Y-63096000D01*
X161771258Y-63096000D01*
X161746488Y-63091073D01*
X161597188Y-63061376D01*
X161433216Y-62993456D01*
X161285646Y-62894853D01*
X161160147Y-62769354D01*
X161061544Y-62621784D01*
X160993624Y-62457812D01*
X160959000Y-62283741D01*
X160959000Y-62106259D01*
X160993624Y-61932188D01*
X161061544Y-61768216D01*
X161160147Y-61620646D01*
X161285646Y-61495147D01*
X161433216Y-61396544D01*
X161597188Y-61328624D01*
X161746488Y-61298927D01*
X161771258Y-61294000D01*
X161948742Y-61294000D01*
X161973512Y-61298927D01*
G37*
G36*
X156893512Y-61298927D02*
G01*
X157042812Y-61328624D01*
X157206784Y-61396544D01*
X157354354Y-61495147D01*
X157479853Y-61620646D01*
X157578456Y-61768216D01*
X157646376Y-61932188D01*
X157681000Y-62106259D01*
X157681000Y-62283741D01*
X157646376Y-62457812D01*
X157578456Y-62621784D01*
X157479853Y-62769354D01*
X157354354Y-62894853D01*
X157206784Y-62993456D01*
X157042812Y-63061376D01*
X156893512Y-63091073D01*
X156868742Y-63096000D01*
X156691258Y-63096000D01*
X156666488Y-63091073D01*
X156517188Y-63061376D01*
X156353216Y-62993456D01*
X156205646Y-62894853D01*
X156080147Y-62769354D01*
X155981544Y-62621784D01*
X155913624Y-62457812D01*
X155879000Y-62283741D01*
X155879000Y-62106259D01*
X155913624Y-61932188D01*
X155981544Y-61768216D01*
X156080147Y-61620646D01*
X156205646Y-61495147D01*
X156353216Y-61396544D01*
X156517188Y-61328624D01*
X156666488Y-61298927D01*
X156691258Y-61294000D01*
X156868742Y-61294000D01*
X156893512Y-61298927D01*
G37*
G36*
X151813512Y-61298927D02*
G01*
X151962812Y-61328624D01*
X152126784Y-61396544D01*
X152274354Y-61495147D01*
X152399853Y-61620646D01*
X152498456Y-61768216D01*
X152566376Y-61932188D01*
X152601000Y-62106259D01*
X152601000Y-62283741D01*
X152566376Y-62457812D01*
X152498456Y-62621784D01*
X152399853Y-62769354D01*
X152274354Y-62894853D01*
X152126784Y-62993456D01*
X151962812Y-63061376D01*
X151813512Y-63091073D01*
X151788742Y-63096000D01*
X151611258Y-63096000D01*
X151586488Y-63091073D01*
X151437188Y-63061376D01*
X151273216Y-62993456D01*
X151125646Y-62894853D01*
X151000147Y-62769354D01*
X150901544Y-62621784D01*
X150833624Y-62457812D01*
X150799000Y-62283741D01*
X150799000Y-62106259D01*
X150833624Y-61932188D01*
X150901544Y-61768216D01*
X151000147Y-61620646D01*
X151125646Y-61495147D01*
X151273216Y-61396544D01*
X151437188Y-61328624D01*
X151586488Y-61298927D01*
X151611258Y-61294000D01*
X151788742Y-61294000D01*
X151813512Y-61298927D01*
G37*
G36*
X174673512Y-61298927D02*
G01*
X174822812Y-61328624D01*
X174986784Y-61396544D01*
X175134354Y-61495147D01*
X175259853Y-61620646D01*
X175358456Y-61768216D01*
X175426376Y-61932188D01*
X175461000Y-62106259D01*
X175461000Y-62283741D01*
X175426376Y-62457812D01*
X175358456Y-62621784D01*
X175259853Y-62769354D01*
X175134354Y-62894853D01*
X174986784Y-62993456D01*
X174822812Y-63061376D01*
X174673512Y-63091073D01*
X174648742Y-63096000D01*
X174471258Y-63096000D01*
X174446488Y-63091073D01*
X174297188Y-63061376D01*
X174133216Y-62993456D01*
X173985646Y-62894853D01*
X173860147Y-62769354D01*
X173761544Y-62621784D01*
X173693624Y-62457812D01*
X173659000Y-62283741D01*
X173659000Y-62106259D01*
X173693624Y-61932188D01*
X173761544Y-61768216D01*
X173860147Y-61620646D01*
X173985646Y-61495147D01*
X174133216Y-61396544D01*
X174297188Y-61328624D01*
X174446488Y-61298927D01*
X174471258Y-61294000D01*
X174648742Y-61294000D01*
X174673512Y-61298927D01*
G37*
G36*
X149273512Y-61298927D02*
G01*
X149422812Y-61328624D01*
X149586784Y-61396544D01*
X149734354Y-61495147D01*
X149859853Y-61620646D01*
X149958456Y-61768216D01*
X150026376Y-61932188D01*
X150061000Y-62106259D01*
X150061000Y-62283741D01*
X150026376Y-62457812D01*
X149958456Y-62621784D01*
X149859853Y-62769354D01*
X149734354Y-62894853D01*
X149586784Y-62993456D01*
X149422812Y-63061376D01*
X149273512Y-63091073D01*
X149248742Y-63096000D01*
X149071258Y-63096000D01*
X149046488Y-63091073D01*
X148897188Y-63061376D01*
X148733216Y-62993456D01*
X148585646Y-62894853D01*
X148460147Y-62769354D01*
X148361544Y-62621784D01*
X148293624Y-62457812D01*
X148259000Y-62283741D01*
X148259000Y-62106259D01*
X148293624Y-61932188D01*
X148361544Y-61768216D01*
X148460147Y-61620646D01*
X148585646Y-61495147D01*
X148733216Y-61396544D01*
X148897188Y-61328624D01*
X149046488Y-61298927D01*
X149071258Y-61294000D01*
X149248742Y-61294000D01*
X149273512Y-61298927D01*
G37*
G36*
X154353512Y-61298927D02*
G01*
X154502812Y-61328624D01*
X154666784Y-61396544D01*
X154814354Y-61495147D01*
X154939853Y-61620646D01*
X155038456Y-61768216D01*
X155106376Y-61932188D01*
X155141000Y-62106259D01*
X155141000Y-62283741D01*
X155106376Y-62457812D01*
X155038456Y-62621784D01*
X154939853Y-62769354D01*
X154814354Y-62894853D01*
X154666784Y-62993456D01*
X154502812Y-63061376D01*
X154353512Y-63091073D01*
X154328742Y-63096000D01*
X154151258Y-63096000D01*
X154126488Y-63091073D01*
X153977188Y-63061376D01*
X153813216Y-62993456D01*
X153665646Y-62894853D01*
X153540147Y-62769354D01*
X153441544Y-62621784D01*
X153373624Y-62457812D01*
X153339000Y-62283741D01*
X153339000Y-62106259D01*
X153373624Y-61932188D01*
X153441544Y-61768216D01*
X153540147Y-61620646D01*
X153665646Y-61495147D01*
X153813216Y-61396544D01*
X153977188Y-61328624D01*
X154126488Y-61298927D01*
X154151258Y-61294000D01*
X154328742Y-61294000D01*
X154353512Y-61298927D01*
G37*
G36*
X159433512Y-61298927D02*
G01*
X159582812Y-61328624D01*
X159746784Y-61396544D01*
X159894354Y-61495147D01*
X160019853Y-61620646D01*
X160118456Y-61768216D01*
X160186376Y-61932188D01*
X160221000Y-62106259D01*
X160221000Y-62283741D01*
X160186376Y-62457812D01*
X160118456Y-62621784D01*
X160019853Y-62769354D01*
X159894354Y-62894853D01*
X159746784Y-62993456D01*
X159582812Y-63061376D01*
X159433512Y-63091073D01*
X159408742Y-63096000D01*
X159231258Y-63096000D01*
X159206488Y-63091073D01*
X159057188Y-63061376D01*
X158893216Y-62993456D01*
X158745646Y-62894853D01*
X158620147Y-62769354D01*
X158521544Y-62621784D01*
X158453624Y-62457812D01*
X158419000Y-62283741D01*
X158419000Y-62106259D01*
X158453624Y-61932188D01*
X158521544Y-61768216D01*
X158620147Y-61620646D01*
X158745646Y-61495147D01*
X158893216Y-61396544D01*
X159057188Y-61328624D01*
X159206488Y-61298927D01*
X159231258Y-61294000D01*
X159408742Y-61294000D01*
X159433512Y-61298927D01*
G37*
G36*
X154353512Y-58758927D02*
G01*
X154502812Y-58788624D01*
X154666784Y-58856544D01*
X154814354Y-58955147D01*
X154939853Y-59080646D01*
X155038456Y-59228216D01*
X155106376Y-59392188D01*
X155141000Y-59566259D01*
X155141000Y-59743741D01*
X155106376Y-59917812D01*
X155038456Y-60081784D01*
X154939853Y-60229354D01*
X154814354Y-60354853D01*
X154666784Y-60453456D01*
X154502812Y-60521376D01*
X154353512Y-60551073D01*
X154328742Y-60556000D01*
X154151258Y-60556000D01*
X154126488Y-60551073D01*
X153977188Y-60521376D01*
X153813216Y-60453456D01*
X153665646Y-60354853D01*
X153540147Y-60229354D01*
X153441544Y-60081784D01*
X153373624Y-59917812D01*
X153339000Y-59743741D01*
X153339000Y-59566259D01*
X153373624Y-59392188D01*
X153441544Y-59228216D01*
X153540147Y-59080646D01*
X153665646Y-58955147D01*
X153813216Y-58856544D01*
X153977188Y-58788624D01*
X154126488Y-58758927D01*
X154151258Y-58754000D01*
X154328742Y-58754000D01*
X154353512Y-58758927D01*
G37*
G36*
X167053512Y-58758927D02*
G01*
X167202812Y-58788624D01*
X167366784Y-58856544D01*
X167514354Y-58955147D01*
X167639853Y-59080646D01*
X167738456Y-59228216D01*
X167806376Y-59392188D01*
X167841000Y-59566259D01*
X167841000Y-59743741D01*
X167806376Y-59917812D01*
X167738456Y-60081784D01*
X167639853Y-60229354D01*
X167514354Y-60354853D01*
X167366784Y-60453456D01*
X167202812Y-60521376D01*
X167053512Y-60551073D01*
X167028742Y-60556000D01*
X166851258Y-60556000D01*
X166826488Y-60551073D01*
X166677188Y-60521376D01*
X166513216Y-60453456D01*
X166365646Y-60354853D01*
X166240147Y-60229354D01*
X166141544Y-60081784D01*
X166073624Y-59917812D01*
X166039000Y-59743741D01*
X166039000Y-59566259D01*
X166073624Y-59392188D01*
X166141544Y-59228216D01*
X166240147Y-59080646D01*
X166365646Y-58955147D01*
X166513216Y-58856544D01*
X166677188Y-58788624D01*
X166826488Y-58758927D01*
X166851258Y-58754000D01*
X167028742Y-58754000D01*
X167053512Y-58758927D01*
G37*
G36*
X169593512Y-58758927D02*
G01*
X169742812Y-58788624D01*
X169906784Y-58856544D01*
X170054354Y-58955147D01*
X170179853Y-59080646D01*
X170278456Y-59228216D01*
X170346376Y-59392188D01*
X170381000Y-59566259D01*
X170381000Y-59743741D01*
X170346376Y-59917812D01*
X170278456Y-60081784D01*
X170179853Y-60229354D01*
X170054354Y-60354853D01*
X169906784Y-60453456D01*
X169742812Y-60521376D01*
X169593512Y-60551073D01*
X169568742Y-60556000D01*
X169391258Y-60556000D01*
X169366488Y-60551073D01*
X169217188Y-60521376D01*
X169053216Y-60453456D01*
X168905646Y-60354853D01*
X168780147Y-60229354D01*
X168681544Y-60081784D01*
X168613624Y-59917812D01*
X168579000Y-59743741D01*
X168579000Y-59566259D01*
X168613624Y-59392188D01*
X168681544Y-59228216D01*
X168780147Y-59080646D01*
X168905646Y-58955147D01*
X169053216Y-58856544D01*
X169217188Y-58788624D01*
X169366488Y-58758927D01*
X169391258Y-58754000D01*
X169568742Y-58754000D01*
X169593512Y-58758927D01*
G37*
G36*
X151813512Y-58758927D02*
G01*
X151962812Y-58788624D01*
X152126784Y-58856544D01*
X152274354Y-58955147D01*
X152399853Y-59080646D01*
X152498456Y-59228216D01*
X152566376Y-59392188D01*
X152601000Y-59566259D01*
X152601000Y-59743741D01*
X152566376Y-59917812D01*
X152498456Y-60081784D01*
X152399853Y-60229354D01*
X152274354Y-60354853D01*
X152126784Y-60453456D01*
X151962812Y-60521376D01*
X151813512Y-60551073D01*
X151788742Y-60556000D01*
X151611258Y-60556000D01*
X151586488Y-60551073D01*
X151437188Y-60521376D01*
X151273216Y-60453456D01*
X151125646Y-60354853D01*
X151000147Y-60229354D01*
X150901544Y-60081784D01*
X150833624Y-59917812D01*
X150799000Y-59743741D01*
X150799000Y-59566259D01*
X150833624Y-59392188D01*
X150901544Y-59228216D01*
X151000147Y-59080646D01*
X151125646Y-58955147D01*
X151273216Y-58856544D01*
X151437188Y-58788624D01*
X151586488Y-58758927D01*
X151611258Y-58754000D01*
X151788742Y-58754000D01*
X151813512Y-58758927D01*
G37*
G36*
X149273512Y-58758927D02*
G01*
X149422812Y-58788624D01*
X149586784Y-58856544D01*
X149734354Y-58955147D01*
X149859853Y-59080646D01*
X149958456Y-59228216D01*
X150026376Y-59392188D01*
X150061000Y-59566259D01*
X150061000Y-59743741D01*
X150026376Y-59917812D01*
X149958456Y-60081784D01*
X149859853Y-60229354D01*
X149734354Y-60354853D01*
X149586784Y-60453456D01*
X149422812Y-60521376D01*
X149273512Y-60551073D01*
X149248742Y-60556000D01*
X149071258Y-60556000D01*
X149046488Y-60551073D01*
X148897188Y-60521376D01*
X148733216Y-60453456D01*
X148585646Y-60354853D01*
X148460147Y-60229354D01*
X148361544Y-60081784D01*
X148293624Y-59917812D01*
X148259000Y-59743741D01*
X148259000Y-59566259D01*
X148293624Y-59392188D01*
X148361544Y-59228216D01*
X148460147Y-59080646D01*
X148585646Y-58955147D01*
X148733216Y-58856544D01*
X148897188Y-58788624D01*
X149046488Y-58758927D01*
X149071258Y-58754000D01*
X149248742Y-58754000D01*
X149273512Y-58758927D01*
G37*
G36*
X174673512Y-58758927D02*
G01*
X174822812Y-58788624D01*
X174986784Y-58856544D01*
X175134354Y-58955147D01*
X175259853Y-59080646D01*
X175358456Y-59228216D01*
X175426376Y-59392188D01*
X175461000Y-59566259D01*
X175461000Y-59743741D01*
X175426376Y-59917812D01*
X175358456Y-60081784D01*
X175259853Y-60229354D01*
X175134354Y-60354853D01*
X174986784Y-60453456D01*
X174822812Y-60521376D01*
X174673512Y-60551073D01*
X174648742Y-60556000D01*
X174471258Y-60556000D01*
X174446488Y-60551073D01*
X174297188Y-60521376D01*
X174133216Y-60453456D01*
X173985646Y-60354853D01*
X173860147Y-60229354D01*
X173761544Y-60081784D01*
X173693624Y-59917812D01*
X173659000Y-59743741D01*
X173659000Y-59566259D01*
X173693624Y-59392188D01*
X173761544Y-59228216D01*
X173860147Y-59080646D01*
X173985646Y-58955147D01*
X174133216Y-58856544D01*
X174297188Y-58788624D01*
X174446488Y-58758927D01*
X174471258Y-58754000D01*
X174648742Y-58754000D01*
X174673512Y-58758927D01*
G37*
G36*
X156893512Y-58758927D02*
G01*
X157042812Y-58788624D01*
X157206784Y-58856544D01*
X157354354Y-58955147D01*
X157479853Y-59080646D01*
X157578456Y-59228216D01*
X157646376Y-59392188D01*
X157681000Y-59566259D01*
X157681000Y-59743741D01*
X157646376Y-59917812D01*
X157578456Y-60081784D01*
X157479853Y-60229354D01*
X157354354Y-60354853D01*
X157206784Y-60453456D01*
X157042812Y-60521376D01*
X156893512Y-60551073D01*
X156868742Y-60556000D01*
X156691258Y-60556000D01*
X156666488Y-60551073D01*
X156517188Y-60521376D01*
X156353216Y-60453456D01*
X156205646Y-60354853D01*
X156080147Y-60229354D01*
X155981544Y-60081784D01*
X155913624Y-59917812D01*
X155879000Y-59743741D01*
X155879000Y-59566259D01*
X155913624Y-59392188D01*
X155981544Y-59228216D01*
X156080147Y-59080646D01*
X156205646Y-58955147D01*
X156353216Y-58856544D01*
X156517188Y-58788624D01*
X156666488Y-58758927D01*
X156691258Y-58754000D01*
X156868742Y-58754000D01*
X156893512Y-58758927D01*
G37*
G36*
X159433512Y-58758927D02*
G01*
X159582812Y-58788624D01*
X159746784Y-58856544D01*
X159894354Y-58955147D01*
X160019853Y-59080646D01*
X160118456Y-59228216D01*
X160186376Y-59392188D01*
X160221000Y-59566259D01*
X160221000Y-59743741D01*
X160186376Y-59917812D01*
X160118456Y-60081784D01*
X160019853Y-60229354D01*
X159894354Y-60354853D01*
X159746784Y-60453456D01*
X159582812Y-60521376D01*
X159433512Y-60551073D01*
X159408742Y-60556000D01*
X159231258Y-60556000D01*
X159206488Y-60551073D01*
X159057188Y-60521376D01*
X158893216Y-60453456D01*
X158745646Y-60354853D01*
X158620147Y-60229354D01*
X158521544Y-60081784D01*
X158453624Y-59917812D01*
X158419000Y-59743741D01*
X158419000Y-59566259D01*
X158453624Y-59392188D01*
X158521544Y-59228216D01*
X158620147Y-59080646D01*
X158745646Y-58955147D01*
X158893216Y-58856544D01*
X159057188Y-58788624D01*
X159206488Y-58758927D01*
X159231258Y-58754000D01*
X159408742Y-58754000D01*
X159433512Y-58758927D01*
G37*
G36*
X161973512Y-58758927D02*
G01*
X162122812Y-58788624D01*
X162286784Y-58856544D01*
X162434354Y-58955147D01*
X162559853Y-59080646D01*
X162658456Y-59228216D01*
X162726376Y-59392188D01*
X162761000Y-59566259D01*
X162761000Y-59743741D01*
X162726376Y-59917812D01*
X162658456Y-60081784D01*
X162559853Y-60229354D01*
X162434354Y-60354853D01*
X162286784Y-60453456D01*
X162122812Y-60521376D01*
X161973512Y-60551073D01*
X161948742Y-60556000D01*
X161771258Y-60556000D01*
X161746488Y-60551073D01*
X161597188Y-60521376D01*
X161433216Y-60453456D01*
X161285646Y-60354853D01*
X161160147Y-60229354D01*
X161061544Y-60081784D01*
X160993624Y-59917812D01*
X160959000Y-59743741D01*
X160959000Y-59566259D01*
X160993624Y-59392188D01*
X161061544Y-59228216D01*
X161160147Y-59080646D01*
X161285646Y-58955147D01*
X161433216Y-58856544D01*
X161597188Y-58788624D01*
X161746488Y-58758927D01*
X161771258Y-58754000D01*
X161948742Y-58754000D01*
X161973512Y-58758927D01*
G37*
G36*
X164513512Y-58758927D02*
G01*
X164662812Y-58788624D01*
X164826784Y-58856544D01*
X164974354Y-58955147D01*
X165099853Y-59080646D01*
X165198456Y-59228216D01*
X165266376Y-59392188D01*
X165301000Y-59566259D01*
X165301000Y-59743741D01*
X165266376Y-59917812D01*
X165198456Y-60081784D01*
X165099853Y-60229354D01*
X164974354Y-60354853D01*
X164826784Y-60453456D01*
X164662812Y-60521376D01*
X164513512Y-60551073D01*
X164488742Y-60556000D01*
X164311258Y-60556000D01*
X164286488Y-60551073D01*
X164137188Y-60521376D01*
X163973216Y-60453456D01*
X163825646Y-60354853D01*
X163700147Y-60229354D01*
X163601544Y-60081784D01*
X163533624Y-59917812D01*
X163499000Y-59743741D01*
X163499000Y-59566259D01*
X163533624Y-59392188D01*
X163601544Y-59228216D01*
X163700147Y-59080646D01*
X163825646Y-58955147D01*
X163973216Y-58856544D01*
X164137188Y-58788624D01*
X164286488Y-58758927D01*
X164311258Y-58754000D01*
X164488742Y-58754000D01*
X164513512Y-58758927D01*
G37*
G36*
X172133512Y-58758927D02*
G01*
X172282812Y-58788624D01*
X172446784Y-58856544D01*
X172594354Y-58955147D01*
X172719853Y-59080646D01*
X172818456Y-59228216D01*
X172886376Y-59392188D01*
X172921000Y-59566259D01*
X172921000Y-59743741D01*
X172886376Y-59917812D01*
X172818456Y-60081784D01*
X172719853Y-60229354D01*
X172594354Y-60354853D01*
X172446784Y-60453456D01*
X172282812Y-60521376D01*
X172133512Y-60551073D01*
X172108742Y-60556000D01*
X171931258Y-60556000D01*
X171906488Y-60551073D01*
X171757188Y-60521376D01*
X171593216Y-60453456D01*
X171445646Y-60354853D01*
X171320147Y-60229354D01*
X171221544Y-60081784D01*
X171153624Y-59917812D01*
X171119000Y-59743741D01*
X171119000Y-59566259D01*
X171153624Y-59392188D01*
X171221544Y-59228216D01*
X171320147Y-59080646D01*
X171445646Y-58955147D01*
X171593216Y-58856544D01*
X171757188Y-58788624D01*
X171906488Y-58758927D01*
X171931258Y-58754000D01*
X172108742Y-58754000D01*
X172133512Y-58758927D01*
G37*
G36*
X154353512Y-56218927D02*
G01*
X154502812Y-56248624D01*
X154666784Y-56316544D01*
X154814354Y-56415147D01*
X154939853Y-56540646D01*
X155038456Y-56688216D01*
X155106376Y-56852188D01*
X155141000Y-57026259D01*
X155141000Y-57203741D01*
X155106376Y-57377812D01*
X155038456Y-57541784D01*
X154939853Y-57689354D01*
X154814354Y-57814853D01*
X154666784Y-57913456D01*
X154502812Y-57981376D01*
X154353512Y-58011073D01*
X154328742Y-58016000D01*
X154151258Y-58016000D01*
X154126488Y-58011073D01*
X153977188Y-57981376D01*
X153813216Y-57913456D01*
X153665646Y-57814853D01*
X153540147Y-57689354D01*
X153441544Y-57541784D01*
X153373624Y-57377812D01*
X153339000Y-57203741D01*
X153339000Y-57026259D01*
X153373624Y-56852188D01*
X153441544Y-56688216D01*
X153540147Y-56540646D01*
X153665646Y-56415147D01*
X153813216Y-56316544D01*
X153977188Y-56248624D01*
X154126488Y-56218927D01*
X154151258Y-56214000D01*
X154328742Y-56214000D01*
X154353512Y-56218927D01*
G37*
G36*
X161973512Y-56218927D02*
G01*
X162122812Y-56248624D01*
X162286784Y-56316544D01*
X162434354Y-56415147D01*
X162559853Y-56540646D01*
X162658456Y-56688216D01*
X162726376Y-56852188D01*
X162761000Y-57026259D01*
X162761000Y-57203741D01*
X162726376Y-57377812D01*
X162658456Y-57541784D01*
X162559853Y-57689354D01*
X162434354Y-57814853D01*
X162286784Y-57913456D01*
X162122812Y-57981376D01*
X161973512Y-58011073D01*
X161948742Y-58016000D01*
X161771258Y-58016000D01*
X161746488Y-58011073D01*
X161597188Y-57981376D01*
X161433216Y-57913456D01*
X161285646Y-57814853D01*
X161160147Y-57689354D01*
X161061544Y-57541784D01*
X160993624Y-57377812D01*
X160959000Y-57203741D01*
X160959000Y-57026259D01*
X160993624Y-56852188D01*
X161061544Y-56688216D01*
X161160147Y-56540646D01*
X161285646Y-56415147D01*
X161433216Y-56316544D01*
X161597188Y-56248624D01*
X161746488Y-56218927D01*
X161771258Y-56214000D01*
X161948742Y-56214000D01*
X161973512Y-56218927D01*
G37*
G36*
X159433512Y-56218927D02*
G01*
X159582812Y-56248624D01*
X159746784Y-56316544D01*
X159894354Y-56415147D01*
X160019853Y-56540646D01*
X160118456Y-56688216D01*
X160186376Y-56852188D01*
X160221000Y-57026259D01*
X160221000Y-57203741D01*
X160186376Y-57377812D01*
X160118456Y-57541784D01*
X160019853Y-57689354D01*
X159894354Y-57814853D01*
X159746784Y-57913456D01*
X159582812Y-57981376D01*
X159433512Y-58011073D01*
X159408742Y-58016000D01*
X159231258Y-58016000D01*
X159206488Y-58011073D01*
X159057188Y-57981376D01*
X158893216Y-57913456D01*
X158745646Y-57814853D01*
X158620147Y-57689354D01*
X158521544Y-57541784D01*
X158453624Y-57377812D01*
X158419000Y-57203741D01*
X158419000Y-57026259D01*
X158453624Y-56852188D01*
X158521544Y-56688216D01*
X158620147Y-56540646D01*
X158745646Y-56415147D01*
X158893216Y-56316544D01*
X159057188Y-56248624D01*
X159206488Y-56218927D01*
X159231258Y-56214000D01*
X159408742Y-56214000D01*
X159433512Y-56218927D01*
G37*
G36*
X177213512Y-56218927D02*
G01*
X177362812Y-56248624D01*
X177526784Y-56316544D01*
X177674354Y-56415147D01*
X177799853Y-56540646D01*
X177898456Y-56688216D01*
X177966376Y-56852188D01*
X178001000Y-57026259D01*
X178001000Y-57203741D01*
X177966376Y-57377812D01*
X177898456Y-57541784D01*
X177799853Y-57689354D01*
X177674354Y-57814853D01*
X177526784Y-57913456D01*
X177362812Y-57981376D01*
X177213512Y-58011073D01*
X177188742Y-58016000D01*
X177011258Y-58016000D01*
X176986488Y-58011073D01*
X176837188Y-57981376D01*
X176673216Y-57913456D01*
X176525646Y-57814853D01*
X176400147Y-57689354D01*
X176301544Y-57541784D01*
X176233624Y-57377812D01*
X176199000Y-57203741D01*
X176199000Y-57026259D01*
X176233624Y-56852188D01*
X176301544Y-56688216D01*
X176400147Y-56540646D01*
X176525646Y-56415147D01*
X176673216Y-56316544D01*
X176837188Y-56248624D01*
X176986488Y-56218927D01*
X177011258Y-56214000D01*
X177188742Y-56214000D01*
X177213512Y-56218927D01*
G37*
G36*
X174673512Y-56218927D02*
G01*
X174822812Y-56248624D01*
X174986784Y-56316544D01*
X175134354Y-56415147D01*
X175259853Y-56540646D01*
X175358456Y-56688216D01*
X175426376Y-56852188D01*
X175461000Y-57026259D01*
X175461000Y-57203741D01*
X175426376Y-57377812D01*
X175358456Y-57541784D01*
X175259853Y-57689354D01*
X175134354Y-57814853D01*
X174986784Y-57913456D01*
X174822812Y-57981376D01*
X174673512Y-58011073D01*
X174648742Y-58016000D01*
X174471258Y-58016000D01*
X174446488Y-58011073D01*
X174297188Y-57981376D01*
X174133216Y-57913456D01*
X173985646Y-57814853D01*
X173860147Y-57689354D01*
X173761544Y-57541784D01*
X173693624Y-57377812D01*
X173659000Y-57203741D01*
X173659000Y-57026259D01*
X173693624Y-56852188D01*
X173761544Y-56688216D01*
X173860147Y-56540646D01*
X173985646Y-56415147D01*
X174133216Y-56316544D01*
X174297188Y-56248624D01*
X174446488Y-56218927D01*
X174471258Y-56214000D01*
X174648742Y-56214000D01*
X174673512Y-56218927D01*
G37*
G36*
X172133512Y-56218927D02*
G01*
X172282812Y-56248624D01*
X172446784Y-56316544D01*
X172594354Y-56415147D01*
X172719853Y-56540646D01*
X172818456Y-56688216D01*
X172886376Y-56852188D01*
X172921000Y-57026259D01*
X172921000Y-57203741D01*
X172886376Y-57377812D01*
X172818456Y-57541784D01*
X172719853Y-57689354D01*
X172594354Y-57814853D01*
X172446784Y-57913456D01*
X172282812Y-57981376D01*
X172133512Y-58011073D01*
X172108742Y-58016000D01*
X171931258Y-58016000D01*
X171906488Y-58011073D01*
X171757188Y-57981376D01*
X171593216Y-57913456D01*
X171445646Y-57814853D01*
X171320147Y-57689354D01*
X171221544Y-57541784D01*
X171153624Y-57377812D01*
X171119000Y-57203741D01*
X171119000Y-57026259D01*
X171153624Y-56852188D01*
X171221544Y-56688216D01*
X171320147Y-56540646D01*
X171445646Y-56415147D01*
X171593216Y-56316544D01*
X171757188Y-56248624D01*
X171906488Y-56218927D01*
X171931258Y-56214000D01*
X172108742Y-56214000D01*
X172133512Y-56218927D01*
G37*
G36*
X169593512Y-56218927D02*
G01*
X169742812Y-56248624D01*
X169906784Y-56316544D01*
X170054354Y-56415147D01*
X170179853Y-56540646D01*
X170278456Y-56688216D01*
X170346376Y-56852188D01*
X170381000Y-57026259D01*
X170381000Y-57203741D01*
X170346376Y-57377812D01*
X170278456Y-57541784D01*
X170179853Y-57689354D01*
X170054354Y-57814853D01*
X169906784Y-57913456D01*
X169742812Y-57981376D01*
X169593512Y-58011073D01*
X169568742Y-58016000D01*
X169391258Y-58016000D01*
X169366488Y-58011073D01*
X169217188Y-57981376D01*
X169053216Y-57913456D01*
X168905646Y-57814853D01*
X168780147Y-57689354D01*
X168681544Y-57541784D01*
X168613624Y-57377812D01*
X168579000Y-57203741D01*
X168579000Y-57026259D01*
X168613624Y-56852188D01*
X168681544Y-56688216D01*
X168780147Y-56540646D01*
X168905646Y-56415147D01*
X169053216Y-56316544D01*
X169217188Y-56248624D01*
X169366488Y-56218927D01*
X169391258Y-56214000D01*
X169568742Y-56214000D01*
X169593512Y-56218927D01*
G37*
G36*
X156893512Y-56218927D02*
G01*
X157042812Y-56248624D01*
X157206784Y-56316544D01*
X157354354Y-56415147D01*
X157479853Y-56540646D01*
X157578456Y-56688216D01*
X157646376Y-56852188D01*
X157681000Y-57026259D01*
X157681000Y-57203741D01*
X157646376Y-57377812D01*
X157578456Y-57541784D01*
X157479853Y-57689354D01*
X157354354Y-57814853D01*
X157206784Y-57913456D01*
X157042812Y-57981376D01*
X156893512Y-58011073D01*
X156868742Y-58016000D01*
X156691258Y-58016000D01*
X156666488Y-58011073D01*
X156517188Y-57981376D01*
X156353216Y-57913456D01*
X156205646Y-57814853D01*
X156080147Y-57689354D01*
X155981544Y-57541784D01*
X155913624Y-57377812D01*
X155879000Y-57203741D01*
X155879000Y-57026259D01*
X155913624Y-56852188D01*
X155981544Y-56688216D01*
X156080147Y-56540646D01*
X156205646Y-56415147D01*
X156353216Y-56316544D01*
X156517188Y-56248624D01*
X156666488Y-56218927D01*
X156691258Y-56214000D01*
X156868742Y-56214000D01*
X156893512Y-56218927D01*
G37*
G36*
X167053512Y-56218927D02*
G01*
X167202812Y-56248624D01*
X167366784Y-56316544D01*
X167514354Y-56415147D01*
X167639853Y-56540646D01*
X167738456Y-56688216D01*
X167806376Y-56852188D01*
X167841000Y-57026259D01*
X167841000Y-57203741D01*
X167806376Y-57377812D01*
X167738456Y-57541784D01*
X167639853Y-57689354D01*
X167514354Y-57814853D01*
X167366784Y-57913456D01*
X167202812Y-57981376D01*
X167053512Y-58011073D01*
X167028742Y-58016000D01*
X166851258Y-58016000D01*
X166826488Y-58011073D01*
X166677188Y-57981376D01*
X166513216Y-57913456D01*
X166365646Y-57814853D01*
X166240147Y-57689354D01*
X166141544Y-57541784D01*
X166073624Y-57377812D01*
X166039000Y-57203741D01*
X166039000Y-57026259D01*
X166073624Y-56852188D01*
X166141544Y-56688216D01*
X166240147Y-56540646D01*
X166365646Y-56415147D01*
X166513216Y-56316544D01*
X166677188Y-56248624D01*
X166826488Y-56218927D01*
X166851258Y-56214000D01*
X167028742Y-56214000D01*
X167053512Y-56218927D01*
G37*
G36*
X164513512Y-56218927D02*
G01*
X164662812Y-56248624D01*
X164826784Y-56316544D01*
X164974354Y-56415147D01*
X165099853Y-56540646D01*
X165198456Y-56688216D01*
X165266376Y-56852188D01*
X165301000Y-57026259D01*
X165301000Y-57203741D01*
X165266376Y-57377812D01*
X165198456Y-57541784D01*
X165099853Y-57689354D01*
X164974354Y-57814853D01*
X164826784Y-57913456D01*
X164662812Y-57981376D01*
X164513512Y-58011073D01*
X164488742Y-58016000D01*
X164311258Y-58016000D01*
X164286488Y-58011073D01*
X164137188Y-57981376D01*
X163973216Y-57913456D01*
X163825646Y-57814853D01*
X163700147Y-57689354D01*
X163601544Y-57541784D01*
X163533624Y-57377812D01*
X163499000Y-57203741D01*
X163499000Y-57026259D01*
X163533624Y-56852188D01*
X163601544Y-56688216D01*
X163700147Y-56540646D01*
X163825646Y-56415147D01*
X163973216Y-56316544D01*
X164137188Y-56248624D01*
X164286488Y-56218927D01*
X164311258Y-56214000D01*
X164488742Y-56214000D01*
X164513512Y-56218927D01*
G37*
G36*
X149273512Y-56218927D02*
G01*
X149422812Y-56248624D01*
X149586784Y-56316544D01*
X149734354Y-56415147D01*
X149859853Y-56540646D01*
X149958456Y-56688216D01*
X150026376Y-56852188D01*
X150061000Y-57026259D01*
X150061000Y-57203741D01*
X150026376Y-57377812D01*
X149958456Y-57541784D01*
X149859853Y-57689354D01*
X149734354Y-57814853D01*
X149586784Y-57913456D01*
X149422812Y-57981376D01*
X149273512Y-58011073D01*
X149248742Y-58016000D01*
X149071258Y-58016000D01*
X149046488Y-58011073D01*
X148897188Y-57981376D01*
X148733216Y-57913456D01*
X148585646Y-57814853D01*
X148460147Y-57689354D01*
X148361544Y-57541784D01*
X148293624Y-57377812D01*
X148259000Y-57203741D01*
X148259000Y-57026259D01*
X148293624Y-56852188D01*
X148361544Y-56688216D01*
X148460147Y-56540646D01*
X148585646Y-56415147D01*
X148733216Y-56316544D01*
X148897188Y-56248624D01*
X149046488Y-56218927D01*
X149071258Y-56214000D01*
X149248742Y-56214000D01*
X149273512Y-56218927D01*
G37*
G36*
X151813512Y-56218927D02*
G01*
X151962812Y-56248624D01*
X152126784Y-56316544D01*
X152274354Y-56415147D01*
X152399853Y-56540646D01*
X152498456Y-56688216D01*
X152566376Y-56852188D01*
X152601000Y-57026259D01*
X152601000Y-57203741D01*
X152566376Y-57377812D01*
X152498456Y-57541784D01*
X152399853Y-57689354D01*
X152274354Y-57814853D01*
X152126784Y-57913456D01*
X151962812Y-57981376D01*
X151813512Y-58011073D01*
X151788742Y-58016000D01*
X151611258Y-58016000D01*
X151586488Y-58011073D01*
X151437188Y-57981376D01*
X151273216Y-57913456D01*
X151125646Y-57814853D01*
X151000147Y-57689354D01*
X150901544Y-57541784D01*
X150833624Y-57377812D01*
X150799000Y-57203741D01*
X150799000Y-57026259D01*
X150833624Y-56852188D01*
X150901544Y-56688216D01*
X151000147Y-56540646D01*
X151125646Y-56415147D01*
X151273216Y-56316544D01*
X151437188Y-56248624D01*
X151586488Y-56218927D01*
X151611258Y-56214000D01*
X151788742Y-56214000D01*
X151813512Y-56218927D01*
G37*
G36*
X183226000Y-54421000D02*
G01*
X180724000Y-54421000D01*
X180724000Y-51919000D01*
X183226000Y-51919000D01*
X183226000Y-54421000D01*
G37*
G36*
X171687724Y-51486497D02*
G01*
X171914906Y-51531686D01*
X172164412Y-51635035D01*
X172388962Y-51785075D01*
X172579925Y-51976038D01*
X172729965Y-52200588D01*
X172833314Y-52450094D01*
X172886000Y-52714968D01*
X172886000Y-52985032D01*
X172833314Y-53249906D01*
X172729965Y-53499412D01*
X172579925Y-53723962D01*
X172388962Y-53914925D01*
X172164412Y-54064965D01*
X171914906Y-54168314D01*
X171687724Y-54213503D01*
X171650033Y-54221000D01*
X171379967Y-54221000D01*
X171342276Y-54213503D01*
X171115094Y-54168314D01*
X170865588Y-54064965D01*
X170641038Y-53914925D01*
X170450075Y-53723962D01*
X170300035Y-53499412D01*
X170196686Y-53249906D01*
X170144000Y-52985032D01*
X170144000Y-52714968D01*
X170196686Y-52450094D01*
X170300035Y-52200588D01*
X170450075Y-51976038D01*
X170641038Y-51785075D01*
X170865588Y-51635035D01*
X171115094Y-51531686D01*
X171342276Y-51486497D01*
X171379967Y-51479000D01*
X171650033Y-51479000D01*
X171687724Y-51486497D01*
G37*
G36*
X182339903Y-48467075D02*
G01*
X182567571Y-48561378D01*
X182772466Y-48698285D01*
X182946715Y-48872534D01*
X183083622Y-49077429D01*
X183177925Y-49305097D01*
X183226000Y-49546787D01*
X183226000Y-49793213D01*
X183177925Y-50034903D01*
X183083622Y-50262571D01*
X182946715Y-50467466D01*
X182772466Y-50641715D01*
X182567571Y-50778622D01*
X182567570Y-50778623D01*
X182567569Y-50778623D01*
X182339903Y-50872925D01*
X182098214Y-50921000D01*
X181851786Y-50921000D01*
X181610097Y-50872925D01*
X181382431Y-50778623D01*
X181382430Y-50778623D01*
X181382429Y-50778622D01*
X181177534Y-50641715D01*
X181003285Y-50467466D01*
X180866378Y-50262571D01*
X180772075Y-50034903D01*
X180724000Y-49793213D01*
X180724000Y-49546787D01*
X180772075Y-49305097D01*
X180866378Y-49077429D01*
X181003285Y-48872534D01*
X181177534Y-48698285D01*
X181382429Y-48561378D01*
X181610097Y-48467075D01*
X181851786Y-48419000D01*
X182098214Y-48419000D01*
X182339903Y-48467075D01*
G37*
G36*
X115683512Y-48633927D02*
G01*
X115832812Y-48663624D01*
X115996784Y-48731544D01*
X116144354Y-48830147D01*
X116269853Y-48955646D01*
X116368456Y-49103216D01*
X116436376Y-49267188D01*
X116471000Y-49441259D01*
X116471000Y-49618741D01*
X116436376Y-49792812D01*
X116368456Y-49956784D01*
X116269853Y-50104354D01*
X116144354Y-50229853D01*
X115996784Y-50328456D01*
X115832812Y-50396376D01*
X115683512Y-50426073D01*
X115658742Y-50431000D01*
X115481258Y-50431000D01*
X115456488Y-50426073D01*
X115307188Y-50396376D01*
X115143216Y-50328456D01*
X114995646Y-50229853D01*
X114870147Y-50104354D01*
X114771544Y-49956784D01*
X114703624Y-49792812D01*
X114669000Y-49618741D01*
X114669000Y-49441259D01*
X114703624Y-49267188D01*
X114771544Y-49103216D01*
X114870147Y-48955646D01*
X114995646Y-48830147D01*
X115143216Y-48731544D01*
X115307188Y-48663624D01*
X115456488Y-48633927D01*
X115481258Y-48629000D01*
X115658742Y-48629000D01*
X115683512Y-48633927D01*
G37*
G36*
X174581564Y-45844389D02*
G01*
X174772833Y-45923615D01*
X174772835Y-45923616D01*
X174944973Y-46038635D01*
X175091365Y-46185027D01*
X175163653Y-46293213D01*
X175206385Y-46357167D01*
X175285611Y-46548436D01*
X175326000Y-46751484D01*
X175326000Y-46958516D01*
X175285611Y-47161564D01*
X175206385Y-47352833D01*
X175206384Y-47352835D01*
X175091365Y-47524973D01*
X174944973Y-47671365D01*
X174772835Y-47786384D01*
X174772834Y-47786385D01*
X174772833Y-47786385D01*
X174581564Y-47865611D01*
X174378516Y-47906000D01*
X174171484Y-47906000D01*
X173968436Y-47865611D01*
X173777167Y-47786385D01*
X173777166Y-47786385D01*
X173777165Y-47786384D01*
X173605027Y-47671365D01*
X173458635Y-47524973D01*
X173343616Y-47352835D01*
X173343615Y-47352833D01*
X173264389Y-47161564D01*
X173224000Y-46958516D01*
X173224000Y-46751484D01*
X173264389Y-46548436D01*
X173343615Y-46357167D01*
X173386348Y-46293213D01*
X173458635Y-46185027D01*
X173605027Y-46038635D01*
X173777165Y-45923616D01*
X173777167Y-45923615D01*
X173968436Y-45844389D01*
X174171484Y-45804000D01*
X174378516Y-45804000D01*
X174581564Y-45844389D01*
G37*
G36*
X122591564Y-45844389D02*
G01*
X122782833Y-45923615D01*
X122782835Y-45923616D01*
X122954973Y-46038635D01*
X123101365Y-46185027D01*
X123173653Y-46293213D01*
X123216385Y-46357167D01*
X123295611Y-46548436D01*
X123336000Y-46751484D01*
X123336000Y-46958516D01*
X123295611Y-47161564D01*
X123216385Y-47352833D01*
X123216384Y-47352835D01*
X123101365Y-47524973D01*
X122954973Y-47671365D01*
X122782835Y-47786384D01*
X122782834Y-47786385D01*
X122782833Y-47786385D01*
X122591564Y-47865611D01*
X122388516Y-47906000D01*
X122181484Y-47906000D01*
X121978436Y-47865611D01*
X121787167Y-47786385D01*
X121787166Y-47786385D01*
X121787165Y-47786384D01*
X121615027Y-47671365D01*
X121468635Y-47524973D01*
X121353616Y-47352835D01*
X121353615Y-47352833D01*
X121274389Y-47161564D01*
X121234000Y-46958516D01*
X121234000Y-46751484D01*
X121274389Y-46548436D01*
X121353615Y-46357167D01*
X121396348Y-46293213D01*
X121468635Y-46185027D01*
X121615027Y-46038635D01*
X121787165Y-45923616D01*
X121787167Y-45923615D01*
X121978436Y-45844389D01*
X122181484Y-45804000D01*
X122388516Y-45804000D01*
X122591564Y-45844389D01*
G37*
G36*
X182339903Y-44967075D02*
G01*
X182567571Y-45061378D01*
X182772466Y-45198285D01*
X182946715Y-45372534D01*
X182946716Y-45372536D01*
X183083623Y-45577431D01*
X183177925Y-45805097D01*
X183226000Y-46046786D01*
X183226000Y-46293214D01*
X183177925Y-46534903D01*
X183088215Y-46751484D01*
X183083622Y-46762571D01*
X182946715Y-46967466D01*
X182772466Y-47141715D01*
X182567571Y-47278622D01*
X182567570Y-47278623D01*
X182567569Y-47278623D01*
X182339903Y-47372925D01*
X182098214Y-47421000D01*
X181851786Y-47421000D01*
X181610097Y-47372925D01*
X181382431Y-47278623D01*
X181382430Y-47278623D01*
X181382429Y-47278622D01*
X181177534Y-47141715D01*
X181003285Y-46967466D01*
X180866378Y-46762571D01*
X180861786Y-46751484D01*
X180772075Y-46534903D01*
X180724000Y-46293214D01*
X180724000Y-46046786D01*
X180772075Y-45805097D01*
X180866377Y-45577431D01*
X181003284Y-45372536D01*
X181003285Y-45372534D01*
X181177534Y-45198285D01*
X181382429Y-45061378D01*
X181610097Y-44967075D01*
X181851786Y-44919000D01*
X182098214Y-44919000D01*
X182339903Y-44967075D01*
G37*
G36*
X174867585Y-40748802D02*
G01*
X175017410Y-40778604D01*
X175299674Y-40895521D01*
X175553705Y-41065259D01*
X175769741Y-41281295D01*
X175939479Y-41535326D01*
X176056396Y-41817590D01*
X176116000Y-42117240D01*
X176116000Y-42422760D01*
X176056396Y-42722410D01*
X175939479Y-43004674D01*
X175769741Y-43258705D01*
X175553705Y-43474741D01*
X175299674Y-43644479D01*
X175017410Y-43761396D01*
X174867585Y-43791198D01*
X174717761Y-43821000D01*
X174412239Y-43821000D01*
X174262415Y-43791198D01*
X174112590Y-43761396D01*
X173830326Y-43644479D01*
X173576295Y-43474741D01*
X173360259Y-43258705D01*
X173190521Y-43004674D01*
X173073604Y-42722410D01*
X173014000Y-42422760D01*
X173014000Y-42117240D01*
X173073604Y-41817590D01*
X173190521Y-41535326D01*
X173360259Y-41281295D01*
X173576295Y-41065259D01*
X173830326Y-40895521D01*
X174112590Y-40778604D01*
X174262415Y-40748802D01*
X174412239Y-40719000D01*
X174717761Y-40719000D01*
X174867585Y-40748802D01*
G37*
G36*
X125207724Y-39496497D02*
G01*
X125434906Y-39541686D01*
X125684412Y-39645035D01*
X125908962Y-39795075D01*
X126099925Y-39986038D01*
X126249965Y-40210588D01*
X126353314Y-40460094D01*
X126406000Y-40724968D01*
X126406000Y-40995032D01*
X126353314Y-41259906D01*
X126249965Y-41509412D01*
X126099925Y-41733962D01*
X125908962Y-41924925D01*
X125684412Y-42074965D01*
X125434906Y-42178314D01*
X125207724Y-42223503D01*
X125170033Y-42231000D01*
X124899967Y-42231000D01*
X124862276Y-42223503D01*
X124635094Y-42178314D01*
X124385588Y-42074965D01*
X124161038Y-41924925D01*
X123970075Y-41733962D01*
X123820035Y-41509412D01*
X123716686Y-41259906D01*
X123664000Y-40995032D01*
X123664000Y-40724968D01*
X123716686Y-40460094D01*
X123820035Y-40210588D01*
X123970075Y-39986038D01*
X124161038Y-39795075D01*
X124385588Y-39645035D01*
X124635094Y-39541686D01*
X124862276Y-39496497D01*
X124899967Y-39489000D01*
X125170033Y-39489000D01*
X125207724Y-39496497D01*
G37*
M02*
