G04 #@! TF.GenerationSoftware,KiCad,Pcbnew,5.1.5-52549c5~86~ubuntu18.04.1*
G04 #@! TF.CreationDate,2020-08-18T00:02:30-05:00*
G04 #@! TF.ProjectId,,58585858-5858-4585-9858-585858585858,rev?*
G04 #@! TF.SameCoordinates,Original*
G04 #@! TF.FileFunction,Copper,L2,Bot*
G04 #@! TF.FilePolarity,Positive*
%FSLAX46Y46*%
G04 Gerber Fmt 4.6, Leading zero omitted, Abs format (unit mm)*
G04 Created by KiCad (PCBNEW 5.1.5-52549c5~86~ubuntu18.04.1) date 2020-08-18 00:02:30*
%MOMM*%
%LPD*%
G04 APERTURE LIST*
%ADD10R,2.400000X2.400000*%
%ADD11C,2.400000*%
%ADD12C,2.000000*%
%ADD13R,2.000000X1.200000*%
%ADD14R,1.200000X2.000000*%
%ADD15C,0.100000*%
%ADD16R,1.500000X1.000000*%
%ADD17C,1.700000*%
%ADD18O,1.700000X1.700000*%
%ADD19R,2.200000X1.050000*%
%ADD20R,1.050000X1.000000*%
%ADD21R,1.000000X1.500000*%
%ADD22C,0.800000*%
%ADD23C,0.500000*%
%ADD24C,0.250000*%
G04 APERTURE END LIST*
D10*
X181975000Y-102170000D03*
D11*
X181975000Y-98670000D03*
X181975000Y-95170000D03*
D12*
X174275000Y-95855000D03*
X122285000Y-95855000D03*
X122365000Y-126685000D03*
X174355000Y-126685000D03*
D13*
X124505000Y-106730000D03*
X124505000Y-108530000D03*
X124505000Y-115730000D03*
X124505000Y-113930000D03*
D14*
X126255000Y-117980000D03*
X128055000Y-117980000D03*
X129855000Y-117980000D03*
X131655000Y-117980000D03*
X133455000Y-117980000D03*
X137055000Y-117980000D03*
X138855000Y-117980000D03*
X140655000Y-117980000D03*
X142455000Y-117980000D03*
X144255000Y-117980000D03*
D13*
X146005000Y-115730000D03*
X146005000Y-113930000D03*
X146005000Y-106730000D03*
X146005000Y-108530000D03*
D14*
X144255000Y-104480000D03*
X142455000Y-104480000D03*
X140655000Y-104480000D03*
X138855000Y-104480000D03*
X137055000Y-104480000D03*
X126255000Y-104480000D03*
X128055000Y-104480000D03*
X129855000Y-104480000D03*
X131655000Y-104480000D03*
X133455000Y-104480000D03*
D13*
X146005000Y-112130000D03*
X146005000Y-110330000D03*
X124505000Y-110330000D03*
X124505000Y-112130000D03*
D14*
X135255000Y-117980000D03*
X135255000Y-104480000D03*
G04 #@! TA.AperFunction,SMDPad,CuDef*
D15*
G36*
X118630000Y-104765000D02*
G01*
X118630000Y-104215000D01*
X118630602Y-104215000D01*
X118630602Y-104190466D01*
X118635412Y-104141635D01*
X118644984Y-104093510D01*
X118659228Y-104046555D01*
X118678005Y-104001222D01*
X118701136Y-103957949D01*
X118728396Y-103917150D01*
X118759524Y-103879221D01*
X118794221Y-103844524D01*
X118832150Y-103813396D01*
X118872949Y-103786136D01*
X118916222Y-103763005D01*
X118961555Y-103744228D01*
X119008510Y-103729984D01*
X119056635Y-103720412D01*
X119105466Y-103715602D01*
X119130000Y-103715602D01*
X119130000Y-103715000D01*
X119630000Y-103715000D01*
X119630000Y-103715602D01*
X119654534Y-103715602D01*
X119703365Y-103720412D01*
X119751490Y-103729984D01*
X119798445Y-103744228D01*
X119843778Y-103763005D01*
X119887051Y-103786136D01*
X119927850Y-103813396D01*
X119965779Y-103844524D01*
X120000476Y-103879221D01*
X120031604Y-103917150D01*
X120058864Y-103957949D01*
X120081995Y-104001222D01*
X120100772Y-104046555D01*
X120115016Y-104093510D01*
X120124588Y-104141635D01*
X120129398Y-104190466D01*
X120129398Y-104215000D01*
X120130000Y-104215000D01*
X120130000Y-104765000D01*
X118630000Y-104765000D01*
G37*
G04 #@! TD.AperFunction*
G04 #@! TA.AperFunction,SMDPad,CuDef*
G36*
X120129398Y-106815000D02*
G01*
X120129398Y-106839534D01*
X120124588Y-106888365D01*
X120115016Y-106936490D01*
X120100772Y-106983445D01*
X120081995Y-107028778D01*
X120058864Y-107072051D01*
X120031604Y-107112850D01*
X120000476Y-107150779D01*
X119965779Y-107185476D01*
X119927850Y-107216604D01*
X119887051Y-107243864D01*
X119843778Y-107266995D01*
X119798445Y-107285772D01*
X119751490Y-107300016D01*
X119703365Y-107309588D01*
X119654534Y-107314398D01*
X119630000Y-107314398D01*
X119630000Y-107315000D01*
X119130000Y-107315000D01*
X119130000Y-107314398D01*
X119105466Y-107314398D01*
X119056635Y-107309588D01*
X119008510Y-107300016D01*
X118961555Y-107285772D01*
X118916222Y-107266995D01*
X118872949Y-107243864D01*
X118832150Y-107216604D01*
X118794221Y-107185476D01*
X118759524Y-107150779D01*
X118728396Y-107112850D01*
X118701136Y-107072051D01*
X118678005Y-107028778D01*
X118659228Y-106983445D01*
X118644984Y-106936490D01*
X118635412Y-106888365D01*
X118630602Y-106839534D01*
X118630602Y-106815000D01*
X118630000Y-106815000D01*
X118630000Y-106265000D01*
X120130000Y-106265000D01*
X120130000Y-106815000D01*
X120129398Y-106815000D01*
G37*
G04 #@! TD.AperFunction*
D16*
X119380000Y-105515000D03*
D10*
X181975000Y-127105000D03*
D11*
X181975000Y-123605000D03*
X181975000Y-120105000D03*
D17*
X149160000Y-116275000D03*
D18*
X151700000Y-116275000D03*
X154240000Y-116275000D03*
X156780000Y-116275000D03*
X159320000Y-116275000D03*
X161860000Y-116275000D03*
X164400000Y-116275000D03*
X166940000Y-116275000D03*
X169480000Y-116275000D03*
X172020000Y-116275000D03*
X174560000Y-116275000D03*
D17*
X174560000Y-106115000D03*
D18*
X172020000Y-106115000D03*
X169480000Y-106115000D03*
X166940000Y-106115000D03*
X164400000Y-106115000D03*
X161860000Y-106115000D03*
X159320000Y-106115000D03*
X156780000Y-106115000D03*
X154240000Y-106115000D03*
X151700000Y-106115000D03*
X149160000Y-106115000D03*
D17*
X174560000Y-113735000D03*
D18*
X174560000Y-111195000D03*
X174560000Y-108655000D03*
D19*
X113825000Y-106355000D03*
D20*
X115350000Y-104880000D03*
D19*
X113825000Y-103405000D03*
G04 #@! TA.AperFunction,SMDPad,CuDef*
D15*
G36*
X143395000Y-90390000D02*
G01*
X142845000Y-90390000D01*
X142845000Y-90389398D01*
X142820466Y-90389398D01*
X142771635Y-90384588D01*
X142723510Y-90375016D01*
X142676555Y-90360772D01*
X142631222Y-90341995D01*
X142587949Y-90318864D01*
X142547150Y-90291604D01*
X142509221Y-90260476D01*
X142474524Y-90225779D01*
X142443396Y-90187850D01*
X142416136Y-90147051D01*
X142393005Y-90103778D01*
X142374228Y-90058445D01*
X142359984Y-90011490D01*
X142350412Y-89963365D01*
X142345602Y-89914534D01*
X142345602Y-89890000D01*
X142345000Y-89890000D01*
X142345000Y-89390000D01*
X142345602Y-89390000D01*
X142345602Y-89365466D01*
X142350412Y-89316635D01*
X142359984Y-89268510D01*
X142374228Y-89221555D01*
X142393005Y-89176222D01*
X142416136Y-89132949D01*
X142443396Y-89092150D01*
X142474524Y-89054221D01*
X142509221Y-89019524D01*
X142547150Y-88988396D01*
X142587949Y-88961136D01*
X142631222Y-88938005D01*
X142676555Y-88919228D01*
X142723510Y-88904984D01*
X142771635Y-88895412D01*
X142820466Y-88890602D01*
X142845000Y-88890602D01*
X142845000Y-88890000D01*
X143395000Y-88890000D01*
X143395000Y-90390000D01*
G37*
G04 #@! TD.AperFunction*
G04 #@! TA.AperFunction,SMDPad,CuDef*
G36*
X145445000Y-88890602D02*
G01*
X145469534Y-88890602D01*
X145518365Y-88895412D01*
X145566490Y-88904984D01*
X145613445Y-88919228D01*
X145658778Y-88938005D01*
X145702051Y-88961136D01*
X145742850Y-88988396D01*
X145780779Y-89019524D01*
X145815476Y-89054221D01*
X145846604Y-89092150D01*
X145873864Y-89132949D01*
X145896995Y-89176222D01*
X145915772Y-89221555D01*
X145930016Y-89268510D01*
X145939588Y-89316635D01*
X145944398Y-89365466D01*
X145944398Y-89390000D01*
X145945000Y-89390000D01*
X145945000Y-89890000D01*
X145944398Y-89890000D01*
X145944398Y-89914534D01*
X145939588Y-89963365D01*
X145930016Y-90011490D01*
X145915772Y-90058445D01*
X145896995Y-90103778D01*
X145873864Y-90147051D01*
X145846604Y-90187850D01*
X145815476Y-90225779D01*
X145780779Y-90260476D01*
X145742850Y-90291604D01*
X145702051Y-90318864D01*
X145658778Y-90341995D01*
X145613445Y-90360772D01*
X145566490Y-90375016D01*
X145518365Y-90384588D01*
X145469534Y-90389398D01*
X145445000Y-90389398D01*
X145445000Y-90390000D01*
X144895000Y-90390000D01*
X144895000Y-88890000D01*
X145445000Y-88890000D01*
X145445000Y-88890602D01*
G37*
G04 #@! TD.AperFunction*
D21*
X144145000Y-89640000D03*
D17*
X149160000Y-113735000D03*
D18*
X149160000Y-111195000D03*
X149160000Y-108655000D03*
D17*
X151700000Y-108655000D03*
D18*
X154240000Y-108655000D03*
X156780000Y-108655000D03*
X159320000Y-108655000D03*
X161860000Y-108655000D03*
X164400000Y-108655000D03*
X166940000Y-108655000D03*
X169480000Y-108655000D03*
X172020000Y-108655000D03*
D17*
X151700000Y-111195000D03*
D18*
X154240000Y-111195000D03*
X156780000Y-111195000D03*
X159320000Y-111195000D03*
X161860000Y-111195000D03*
X164400000Y-111195000D03*
X166940000Y-111195000D03*
X169480000Y-111195000D03*
X172020000Y-111195000D03*
D17*
X177100000Y-106115000D03*
X151700000Y-113735000D03*
D18*
X154240000Y-113735000D03*
X156780000Y-113735000D03*
X159320000Y-113735000D03*
X161860000Y-113735000D03*
X164400000Y-113735000D03*
X166940000Y-113735000D03*
X169480000Y-113735000D03*
X172020000Y-113735000D03*
D17*
X115570000Y-98530000D03*
D18*
X172020000Y-59655000D03*
X169480000Y-59655000D03*
X166940000Y-59655000D03*
X164400000Y-59655000D03*
X161860000Y-59655000D03*
X159320000Y-59655000D03*
X156780000Y-59655000D03*
X154240000Y-59655000D03*
D17*
X151700000Y-59655000D03*
D18*
X172020000Y-62195000D03*
X169480000Y-62195000D03*
X166940000Y-62195000D03*
X164400000Y-62195000D03*
X161860000Y-62195000D03*
X159320000Y-62195000D03*
X156780000Y-62195000D03*
X154240000Y-62195000D03*
D17*
X151700000Y-62195000D03*
D18*
X172020000Y-64735000D03*
X169480000Y-64735000D03*
X166940000Y-64735000D03*
X164400000Y-64735000D03*
X161860000Y-64735000D03*
X159320000Y-64735000D03*
X156780000Y-64735000D03*
X154240000Y-64735000D03*
D17*
X151700000Y-64735000D03*
X115570000Y-49530000D03*
X177100000Y-57115000D03*
D11*
X181975000Y-46170000D03*
X181975000Y-49670000D03*
D10*
X181975000Y-53170000D03*
D18*
X149160000Y-57115000D03*
X151700000Y-57115000D03*
X154240000Y-57115000D03*
X156780000Y-57115000D03*
X159320000Y-57115000D03*
X161860000Y-57115000D03*
X164400000Y-57115000D03*
X166940000Y-57115000D03*
X169480000Y-57115000D03*
X172020000Y-57115000D03*
D17*
X174560000Y-57115000D03*
D18*
X174560000Y-67275000D03*
X172020000Y-67275000D03*
X169480000Y-67275000D03*
X166940000Y-67275000D03*
X164400000Y-67275000D03*
X161860000Y-67275000D03*
X159320000Y-67275000D03*
X156780000Y-67275000D03*
X154240000Y-67275000D03*
X151700000Y-67275000D03*
D17*
X149160000Y-67275000D03*
D18*
X149160000Y-59655000D03*
X149160000Y-62195000D03*
D17*
X149160000Y-64735000D03*
D18*
X174560000Y-59655000D03*
X174560000Y-62195000D03*
D17*
X174560000Y-64735000D03*
D12*
X122285000Y-46855000D03*
X174275000Y-46855000D03*
D16*
X119380000Y-56515000D03*
G04 #@! TA.AperFunction,SMDPad,CuDef*
D15*
G36*
X120129398Y-57815000D02*
G01*
X120129398Y-57839534D01*
X120124588Y-57888365D01*
X120115016Y-57936490D01*
X120100772Y-57983445D01*
X120081995Y-58028778D01*
X120058864Y-58072051D01*
X120031604Y-58112850D01*
X120000476Y-58150779D01*
X119965779Y-58185476D01*
X119927850Y-58216604D01*
X119887051Y-58243864D01*
X119843778Y-58266995D01*
X119798445Y-58285772D01*
X119751490Y-58300016D01*
X119703365Y-58309588D01*
X119654534Y-58314398D01*
X119630000Y-58314398D01*
X119630000Y-58315000D01*
X119130000Y-58315000D01*
X119130000Y-58314398D01*
X119105466Y-58314398D01*
X119056635Y-58309588D01*
X119008510Y-58300016D01*
X118961555Y-58285772D01*
X118916222Y-58266995D01*
X118872949Y-58243864D01*
X118832150Y-58216604D01*
X118794221Y-58185476D01*
X118759524Y-58150779D01*
X118728396Y-58112850D01*
X118701136Y-58072051D01*
X118678005Y-58028778D01*
X118659228Y-57983445D01*
X118644984Y-57936490D01*
X118635412Y-57888365D01*
X118630602Y-57839534D01*
X118630602Y-57815000D01*
X118630000Y-57815000D01*
X118630000Y-57265000D01*
X120130000Y-57265000D01*
X120130000Y-57815000D01*
X120129398Y-57815000D01*
G37*
G04 #@! TD.AperFunction*
G04 #@! TA.AperFunction,SMDPad,CuDef*
G36*
X118630000Y-55765000D02*
G01*
X118630000Y-55215000D01*
X118630602Y-55215000D01*
X118630602Y-55190466D01*
X118635412Y-55141635D01*
X118644984Y-55093510D01*
X118659228Y-55046555D01*
X118678005Y-55001222D01*
X118701136Y-54957949D01*
X118728396Y-54917150D01*
X118759524Y-54879221D01*
X118794221Y-54844524D01*
X118832150Y-54813396D01*
X118872949Y-54786136D01*
X118916222Y-54763005D01*
X118961555Y-54744228D01*
X119008510Y-54729984D01*
X119056635Y-54720412D01*
X119105466Y-54715602D01*
X119130000Y-54715602D01*
X119130000Y-54715000D01*
X119630000Y-54715000D01*
X119630000Y-54715602D01*
X119654534Y-54715602D01*
X119703365Y-54720412D01*
X119751490Y-54729984D01*
X119798445Y-54744228D01*
X119843778Y-54763005D01*
X119887051Y-54786136D01*
X119927850Y-54813396D01*
X119965779Y-54844524D01*
X120000476Y-54879221D01*
X120031604Y-54917150D01*
X120058864Y-54957949D01*
X120081995Y-55001222D01*
X120100772Y-55046555D01*
X120115016Y-55093510D01*
X120124588Y-55141635D01*
X120129398Y-55190466D01*
X120129398Y-55215000D01*
X120130000Y-55215000D01*
X120130000Y-55765000D01*
X118630000Y-55765000D01*
G37*
G04 #@! TD.AperFunction*
D19*
X113825000Y-54405000D03*
D20*
X115350000Y-55880000D03*
D19*
X113825000Y-57355000D03*
D14*
X135255000Y-55480000D03*
X135255000Y-68980000D03*
D13*
X124505000Y-63130000D03*
X124505000Y-61330000D03*
X146005000Y-61330000D03*
X146005000Y-63130000D03*
D14*
X133455000Y-55480000D03*
X131655000Y-55480000D03*
X129855000Y-55480000D03*
X128055000Y-55480000D03*
X126255000Y-55480000D03*
X137055000Y-55480000D03*
X138855000Y-55480000D03*
X140655000Y-55480000D03*
X142455000Y-55480000D03*
X144255000Y-55480000D03*
D13*
X146005000Y-59530000D03*
X146005000Y-57730000D03*
X146005000Y-64930000D03*
X146005000Y-66730000D03*
D14*
X144255000Y-68980000D03*
X142455000Y-68980000D03*
X140655000Y-68980000D03*
X138855000Y-68980000D03*
X137055000Y-68980000D03*
X133455000Y-68980000D03*
X131655000Y-68980000D03*
X129855000Y-68980000D03*
X128055000Y-68980000D03*
X126255000Y-68980000D03*
D13*
X124505000Y-64930000D03*
X124505000Y-66730000D03*
X124505000Y-59530000D03*
X124505000Y-57730000D03*
D11*
X181975000Y-71105000D03*
X181975000Y-74605000D03*
D10*
X181975000Y-78105000D03*
D21*
X144145000Y-40640000D03*
G04 #@! TA.AperFunction,SMDPad,CuDef*
D15*
G36*
X145445000Y-39890602D02*
G01*
X145469534Y-39890602D01*
X145518365Y-39895412D01*
X145566490Y-39904984D01*
X145613445Y-39919228D01*
X145658778Y-39938005D01*
X145702051Y-39961136D01*
X145742850Y-39988396D01*
X145780779Y-40019524D01*
X145815476Y-40054221D01*
X145846604Y-40092150D01*
X145873864Y-40132949D01*
X145896995Y-40176222D01*
X145915772Y-40221555D01*
X145930016Y-40268510D01*
X145939588Y-40316635D01*
X145944398Y-40365466D01*
X145944398Y-40390000D01*
X145945000Y-40390000D01*
X145945000Y-40890000D01*
X145944398Y-40890000D01*
X145944398Y-40914534D01*
X145939588Y-40963365D01*
X145930016Y-41011490D01*
X145915772Y-41058445D01*
X145896995Y-41103778D01*
X145873864Y-41147051D01*
X145846604Y-41187850D01*
X145815476Y-41225779D01*
X145780779Y-41260476D01*
X145742850Y-41291604D01*
X145702051Y-41318864D01*
X145658778Y-41341995D01*
X145613445Y-41360772D01*
X145566490Y-41375016D01*
X145518365Y-41384588D01*
X145469534Y-41389398D01*
X145445000Y-41389398D01*
X145445000Y-41390000D01*
X144895000Y-41390000D01*
X144895000Y-39890000D01*
X145445000Y-39890000D01*
X145445000Y-39890602D01*
G37*
G04 #@! TD.AperFunction*
G04 #@! TA.AperFunction,SMDPad,CuDef*
G36*
X143395000Y-41390000D02*
G01*
X142845000Y-41390000D01*
X142845000Y-41389398D01*
X142820466Y-41389398D01*
X142771635Y-41384588D01*
X142723510Y-41375016D01*
X142676555Y-41360772D01*
X142631222Y-41341995D01*
X142587949Y-41318864D01*
X142547150Y-41291604D01*
X142509221Y-41260476D01*
X142474524Y-41225779D01*
X142443396Y-41187850D01*
X142416136Y-41147051D01*
X142393005Y-41103778D01*
X142374228Y-41058445D01*
X142359984Y-41011490D01*
X142350412Y-40963365D01*
X142345602Y-40914534D01*
X142345602Y-40890000D01*
X142345000Y-40890000D01*
X142345000Y-40390000D01*
X142345602Y-40390000D01*
X142345602Y-40365466D01*
X142350412Y-40316635D01*
X142359984Y-40268510D01*
X142374228Y-40221555D01*
X142393005Y-40176222D01*
X142416136Y-40132949D01*
X142443396Y-40092150D01*
X142474524Y-40054221D01*
X142509221Y-40019524D01*
X142547150Y-39988396D01*
X142587949Y-39961136D01*
X142631222Y-39938005D01*
X142676555Y-39919228D01*
X142723510Y-39904984D01*
X142771635Y-39895412D01*
X142820466Y-39890602D01*
X142845000Y-39890602D01*
X142845000Y-39890000D01*
X143395000Y-39890000D01*
X143395000Y-41390000D01*
G37*
G04 #@! TD.AperFunction*
D12*
X174355000Y-77685000D03*
X122365000Y-77685000D03*
D22*
X174625000Y-74295000D03*
X177800000Y-47625000D03*
X177800000Y-96625000D03*
X174625000Y-123295000D03*
X150495000Y-41275000D03*
X149224998Y-55244998D03*
X150495000Y-90275000D03*
X149224998Y-104244998D03*
X144145000Y-41694990D03*
X146685000Y-53975000D03*
X144145000Y-90694990D03*
X146685000Y-102975000D03*
D23*
X128500000Y-40640000D02*
X122285000Y-46855000D01*
X128500000Y-40640000D02*
X142845000Y-40640000D01*
X128500000Y-89640000D02*
X142845000Y-89640000D01*
X128500000Y-89640000D02*
X122285000Y-95855000D01*
X173355000Y-75565000D02*
X174625000Y-74295000D01*
X176530000Y-46355000D02*
X177800000Y-47625000D01*
X176030001Y-45855001D02*
X176530000Y-46355000D01*
X174275000Y-46855000D02*
X175274999Y-45855001D01*
X175274999Y-45855001D02*
X176030001Y-45855001D01*
X146729830Y-40640000D02*
X145445000Y-40640000D01*
X147579832Y-39789998D02*
X146729830Y-40640000D01*
X174275000Y-46855000D02*
X167209998Y-39789998D01*
X167209998Y-39789998D02*
X147579832Y-39789998D01*
X173355000Y-76685000D02*
X173355000Y-75565000D01*
X174355000Y-77685000D02*
X173355000Y-76685000D01*
X176030001Y-94855001D02*
X176530000Y-95355000D01*
X175274999Y-94855001D02*
X176030001Y-94855001D01*
X176530000Y-95355000D02*
X177800000Y-96625000D01*
X147579832Y-88789998D02*
X146729830Y-89640000D01*
X174275000Y-95855000D02*
X175274999Y-94855001D01*
X173355000Y-125685000D02*
X173355000Y-124565000D01*
X167209998Y-88789998D02*
X147579832Y-88789998D01*
X174355000Y-126685000D02*
X173355000Y-125685000D01*
X174275000Y-95855000D02*
X167209998Y-88789998D01*
X173355000Y-124565000D02*
X174625000Y-123295000D01*
X146729830Y-89640000D02*
X145445000Y-89640000D01*
D24*
X124670000Y-66895000D02*
X124505000Y-66730000D01*
D23*
X124505000Y-66730000D02*
X116260000Y-66730000D01*
X113825000Y-58380000D02*
X113825000Y-57355000D01*
X113825000Y-64295000D02*
X113825000Y-58380000D01*
X116260000Y-66730000D02*
X113825000Y-64295000D01*
X124505000Y-57730000D02*
X125150000Y-57730000D01*
X126005000Y-61330000D02*
X127000000Y-60335000D01*
X124505000Y-61330000D02*
X126005000Y-61330000D01*
X126005000Y-63130000D02*
X127000000Y-62135000D01*
X124505000Y-63130000D02*
X126005000Y-63130000D01*
X127000000Y-62135000D02*
X127000000Y-60325000D01*
X127000000Y-60335000D02*
X127000000Y-60325000D01*
X127000000Y-63935000D02*
X127000000Y-62135000D01*
X126005000Y-64930000D02*
X127000000Y-63935000D01*
X124505000Y-64930000D02*
X126005000Y-64930000D01*
X124505000Y-66730000D02*
X126005000Y-66730000D01*
X126255000Y-67200000D02*
X126255000Y-68980000D01*
X126365000Y-67090000D02*
X126255000Y-67200000D01*
X126255000Y-57675000D02*
X126255000Y-55480000D01*
X127000000Y-60325000D02*
X127000000Y-58420000D01*
X127000000Y-58420000D02*
X126255000Y-57675000D01*
X126200000Y-57730000D02*
X124505000Y-57730000D01*
X126255000Y-57675000D02*
X126200000Y-57730000D01*
X127000000Y-66040000D02*
X126365000Y-66675000D01*
X127000000Y-63935000D02*
X127000000Y-66040000D01*
X126005000Y-66730000D02*
X126365000Y-66675000D01*
X126365000Y-66675000D02*
X126365000Y-67090000D01*
X138855000Y-67480000D02*
X137415000Y-66040000D01*
X138855000Y-68980000D02*
X138855000Y-67480000D01*
X137415000Y-66040000D02*
X127000000Y-66040000D01*
X137415000Y-64820000D02*
X137415000Y-66040000D01*
X144505000Y-57730000D02*
X137415000Y-64820000D01*
X146005000Y-57730000D02*
X144505000Y-57730000D01*
X126255000Y-53980000D02*
X123075000Y-50800000D01*
X126255000Y-55480000D02*
X126255000Y-53980000D01*
X123075000Y-50800000D02*
X120650000Y-50800000D01*
X120650000Y-50800000D02*
X118110000Y-48260000D01*
X118110000Y-48260000D02*
X118110000Y-47625000D01*
X118110000Y-47625000D02*
X116840000Y-46355000D01*
X116840000Y-46355000D02*
X114300000Y-46355000D01*
X114300000Y-46355000D02*
X113030000Y-47625000D01*
X113825000Y-53380000D02*
X113825000Y-54405000D01*
X113030000Y-52585000D02*
X113825000Y-53380000D01*
X113030000Y-47625000D02*
X113030000Y-52585000D01*
X146620000Y-57115000D02*
X146005000Y-57730000D01*
X149160000Y-57115000D02*
X146620000Y-57115000D01*
X149160000Y-57115000D02*
X149160000Y-55309996D01*
X149160000Y-55309996D02*
X149224998Y-55244998D01*
X172720000Y-48895000D02*
X165100000Y-41275000D01*
X175260000Y-48895000D02*
X172720000Y-48895000D01*
X165100000Y-41275000D02*
X150495000Y-41275000D01*
X176035000Y-49670000D02*
X175260000Y-48895000D01*
X181975000Y-49670000D02*
X176035000Y-49670000D01*
X122365000Y-77685000D02*
X120015000Y-75335000D01*
X122790000Y-68980000D02*
X126255000Y-68980000D01*
X120015000Y-71755000D02*
X122790000Y-68980000D01*
X120015000Y-75335000D02*
X120015000Y-71755000D01*
X127000000Y-109325000D02*
X127000000Y-107420000D01*
D24*
X124670000Y-115895000D02*
X124505000Y-115730000D01*
D23*
X124505000Y-106730000D02*
X125150000Y-106730000D01*
X144505000Y-106730000D02*
X137415000Y-113820000D01*
X146005000Y-106730000D02*
X144505000Y-106730000D01*
X126005000Y-110330000D02*
X127000000Y-109335000D01*
X118110000Y-96625000D02*
X116840000Y-95355000D01*
X116840000Y-95355000D02*
X114300000Y-95355000D01*
X127000000Y-112935000D02*
X127000000Y-115040000D01*
X126005000Y-115730000D02*
X126365000Y-115675000D01*
X126365000Y-116090000D02*
X126255000Y-116200000D01*
X124505000Y-110330000D02*
X126005000Y-110330000D01*
X126200000Y-106730000D02*
X124505000Y-106730000D01*
X126255000Y-106675000D02*
X126200000Y-106730000D01*
X127000000Y-115040000D02*
X126365000Y-115675000D01*
X149160000Y-106115000D02*
X146620000Y-106115000D01*
X149160000Y-106115000D02*
X149160000Y-104309996D01*
X126365000Y-115675000D02*
X126365000Y-116090000D01*
X138855000Y-116480000D02*
X137415000Y-115040000D01*
X126255000Y-102980000D02*
X123075000Y-99800000D01*
X126255000Y-104480000D02*
X126255000Y-102980000D01*
X123075000Y-99800000D02*
X120650000Y-99800000D01*
X124505000Y-113930000D02*
X126005000Y-113930000D01*
X113030000Y-101585000D02*
X113825000Y-102380000D01*
X113030000Y-96625000D02*
X113030000Y-101585000D01*
X146620000Y-106115000D02*
X146005000Y-106730000D01*
X126005000Y-113930000D02*
X127000000Y-112935000D01*
X114300000Y-95355000D02*
X113030000Y-96625000D01*
X113825000Y-102380000D02*
X113825000Y-103405000D01*
X122365000Y-126685000D02*
X120015000Y-124335000D01*
X122790000Y-117980000D02*
X126255000Y-117980000D01*
X126005000Y-112130000D02*
X127000000Y-111135000D01*
X126255000Y-116200000D02*
X126255000Y-117980000D01*
X138855000Y-117980000D02*
X138855000Y-116480000D01*
X137415000Y-115040000D02*
X127000000Y-115040000D01*
X137415000Y-113820000D02*
X137415000Y-115040000D01*
X120650000Y-99800000D02*
X118110000Y-97260000D01*
X118110000Y-97260000D02*
X118110000Y-96625000D01*
X124505000Y-115730000D02*
X126005000Y-115730000D01*
X127000000Y-111135000D02*
X127000000Y-109325000D01*
X172720000Y-97895000D02*
X165100000Y-90275000D01*
X175260000Y-97895000D02*
X172720000Y-97895000D01*
X127000000Y-107420000D02*
X126255000Y-106675000D01*
X124505000Y-112130000D02*
X126005000Y-112130000D01*
X127000000Y-112935000D02*
X127000000Y-111135000D01*
X124505000Y-115730000D02*
X116260000Y-115730000D01*
X149160000Y-104309996D02*
X149224998Y-104244998D01*
X165100000Y-90275000D02*
X150495000Y-90275000D01*
X176035000Y-98670000D02*
X175260000Y-97895000D01*
X181975000Y-98670000D02*
X176035000Y-98670000D01*
X116260000Y-115730000D02*
X113825000Y-113295000D01*
X113825000Y-107380000D02*
X113825000Y-106355000D01*
X120015000Y-120755000D02*
X122790000Y-117980000D01*
X120015000Y-124335000D02*
X120015000Y-120755000D01*
X113825000Y-113295000D02*
X113825000Y-107380000D01*
X127000000Y-109335000D02*
X127000000Y-109325000D01*
X126255000Y-106675000D02*
X126255000Y-104480000D01*
X180975000Y-66675000D02*
X177800000Y-63500000D01*
X177800000Y-63500000D02*
X177800000Y-60325000D01*
X177130000Y-59655000D02*
X174560000Y-59655000D01*
X177800000Y-60325000D02*
X177130000Y-59655000D01*
X180975000Y-68407944D02*
X180975000Y-66675000D01*
X181975000Y-71105000D02*
X181975000Y-69407944D01*
X181975000Y-69407944D02*
X180975000Y-68407944D01*
X181975000Y-118407944D02*
X180975000Y-117407944D01*
X177800000Y-112500000D02*
X177800000Y-109325000D01*
X177130000Y-108655000D02*
X174560000Y-108655000D01*
X177800000Y-109325000D02*
X177130000Y-108655000D01*
X180975000Y-117407944D02*
X180975000Y-115675000D01*
X181975000Y-120105000D02*
X181975000Y-118407944D01*
X180975000Y-115675000D02*
X177800000Y-112500000D01*
X174560000Y-62195000D02*
X175225000Y-62195000D01*
X176530000Y-62865000D02*
X176530000Y-64135000D01*
X176530000Y-64135000D02*
X178435000Y-66040000D01*
X178435000Y-73762056D02*
X178435000Y-66040000D01*
X175860000Y-62195000D02*
X174560000Y-62195000D01*
X176530000Y-62865000D02*
X175860000Y-62195000D01*
X179277944Y-74605000D02*
X178435000Y-73762056D01*
X181975000Y-74605000D02*
X179277944Y-74605000D01*
X174560000Y-111195000D02*
X175225000Y-111195000D01*
X176530000Y-111865000D02*
X176530000Y-113135000D01*
X176530000Y-113135000D02*
X178435000Y-115040000D01*
X178435000Y-122762056D02*
X178435000Y-115040000D01*
X175860000Y-111195000D02*
X174560000Y-111195000D01*
X176530000Y-111865000D02*
X175860000Y-111195000D01*
X179277944Y-123605000D02*
X178435000Y-122762056D01*
X181975000Y-123605000D02*
X179277944Y-123605000D01*
X175559489Y-65734489D02*
X174560000Y-64735000D01*
X176224489Y-65734489D02*
X175559489Y-65734489D01*
X177165000Y-66675000D02*
X176224489Y-65734489D01*
X177165000Y-76200000D02*
X177165000Y-66675000D01*
X181975000Y-78105000D02*
X179070000Y-78105000D01*
X179070000Y-78105000D02*
X177165000Y-76200000D01*
X175559489Y-114734489D02*
X174560000Y-113735000D01*
X176224489Y-114734489D02*
X175559489Y-114734489D01*
X177165000Y-115675000D02*
X176224489Y-114734489D01*
X177165000Y-125200000D02*
X177165000Y-115675000D01*
X181975000Y-127105000D02*
X179070000Y-127105000D01*
X179070000Y-127105000D02*
X177165000Y-125200000D01*
X119380000Y-55215000D02*
X118080000Y-55215000D01*
X118080000Y-55215000D02*
X116840000Y-53975000D01*
X116840000Y-53975000D02*
X116840000Y-50800000D01*
X116840000Y-50800000D02*
X115570000Y-49530000D01*
X116840000Y-102975000D02*
X116840000Y-99800000D01*
X116840000Y-99800000D02*
X115570000Y-98530000D01*
X119380000Y-104215000D02*
X118080000Y-104215000D01*
X118080000Y-104215000D02*
X116840000Y-102975000D01*
X119380000Y-57815000D02*
X117505000Y-57815000D01*
X117505000Y-57815000D02*
X116840000Y-57150000D01*
X116375000Y-55880000D02*
X115350000Y-55880000D01*
X116840000Y-56345000D02*
X116375000Y-55880000D01*
X116840000Y-57150000D02*
X116840000Y-56345000D01*
X116840000Y-106150000D02*
X116840000Y-105345000D01*
X119380000Y-106815000D02*
X117505000Y-106815000D01*
X117505000Y-106815000D02*
X116840000Y-106150000D01*
X116375000Y-104880000D02*
X115350000Y-104880000D01*
X116840000Y-105345000D02*
X116375000Y-104880000D01*
D24*
X124505000Y-59530000D02*
X125255000Y-59530000D01*
D23*
X123005000Y-59530000D02*
X121920000Y-58445000D01*
X124505000Y-59530000D02*
X123005000Y-59530000D01*
X121920000Y-58445000D02*
X121920000Y-57150000D01*
X121285000Y-56515000D02*
X119380000Y-56515000D01*
X121920000Y-57150000D02*
X121285000Y-56515000D01*
D24*
X124505000Y-108530000D02*
X125255000Y-108530000D01*
D23*
X123005000Y-108530000D02*
X121920000Y-107445000D01*
X124505000Y-108530000D02*
X123005000Y-108530000D01*
X121920000Y-107445000D02*
X121920000Y-106150000D01*
X121285000Y-105515000D02*
X119380000Y-105515000D01*
X121920000Y-106150000D02*
X121285000Y-105515000D01*
X149035000Y-59530000D02*
X149160000Y-59655000D01*
X146005000Y-59530000D02*
X149035000Y-59530000D01*
X149035000Y-108530000D02*
X149160000Y-108655000D01*
X146005000Y-108530000D02*
X149035000Y-108530000D01*
X148295000Y-61330000D02*
X149160000Y-62195000D01*
X146005000Y-61330000D02*
X148295000Y-61330000D01*
X148295000Y-110330000D02*
X149160000Y-111195000D01*
X146005000Y-110330000D02*
X148295000Y-110330000D01*
X147555000Y-63130000D02*
X149160000Y-64735000D01*
X146005000Y-63130000D02*
X147555000Y-63130000D01*
X147555000Y-112130000D02*
X149160000Y-113735000D01*
X146005000Y-112130000D02*
X147555000Y-112130000D01*
X174560000Y-70550000D02*
X163830000Y-81280000D01*
X163830000Y-81280000D02*
X135890000Y-81280000D01*
X128055000Y-73445000D02*
X128055000Y-68980000D01*
X135890000Y-81280000D02*
X128055000Y-73445000D01*
X174560000Y-70550000D02*
X174560000Y-67275000D01*
X174560000Y-119550000D02*
X163830000Y-130280000D01*
X163830000Y-130280000D02*
X135890000Y-130280000D01*
X128055000Y-122445000D02*
X128055000Y-117980000D01*
X135890000Y-130280000D02*
X128055000Y-122445000D01*
X174560000Y-119550000D02*
X174560000Y-116275000D01*
X129855000Y-72070000D02*
X129855000Y-68980000D01*
X161925000Y-80010000D02*
X137795000Y-80010000D01*
X137795000Y-80010000D02*
X129855000Y-72070000D01*
X172020000Y-69915000D02*
X161925000Y-80010000D01*
X172020000Y-69915000D02*
X172020000Y-67275000D01*
X129855000Y-121070000D02*
X129855000Y-117980000D01*
X161925000Y-129010000D02*
X137795000Y-129010000D01*
X137795000Y-129010000D02*
X129855000Y-121070000D01*
X172020000Y-118915000D02*
X161925000Y-129010000D01*
X172020000Y-118915000D02*
X172020000Y-116275000D01*
X169480000Y-69150000D02*
X159890000Y-78740000D01*
X159890000Y-78740000D02*
X138430000Y-78740000D01*
X131655000Y-71965000D02*
X131655000Y-68980000D01*
X138430000Y-78740000D02*
X131655000Y-71965000D01*
X169480000Y-69150000D02*
X169480000Y-67275000D01*
X169480000Y-118150000D02*
X159890000Y-127740000D01*
X159890000Y-127740000D02*
X138430000Y-127740000D01*
X131655000Y-120965000D02*
X131655000Y-117980000D01*
X138430000Y-127740000D02*
X131655000Y-120965000D01*
X169480000Y-118150000D02*
X169480000Y-116275000D01*
X166940000Y-69280000D02*
X158750000Y-77470000D01*
X158750000Y-77470000D02*
X139065000Y-77470000D01*
X133455000Y-71860000D02*
X133455000Y-68980000D01*
X139065000Y-77470000D02*
X133455000Y-71860000D01*
X166940000Y-69280000D02*
X166940000Y-67275000D01*
X158750000Y-126470000D02*
X139065000Y-126470000D01*
X133455000Y-120860000D02*
X133455000Y-117980000D01*
X139065000Y-126470000D02*
X133455000Y-120860000D01*
X166940000Y-118280000D02*
X166940000Y-116275000D01*
X166940000Y-118280000D02*
X158750000Y-126470000D01*
X164400000Y-69785000D02*
X157985000Y-76200000D01*
X157985000Y-76200000D02*
X139700000Y-76200000D01*
X135255000Y-71755000D02*
X135255000Y-68980000D01*
X139700000Y-76200000D02*
X135255000Y-71755000D01*
X164400000Y-69785000D02*
X164400000Y-67275000D01*
X139700000Y-125200000D02*
X135255000Y-120755000D01*
X164400000Y-118785000D02*
X157985000Y-125200000D01*
X157985000Y-125200000D02*
X139700000Y-125200000D01*
X135255000Y-120755000D02*
X135255000Y-117980000D01*
X164400000Y-118785000D02*
X164400000Y-116275000D01*
X161860000Y-69785000D02*
X156715000Y-74930000D01*
X156715000Y-74930000D02*
X140970000Y-74930000D01*
X137055000Y-71015000D02*
X137055000Y-68980000D01*
X140970000Y-74930000D02*
X137055000Y-71015000D01*
X161860000Y-69785000D02*
X161860000Y-67275000D01*
X161860000Y-118785000D02*
X156715000Y-123930000D01*
X156715000Y-123930000D02*
X140970000Y-123930000D01*
X137055000Y-120015000D02*
X137055000Y-117980000D01*
X140970000Y-123930000D02*
X137055000Y-120015000D01*
X161860000Y-118785000D02*
X161860000Y-116275000D01*
X142875000Y-73660000D02*
X140655000Y-71440000D01*
X140655000Y-71440000D02*
X140655000Y-68980000D01*
X154348492Y-73660000D02*
X142875000Y-73660000D01*
X159320000Y-68688492D02*
X154348492Y-73660000D01*
X159320000Y-68688492D02*
X159320000Y-67275000D01*
X159320000Y-117688492D02*
X159320000Y-116275000D01*
X142875000Y-122660000D02*
X140655000Y-120440000D01*
X140655000Y-120440000D02*
X140655000Y-117980000D01*
X154348492Y-122660000D02*
X142875000Y-122660000D01*
X159320000Y-117688492D02*
X154348492Y-122660000D01*
X156780000Y-69150000D02*
X153540000Y-72390000D01*
X153540000Y-72390000D02*
X144145000Y-72390000D01*
X142455000Y-70700000D02*
X142455000Y-68980000D01*
X144145000Y-72390000D02*
X142455000Y-70700000D01*
X156780000Y-69150000D02*
X156780000Y-67275000D01*
X156780000Y-118150000D02*
X153540000Y-121390000D01*
X153540000Y-121390000D02*
X144145000Y-121390000D01*
X142455000Y-119700000D02*
X142455000Y-117980000D01*
X144145000Y-121390000D02*
X142455000Y-119700000D01*
X156780000Y-118150000D02*
X156780000Y-116275000D01*
D24*
X144255000Y-68980000D02*
X144255000Y-69325000D01*
D23*
X154240000Y-69785000D02*
X152905000Y-71120000D01*
X152905000Y-71120000D02*
X144780000Y-71120000D01*
X144255000Y-70595000D02*
X144255000Y-68980000D01*
X144780000Y-71120000D02*
X144255000Y-70595000D01*
X154240000Y-69785000D02*
X154240000Y-67275000D01*
D24*
X144255000Y-117980000D02*
X144255000Y-118325000D01*
D23*
X154240000Y-118785000D02*
X152905000Y-120120000D01*
X152905000Y-120120000D02*
X144780000Y-120120000D01*
X144255000Y-119595000D02*
X144255000Y-117980000D01*
X144780000Y-120120000D02*
X144255000Y-119595000D01*
X154240000Y-118785000D02*
X154240000Y-116275000D01*
D24*
X151700000Y-68010000D02*
X151700000Y-67275000D01*
D23*
X151700000Y-69150000D02*
X151000000Y-69850000D01*
X151000000Y-69850000D02*
X147320000Y-69850000D01*
X146005000Y-68535000D02*
X146005000Y-66730000D01*
X147320000Y-69850000D02*
X146005000Y-68535000D01*
X151700000Y-69150000D02*
X151700000Y-67275000D01*
X146005000Y-117535000D02*
X146005000Y-115730000D01*
X147320000Y-118850000D02*
X146005000Y-117535000D01*
X151700000Y-118150000D02*
X151700000Y-116275000D01*
D24*
X151700000Y-117010000D02*
X151700000Y-116275000D01*
D23*
X151700000Y-118150000D02*
X151000000Y-118850000D01*
X151000000Y-118850000D02*
X147320000Y-118850000D01*
X146815000Y-64930000D02*
X146005000Y-64930000D01*
X149160000Y-67275000D02*
X146815000Y-64930000D01*
X146815000Y-113930000D02*
X146005000Y-113930000D01*
X149160000Y-116275000D02*
X146815000Y-113930000D01*
X143730000Y-52705000D02*
X142455000Y-53980000D01*
X142455000Y-53980000D02*
X142455000Y-55480000D01*
X152400000Y-52705000D02*
X143730000Y-52705000D01*
X154240000Y-57115000D02*
X154240000Y-54545000D01*
X154240000Y-54545000D02*
X152400000Y-52705000D01*
X142455000Y-102980000D02*
X142455000Y-104480000D01*
X152400000Y-101705000D02*
X143730000Y-101705000D01*
X154240000Y-106115000D02*
X154240000Y-103545000D01*
X143730000Y-101705000D02*
X142455000Y-102980000D01*
X154240000Y-103545000D02*
X152400000Y-101705000D01*
X140655000Y-53020000D02*
X140655000Y-55480000D01*
X142109978Y-51565022D02*
X140655000Y-53020000D01*
X156780000Y-57115000D02*
X156780000Y-54040000D01*
X154305022Y-51565022D02*
X142109978Y-51565022D01*
X156780000Y-54040000D02*
X154305022Y-51565022D01*
X156780000Y-103040000D02*
X154305022Y-100565022D01*
X142109978Y-100565022D02*
X140655000Y-102020000D01*
X156780000Y-106115000D02*
X156780000Y-103040000D01*
X154305022Y-100565022D02*
X142109978Y-100565022D01*
X140655000Y-102020000D02*
X140655000Y-104480000D01*
X138855000Y-52280000D02*
X138855000Y-55480000D01*
X140970000Y-50165000D02*
X138855000Y-52280000D01*
X154940000Y-50165000D02*
X140970000Y-50165000D01*
X159320000Y-57115000D02*
X159320000Y-54545000D01*
X159320000Y-54545000D02*
X154940000Y-50165000D01*
X138855000Y-101280000D02*
X138855000Y-104480000D01*
X140970000Y-99165000D02*
X138855000Y-101280000D01*
X154940000Y-99165000D02*
X140970000Y-99165000D01*
X159320000Y-106115000D02*
X159320000Y-103545000D01*
X159320000Y-103545000D02*
X154940000Y-99165000D01*
X137055000Y-51540000D02*
X137055000Y-55480000D01*
X139700000Y-48895000D02*
X137055000Y-51540000D01*
X155575000Y-48895000D02*
X139700000Y-48895000D01*
X161860000Y-57115000D02*
X161860000Y-55180000D01*
X161860000Y-55180000D02*
X155575000Y-48895000D01*
X137055000Y-100540000D02*
X137055000Y-104480000D01*
X139700000Y-97895000D02*
X137055000Y-100540000D01*
X155575000Y-97895000D02*
X139700000Y-97895000D01*
X161860000Y-106115000D02*
X161860000Y-104180000D01*
X161860000Y-104180000D02*
X155575000Y-97895000D01*
X135255000Y-51435000D02*
X135255000Y-55480000D01*
X139065000Y-47625000D02*
X135255000Y-51435000D01*
X156901746Y-47625000D02*
X139065000Y-47625000D01*
X164400000Y-57115000D02*
X164400000Y-55123254D01*
X164400000Y-55123254D02*
X156901746Y-47625000D01*
X164400000Y-104123254D02*
X156901746Y-96625000D01*
X135255000Y-100435000D02*
X135255000Y-104480000D01*
X139065000Y-96625000D02*
X135255000Y-100435000D01*
X156901746Y-96625000D02*
X139065000Y-96625000D01*
X164400000Y-106115000D02*
X164400000Y-104123254D01*
X133455000Y-51330000D02*
X133455000Y-53980000D01*
X138430000Y-46355000D02*
X133455000Y-51330000D01*
X133455000Y-53980000D02*
X133455000Y-55480000D01*
X158115000Y-46355000D02*
X138430000Y-46355000D01*
X166940000Y-57115000D02*
X166940000Y-55180000D01*
X166940000Y-55180000D02*
X158115000Y-46355000D01*
X133455000Y-100330000D02*
X133455000Y-102980000D01*
X138430000Y-95355000D02*
X133455000Y-100330000D01*
X133455000Y-102980000D02*
X133455000Y-104480000D01*
X158115000Y-95355000D02*
X138430000Y-95355000D01*
X166940000Y-106115000D02*
X166940000Y-104180000D01*
X166940000Y-104180000D02*
X158115000Y-95355000D01*
X137160000Y-45085000D02*
X131655000Y-50590000D01*
X159255000Y-45085000D02*
X137160000Y-45085000D01*
X169480000Y-57115000D02*
X169480000Y-55310000D01*
X131655000Y-50590000D02*
X131655000Y-55480000D01*
X169480000Y-55310000D02*
X159255000Y-45085000D01*
X137160000Y-94085000D02*
X131655000Y-99590000D01*
X159255000Y-94085000D02*
X137160000Y-94085000D01*
X169480000Y-106115000D02*
X169480000Y-104310000D01*
X131655000Y-99590000D02*
X131655000Y-104480000D01*
X169480000Y-104310000D02*
X159255000Y-94085000D01*
X129855000Y-49215000D02*
X129855000Y-55480000D01*
X135255000Y-43815000D02*
X129855000Y-49215000D01*
X160020000Y-43815000D02*
X135255000Y-43815000D01*
X171450000Y-50165000D02*
X166370000Y-50165000D01*
X166370000Y-50165000D02*
X160020000Y-43815000D01*
X172020000Y-55310000D02*
X173990000Y-53340000D01*
X172020000Y-57115000D02*
X172020000Y-55310000D01*
X173990000Y-53340000D02*
X173990000Y-52070000D01*
X173990000Y-52070000D02*
X172785010Y-50865010D01*
X172785010Y-50865010D02*
X172150010Y-50865010D01*
X172150010Y-50865010D02*
X171450000Y-50165000D01*
X129855000Y-98215000D02*
X129855000Y-104480000D01*
X135255000Y-92815000D02*
X129855000Y-98215000D01*
X160020000Y-92815000D02*
X135255000Y-92815000D01*
X171450000Y-99165000D02*
X166370000Y-99165000D01*
X166370000Y-99165000D02*
X160020000Y-92815000D01*
X172020000Y-104310000D02*
X173990000Y-102340000D01*
X172020000Y-106115000D02*
X172020000Y-104310000D01*
X173990000Y-102340000D02*
X173990000Y-101070000D01*
X173990000Y-101070000D02*
X172785010Y-99865010D01*
X172785010Y-99865010D02*
X172150010Y-99865010D01*
X172150010Y-99865010D02*
X171450000Y-99165000D01*
X134620000Y-42545000D02*
X128055000Y-49110000D01*
X167640000Y-48895000D02*
X161290000Y-42545000D01*
X171450000Y-48895000D02*
X167640000Y-48895000D01*
X128055000Y-49110000D02*
X128055000Y-55480000D01*
X174560000Y-55912919D02*
X175260000Y-55212919D01*
X173990000Y-50165000D02*
X172720000Y-50165000D01*
X174560000Y-57115000D02*
X174560000Y-55912919D01*
X161290000Y-42545000D02*
X134620000Y-42545000D01*
X175260000Y-55212919D02*
X175260000Y-51435000D01*
X175260000Y-51435000D02*
X173990000Y-50165000D01*
X172720000Y-50165000D02*
X171450000Y-48895000D01*
X161290000Y-91545000D02*
X134620000Y-91545000D01*
X175260000Y-104212919D02*
X175260000Y-100435000D01*
X175260000Y-100435000D02*
X173990000Y-99165000D01*
X172720000Y-99165000D02*
X171450000Y-97895000D01*
X134620000Y-91545000D02*
X128055000Y-98110000D01*
X167640000Y-97895000D02*
X161290000Y-91545000D01*
X171450000Y-97895000D02*
X167640000Y-97895000D01*
X128055000Y-98110000D02*
X128055000Y-104480000D01*
X174560000Y-104912919D02*
X175260000Y-104212919D01*
X173990000Y-99165000D02*
X172720000Y-99165000D01*
X174560000Y-106115000D02*
X174560000Y-104912919D01*
X177800000Y-38735000D02*
X144780000Y-38735000D01*
X144145000Y-39370000D02*
X144145000Y-40640000D01*
X144780000Y-38735000D02*
X144145000Y-39370000D01*
X144255000Y-55480000D02*
X144255000Y-55135000D01*
X180975000Y-43180000D02*
X179070000Y-41275000D01*
X179070000Y-40005000D02*
X177800000Y-38735000D01*
X179070000Y-41275000D02*
X179070000Y-40005000D01*
X144145000Y-40640000D02*
X144145000Y-41694990D01*
X147250685Y-53975000D02*
X146685000Y-53975000D01*
X151700000Y-55180000D02*
X150495000Y-53975000D01*
X150495000Y-53975000D02*
X147250685Y-53975000D01*
X144255000Y-55480000D02*
X145355000Y-55480000D01*
X145355000Y-55480000D02*
X146685000Y-54150000D01*
X151700000Y-57115000D02*
X151700000Y-55180000D01*
X146685000Y-54150000D02*
X146685000Y-53975000D01*
X180975000Y-43472944D02*
X180975000Y-43180000D01*
X181975000Y-46170000D02*
X181975000Y-44472944D01*
X181975000Y-44472944D02*
X180975000Y-43472944D01*
X177800000Y-87735000D02*
X144780000Y-87735000D01*
X144145000Y-88370000D02*
X144145000Y-89640000D01*
X144780000Y-87735000D02*
X144145000Y-88370000D01*
X144255000Y-104480000D02*
X144255000Y-104135000D01*
X180975000Y-92180000D02*
X179070000Y-90275000D01*
X179070000Y-89005000D02*
X177800000Y-87735000D01*
X179070000Y-90275000D02*
X179070000Y-89005000D01*
X144145000Y-89640000D02*
X144145000Y-90694990D01*
X147250685Y-102975000D02*
X146685000Y-102975000D01*
X151700000Y-104180000D02*
X150495000Y-102975000D01*
X150495000Y-102975000D02*
X147250685Y-102975000D01*
X144255000Y-104480000D02*
X145355000Y-104480000D01*
X145355000Y-104480000D02*
X146685000Y-103150000D01*
X151700000Y-106115000D02*
X151700000Y-104180000D01*
X146685000Y-103150000D02*
X146685000Y-102975000D01*
X180975000Y-92472944D02*
X180975000Y-92180000D01*
X181975000Y-95170000D02*
X181975000Y-93472944D01*
X181975000Y-93472944D02*
X180975000Y-92472944D01*
X177100000Y-57115000D02*
X179105000Y-57115000D01*
X179105000Y-57115000D02*
X180975000Y-55245000D01*
X181600000Y-55245000D02*
X180975000Y-55245000D01*
X181975000Y-53170000D02*
X181975000Y-54870000D01*
X181975000Y-54870000D02*
X181600000Y-55245000D01*
X177100000Y-106115000D02*
X179105000Y-106115000D01*
X179105000Y-106115000D02*
X180975000Y-104245000D01*
X181600000Y-104245000D02*
X180975000Y-104245000D01*
X181975000Y-102170000D02*
X181975000Y-103870000D01*
X181975000Y-103870000D02*
X181600000Y-104245000D01*
M02*
