M48
; DRILL file {KiCad 5.1.5-52549c5~86~ubuntu18.04.1} date mar 18 ago 2020 00:02:27 -05
; FORMAT={-:-/ absolute / metric / decimal}
; #@! TF.CreationDate,2020-08-18T00:02:27-05:00
; #@! TF.GenerationSoftware,Kicad,Pcbnew,5.1.5-52549c5~86~ubuntu18.04.1
; #@! TF.FileFunction,Plated,1,2,PTH
FMAT,2
METRIC
T1C0.400
T2C1.000
T3C1.020
T4C1.200
%
G90
G05
T1
X144.145Y-41.695
X144.145Y-90.695
X146.685Y-53.975
X146.685Y-102.975
X149.225Y-55.245
X149.225Y-104.245
X150.495Y-41.275
X150.495Y-90.275
X174.625Y-74.295
X174.625Y-123.295
X177.8Y-47.625
X177.8Y-96.625
T2
X174.56Y-59.655
X174.56Y-62.195
X174.56Y-64.735
X151.7Y-111.195
X154.24Y-111.195
X156.78Y-111.195
X159.32Y-111.195
X161.86Y-111.195
X164.4Y-111.195
X166.94Y-111.195
X169.48Y-111.195
X172.02Y-111.195
X115.57Y-98.53
X149.16Y-67.275
X151.7Y-67.275
X154.24Y-67.275
X156.78Y-67.275
X159.32Y-67.275
X161.86Y-67.275
X164.4Y-67.275
X166.94Y-67.275
X169.48Y-67.275
X172.02Y-67.275
X174.56Y-67.275
X115.57Y-49.53
X151.7Y-59.655
X154.24Y-59.655
X156.78Y-59.655
X159.32Y-59.655
X161.86Y-59.655
X164.4Y-59.655
X166.94Y-59.655
X169.48Y-59.655
X172.02Y-59.655
X149.16Y-57.115
X151.7Y-57.115
X154.24Y-57.115
X156.78Y-57.115
X159.32Y-57.115
X161.86Y-57.115
X164.4Y-57.115
X166.94Y-57.115
X169.48Y-57.115
X172.02Y-57.115
X174.56Y-57.115
X151.7Y-64.735
X154.24Y-64.735
X156.78Y-64.735
X159.32Y-64.735
X161.86Y-64.735
X164.4Y-64.735
X166.94Y-64.735
X169.48Y-64.735
X172.02Y-64.735
X149.16Y-59.655
X149.16Y-62.195
X149.16Y-64.735
X151.7Y-113.735
X154.24Y-113.735
X156.78Y-113.735
X159.32Y-113.735
X161.86Y-113.735
X164.4Y-113.735
X166.94Y-113.735
X169.48Y-113.735
X172.02Y-113.735
X149.16Y-106.115
X151.7Y-106.115
X154.24Y-106.115
X156.78Y-106.115
X159.32Y-106.115
X161.86Y-106.115
X164.4Y-106.115
X166.94Y-106.115
X169.48Y-106.115
X172.02Y-106.115
X174.56Y-106.115
X151.7Y-108.655
X154.24Y-108.655
X156.78Y-108.655
X159.32Y-108.655
X161.86Y-108.655
X164.4Y-108.655
X166.94Y-108.655
X169.48Y-108.655
X172.02Y-108.655
X149.16Y-116.275
X151.7Y-116.275
X154.24Y-116.275
X156.78Y-116.275
X159.32Y-116.275
X161.86Y-116.275
X164.4Y-116.275
X166.94Y-116.275
X169.48Y-116.275
X172.02Y-116.275
X174.56Y-116.275
X177.1Y-57.115
X149.16Y-108.655
X149.16Y-111.195
X149.16Y-113.735
X174.56Y-108.655
X174.56Y-111.195
X174.56Y-113.735
X151.7Y-62.195
X154.24Y-62.195
X156.78Y-62.195
X159.32Y-62.195
X161.86Y-62.195
X164.4Y-62.195
X166.94Y-62.195
X169.48Y-62.195
X172.02Y-62.195
X177.1Y-106.115
T3
X122.365Y-126.685
X174.355Y-126.685
X122.365Y-77.685
X174.355Y-77.685
X122.285Y-46.855
X174.275Y-46.855
X122.285Y-95.855
X174.275Y-95.855
T4
X181.975Y-46.17
X181.975Y-49.67
X181.975Y-53.17
X181.975Y-95.17
X181.975Y-98.67
X181.975Y-102.17
X181.975Y-120.105
X181.975Y-123.605
X181.975Y-127.105
X181.975Y-71.105
X181.975Y-74.605
X181.975Y-78.105
T0
M30
