G04 #@! TF.GenerationSoftware,KiCad,Pcbnew,5.1.5-52549c5~86~ubuntu18.04.1*
G04 #@! TF.CreationDate,2020-08-18T00:02:30-05:00*
G04 #@! TF.ProjectId,,58585858-5858-4585-9858-585858585858,rev?*
G04 #@! TF.SameCoordinates,Original*
G04 #@! TF.FileFunction,Legend,Top*
G04 #@! TF.FilePolarity,Positive*
%FSLAX46Y46*%
G04 Gerber Fmt 4.6, Leading zero omitted, Abs format (unit mm)*
G04 Created by KiCad (PCBNEW 5.1.5-52549c5~86~ubuntu18.04.1) date 2020-08-18 00:02:30*
%MOMM*%
%LPD*%
G04 APERTURE LIST*
%ADD10C,0.150000*%
%ADD11C,0.120000*%
%ADD12R,2.502000X2.502000*%
%ADD13C,2.502000*%
%ADD14C,2.742000*%
%ADD15C,2.102000*%
%ADD16C,1.802000*%
%ADD17O,1.802000X1.802000*%
%ADD18C,3.102000*%
G04 APERTURE END LIST*
D10*
X186106666Y-127530000D02*
X186806666Y-127363333D01*
X186306666Y-127230000D01*
X186806666Y-127096666D01*
X186106666Y-126930000D01*
X186106666Y-124063333D02*
X186806666Y-123596666D01*
X186106666Y-123596666D02*
X186806666Y-124063333D01*
X186473333Y-120530000D02*
X186806666Y-120530000D01*
X186106666Y-120763333D02*
X186473333Y-120530000D01*
X186106666Y-120296666D01*
X125508333Y-110032380D02*
X125175000Y-109556190D01*
X124936904Y-110032380D02*
X124936904Y-109032380D01*
X125317857Y-109032380D01*
X125413095Y-109080000D01*
X125460714Y-109127619D01*
X125508333Y-109222857D01*
X125508333Y-109365714D01*
X125460714Y-109460952D01*
X125413095Y-109508571D01*
X125317857Y-109556190D01*
X124936904Y-109556190D01*
X125889285Y-109746666D02*
X126365476Y-109746666D01*
X125794047Y-110032380D02*
X126127380Y-109032380D01*
X126460714Y-110032380D01*
X126794047Y-110032380D02*
X126794047Y-109032380D01*
X127365476Y-110032380D02*
X126936904Y-109460952D01*
X127365476Y-109032380D02*
X126794047Y-109603809D01*
X127936904Y-109460952D02*
X127841666Y-109413333D01*
X127794047Y-109365714D01*
X127746428Y-109270476D01*
X127746428Y-109222857D01*
X127794047Y-109127619D01*
X127841666Y-109080000D01*
X127936904Y-109032380D01*
X128127380Y-109032380D01*
X128222619Y-109080000D01*
X128270238Y-109127619D01*
X128317857Y-109222857D01*
X128317857Y-109270476D01*
X128270238Y-109365714D01*
X128222619Y-109413333D01*
X128127380Y-109460952D01*
X127936904Y-109460952D01*
X127841666Y-109508571D01*
X127794047Y-109556190D01*
X127746428Y-109651428D01*
X127746428Y-109841904D01*
X127794047Y-109937142D01*
X127841666Y-109984761D01*
X127936904Y-110032380D01*
X128127380Y-110032380D01*
X128222619Y-109984761D01*
X128270238Y-109937142D01*
X128317857Y-109841904D01*
X128317857Y-109651428D01*
X128270238Y-109556190D01*
X128222619Y-109508571D01*
X128127380Y-109460952D01*
X129270238Y-110032380D02*
X128698809Y-110032380D01*
X128984523Y-110032380D02*
X128984523Y-109032380D01*
X128889285Y-109175238D01*
X128794047Y-109270476D01*
X128698809Y-109318095D01*
X130222619Y-110032380D02*
X129651190Y-110032380D01*
X129936904Y-110032380D02*
X129936904Y-109032380D01*
X129841666Y-109175238D01*
X129746428Y-109270476D01*
X129651190Y-109318095D01*
X131889285Y-110032380D02*
X131413095Y-110032380D01*
X131413095Y-109032380D01*
X132413095Y-109032380D02*
X132603571Y-109032380D01*
X132698809Y-109080000D01*
X132794047Y-109175238D01*
X132841666Y-109365714D01*
X132841666Y-109699047D01*
X132794047Y-109889523D01*
X132698809Y-109984761D01*
X132603571Y-110032380D01*
X132413095Y-110032380D01*
X132317857Y-109984761D01*
X132222619Y-109889523D01*
X132175000Y-109699047D01*
X132175000Y-109365714D01*
X132222619Y-109175238D01*
X132317857Y-109080000D01*
X132413095Y-109032380D01*
X133841666Y-110032380D02*
X133508333Y-109556190D01*
X133270238Y-110032380D02*
X133270238Y-109032380D01*
X133651190Y-109032380D01*
X133746428Y-109080000D01*
X133794047Y-109127619D01*
X133841666Y-109222857D01*
X133841666Y-109365714D01*
X133794047Y-109460952D01*
X133746428Y-109508571D01*
X133651190Y-109556190D01*
X133270238Y-109556190D01*
X134222619Y-109746666D02*
X134698809Y-109746666D01*
X134127380Y-110032380D02*
X134460714Y-109032380D01*
X134794047Y-110032380D01*
X123960714Y-111396666D02*
X124436904Y-111396666D01*
X123865476Y-111682380D02*
X124198809Y-110682380D01*
X124532142Y-111682380D01*
X124865476Y-111682380D02*
X124865476Y-110682380D01*
X125103571Y-110682380D01*
X125246428Y-110730000D01*
X125341666Y-110825238D01*
X125389285Y-110920476D01*
X125436904Y-111110952D01*
X125436904Y-111253809D01*
X125389285Y-111444285D01*
X125341666Y-111539523D01*
X125246428Y-111634761D01*
X125103571Y-111682380D01*
X124865476Y-111682380D01*
X125817857Y-111396666D02*
X126294047Y-111396666D01*
X125722619Y-111682380D02*
X126055952Y-110682380D01*
X126389285Y-111682380D01*
X126722619Y-111682380D02*
X126722619Y-110682380D01*
X127103571Y-110682380D01*
X127198809Y-110730000D01*
X127246428Y-110777619D01*
X127294047Y-110872857D01*
X127294047Y-111015714D01*
X127246428Y-111110952D01*
X127198809Y-111158571D01*
X127103571Y-111206190D01*
X126722619Y-111206190D01*
X127579761Y-110682380D02*
X128151190Y-110682380D01*
X127865476Y-111682380D02*
X127865476Y-110682380D01*
X128436904Y-111396666D02*
X128913095Y-111396666D01*
X128341666Y-111682380D02*
X128675000Y-110682380D01*
X129008333Y-111682380D01*
X129675000Y-111158571D02*
X129817857Y-111206190D01*
X129865476Y-111253809D01*
X129913095Y-111349047D01*
X129913095Y-111491904D01*
X129865476Y-111587142D01*
X129817857Y-111634761D01*
X129722619Y-111682380D01*
X129341666Y-111682380D01*
X129341666Y-110682380D01*
X129675000Y-110682380D01*
X129770238Y-110730000D01*
X129817857Y-110777619D01*
X129865476Y-110872857D01*
X129865476Y-110968095D01*
X129817857Y-111063333D01*
X129770238Y-111110952D01*
X129675000Y-111158571D01*
X129341666Y-111158571D01*
X130817857Y-111682380D02*
X130341666Y-111682380D01*
X130341666Y-110682380D01*
X131151190Y-111158571D02*
X131484523Y-111158571D01*
X131627380Y-111682380D02*
X131151190Y-111682380D01*
X131151190Y-110682380D01*
X131627380Y-110682380D01*
X132817857Y-111682380D02*
X132817857Y-110682380D01*
X133389285Y-111682380D01*
X133389285Y-110682380D01*
X134055952Y-110682380D02*
X134246428Y-110682380D01*
X134341666Y-110730000D01*
X134436904Y-110825238D01*
X134484523Y-111015714D01*
X134484523Y-111349047D01*
X134436904Y-111539523D01*
X134341666Y-111634761D01*
X134246428Y-111682380D01*
X134055952Y-111682380D01*
X133960714Y-111634761D01*
X133865476Y-111539523D01*
X133817857Y-111349047D01*
X133817857Y-111015714D01*
X133865476Y-110825238D01*
X133960714Y-110730000D01*
X134055952Y-110682380D01*
X134913095Y-111682380D02*
X134913095Y-110682380D01*
X135151190Y-110682380D01*
X135294047Y-110730000D01*
X135389285Y-110825238D01*
X135436904Y-110920476D01*
X135484523Y-111110952D01*
X135484523Y-111253809D01*
X135436904Y-111444285D01*
X135389285Y-111539523D01*
X135294047Y-111634761D01*
X135151190Y-111682380D01*
X134913095Y-111682380D01*
X135913095Y-111158571D02*
X136246428Y-111158571D01*
X136389285Y-111682380D02*
X135913095Y-111682380D01*
X135913095Y-110682380D01*
X136389285Y-110682380D01*
X128984523Y-112332380D02*
X129317857Y-113332380D01*
X129651190Y-112332380D01*
X130936904Y-112332380D02*
X131032142Y-112332380D01*
X131127380Y-112380000D01*
X131175000Y-112427619D01*
X131222619Y-112522857D01*
X131270238Y-112713333D01*
X131270238Y-112951428D01*
X131222619Y-113141904D01*
X131175000Y-113237142D01*
X131127380Y-113284761D01*
X131032142Y-113332380D01*
X130936904Y-113332380D01*
X130841666Y-113284761D01*
X130794047Y-113237142D01*
X130746428Y-113141904D01*
X130698809Y-112951428D01*
X130698809Y-112713333D01*
X130746428Y-112522857D01*
X130794047Y-112427619D01*
X130841666Y-112380000D01*
X130936904Y-112332380D01*
X186106666Y-102696666D02*
X186106666Y-102230000D01*
X186806666Y-102696666D01*
X186806666Y-102230000D01*
X186140000Y-99463333D02*
X186106666Y-99530000D01*
X186106666Y-99630000D01*
X186140000Y-99730000D01*
X186206666Y-99796666D01*
X186273333Y-99830000D01*
X186406666Y-99863333D01*
X186506666Y-99863333D01*
X186640000Y-99830000D01*
X186706666Y-99796666D01*
X186773333Y-99730000D01*
X186806666Y-99630000D01*
X186806666Y-99563333D01*
X186773333Y-99463333D01*
X186740000Y-99430000D01*
X186506666Y-99430000D01*
X186506666Y-99563333D01*
X186806666Y-99130000D02*
X186106666Y-99130000D01*
X186806666Y-98730000D01*
X186106666Y-98730000D01*
X186806666Y-98396666D02*
X186106666Y-98396666D01*
X186106666Y-98230000D01*
X186140000Y-98130000D01*
X186206666Y-98063333D01*
X186273333Y-98030000D01*
X186406666Y-97996666D01*
X186506666Y-97996666D01*
X186640000Y-98030000D01*
X186706666Y-98063333D01*
X186773333Y-98130000D01*
X186806666Y-98230000D01*
X186806666Y-98396666D01*
X186106666Y-96196666D02*
X186806666Y-95963333D01*
X186106666Y-95730000D01*
X186740000Y-95096666D02*
X186773333Y-95130000D01*
X186806666Y-95230000D01*
X186806666Y-95296666D01*
X186773333Y-95396666D01*
X186706666Y-95463333D01*
X186640000Y-95496666D01*
X186506666Y-95530000D01*
X186406666Y-95530000D01*
X186273333Y-95496666D01*
X186206666Y-95463333D01*
X186140000Y-95396666D01*
X186106666Y-95296666D01*
X186106666Y-95230000D01*
X186140000Y-95130000D01*
X186173333Y-95096666D01*
X186740000Y-94396666D02*
X186773333Y-94430000D01*
X186806666Y-94530000D01*
X186806666Y-94596666D01*
X186773333Y-94696666D01*
X186706666Y-94763333D01*
X186640000Y-94796666D01*
X186506666Y-94830000D01*
X186406666Y-94830000D01*
X186273333Y-94796666D01*
X186206666Y-94763333D01*
X186140000Y-94696666D01*
X186106666Y-94596666D01*
X186106666Y-94530000D01*
X186140000Y-94430000D01*
X186173333Y-94396666D01*
X186106666Y-78530000D02*
X186806666Y-78363333D01*
X186306666Y-78230000D01*
X186806666Y-78096666D01*
X186106666Y-77930000D01*
X186106666Y-75063333D02*
X186806666Y-74596666D01*
X186106666Y-74596666D02*
X186806666Y-75063333D01*
X186473333Y-71530000D02*
X186806666Y-71530000D01*
X186106666Y-71763333D02*
X186473333Y-71530000D01*
X186106666Y-71296666D01*
X186106666Y-53696666D02*
X186106666Y-53230000D01*
X186806666Y-53696666D01*
X186806666Y-53230000D01*
X186140000Y-50463333D02*
X186106666Y-50530000D01*
X186106666Y-50630000D01*
X186140000Y-50730000D01*
X186206666Y-50796666D01*
X186273333Y-50830000D01*
X186406666Y-50863333D01*
X186506666Y-50863333D01*
X186640000Y-50830000D01*
X186706666Y-50796666D01*
X186773333Y-50730000D01*
X186806666Y-50630000D01*
X186806666Y-50563333D01*
X186773333Y-50463333D01*
X186740000Y-50430000D01*
X186506666Y-50430000D01*
X186506666Y-50563333D01*
X186806666Y-50130000D02*
X186106666Y-50130000D01*
X186806666Y-49730000D01*
X186106666Y-49730000D01*
X186806666Y-49396666D02*
X186106666Y-49396666D01*
X186106666Y-49230000D01*
X186140000Y-49130000D01*
X186206666Y-49063333D01*
X186273333Y-49030000D01*
X186406666Y-48996666D01*
X186506666Y-48996666D01*
X186640000Y-49030000D01*
X186706666Y-49063333D01*
X186773333Y-49130000D01*
X186806666Y-49230000D01*
X186806666Y-49396666D01*
X186106666Y-47196666D02*
X186806666Y-46963333D01*
X186106666Y-46730000D01*
X186740000Y-46096666D02*
X186773333Y-46130000D01*
X186806666Y-46230000D01*
X186806666Y-46296666D01*
X186773333Y-46396666D01*
X186706666Y-46463333D01*
X186640000Y-46496666D01*
X186506666Y-46530000D01*
X186406666Y-46530000D01*
X186273333Y-46496666D01*
X186206666Y-46463333D01*
X186140000Y-46396666D01*
X186106666Y-46296666D01*
X186106666Y-46230000D01*
X186140000Y-46130000D01*
X186173333Y-46096666D01*
X186740000Y-45396666D02*
X186773333Y-45430000D01*
X186806666Y-45530000D01*
X186806666Y-45596666D01*
X186773333Y-45696666D01*
X186706666Y-45763333D01*
X186640000Y-45796666D01*
X186506666Y-45830000D01*
X186406666Y-45830000D01*
X186273333Y-45796666D01*
X186206666Y-45763333D01*
X186140000Y-45696666D01*
X186106666Y-45596666D01*
X186106666Y-45530000D01*
X186140000Y-45430000D01*
X186173333Y-45396666D01*
X125508333Y-61032380D02*
X125175000Y-60556190D01*
X124936904Y-61032380D02*
X124936904Y-60032380D01*
X125317857Y-60032380D01*
X125413095Y-60080000D01*
X125460714Y-60127619D01*
X125508333Y-60222857D01*
X125508333Y-60365714D01*
X125460714Y-60460952D01*
X125413095Y-60508571D01*
X125317857Y-60556190D01*
X124936904Y-60556190D01*
X125889285Y-60746666D02*
X126365476Y-60746666D01*
X125794047Y-61032380D02*
X126127380Y-60032380D01*
X126460714Y-61032380D01*
X126794047Y-61032380D02*
X126794047Y-60032380D01*
X127365476Y-61032380D02*
X126936904Y-60460952D01*
X127365476Y-60032380D02*
X126794047Y-60603809D01*
X127936904Y-60460952D02*
X127841666Y-60413333D01*
X127794047Y-60365714D01*
X127746428Y-60270476D01*
X127746428Y-60222857D01*
X127794047Y-60127619D01*
X127841666Y-60080000D01*
X127936904Y-60032380D01*
X128127380Y-60032380D01*
X128222619Y-60080000D01*
X128270238Y-60127619D01*
X128317857Y-60222857D01*
X128317857Y-60270476D01*
X128270238Y-60365714D01*
X128222619Y-60413333D01*
X128127380Y-60460952D01*
X127936904Y-60460952D01*
X127841666Y-60508571D01*
X127794047Y-60556190D01*
X127746428Y-60651428D01*
X127746428Y-60841904D01*
X127794047Y-60937142D01*
X127841666Y-60984761D01*
X127936904Y-61032380D01*
X128127380Y-61032380D01*
X128222619Y-60984761D01*
X128270238Y-60937142D01*
X128317857Y-60841904D01*
X128317857Y-60651428D01*
X128270238Y-60556190D01*
X128222619Y-60508571D01*
X128127380Y-60460952D01*
X129270238Y-61032380D02*
X128698809Y-61032380D01*
X128984523Y-61032380D02*
X128984523Y-60032380D01*
X128889285Y-60175238D01*
X128794047Y-60270476D01*
X128698809Y-60318095D01*
X130222619Y-61032380D02*
X129651190Y-61032380D01*
X129936904Y-61032380D02*
X129936904Y-60032380D01*
X129841666Y-60175238D01*
X129746428Y-60270476D01*
X129651190Y-60318095D01*
X131889285Y-61032380D02*
X131413095Y-61032380D01*
X131413095Y-60032380D01*
X132413095Y-60032380D02*
X132603571Y-60032380D01*
X132698809Y-60080000D01*
X132794047Y-60175238D01*
X132841666Y-60365714D01*
X132841666Y-60699047D01*
X132794047Y-60889523D01*
X132698809Y-60984761D01*
X132603571Y-61032380D01*
X132413095Y-61032380D01*
X132317857Y-60984761D01*
X132222619Y-60889523D01*
X132175000Y-60699047D01*
X132175000Y-60365714D01*
X132222619Y-60175238D01*
X132317857Y-60080000D01*
X132413095Y-60032380D01*
X133841666Y-61032380D02*
X133508333Y-60556190D01*
X133270238Y-61032380D02*
X133270238Y-60032380D01*
X133651190Y-60032380D01*
X133746428Y-60080000D01*
X133794047Y-60127619D01*
X133841666Y-60222857D01*
X133841666Y-60365714D01*
X133794047Y-60460952D01*
X133746428Y-60508571D01*
X133651190Y-60556190D01*
X133270238Y-60556190D01*
X134222619Y-60746666D02*
X134698809Y-60746666D01*
X134127380Y-61032380D02*
X134460714Y-60032380D01*
X134794047Y-61032380D01*
X123960714Y-62396666D02*
X124436904Y-62396666D01*
X123865476Y-62682380D02*
X124198809Y-61682380D01*
X124532142Y-62682380D01*
X124865476Y-62682380D02*
X124865476Y-61682380D01*
X125103571Y-61682380D01*
X125246428Y-61730000D01*
X125341666Y-61825238D01*
X125389285Y-61920476D01*
X125436904Y-62110952D01*
X125436904Y-62253809D01*
X125389285Y-62444285D01*
X125341666Y-62539523D01*
X125246428Y-62634761D01*
X125103571Y-62682380D01*
X124865476Y-62682380D01*
X125817857Y-62396666D02*
X126294047Y-62396666D01*
X125722619Y-62682380D02*
X126055952Y-61682380D01*
X126389285Y-62682380D01*
X126722619Y-62682380D02*
X126722619Y-61682380D01*
X127103571Y-61682380D01*
X127198809Y-61730000D01*
X127246428Y-61777619D01*
X127294047Y-61872857D01*
X127294047Y-62015714D01*
X127246428Y-62110952D01*
X127198809Y-62158571D01*
X127103571Y-62206190D01*
X126722619Y-62206190D01*
X127579761Y-61682380D02*
X128151190Y-61682380D01*
X127865476Y-62682380D02*
X127865476Y-61682380D01*
X128436904Y-62396666D02*
X128913095Y-62396666D01*
X128341666Y-62682380D02*
X128675000Y-61682380D01*
X129008333Y-62682380D01*
X129675000Y-62158571D02*
X129817857Y-62206190D01*
X129865476Y-62253809D01*
X129913095Y-62349047D01*
X129913095Y-62491904D01*
X129865476Y-62587142D01*
X129817857Y-62634761D01*
X129722619Y-62682380D01*
X129341666Y-62682380D01*
X129341666Y-61682380D01*
X129675000Y-61682380D01*
X129770238Y-61730000D01*
X129817857Y-61777619D01*
X129865476Y-61872857D01*
X129865476Y-61968095D01*
X129817857Y-62063333D01*
X129770238Y-62110952D01*
X129675000Y-62158571D01*
X129341666Y-62158571D01*
X130817857Y-62682380D02*
X130341666Y-62682380D01*
X130341666Y-61682380D01*
X131151190Y-62158571D02*
X131484523Y-62158571D01*
X131627380Y-62682380D02*
X131151190Y-62682380D01*
X131151190Y-61682380D01*
X131627380Y-61682380D01*
X132817857Y-62682380D02*
X132817857Y-61682380D01*
X133389285Y-62682380D01*
X133389285Y-61682380D01*
X134055952Y-61682380D02*
X134246428Y-61682380D01*
X134341666Y-61730000D01*
X134436904Y-61825238D01*
X134484523Y-62015714D01*
X134484523Y-62349047D01*
X134436904Y-62539523D01*
X134341666Y-62634761D01*
X134246428Y-62682380D01*
X134055952Y-62682380D01*
X133960714Y-62634761D01*
X133865476Y-62539523D01*
X133817857Y-62349047D01*
X133817857Y-62015714D01*
X133865476Y-61825238D01*
X133960714Y-61730000D01*
X134055952Y-61682380D01*
X134913095Y-62682380D02*
X134913095Y-61682380D01*
X135151190Y-61682380D01*
X135294047Y-61730000D01*
X135389285Y-61825238D01*
X135436904Y-61920476D01*
X135484523Y-62110952D01*
X135484523Y-62253809D01*
X135436904Y-62444285D01*
X135389285Y-62539523D01*
X135294047Y-62634761D01*
X135151190Y-62682380D01*
X134913095Y-62682380D01*
X135913095Y-62158571D02*
X136246428Y-62158571D01*
X136389285Y-62682380D02*
X135913095Y-62682380D01*
X135913095Y-61682380D01*
X136389285Y-61682380D01*
X128984523Y-63332380D02*
X129317857Y-64332380D01*
X129651190Y-63332380D01*
X130936904Y-63332380D02*
X131032142Y-63332380D01*
X131127380Y-63380000D01*
X131175000Y-63427619D01*
X131222619Y-63522857D01*
X131270238Y-63713333D01*
X131270238Y-63951428D01*
X131222619Y-64141904D01*
X131175000Y-64237142D01*
X131127380Y-64284761D01*
X131032142Y-64332380D01*
X130936904Y-64332380D01*
X130841666Y-64284761D01*
X130794047Y-64237142D01*
X130746428Y-64141904D01*
X130698809Y-63951428D01*
X130698809Y-63713333D01*
X130746428Y-63522857D01*
X130794047Y-63427619D01*
X130841666Y-63380000D01*
X130936904Y-63332380D01*
D11*
X183406385Y-101562413D02*
G75*
G02X183530000Y-102170000I-1431385J-607587D01*
G01*
X181367258Y-100737891D02*
G75*
G02X182583000Y-100738000I607742J-1432109D01*
G01*
X180542891Y-102777742D02*
G75*
G02X180543000Y-101562000I1432109J607742D01*
G01*
X182582742Y-103602109D02*
G75*
G02X181367000Y-103602000I-607742J1432109D01*
G01*
X183530492Y-102142989D02*
G75*
G02X183407000Y-102778000I-1555492J-27011D01*
G01*
X183530000Y-98670000D02*
G75*
G03X183530000Y-98670000I-1555000J0D01*
G01*
X183530000Y-95170000D02*
G75*
G03X183530000Y-95170000I-1555000J0D01*
G01*
X184075000Y-104330000D02*
X184075000Y-93010000D01*
X178515000Y-104330000D02*
X178515000Y-93010000D01*
X185635000Y-104330000D02*
X185635000Y-93010000D01*
X178515000Y-104330000D02*
X185635000Y-104330000D01*
X178515000Y-93010000D02*
X185635000Y-93010000D01*
X184135000Y-104570000D02*
X185875000Y-104570000D01*
X185875000Y-104570000D02*
X185875000Y-103070000D01*
X156185000Y-101455000D02*
X140385000Y-101455000D01*
X140385000Y-90255000D02*
X156185000Y-90255000D01*
X140385000Y-90255000D02*
G75*
G02X138385000Y-88255000I0J2000000D01*
G01*
X158185000Y-88255000D02*
G75*
G02X156185000Y-90255000I-2000000J0D01*
G01*
X156185000Y-101455000D02*
G75*
G02X158185000Y-103455000I0J-2000000D01*
G01*
X138385000Y-103455000D02*
G75*
G02X140385000Y-101455000I2000000J0D01*
G01*
X158185000Y-103455000D02*
X176185000Y-103455000D01*
X158185000Y-88255000D02*
X176185000Y-88255000D01*
X120385000Y-88255000D02*
X138385000Y-88255000D01*
X176185000Y-88255000D02*
X176185000Y-103455000D01*
X120385000Y-103455000D02*
X138385000Y-103455000D01*
X120385000Y-88255000D02*
X120385000Y-103455000D01*
X119665000Y-87290000D02*
X176905000Y-87290000D01*
X119665000Y-104420000D02*
X119665000Y-87290000D01*
X176905000Y-104420000D02*
X119665000Y-104420000D01*
X176905000Y-87290000D02*
X176905000Y-104420000D01*
X169595000Y-94795000D02*
X169595000Y-96795000D01*
X172595000Y-91795000D02*
X172595000Y-99795000D01*
X171595000Y-98795000D02*
X171595000Y-92795000D01*
X170595000Y-93795000D02*
X170595000Y-97795000D01*
X140455000Y-121085000D02*
X156255000Y-121085000D01*
X156255000Y-132285000D02*
X140455000Y-132285000D01*
X156255000Y-132285000D02*
G75*
G02X158255000Y-134285000I0J-2000000D01*
G01*
X138455000Y-134285000D02*
G75*
G02X140455000Y-132285000I2000000J0D01*
G01*
X140455000Y-121085000D02*
G75*
G02X138455000Y-119085000I0J2000000D01*
G01*
X158255000Y-119085000D02*
G75*
G02X156255000Y-121085000I-2000000J0D01*
G01*
X138455000Y-119085000D02*
X120455000Y-119085000D01*
X138455000Y-134285000D02*
X120455000Y-134285000D01*
X176255000Y-134285000D02*
X158255000Y-134285000D01*
X120455000Y-134285000D02*
X120455000Y-119085000D01*
X176255000Y-119085000D02*
X158255000Y-119085000D01*
X176255000Y-134285000D02*
X176255000Y-119085000D01*
X176975000Y-135250000D02*
X119735000Y-135250000D01*
X176975000Y-118120000D02*
X176975000Y-135250000D01*
X119735000Y-118120000D02*
X176975000Y-118120000D01*
X119735000Y-135250000D02*
X119735000Y-118120000D01*
X127045000Y-127745000D02*
X127045000Y-125745000D01*
X124045000Y-130745000D02*
X124045000Y-122745000D01*
X125045000Y-123745000D02*
X125045000Y-129745000D01*
X126045000Y-128745000D02*
X126045000Y-124745000D01*
X183406385Y-126497413D02*
G75*
G02X183530000Y-127105000I-1431385J-607587D01*
G01*
X181367258Y-125672891D02*
G75*
G02X182583000Y-125673000I607742J-1432109D01*
G01*
X180542891Y-127712742D02*
G75*
G02X180543000Y-126497000I1432109J607742D01*
G01*
X182582742Y-128537109D02*
G75*
G02X181367000Y-128537000I-607742J1432109D01*
G01*
X183530492Y-127077989D02*
G75*
G02X183407000Y-127713000I-1555492J-27011D01*
G01*
X183530000Y-123605000D02*
G75*
G03X183530000Y-123605000I-1555000J0D01*
G01*
X183530000Y-120105000D02*
G75*
G03X183530000Y-120105000I-1555000J0D01*
G01*
X184075000Y-129265000D02*
X184075000Y-117945000D01*
X178515000Y-129265000D02*
X178515000Y-117945000D01*
X185635000Y-129265000D02*
X185635000Y-117945000D01*
X178515000Y-129265000D02*
X185635000Y-129265000D01*
X178515000Y-117945000D02*
X185635000Y-117945000D01*
X184135000Y-129505000D02*
X185875000Y-129505000D01*
X185875000Y-129505000D02*
X185875000Y-128005000D01*
X175890000Y-117605000D02*
X175890000Y-114945000D01*
X150430000Y-117605000D02*
X175890000Y-117605000D01*
X150430000Y-114945000D02*
X175890000Y-114945000D01*
X150430000Y-117605000D02*
X150430000Y-114945000D01*
X149160000Y-117605000D02*
X147830000Y-117605000D01*
X147830000Y-117605000D02*
X147830000Y-116275000D01*
X147830000Y-104785000D02*
X147830000Y-107445000D01*
X173290000Y-104785000D02*
X147830000Y-104785000D01*
X173290000Y-107445000D02*
X147830000Y-107445000D01*
X173290000Y-104785000D02*
X173290000Y-107445000D01*
X174560000Y-104785000D02*
X175890000Y-104785000D01*
X175890000Y-104785000D02*
X175890000Y-106115000D01*
X175890000Y-107325000D02*
X173230000Y-107325000D01*
X175890000Y-112465000D02*
X175890000Y-107325000D01*
X173230000Y-112465000D02*
X173230000Y-107325000D01*
X175890000Y-112465000D02*
X173230000Y-112465000D01*
X175890000Y-113735000D02*
X175890000Y-115065000D01*
X175890000Y-115065000D02*
X174560000Y-115065000D01*
X150490000Y-107325000D02*
X147830000Y-107325000D01*
X150490000Y-112465000D02*
X150490000Y-107325000D01*
X147830000Y-112465000D02*
X147830000Y-107325000D01*
X150490000Y-112465000D02*
X147830000Y-112465000D01*
X150490000Y-113735000D02*
X150490000Y-115065000D01*
X150490000Y-115065000D02*
X149160000Y-115065000D01*
X173350000Y-109985000D02*
X173350000Y-107325000D01*
X152970000Y-109985000D02*
X173350000Y-109985000D01*
X152970000Y-107325000D02*
X173350000Y-107325000D01*
X152970000Y-109985000D02*
X152970000Y-107325000D01*
X151700000Y-109985000D02*
X150370000Y-109985000D01*
X150370000Y-109985000D02*
X150370000Y-108655000D01*
X173350000Y-112525000D02*
X173350000Y-109865000D01*
X152970000Y-112525000D02*
X173350000Y-112525000D01*
X152970000Y-109865000D02*
X173350000Y-109865000D01*
X152970000Y-112525000D02*
X152970000Y-109865000D01*
X151700000Y-112525000D02*
X150370000Y-112525000D01*
X150370000Y-112525000D02*
X150370000Y-111195000D01*
X175770000Y-107445000D02*
X178430000Y-107445000D01*
X175770000Y-107385000D02*
X175770000Y-107445000D01*
X178430000Y-107385000D02*
X178430000Y-107445000D01*
X175770000Y-107385000D02*
X178430000Y-107385000D01*
X175770000Y-106115000D02*
X175770000Y-104785000D01*
X175770000Y-104785000D02*
X177100000Y-104785000D01*
X173350000Y-115065000D02*
X173350000Y-112405000D01*
X152970000Y-115065000D02*
X173350000Y-115065000D01*
X152970000Y-112405000D02*
X173350000Y-112405000D01*
X152970000Y-115065000D02*
X152970000Y-112405000D01*
X151700000Y-115065000D02*
X150370000Y-115065000D01*
X150370000Y-115065000D02*
X150370000Y-113735000D01*
X114240000Y-99860000D02*
X116900000Y-99860000D01*
X114240000Y-99800000D02*
X114240000Y-99860000D01*
X116900000Y-99800000D02*
X116900000Y-99860000D01*
X114240000Y-99800000D02*
X116900000Y-99800000D01*
X114240000Y-98530000D02*
X114240000Y-97200000D01*
X114240000Y-97200000D02*
X115570000Y-97200000D01*
X150370000Y-60985000D02*
X150370000Y-59655000D01*
X151700000Y-60985000D02*
X150370000Y-60985000D01*
X152970000Y-60985000D02*
X152970000Y-58325000D01*
X152970000Y-58325000D02*
X173350000Y-58325000D01*
X152970000Y-60985000D02*
X173350000Y-60985000D01*
X173350000Y-60985000D02*
X173350000Y-58325000D01*
X150370000Y-63525000D02*
X150370000Y-62195000D01*
X151700000Y-63525000D02*
X150370000Y-63525000D01*
X152970000Y-63525000D02*
X152970000Y-60865000D01*
X152970000Y-60865000D02*
X173350000Y-60865000D01*
X152970000Y-63525000D02*
X173350000Y-63525000D01*
X173350000Y-63525000D02*
X173350000Y-60865000D01*
X150370000Y-66065000D02*
X150370000Y-64735000D01*
X151700000Y-66065000D02*
X150370000Y-66065000D01*
X152970000Y-66065000D02*
X152970000Y-63405000D01*
X152970000Y-63405000D02*
X173350000Y-63405000D01*
X152970000Y-66065000D02*
X173350000Y-66065000D01*
X173350000Y-66065000D02*
X173350000Y-63405000D01*
X114240000Y-48200000D02*
X115570000Y-48200000D01*
X114240000Y-49530000D02*
X114240000Y-48200000D01*
X114240000Y-50800000D02*
X116900000Y-50800000D01*
X116900000Y-50800000D02*
X116900000Y-50860000D01*
X114240000Y-50800000D02*
X114240000Y-50860000D01*
X114240000Y-50860000D02*
X116900000Y-50860000D01*
X175770000Y-55785000D02*
X177100000Y-55785000D01*
X175770000Y-57115000D02*
X175770000Y-55785000D01*
X175770000Y-58385000D02*
X178430000Y-58385000D01*
X178430000Y-58385000D02*
X178430000Y-58445000D01*
X175770000Y-58385000D02*
X175770000Y-58445000D01*
X175770000Y-58445000D02*
X178430000Y-58445000D01*
X185875000Y-55570000D02*
X185875000Y-54070000D01*
X184135000Y-55570000D02*
X185875000Y-55570000D01*
X178515000Y-44010000D02*
X185635000Y-44010000D01*
X178515000Y-55330000D02*
X185635000Y-55330000D01*
X185635000Y-55330000D02*
X185635000Y-44010000D01*
X178515000Y-55330000D02*
X178515000Y-44010000D01*
X184075000Y-55330000D02*
X184075000Y-44010000D01*
X183530000Y-46170000D02*
G75*
G03X183530000Y-46170000I-1555000J0D01*
G01*
X183530000Y-49670000D02*
G75*
G03X183530000Y-49670000I-1555000J0D01*
G01*
X183530492Y-53142989D02*
G75*
G02X183407000Y-53778000I-1555492J-27011D01*
G01*
X182582742Y-54602109D02*
G75*
G02X181367000Y-54602000I-607742J1432109D01*
G01*
X180542891Y-53777742D02*
G75*
G02X180543000Y-52562000I1432109J607742D01*
G01*
X181367258Y-51737891D02*
G75*
G02X182583000Y-51738000I607742J-1432109D01*
G01*
X183406385Y-52562413D02*
G75*
G02X183530000Y-53170000I-1431385J-607587D01*
G01*
X175890000Y-55785000D02*
X175890000Y-57115000D01*
X174560000Y-55785000D02*
X175890000Y-55785000D01*
X173290000Y-55785000D02*
X173290000Y-58445000D01*
X173290000Y-58445000D02*
X147830000Y-58445000D01*
X173290000Y-55785000D02*
X147830000Y-55785000D01*
X147830000Y-55785000D02*
X147830000Y-58445000D01*
X147830000Y-68605000D02*
X147830000Y-67275000D01*
X149160000Y-68605000D02*
X147830000Y-68605000D01*
X150430000Y-68605000D02*
X150430000Y-65945000D01*
X150430000Y-65945000D02*
X175890000Y-65945000D01*
X150430000Y-68605000D02*
X175890000Y-68605000D01*
X175890000Y-68605000D02*
X175890000Y-65945000D01*
X150490000Y-66065000D02*
X149160000Y-66065000D01*
X150490000Y-64735000D02*
X150490000Y-66065000D01*
X150490000Y-63465000D02*
X147830000Y-63465000D01*
X147830000Y-63465000D02*
X147830000Y-58325000D01*
X150490000Y-63465000D02*
X150490000Y-58325000D01*
X150490000Y-58325000D02*
X147830000Y-58325000D01*
X175890000Y-66065000D02*
X174560000Y-66065000D01*
X175890000Y-64735000D02*
X175890000Y-66065000D01*
X175890000Y-63465000D02*
X173230000Y-63465000D01*
X173230000Y-63465000D02*
X173230000Y-58325000D01*
X175890000Y-63465000D02*
X175890000Y-58325000D01*
X175890000Y-58325000D02*
X173230000Y-58325000D01*
X170595000Y-44795000D02*
X170595000Y-48795000D01*
X171595000Y-49795000D02*
X171595000Y-43795000D01*
X172595000Y-42795000D02*
X172595000Y-50795000D01*
X169595000Y-45795000D02*
X169595000Y-47795000D01*
X176905000Y-38290000D02*
X176905000Y-55420000D01*
X176905000Y-55420000D02*
X119665000Y-55420000D01*
X119665000Y-55420000D02*
X119665000Y-38290000D01*
X119665000Y-38290000D02*
X176905000Y-38290000D01*
X120385000Y-39255000D02*
X120385000Y-54455000D01*
X120385000Y-54455000D02*
X138385000Y-54455000D01*
X176185000Y-39255000D02*
X176185000Y-54455000D01*
X120385000Y-39255000D02*
X138385000Y-39255000D01*
X158185000Y-39255000D02*
X176185000Y-39255000D01*
X158185000Y-54455000D02*
X176185000Y-54455000D01*
X138385000Y-54455000D02*
G75*
G02X140385000Y-52455000I2000000J0D01*
G01*
X156185000Y-52455000D02*
G75*
G02X158185000Y-54455000I0J-2000000D01*
G01*
X158185000Y-39255000D02*
G75*
G02X156185000Y-41255000I-2000000J0D01*
G01*
X140385000Y-41255000D02*
G75*
G02X138385000Y-39255000I0J2000000D01*
G01*
X140385000Y-41255000D02*
X156185000Y-41255000D01*
X156185000Y-52455000D02*
X140385000Y-52455000D01*
X185875000Y-80505000D02*
X185875000Y-79005000D01*
X184135000Y-80505000D02*
X185875000Y-80505000D01*
X178515000Y-68945000D02*
X185635000Y-68945000D01*
X178515000Y-80265000D02*
X185635000Y-80265000D01*
X185635000Y-80265000D02*
X185635000Y-68945000D01*
X178515000Y-80265000D02*
X178515000Y-68945000D01*
X184075000Y-80265000D02*
X184075000Y-68945000D01*
X183530000Y-71105000D02*
G75*
G03X183530000Y-71105000I-1555000J0D01*
G01*
X183530000Y-74605000D02*
G75*
G03X183530000Y-74605000I-1555000J0D01*
G01*
X183530492Y-78077989D02*
G75*
G02X183407000Y-78713000I-1555492J-27011D01*
G01*
X182582742Y-79537109D02*
G75*
G02X181367000Y-79537000I-607742J1432109D01*
G01*
X180542891Y-78712742D02*
G75*
G02X180543000Y-77497000I1432109J607742D01*
G01*
X181367258Y-76672891D02*
G75*
G02X182583000Y-76673000I607742J-1432109D01*
G01*
X183406385Y-77497413D02*
G75*
G02X183530000Y-78105000I-1431385J-607587D01*
G01*
X126045000Y-79745000D02*
X126045000Y-75745000D01*
X125045000Y-74745000D02*
X125045000Y-80745000D01*
X124045000Y-81745000D02*
X124045000Y-73745000D01*
X127045000Y-78745000D02*
X127045000Y-76745000D01*
X119735000Y-86250000D02*
X119735000Y-69120000D01*
X119735000Y-69120000D02*
X176975000Y-69120000D01*
X176975000Y-69120000D02*
X176975000Y-86250000D01*
X176975000Y-86250000D02*
X119735000Y-86250000D01*
X176255000Y-85285000D02*
X176255000Y-70085000D01*
X176255000Y-70085000D02*
X158255000Y-70085000D01*
X120455000Y-85285000D02*
X120455000Y-70085000D01*
X176255000Y-85285000D02*
X158255000Y-85285000D01*
X138455000Y-85285000D02*
X120455000Y-85285000D01*
X138455000Y-70085000D02*
X120455000Y-70085000D01*
X158255000Y-70085000D02*
G75*
G02X156255000Y-72085000I-2000000J0D01*
G01*
X140455000Y-72085000D02*
G75*
G02X138455000Y-70085000I0J2000000D01*
G01*
X138455000Y-85285000D02*
G75*
G02X140455000Y-83285000I2000000J0D01*
G01*
X156255000Y-83285000D02*
G75*
G02X158255000Y-85285000I0J-2000000D01*
G01*
X156255000Y-83285000D02*
X140455000Y-83285000D01*
X140455000Y-72085000D02*
X156255000Y-72085000D01*
D10*
X180792380Y-91708333D02*
X181506666Y-91708333D01*
X181649523Y-91755952D01*
X181744761Y-91851190D01*
X181792380Y-91994047D01*
X181792380Y-92089285D01*
X181792380Y-90708333D02*
X181792380Y-91279761D01*
X181792380Y-90994047D02*
X180792380Y-90994047D01*
X180935238Y-91089285D01*
X181030476Y-91184523D01*
X181078095Y-91279761D01*
X116419285Y-93878571D02*
X116562142Y-93926190D01*
X116609761Y-93973809D01*
X116657380Y-94069047D01*
X116657380Y-94211904D01*
X116609761Y-94307142D01*
X116562142Y-94354761D01*
X116466904Y-94402380D01*
X116085952Y-94402380D01*
X116085952Y-93402380D01*
X116419285Y-93402380D01*
X116514523Y-93450000D01*
X116562142Y-93497619D01*
X116609761Y-93592857D01*
X116609761Y-93688095D01*
X116562142Y-93783333D01*
X116514523Y-93830952D01*
X116419285Y-93878571D01*
X116085952Y-93878571D01*
X116943095Y-93402380D02*
X117514523Y-93402380D01*
X117228809Y-94402380D02*
X117228809Y-93402380D01*
X118371666Y-94402380D02*
X117800238Y-94402380D01*
X118085952Y-94402380D02*
X118085952Y-93402380D01*
X117990714Y-93545238D01*
X117895476Y-93640476D01*
X117800238Y-93688095D01*
X177274047Y-95866428D02*
X178035952Y-95866428D01*
X118504047Y-95866428D02*
X119265952Y-95866428D01*
X118885000Y-96247380D02*
X118885000Y-95485476D01*
X116419285Y-128518571D02*
X116562142Y-128566190D01*
X116609761Y-128613809D01*
X116657380Y-128709047D01*
X116657380Y-128851904D01*
X116609761Y-128947142D01*
X116562142Y-128994761D01*
X116466904Y-129042380D01*
X116085952Y-129042380D01*
X116085952Y-128042380D01*
X116419285Y-128042380D01*
X116514523Y-128090000D01*
X116562142Y-128137619D01*
X116609761Y-128232857D01*
X116609761Y-128328095D01*
X116562142Y-128423333D01*
X116514523Y-128470952D01*
X116419285Y-128518571D01*
X116085952Y-128518571D01*
X116943095Y-128042380D02*
X117514523Y-128042380D01*
X117228809Y-129042380D02*
X117228809Y-128042380D01*
X117800238Y-128137619D02*
X117847857Y-128090000D01*
X117943095Y-128042380D01*
X118181190Y-128042380D01*
X118276428Y-128090000D01*
X118324047Y-128137619D01*
X118371666Y-128232857D01*
X118371666Y-128328095D01*
X118324047Y-128470952D01*
X117752619Y-129042380D01*
X118371666Y-129042380D01*
X118604047Y-126816428D02*
X119365952Y-126816428D01*
X177374047Y-126816428D02*
X178135952Y-126816428D01*
X177755000Y-127197380D02*
X177755000Y-126435476D01*
X180792380Y-116643333D02*
X181506666Y-116643333D01*
X181649523Y-116690952D01*
X181744761Y-116786190D01*
X181792380Y-116929047D01*
X181792380Y-117024285D01*
X180887619Y-116214761D02*
X180840000Y-116167142D01*
X180792380Y-116071904D01*
X180792380Y-115833809D01*
X180840000Y-115738571D01*
X180887619Y-115690952D01*
X180982857Y-115643333D01*
X181078095Y-115643333D01*
X181220952Y-115690952D01*
X181792380Y-116262380D01*
X181792380Y-115643333D01*
X146282380Y-116608333D02*
X146996666Y-116608333D01*
X147139523Y-116655952D01*
X147234761Y-116751190D01*
X147282380Y-116894047D01*
X147282380Y-116989285D01*
X146282380Y-115655952D02*
X146282380Y-116132142D01*
X146758571Y-116179761D01*
X146710952Y-116132142D01*
X146663333Y-116036904D01*
X146663333Y-115798809D01*
X146710952Y-115703571D01*
X146758571Y-115655952D01*
X146853809Y-115608333D01*
X147091904Y-115608333D01*
X147187142Y-115655952D01*
X147234761Y-115703571D01*
X147282380Y-115798809D01*
X147282380Y-116036904D01*
X147234761Y-116132142D01*
X147187142Y-116179761D01*
X179157380Y-106483333D02*
X179871666Y-106483333D01*
X180014523Y-106530952D01*
X180109761Y-106626190D01*
X180157380Y-106769047D01*
X180157380Y-106864285D01*
X179585952Y-105864285D02*
X179538333Y-105959523D01*
X179490714Y-106007142D01*
X179395476Y-106054761D01*
X179347857Y-106054761D01*
X179252619Y-106007142D01*
X179205000Y-105959523D01*
X179157380Y-105864285D01*
X179157380Y-105673809D01*
X179205000Y-105578571D01*
X179252619Y-105530952D01*
X179347857Y-105483333D01*
X179395476Y-105483333D01*
X179490714Y-105530952D01*
X179538333Y-105578571D01*
X179585952Y-105673809D01*
X179585952Y-105864285D01*
X179633571Y-105959523D01*
X179681190Y-106007142D01*
X179776428Y-106054761D01*
X179966904Y-106054761D01*
X180062142Y-106007142D01*
X180109761Y-105959523D01*
X180157380Y-105864285D01*
X180157380Y-105673809D01*
X180109761Y-105578571D01*
X180062142Y-105530952D01*
X179966904Y-105483333D01*
X179776428Y-105483333D01*
X179681190Y-105530952D01*
X179633571Y-105578571D01*
X179585952Y-105673809D01*
X176831666Y-110682380D02*
X176831666Y-111396666D01*
X176784047Y-111539523D01*
X176688809Y-111634761D01*
X176545952Y-111682380D01*
X176450714Y-111682380D01*
X177212619Y-110682380D02*
X177831666Y-110682380D01*
X177498333Y-111063333D01*
X177641190Y-111063333D01*
X177736428Y-111110952D01*
X177784047Y-111158571D01*
X177831666Y-111253809D01*
X177831666Y-111491904D01*
X177784047Y-111587142D01*
X177736428Y-111634761D01*
X177641190Y-111682380D01*
X177355476Y-111682380D01*
X177260238Y-111634761D01*
X177212619Y-111587142D01*
X145716666Y-110682380D02*
X145716666Y-111396666D01*
X145669047Y-111539523D01*
X145573809Y-111634761D01*
X145430952Y-111682380D01*
X145335714Y-111682380D01*
X146621428Y-111015714D02*
X146621428Y-111682380D01*
X146383333Y-110634761D02*
X146145238Y-111349047D01*
X146764285Y-111349047D01*
X115236666Y-95652380D02*
X115236666Y-96366666D01*
X115189047Y-96509523D01*
X115093809Y-96604761D01*
X114950952Y-96652380D01*
X114855714Y-96652380D01*
X116141428Y-95652380D02*
X115950952Y-95652380D01*
X115855714Y-95700000D01*
X115808095Y-95747619D01*
X115712857Y-95890476D01*
X115665238Y-96080952D01*
X115665238Y-96461904D01*
X115712857Y-96557142D01*
X115760476Y-96604761D01*
X115855714Y-96652380D01*
X116046190Y-96652380D01*
X116141428Y-96604761D01*
X116189047Y-96557142D01*
X116236666Y-96461904D01*
X116236666Y-96223809D01*
X116189047Y-96128571D01*
X116141428Y-96080952D01*
X116046190Y-96033333D01*
X115855714Y-96033333D01*
X115760476Y-96080952D01*
X115712857Y-96128571D01*
X115665238Y-96223809D01*
X115236666Y-46652380D02*
X115236666Y-47366666D01*
X115189047Y-47509523D01*
X115093809Y-47604761D01*
X114950952Y-47652380D01*
X114855714Y-47652380D01*
X116141428Y-46652380D02*
X115950952Y-46652380D01*
X115855714Y-46700000D01*
X115808095Y-46747619D01*
X115712857Y-46890476D01*
X115665238Y-47080952D01*
X115665238Y-47461904D01*
X115712857Y-47557142D01*
X115760476Y-47604761D01*
X115855714Y-47652380D01*
X116046190Y-47652380D01*
X116141428Y-47604761D01*
X116189047Y-47557142D01*
X116236666Y-47461904D01*
X116236666Y-47223809D01*
X116189047Y-47128571D01*
X116141428Y-47080952D01*
X116046190Y-47033333D01*
X115855714Y-47033333D01*
X115760476Y-47080952D01*
X115712857Y-47128571D01*
X115665238Y-47223809D01*
X180792380Y-42708333D02*
X181506666Y-42708333D01*
X181649523Y-42755952D01*
X181744761Y-42851190D01*
X181792380Y-42994047D01*
X181792380Y-43089285D01*
X181792380Y-41708333D02*
X181792380Y-42279761D01*
X181792380Y-41994047D02*
X180792380Y-41994047D01*
X180935238Y-42089285D01*
X181030476Y-42184523D01*
X181078095Y-42279761D01*
X179157380Y-57483333D02*
X179871666Y-57483333D01*
X180014523Y-57530952D01*
X180109761Y-57626190D01*
X180157380Y-57769047D01*
X180157380Y-57864285D01*
X179585952Y-56864285D02*
X179538333Y-56959523D01*
X179490714Y-57007142D01*
X179395476Y-57054761D01*
X179347857Y-57054761D01*
X179252619Y-57007142D01*
X179205000Y-56959523D01*
X179157380Y-56864285D01*
X179157380Y-56673809D01*
X179205000Y-56578571D01*
X179252619Y-56530952D01*
X179347857Y-56483333D01*
X179395476Y-56483333D01*
X179490714Y-56530952D01*
X179538333Y-56578571D01*
X179585952Y-56673809D01*
X179585952Y-56864285D01*
X179633571Y-56959523D01*
X179681190Y-57007142D01*
X179776428Y-57054761D01*
X179966904Y-57054761D01*
X180062142Y-57007142D01*
X180109761Y-56959523D01*
X180157380Y-56864285D01*
X180157380Y-56673809D01*
X180109761Y-56578571D01*
X180062142Y-56530952D01*
X179966904Y-56483333D01*
X179776428Y-56483333D01*
X179681190Y-56530952D01*
X179633571Y-56578571D01*
X179585952Y-56673809D01*
X146282380Y-67608333D02*
X146996666Y-67608333D01*
X147139523Y-67655952D01*
X147234761Y-67751190D01*
X147282380Y-67894047D01*
X147282380Y-67989285D01*
X146282380Y-66655952D02*
X146282380Y-67132142D01*
X146758571Y-67179761D01*
X146710952Y-67132142D01*
X146663333Y-67036904D01*
X146663333Y-66798809D01*
X146710952Y-66703571D01*
X146758571Y-66655952D01*
X146853809Y-66608333D01*
X147091904Y-66608333D01*
X147187142Y-66655952D01*
X147234761Y-66703571D01*
X147282380Y-66798809D01*
X147282380Y-67036904D01*
X147234761Y-67132142D01*
X147187142Y-67179761D01*
X145716666Y-61682380D02*
X145716666Y-62396666D01*
X145669047Y-62539523D01*
X145573809Y-62634761D01*
X145430952Y-62682380D01*
X145335714Y-62682380D01*
X146621428Y-62015714D02*
X146621428Y-62682380D01*
X146383333Y-61634761D02*
X146145238Y-62349047D01*
X146764285Y-62349047D01*
X176831666Y-61682380D02*
X176831666Y-62396666D01*
X176784047Y-62539523D01*
X176688809Y-62634761D01*
X176545952Y-62682380D01*
X176450714Y-62682380D01*
X177212619Y-61682380D02*
X177831666Y-61682380D01*
X177498333Y-62063333D01*
X177641190Y-62063333D01*
X177736428Y-62110952D01*
X177784047Y-62158571D01*
X177831666Y-62253809D01*
X177831666Y-62491904D01*
X177784047Y-62587142D01*
X177736428Y-62634761D01*
X177641190Y-62682380D01*
X177355476Y-62682380D01*
X177260238Y-62634761D01*
X177212619Y-62587142D01*
X116419285Y-44878571D02*
X116562142Y-44926190D01*
X116609761Y-44973809D01*
X116657380Y-45069047D01*
X116657380Y-45211904D01*
X116609761Y-45307142D01*
X116562142Y-45354761D01*
X116466904Y-45402380D01*
X116085952Y-45402380D01*
X116085952Y-44402380D01*
X116419285Y-44402380D01*
X116514523Y-44450000D01*
X116562142Y-44497619D01*
X116609761Y-44592857D01*
X116609761Y-44688095D01*
X116562142Y-44783333D01*
X116514523Y-44830952D01*
X116419285Y-44878571D01*
X116085952Y-44878571D01*
X116943095Y-44402380D02*
X117514523Y-44402380D01*
X117228809Y-45402380D02*
X117228809Y-44402380D01*
X118371666Y-45402380D02*
X117800238Y-45402380D01*
X118085952Y-45402380D02*
X118085952Y-44402380D01*
X117990714Y-44545238D01*
X117895476Y-44640476D01*
X117800238Y-44688095D01*
X118504047Y-46866428D02*
X119265952Y-46866428D01*
X118885000Y-47247380D02*
X118885000Y-46485476D01*
X177274047Y-46866428D02*
X178035952Y-46866428D01*
X180792380Y-67643333D02*
X181506666Y-67643333D01*
X181649523Y-67690952D01*
X181744761Y-67786190D01*
X181792380Y-67929047D01*
X181792380Y-68024285D01*
X180887619Y-67214761D02*
X180840000Y-67167142D01*
X180792380Y-67071904D01*
X180792380Y-66833809D01*
X180840000Y-66738571D01*
X180887619Y-66690952D01*
X180982857Y-66643333D01*
X181078095Y-66643333D01*
X181220952Y-66690952D01*
X181792380Y-67262380D01*
X181792380Y-66643333D01*
X116419285Y-79518571D02*
X116562142Y-79566190D01*
X116609761Y-79613809D01*
X116657380Y-79709047D01*
X116657380Y-79851904D01*
X116609761Y-79947142D01*
X116562142Y-79994761D01*
X116466904Y-80042380D01*
X116085952Y-80042380D01*
X116085952Y-79042380D01*
X116419285Y-79042380D01*
X116514523Y-79090000D01*
X116562142Y-79137619D01*
X116609761Y-79232857D01*
X116609761Y-79328095D01*
X116562142Y-79423333D01*
X116514523Y-79470952D01*
X116419285Y-79518571D01*
X116085952Y-79518571D01*
X116943095Y-79042380D02*
X117514523Y-79042380D01*
X117228809Y-80042380D02*
X117228809Y-79042380D01*
X117800238Y-79137619D02*
X117847857Y-79090000D01*
X117943095Y-79042380D01*
X118181190Y-79042380D01*
X118276428Y-79090000D01*
X118324047Y-79137619D01*
X118371666Y-79232857D01*
X118371666Y-79328095D01*
X118324047Y-79470952D01*
X117752619Y-80042380D01*
X118371666Y-80042380D01*
X177374047Y-77816428D02*
X178135952Y-77816428D01*
X177755000Y-78197380D02*
X177755000Y-77435476D01*
X118604047Y-77816428D02*
X119365952Y-77816428D01*
%LPC*%
D12*
X181975000Y-102170000D03*
D13*
X181975000Y-98670000D03*
X181975000Y-95170000D03*
D14*
X125035000Y-89860000D03*
X171515000Y-101850000D03*
D15*
X174275000Y-95855000D03*
X122285000Y-95855000D03*
D14*
X171605000Y-132680000D03*
X125125000Y-120690000D03*
D15*
X122365000Y-126685000D03*
X174355000Y-126685000D03*
D12*
X181975000Y-127105000D03*
D13*
X181975000Y-123605000D03*
X181975000Y-120105000D03*
D16*
X149160000Y-116275000D03*
D17*
X151700000Y-116275000D03*
X154240000Y-116275000D03*
X156780000Y-116275000D03*
X159320000Y-116275000D03*
X161860000Y-116275000D03*
X164400000Y-116275000D03*
X166940000Y-116275000D03*
X169480000Y-116275000D03*
X172020000Y-116275000D03*
X174560000Y-116275000D03*
D16*
X174560000Y-106115000D03*
D17*
X172020000Y-106115000D03*
X169480000Y-106115000D03*
X166940000Y-106115000D03*
X164400000Y-106115000D03*
X161860000Y-106115000D03*
X159320000Y-106115000D03*
X156780000Y-106115000D03*
X154240000Y-106115000D03*
X151700000Y-106115000D03*
X149160000Y-106115000D03*
D18*
X174565000Y-91270000D03*
D16*
X174560000Y-113735000D03*
D17*
X174560000Y-111195000D03*
X174560000Y-108655000D03*
D18*
X181565000Y-111270000D03*
D16*
X149160000Y-113735000D03*
D17*
X149160000Y-111195000D03*
X149160000Y-108655000D03*
D18*
X124565000Y-131270000D03*
X117565000Y-111270000D03*
D16*
X151700000Y-108655000D03*
D17*
X154240000Y-108655000D03*
X156780000Y-108655000D03*
X159320000Y-108655000D03*
X161860000Y-108655000D03*
X164400000Y-108655000D03*
X166940000Y-108655000D03*
X169480000Y-108655000D03*
X172020000Y-108655000D03*
D16*
X151700000Y-111195000D03*
D17*
X154240000Y-111195000D03*
X156780000Y-111195000D03*
X159320000Y-111195000D03*
X161860000Y-111195000D03*
X164400000Y-111195000D03*
X166940000Y-111195000D03*
X169480000Y-111195000D03*
X172020000Y-111195000D03*
D16*
X177100000Y-106115000D03*
X151700000Y-113735000D03*
D17*
X154240000Y-113735000D03*
X156780000Y-113735000D03*
X159320000Y-113735000D03*
X161860000Y-113735000D03*
X164400000Y-113735000D03*
X166940000Y-113735000D03*
X169480000Y-113735000D03*
X172020000Y-113735000D03*
D16*
X115570000Y-98530000D03*
D17*
X172020000Y-59655000D03*
X169480000Y-59655000D03*
X166940000Y-59655000D03*
X164400000Y-59655000D03*
X161860000Y-59655000D03*
X159320000Y-59655000D03*
X156780000Y-59655000D03*
X154240000Y-59655000D03*
D16*
X151700000Y-59655000D03*
D17*
X172020000Y-62195000D03*
X169480000Y-62195000D03*
X166940000Y-62195000D03*
X164400000Y-62195000D03*
X161860000Y-62195000D03*
X159320000Y-62195000D03*
X156780000Y-62195000D03*
X154240000Y-62195000D03*
D16*
X151700000Y-62195000D03*
D17*
X172020000Y-64735000D03*
X169480000Y-64735000D03*
X166940000Y-64735000D03*
X164400000Y-64735000D03*
X161860000Y-64735000D03*
X159320000Y-64735000D03*
X156780000Y-64735000D03*
X154240000Y-64735000D03*
D16*
X151700000Y-64735000D03*
X115570000Y-49530000D03*
X177100000Y-57115000D03*
D13*
X181975000Y-46170000D03*
X181975000Y-49670000D03*
D12*
X181975000Y-53170000D03*
D17*
X149160000Y-57115000D03*
X151700000Y-57115000D03*
X154240000Y-57115000D03*
X156780000Y-57115000D03*
X159320000Y-57115000D03*
X161860000Y-57115000D03*
X164400000Y-57115000D03*
X166940000Y-57115000D03*
X169480000Y-57115000D03*
X172020000Y-57115000D03*
D16*
X174560000Y-57115000D03*
D17*
X174560000Y-67275000D03*
X172020000Y-67275000D03*
X169480000Y-67275000D03*
X166940000Y-67275000D03*
X164400000Y-67275000D03*
X161860000Y-67275000D03*
X159320000Y-67275000D03*
X156780000Y-67275000D03*
X154240000Y-67275000D03*
X151700000Y-67275000D03*
D16*
X149160000Y-67275000D03*
D17*
X149160000Y-59655000D03*
X149160000Y-62195000D03*
D16*
X149160000Y-64735000D03*
D17*
X174560000Y-59655000D03*
X174560000Y-62195000D03*
D16*
X174560000Y-64735000D03*
D15*
X122285000Y-46855000D03*
X174275000Y-46855000D03*
D14*
X171515000Y-52850000D03*
X125035000Y-40860000D03*
D13*
X181975000Y-71105000D03*
X181975000Y-74605000D03*
D12*
X181975000Y-78105000D03*
D15*
X174355000Y-77685000D03*
X122365000Y-77685000D03*
D14*
X125125000Y-71690000D03*
X171605000Y-83680000D03*
D18*
X117565000Y-62270000D03*
X124565000Y-82270000D03*
X174565000Y-42270000D03*
X181565000Y-62270000D03*
M02*
