M48
; DRILL file {KiCad 5.1.5-52549c5~86~ubuntu18.04.1} date jue 02 jul 2020 00:48:09 -05
; FORMAT={-:-/ absolute / metric / decimal}
; #@! TF.CreationDate,2020-07-02T00:48:09-05:00
; #@! TF.GenerationSoftware,Kicad,Pcbnew,5.1.5-52549c5~86~ubuntu18.04.1
; #@! TF.FileFunction,Plated,1,2,PTH
FMAT,2
METRIC
T1C0.400
T2C1.000
T3C1.020
T4C1.200
%
G90
G05
T1
X132.08Y-103.925
X134.62Y-116.205
X137.16Y-117.475
X138.43Y-103.505
X162.56Y-136.525
X165.735Y-109.855
T2
X137.095Y-129.505
X139.635Y-129.505
X142.175Y-129.505
X144.715Y-129.505
X147.255Y-129.505
X149.795Y-129.505
X152.335Y-129.505
X154.875Y-129.505
X157.415Y-129.505
X159.955Y-129.505
X162.495Y-129.505
X165.035Y-119.345
X137.095Y-119.345
X139.635Y-119.345
X142.175Y-119.345
X144.715Y-119.345
X147.255Y-119.345
X149.795Y-119.345
X152.335Y-119.345
X154.875Y-119.345
X157.415Y-119.345
X159.955Y-119.345
X162.495Y-119.345
X139.635Y-124.425
X142.175Y-124.425
X144.715Y-124.425
X147.255Y-124.425
X149.795Y-124.425
X152.335Y-124.425
X154.875Y-124.425
X157.415Y-124.425
X159.955Y-124.425
X103.505Y-111.76
X162.495Y-121.885
X162.495Y-124.425
X162.495Y-126.965
X137.095Y-121.885
X137.095Y-124.425
X137.095Y-126.965
X139.635Y-121.885
X142.175Y-121.885
X144.715Y-121.885
X147.255Y-121.885
X149.795Y-121.885
X152.335Y-121.885
X154.875Y-121.885
X157.415Y-121.885
X159.955Y-121.885
X139.635Y-126.965
X142.175Y-126.965
X144.715Y-126.965
X147.255Y-126.965
X149.795Y-126.965
X152.335Y-126.965
X154.875Y-126.965
X157.415Y-126.965
X159.955Y-126.965
T3
X109.22Y-109.085
X161.21Y-109.085
X109.3Y-139.915
X161.29Y-139.915
T4
X168.91Y-133.335
X168.91Y-136.835
X168.91Y-140.335
X168.91Y-108.4
X168.91Y-111.9
X168.91Y-115.4
T0
M30
