G04 #@! TF.GenerationSoftware,KiCad,Pcbnew,5.1.5-52549c5~86~ubuntu18.04.1*
G04 #@! TF.CreationDate,2020-08-17T23:59:02-05:00*
G04 #@! TF.ProjectId,RAK811_LORA_ADAPTABLE_NODE,52414b38-3131-45f4-9c4f-52415f414441,rev?*
G04 #@! TF.SameCoordinates,Original*
G04 #@! TF.FileFunction,Copper,L2,Bot*
G04 #@! TF.FilePolarity,Positive*
%FSLAX46Y46*%
G04 Gerber Fmt 4.6, Leading zero omitted, Abs format (unit mm)*
G04 Created by KiCad (PCBNEW 5.1.5-52549c5~86~ubuntu18.04.1) date 2020-08-17 23:59:02*
%MOMM*%
%LPD*%
G04 APERTURE LIST*
%ADD10O,1.700000X1.700000*%
%ADD11C,1.700000*%
%ADD12C,2.400000*%
%ADD13R,2.400000X2.400000*%
%ADD14C,2.000000*%
%ADD15R,1.500000X1.000000*%
%ADD16C,0.100000*%
%ADD17R,2.200000X1.050000*%
%ADD18R,1.050000X1.000000*%
%ADD19R,1.200000X2.000000*%
%ADD20R,2.000000X1.200000*%
%ADD21R,1.000000X1.500000*%
%ADD22C,0.800000*%
%ADD23C,0.500000*%
%ADD24C,0.250000*%
G04 APERTURE END LIST*
D10*
X159955000Y-121885000D03*
X157415000Y-121885000D03*
X154875000Y-121885000D03*
X152335000Y-121885000D03*
X149795000Y-121885000D03*
X147255000Y-121885000D03*
X144715000Y-121885000D03*
X142175000Y-121885000D03*
D11*
X139635000Y-121885000D03*
D10*
X159955000Y-124425000D03*
X157415000Y-124425000D03*
X154875000Y-124425000D03*
X152335000Y-124425000D03*
X149795000Y-124425000D03*
X147255000Y-124425000D03*
X144715000Y-124425000D03*
X142175000Y-124425000D03*
D11*
X139635000Y-124425000D03*
D10*
X159955000Y-126965000D03*
X157415000Y-126965000D03*
X154875000Y-126965000D03*
X152335000Y-126965000D03*
X149795000Y-126965000D03*
X147255000Y-126965000D03*
X144715000Y-126965000D03*
X142175000Y-126965000D03*
D11*
X139635000Y-126965000D03*
X103505000Y-111760000D03*
X165035000Y-119345000D03*
D12*
X169910000Y-108400000D03*
X169910000Y-111900000D03*
D13*
X169910000Y-115400000D03*
D10*
X137095000Y-119345000D03*
X139635000Y-119345000D03*
X142175000Y-119345000D03*
X144715000Y-119345000D03*
X147255000Y-119345000D03*
X149795000Y-119345000D03*
X152335000Y-119345000D03*
X154875000Y-119345000D03*
X157415000Y-119345000D03*
X159955000Y-119345000D03*
D11*
X162495000Y-119345000D03*
D10*
X162495000Y-129505000D03*
X159955000Y-129505000D03*
X157415000Y-129505000D03*
X154875000Y-129505000D03*
X152335000Y-129505000D03*
X149795000Y-129505000D03*
X147255000Y-129505000D03*
X144715000Y-129505000D03*
X142175000Y-129505000D03*
X139635000Y-129505000D03*
D11*
X137095000Y-129505000D03*
D10*
X137095000Y-121885000D03*
X137095000Y-124425000D03*
D11*
X137095000Y-126965000D03*
D10*
X162495000Y-121885000D03*
X162495000Y-124425000D03*
D11*
X162495000Y-126965000D03*
D14*
X110220000Y-109085000D03*
X162210000Y-109085000D03*
D15*
X107315000Y-118745000D03*
G04 #@! TA.AperFunction,SMDPad,CuDef*
D16*
G36*
X108064398Y-120045000D02*
G01*
X108064398Y-120069534D01*
X108059588Y-120118365D01*
X108050016Y-120166490D01*
X108035772Y-120213445D01*
X108016995Y-120258778D01*
X107993864Y-120302051D01*
X107966604Y-120342850D01*
X107935476Y-120380779D01*
X107900779Y-120415476D01*
X107862850Y-120446604D01*
X107822051Y-120473864D01*
X107778778Y-120496995D01*
X107733445Y-120515772D01*
X107686490Y-120530016D01*
X107638365Y-120539588D01*
X107589534Y-120544398D01*
X107565000Y-120544398D01*
X107565000Y-120545000D01*
X107065000Y-120545000D01*
X107065000Y-120544398D01*
X107040466Y-120544398D01*
X106991635Y-120539588D01*
X106943510Y-120530016D01*
X106896555Y-120515772D01*
X106851222Y-120496995D01*
X106807949Y-120473864D01*
X106767150Y-120446604D01*
X106729221Y-120415476D01*
X106694524Y-120380779D01*
X106663396Y-120342850D01*
X106636136Y-120302051D01*
X106613005Y-120258778D01*
X106594228Y-120213445D01*
X106579984Y-120166490D01*
X106570412Y-120118365D01*
X106565602Y-120069534D01*
X106565602Y-120045000D01*
X106565000Y-120045000D01*
X106565000Y-119495000D01*
X108065000Y-119495000D01*
X108065000Y-120045000D01*
X108064398Y-120045000D01*
G37*
G04 #@! TD.AperFunction*
G04 #@! TA.AperFunction,SMDPad,CuDef*
G36*
X106565000Y-117995000D02*
G01*
X106565000Y-117445000D01*
X106565602Y-117445000D01*
X106565602Y-117420466D01*
X106570412Y-117371635D01*
X106579984Y-117323510D01*
X106594228Y-117276555D01*
X106613005Y-117231222D01*
X106636136Y-117187949D01*
X106663396Y-117147150D01*
X106694524Y-117109221D01*
X106729221Y-117074524D01*
X106767150Y-117043396D01*
X106807949Y-117016136D01*
X106851222Y-116993005D01*
X106896555Y-116974228D01*
X106943510Y-116959984D01*
X106991635Y-116950412D01*
X107040466Y-116945602D01*
X107065000Y-116945602D01*
X107065000Y-116945000D01*
X107565000Y-116945000D01*
X107565000Y-116945602D01*
X107589534Y-116945602D01*
X107638365Y-116950412D01*
X107686490Y-116959984D01*
X107733445Y-116974228D01*
X107778778Y-116993005D01*
X107822051Y-117016136D01*
X107862850Y-117043396D01*
X107900779Y-117074524D01*
X107935476Y-117109221D01*
X107966604Y-117147150D01*
X107993864Y-117187949D01*
X108016995Y-117231222D01*
X108035772Y-117276555D01*
X108050016Y-117323510D01*
X108059588Y-117371635D01*
X108064398Y-117420466D01*
X108064398Y-117445000D01*
X108065000Y-117445000D01*
X108065000Y-117995000D01*
X106565000Y-117995000D01*
G37*
G04 #@! TD.AperFunction*
D17*
X101760000Y-116635000D03*
D18*
X103285000Y-118110000D03*
D17*
X101760000Y-119585000D03*
D19*
X123190000Y-117710000D03*
X123190000Y-131210000D03*
D20*
X112440000Y-125360000D03*
X112440000Y-123560000D03*
X133940000Y-123560000D03*
X133940000Y-125360000D03*
D19*
X121390000Y-117710000D03*
X119590000Y-117710000D03*
X117790000Y-117710000D03*
X115990000Y-117710000D03*
X114190000Y-117710000D03*
X124990000Y-117710000D03*
X126790000Y-117710000D03*
X128590000Y-117710000D03*
X130390000Y-117710000D03*
X132190000Y-117710000D03*
D20*
X133940000Y-121760000D03*
X133940000Y-119960000D03*
X133940000Y-127160000D03*
X133940000Y-128960000D03*
D19*
X132190000Y-131210000D03*
X130390000Y-131210000D03*
X128590000Y-131210000D03*
X126790000Y-131210000D03*
X124990000Y-131210000D03*
X121390000Y-131210000D03*
X119590000Y-131210000D03*
X117790000Y-131210000D03*
X115990000Y-131210000D03*
X114190000Y-131210000D03*
D20*
X112440000Y-127160000D03*
X112440000Y-128960000D03*
X112440000Y-121760000D03*
X112440000Y-119960000D03*
D12*
X169910000Y-133335000D03*
X169910000Y-136835000D03*
D13*
X169910000Y-140335000D03*
D21*
X132080000Y-102870000D03*
G04 #@! TA.AperFunction,SMDPad,CuDef*
D16*
G36*
X133380000Y-102120602D02*
G01*
X133404534Y-102120602D01*
X133453365Y-102125412D01*
X133501490Y-102134984D01*
X133548445Y-102149228D01*
X133593778Y-102168005D01*
X133637051Y-102191136D01*
X133677850Y-102218396D01*
X133715779Y-102249524D01*
X133750476Y-102284221D01*
X133781604Y-102322150D01*
X133808864Y-102362949D01*
X133831995Y-102406222D01*
X133850772Y-102451555D01*
X133865016Y-102498510D01*
X133874588Y-102546635D01*
X133879398Y-102595466D01*
X133879398Y-102620000D01*
X133880000Y-102620000D01*
X133880000Y-103120000D01*
X133879398Y-103120000D01*
X133879398Y-103144534D01*
X133874588Y-103193365D01*
X133865016Y-103241490D01*
X133850772Y-103288445D01*
X133831995Y-103333778D01*
X133808864Y-103377051D01*
X133781604Y-103417850D01*
X133750476Y-103455779D01*
X133715779Y-103490476D01*
X133677850Y-103521604D01*
X133637051Y-103548864D01*
X133593778Y-103571995D01*
X133548445Y-103590772D01*
X133501490Y-103605016D01*
X133453365Y-103614588D01*
X133404534Y-103619398D01*
X133380000Y-103619398D01*
X133380000Y-103620000D01*
X132830000Y-103620000D01*
X132830000Y-102120000D01*
X133380000Y-102120000D01*
X133380000Y-102120602D01*
G37*
G04 #@! TD.AperFunction*
G04 #@! TA.AperFunction,SMDPad,CuDef*
G36*
X131330000Y-103620000D02*
G01*
X130780000Y-103620000D01*
X130780000Y-103619398D01*
X130755466Y-103619398D01*
X130706635Y-103614588D01*
X130658510Y-103605016D01*
X130611555Y-103590772D01*
X130566222Y-103571995D01*
X130522949Y-103548864D01*
X130482150Y-103521604D01*
X130444221Y-103490476D01*
X130409524Y-103455779D01*
X130378396Y-103417850D01*
X130351136Y-103377051D01*
X130328005Y-103333778D01*
X130309228Y-103288445D01*
X130294984Y-103241490D01*
X130285412Y-103193365D01*
X130280602Y-103144534D01*
X130280602Y-103120000D01*
X130280000Y-103120000D01*
X130280000Y-102620000D01*
X130280602Y-102620000D01*
X130280602Y-102595466D01*
X130285412Y-102546635D01*
X130294984Y-102498510D01*
X130309228Y-102451555D01*
X130328005Y-102406222D01*
X130351136Y-102362949D01*
X130378396Y-102322150D01*
X130409524Y-102284221D01*
X130444221Y-102249524D01*
X130482150Y-102218396D01*
X130522949Y-102191136D01*
X130566222Y-102168005D01*
X130611555Y-102149228D01*
X130658510Y-102134984D01*
X130706635Y-102125412D01*
X130755466Y-102120602D01*
X130780000Y-102120602D01*
X130780000Y-102120000D01*
X131330000Y-102120000D01*
X131330000Y-103620000D01*
G37*
G04 #@! TD.AperFunction*
D14*
X162290000Y-139915000D03*
X110300000Y-139915000D03*
D22*
X162560000Y-136525000D03*
X165735000Y-109855000D03*
X138430000Y-103505000D03*
X137159998Y-117474998D03*
X132080000Y-103924990D03*
X134620000Y-116205000D03*
D23*
X116435000Y-102870000D02*
X110220000Y-109085000D01*
X116435000Y-102870000D02*
X130780000Y-102870000D01*
X161290000Y-137795000D02*
X162560000Y-136525000D01*
X164465000Y-108585000D02*
X165735000Y-109855000D01*
X163965001Y-108085001D02*
X164465000Y-108585000D01*
X162210000Y-109085000D02*
X163209999Y-108085001D01*
X163209999Y-108085001D02*
X163965001Y-108085001D01*
X134664830Y-102870000D02*
X133380000Y-102870000D01*
X135514832Y-102019998D02*
X134664830Y-102870000D01*
X162210000Y-109085000D02*
X155144998Y-102019998D01*
X155144998Y-102019998D02*
X135514832Y-102019998D01*
X161290000Y-138915000D02*
X161290000Y-137795000D01*
X162290000Y-139915000D02*
X161290000Y-138915000D01*
D24*
X112605000Y-129125000D02*
X112440000Y-128960000D01*
D23*
X112440000Y-128960000D02*
X104195000Y-128960000D01*
X101760000Y-120610000D02*
X101760000Y-119585000D01*
X101760000Y-126525000D02*
X101760000Y-120610000D01*
X104195000Y-128960000D02*
X101760000Y-126525000D01*
X112440000Y-119960000D02*
X113085000Y-119960000D01*
X113940000Y-123560000D02*
X114935000Y-122565000D01*
X112440000Y-123560000D02*
X113940000Y-123560000D01*
X113940000Y-125360000D02*
X114935000Y-124365000D01*
X112440000Y-125360000D02*
X113940000Y-125360000D01*
X114935000Y-124365000D02*
X114935000Y-122555000D01*
X114935000Y-122565000D02*
X114935000Y-122555000D01*
X114935000Y-126165000D02*
X114935000Y-124365000D01*
X113940000Y-127160000D02*
X114935000Y-126165000D01*
X112440000Y-127160000D02*
X113940000Y-127160000D01*
X112440000Y-128960000D02*
X113940000Y-128960000D01*
X114190000Y-129430000D02*
X114190000Y-131210000D01*
X114300000Y-129320000D02*
X114190000Y-129430000D01*
X114190000Y-119905000D02*
X114190000Y-117710000D01*
X114935000Y-122555000D02*
X114935000Y-120650000D01*
X114935000Y-120650000D02*
X114190000Y-119905000D01*
X114135000Y-119960000D02*
X112440000Y-119960000D01*
X114190000Y-119905000D02*
X114135000Y-119960000D01*
X114935000Y-128270000D02*
X114300000Y-128905000D01*
X114935000Y-126165000D02*
X114935000Y-128270000D01*
X113940000Y-128960000D02*
X114300000Y-128905000D01*
X114300000Y-128905000D02*
X114300000Y-129320000D01*
X126790000Y-129710000D02*
X125350000Y-128270000D01*
X126790000Y-131210000D02*
X126790000Y-129710000D01*
X125350000Y-128270000D02*
X114935000Y-128270000D01*
X125350000Y-127050000D02*
X125350000Y-128270000D01*
X132440000Y-119960000D02*
X125350000Y-127050000D01*
X133940000Y-119960000D02*
X132440000Y-119960000D01*
X114190000Y-116210000D02*
X111010000Y-113030000D01*
X114190000Y-117710000D02*
X114190000Y-116210000D01*
X111010000Y-113030000D02*
X108585000Y-113030000D01*
X108585000Y-113030000D02*
X106045000Y-110490000D01*
X106045000Y-110490000D02*
X106045000Y-109855000D01*
X106045000Y-109855000D02*
X104775000Y-108585000D01*
X104775000Y-108585000D02*
X102235000Y-108585000D01*
X102235000Y-108585000D02*
X100965000Y-109855000D01*
X101760000Y-115610000D02*
X101760000Y-116635000D01*
X100965000Y-114815000D02*
X101760000Y-115610000D01*
X100965000Y-109855000D02*
X100965000Y-114815000D01*
X134555000Y-119345000D02*
X133940000Y-119960000D01*
X137095000Y-119345000D02*
X134555000Y-119345000D01*
X137095000Y-119345000D02*
X137095000Y-117539996D01*
X137095000Y-117539996D02*
X137159998Y-117474998D01*
X160655000Y-111125000D02*
X153035000Y-103505000D01*
X163195000Y-111125000D02*
X160655000Y-111125000D01*
X153035000Y-103505000D02*
X138430000Y-103505000D01*
X163970000Y-111900000D02*
X163195000Y-111125000D01*
X169910000Y-111900000D02*
X163970000Y-111900000D01*
X110300000Y-139915000D02*
X107950000Y-137565000D01*
X110725000Y-131210000D02*
X114190000Y-131210000D01*
X107950000Y-133985000D02*
X110725000Y-131210000D01*
X107950000Y-137565000D02*
X107950000Y-133985000D01*
X168910000Y-128905000D02*
X165735000Y-125730000D01*
X165735000Y-125730000D02*
X165735000Y-122555000D01*
X165065000Y-121885000D02*
X162495000Y-121885000D01*
X165735000Y-122555000D02*
X165065000Y-121885000D01*
X168910000Y-130637944D02*
X168910000Y-128905000D01*
X169910000Y-133335000D02*
X169910000Y-131637944D01*
X169910000Y-131637944D02*
X168910000Y-130637944D01*
X162495000Y-124425000D02*
X163160000Y-124425000D01*
X164465000Y-125095000D02*
X164465000Y-126365000D01*
X164465000Y-126365000D02*
X166370000Y-128270000D01*
X166370000Y-135992056D02*
X166370000Y-128270000D01*
X163795000Y-124425000D02*
X162495000Y-124425000D01*
X164465000Y-125095000D02*
X163795000Y-124425000D01*
X167212944Y-136835000D02*
X166370000Y-135992056D01*
X169910000Y-136835000D02*
X167212944Y-136835000D01*
X163494489Y-127964489D02*
X162495000Y-126965000D01*
X164159489Y-127964489D02*
X163494489Y-127964489D01*
X165100000Y-128905000D02*
X164159489Y-127964489D01*
X165100000Y-138430000D02*
X165100000Y-128905000D01*
X169910000Y-140335000D02*
X167005000Y-140335000D01*
X167005000Y-140335000D02*
X165100000Y-138430000D01*
X107315000Y-117445000D02*
X106015000Y-117445000D01*
X106015000Y-117445000D02*
X104775000Y-116205000D01*
X104775000Y-116205000D02*
X104775000Y-113030000D01*
X104775000Y-113030000D02*
X103505000Y-111760000D01*
X107315000Y-120045000D02*
X105440000Y-120045000D01*
X105440000Y-120045000D02*
X104775000Y-119380000D01*
X104310000Y-118110000D02*
X103285000Y-118110000D01*
X104775000Y-118575000D02*
X104310000Y-118110000D01*
X104775000Y-119380000D02*
X104775000Y-118575000D01*
D24*
X112440000Y-121760000D02*
X113190000Y-121760000D01*
D23*
X110940000Y-121760000D02*
X109855000Y-120675000D01*
X112440000Y-121760000D02*
X110940000Y-121760000D01*
X109855000Y-120675000D02*
X109855000Y-119380000D01*
X109220000Y-118745000D02*
X107315000Y-118745000D01*
X109855000Y-119380000D02*
X109220000Y-118745000D01*
X136970000Y-121760000D02*
X137095000Y-121885000D01*
X133940000Y-121760000D02*
X136970000Y-121760000D01*
X136230000Y-123560000D02*
X137095000Y-124425000D01*
X133940000Y-123560000D02*
X136230000Y-123560000D01*
X135490000Y-125360000D02*
X137095000Y-126965000D01*
X133940000Y-125360000D02*
X135490000Y-125360000D01*
X162495000Y-132780000D02*
X151765000Y-143510000D01*
X151765000Y-143510000D02*
X123825000Y-143510000D01*
X115990000Y-135675000D02*
X115990000Y-131210000D01*
X123825000Y-143510000D02*
X115990000Y-135675000D01*
X162495000Y-132780000D02*
X162495000Y-129505000D01*
X117790000Y-134300000D02*
X117790000Y-131210000D01*
X149860000Y-142240000D02*
X125730000Y-142240000D01*
X125730000Y-142240000D02*
X117790000Y-134300000D01*
X159955000Y-132145000D02*
X149860000Y-142240000D01*
X159955000Y-132145000D02*
X159955000Y-129505000D01*
X157415000Y-131380000D02*
X147825000Y-140970000D01*
X147825000Y-140970000D02*
X126365000Y-140970000D01*
X119590000Y-134195000D02*
X119590000Y-131210000D01*
X126365000Y-140970000D02*
X119590000Y-134195000D01*
X157415000Y-131380000D02*
X157415000Y-129505000D01*
X154875000Y-131510000D02*
X146685000Y-139700000D01*
X146685000Y-139700000D02*
X127000000Y-139700000D01*
X121390000Y-134090000D02*
X121390000Y-131210000D01*
X127000000Y-139700000D02*
X121390000Y-134090000D01*
X154875000Y-131510000D02*
X154875000Y-129505000D01*
X152335000Y-132015000D02*
X145920000Y-138430000D01*
X145920000Y-138430000D02*
X127635000Y-138430000D01*
X123190000Y-133985000D02*
X123190000Y-131210000D01*
X127635000Y-138430000D02*
X123190000Y-133985000D01*
X152335000Y-132015000D02*
X152335000Y-129505000D01*
X149795000Y-132015000D02*
X144650000Y-137160000D01*
X144650000Y-137160000D02*
X128905000Y-137160000D01*
X124990000Y-133245000D02*
X124990000Y-131210000D01*
X128905000Y-137160000D02*
X124990000Y-133245000D01*
X149795000Y-132015000D02*
X149795000Y-129505000D01*
X130810000Y-135890000D02*
X128590000Y-133670000D01*
X128590000Y-133670000D02*
X128590000Y-131210000D01*
X142283492Y-135890000D02*
X130810000Y-135890000D01*
X147255000Y-130918492D02*
X142283492Y-135890000D01*
X147255000Y-130918492D02*
X147255000Y-129505000D01*
X144715000Y-131380000D02*
X141475000Y-134620000D01*
X141475000Y-134620000D02*
X132080000Y-134620000D01*
X130390000Y-132930000D02*
X130390000Y-131210000D01*
X132080000Y-134620000D02*
X130390000Y-132930000D01*
X144715000Y-131380000D02*
X144715000Y-129505000D01*
D24*
X132190000Y-131210000D02*
X132190000Y-131555000D01*
D23*
X142175000Y-132015000D02*
X140840000Y-133350000D01*
X140840000Y-133350000D02*
X132715000Y-133350000D01*
X132190000Y-132825000D02*
X132190000Y-131210000D01*
X132715000Y-133350000D02*
X132190000Y-132825000D01*
X142175000Y-132015000D02*
X142175000Y-129505000D01*
D24*
X139635000Y-130240000D02*
X139635000Y-129505000D01*
D23*
X139635000Y-131380000D02*
X138935000Y-132080000D01*
X138935000Y-132080000D02*
X135255000Y-132080000D01*
X133940000Y-130765000D02*
X133940000Y-128960000D01*
X135255000Y-132080000D02*
X133940000Y-130765000D01*
X139635000Y-131380000D02*
X139635000Y-129505000D01*
X134750000Y-127160000D02*
X133940000Y-127160000D01*
X137095000Y-129505000D02*
X134750000Y-127160000D01*
X131665000Y-114935000D02*
X130390000Y-116210000D01*
X130390000Y-116210000D02*
X130390000Y-117710000D01*
X140335000Y-114935000D02*
X131665000Y-114935000D01*
X142175000Y-119345000D02*
X142175000Y-116775000D01*
X142175000Y-116775000D02*
X140335000Y-114935000D01*
X128590000Y-115250000D02*
X128590000Y-117710000D01*
X130044978Y-113795022D02*
X128590000Y-115250000D01*
X144715000Y-119345000D02*
X144715000Y-116270000D01*
X142240022Y-113795022D02*
X130044978Y-113795022D01*
X144715000Y-116270000D02*
X142240022Y-113795022D01*
X126790000Y-114510000D02*
X126790000Y-117710000D01*
X128905000Y-112395000D02*
X126790000Y-114510000D01*
X142875000Y-112395000D02*
X128905000Y-112395000D01*
X147255000Y-119345000D02*
X147255000Y-116775000D01*
X147255000Y-116775000D02*
X142875000Y-112395000D01*
X124990000Y-113770000D02*
X124990000Y-117710000D01*
X127635000Y-111125000D02*
X124990000Y-113770000D01*
X143510000Y-111125000D02*
X127635000Y-111125000D01*
X149795000Y-119345000D02*
X149795000Y-117410000D01*
X149795000Y-117410000D02*
X143510000Y-111125000D01*
X123190000Y-113665000D02*
X123190000Y-117710000D01*
X127000000Y-109855000D02*
X123190000Y-113665000D01*
X144836746Y-109855000D02*
X127000000Y-109855000D01*
X152335000Y-119345000D02*
X152335000Y-117353254D01*
X152335000Y-117353254D02*
X144836746Y-109855000D01*
X121390000Y-113560000D02*
X121390000Y-116210000D01*
X126365000Y-108585000D02*
X121390000Y-113560000D01*
X121390000Y-116210000D02*
X121390000Y-117710000D01*
X146050000Y-108585000D02*
X126365000Y-108585000D01*
X154875000Y-119345000D02*
X154875000Y-117410000D01*
X154875000Y-117410000D02*
X146050000Y-108585000D01*
X125095000Y-107315000D02*
X119590000Y-112820000D01*
X147190000Y-107315000D02*
X125095000Y-107315000D01*
X157415000Y-119345000D02*
X157415000Y-117540000D01*
X119590000Y-112820000D02*
X119590000Y-117710000D01*
X157415000Y-117540000D02*
X147190000Y-107315000D01*
X117790000Y-111445000D02*
X117790000Y-117710000D01*
X123190000Y-106045000D02*
X117790000Y-111445000D01*
X147955000Y-106045000D02*
X123190000Y-106045000D01*
X159385000Y-112395000D02*
X154305000Y-112395000D01*
X154305000Y-112395000D02*
X147955000Y-106045000D01*
X159955000Y-117540000D02*
X161925000Y-115570000D01*
X159955000Y-119345000D02*
X159955000Y-117540000D01*
X161925000Y-115570000D02*
X161925000Y-114300000D01*
X161925000Y-114300000D02*
X160720010Y-113095010D01*
X160720010Y-113095010D02*
X160085010Y-113095010D01*
X160085010Y-113095010D02*
X159385000Y-112395000D01*
X122555000Y-104775000D02*
X115990000Y-111340000D01*
X155575000Y-111125000D02*
X149225000Y-104775000D01*
X159385000Y-111125000D02*
X155575000Y-111125000D01*
X115990000Y-111340000D02*
X115990000Y-117710000D01*
X162495000Y-118142919D02*
X163195000Y-117442919D01*
X161925000Y-112395000D02*
X160655000Y-112395000D01*
X162495000Y-119345000D02*
X162495000Y-118142919D01*
X149225000Y-104775000D02*
X122555000Y-104775000D01*
X163195000Y-117442919D02*
X163195000Y-113665000D01*
X163195000Y-113665000D02*
X161925000Y-112395000D01*
X160655000Y-112395000D02*
X159385000Y-111125000D01*
X165735000Y-100965000D02*
X132715000Y-100965000D01*
X132080000Y-101600000D02*
X132080000Y-102870000D01*
X132715000Y-100965000D02*
X132080000Y-101600000D01*
X132190000Y-117710000D02*
X132190000Y-117365000D01*
X168910000Y-105410000D02*
X167005000Y-103505000D01*
X167005000Y-102235000D02*
X165735000Y-100965000D01*
X167005000Y-103505000D02*
X167005000Y-102235000D01*
X132080000Y-102870000D02*
X132080000Y-103924990D01*
X135185685Y-116205000D02*
X134620000Y-116205000D01*
X139635000Y-117410000D02*
X138430000Y-116205000D01*
X138430000Y-116205000D02*
X135185685Y-116205000D01*
X132190000Y-117710000D02*
X133290000Y-117710000D01*
X133290000Y-117710000D02*
X134620000Y-116380000D01*
X139635000Y-119345000D02*
X139635000Y-117410000D01*
X134620000Y-116380000D02*
X134620000Y-116205000D01*
X168910000Y-105702944D02*
X168910000Y-105410000D01*
X169910000Y-108400000D02*
X169910000Y-106702944D01*
X169910000Y-106702944D02*
X168910000Y-105702944D01*
X165035000Y-119345000D02*
X167040000Y-119345000D01*
X167040000Y-119345000D02*
X168910000Y-117475000D01*
X169535000Y-117475000D02*
X168910000Y-117475000D01*
X169910000Y-115400000D02*
X169910000Y-117100000D01*
X169910000Y-117100000D02*
X169535000Y-117475000D01*
M02*
