G04 #@! TF.GenerationSoftware,KiCad,Pcbnew,5.1.5-52549c5~86~ubuntu18.04.1*
G04 #@! TF.CreationDate,2020-07-02T00:48:14-05:00*
G04 #@! TF.ProjectId,RAK811_LORA_ADAPTABLE_NODE,52414b38-3131-45f4-9c4f-52415f414441,rev?*
G04 #@! TF.SameCoordinates,Original*
G04 #@! TF.FileFunction,Legend,Top*
G04 #@! TF.FilePolarity,Positive*
%FSLAX46Y46*%
G04 Gerber Fmt 4.6, Leading zero omitted, Abs format (unit mm)*
G04 Created by KiCad (PCBNEW 5.1.5-52549c5~86~ubuntu18.04.1) date 2020-07-02 00:48:14*
%MOMM*%
%LPD*%
G04 APERTURE LIST*
%ADD10C,0.150000*%
%ADD11C,0.120000*%
%ADD12O,1.802000X1.802000*%
%ADD13C,1.802000*%
%ADD14C,2.502000*%
%ADD15R,2.502000X2.502000*%
%ADD16C,2.102000*%
%ADD17C,2.742000*%
%ADD18C,3.102000*%
G04 APERTURE END LIST*
D10*
X173442380Y-140779047D02*
X174442380Y-140540952D01*
X173728095Y-140350476D01*
X174442380Y-140160000D01*
X173442380Y-139921904D01*
X173442380Y-137350476D02*
X174442380Y-136683809D01*
X173442380Y-136683809D02*
X174442380Y-137350476D01*
X173966190Y-133826666D02*
X174442380Y-133826666D01*
X173442380Y-134160000D02*
X173966190Y-133826666D01*
X173442380Y-133493333D01*
X173442380Y-116188571D02*
X173442380Y-115521904D01*
X174442380Y-116188571D01*
X174442380Y-115521904D01*
X173490000Y-113093333D02*
X173442380Y-113188571D01*
X173442380Y-113331428D01*
X173490000Y-113474285D01*
X173585238Y-113569523D01*
X173680476Y-113617142D01*
X173870952Y-113664761D01*
X174013809Y-113664761D01*
X174204285Y-113617142D01*
X174299523Y-113569523D01*
X174394761Y-113474285D01*
X174442380Y-113331428D01*
X174442380Y-113236190D01*
X174394761Y-113093333D01*
X174347142Y-113045714D01*
X174013809Y-113045714D01*
X174013809Y-113236190D01*
X174442380Y-112617142D02*
X173442380Y-112617142D01*
X174442380Y-112045714D01*
X173442380Y-112045714D01*
X174442380Y-111569523D02*
X173442380Y-111569523D01*
X173442380Y-111331428D01*
X173490000Y-111188571D01*
X173585238Y-111093333D01*
X173680476Y-111045714D01*
X173870952Y-110998095D01*
X174013809Y-110998095D01*
X174204285Y-111045714D01*
X174299523Y-111093333D01*
X174394761Y-111188571D01*
X174442380Y-111331428D01*
X174442380Y-111569523D01*
X173442380Y-109950476D02*
X174442380Y-109617142D01*
X173442380Y-109283809D01*
X174347142Y-108379047D02*
X174394761Y-108426666D01*
X174442380Y-108569523D01*
X174442380Y-108664761D01*
X174394761Y-108807619D01*
X174299523Y-108902857D01*
X174204285Y-108950476D01*
X174013809Y-108998095D01*
X173870952Y-108998095D01*
X173680476Y-108950476D01*
X173585238Y-108902857D01*
X173490000Y-108807619D01*
X173442380Y-108664761D01*
X173442380Y-108569523D01*
X173490000Y-108426666D01*
X173537619Y-108379047D01*
X174347142Y-107379047D02*
X174394761Y-107426666D01*
X174442380Y-107569523D01*
X174442380Y-107664761D01*
X174394761Y-107807619D01*
X174299523Y-107902857D01*
X174204285Y-107950476D01*
X174013809Y-107998095D01*
X173870952Y-107998095D01*
X173680476Y-107950476D01*
X173585238Y-107902857D01*
X173490000Y-107807619D01*
X173442380Y-107664761D01*
X173442380Y-107569523D01*
X173490000Y-107426666D01*
X173537619Y-107379047D01*
X113443333Y-123262380D02*
X113110000Y-122786190D01*
X112871904Y-123262380D02*
X112871904Y-122262380D01*
X113252857Y-122262380D01*
X113348095Y-122310000D01*
X113395714Y-122357619D01*
X113443333Y-122452857D01*
X113443333Y-122595714D01*
X113395714Y-122690952D01*
X113348095Y-122738571D01*
X113252857Y-122786190D01*
X112871904Y-122786190D01*
X113824285Y-122976666D02*
X114300476Y-122976666D01*
X113729047Y-123262380D02*
X114062380Y-122262380D01*
X114395714Y-123262380D01*
X114729047Y-123262380D02*
X114729047Y-122262380D01*
X115300476Y-123262380D02*
X114871904Y-122690952D01*
X115300476Y-122262380D02*
X114729047Y-122833809D01*
X115871904Y-122690952D02*
X115776666Y-122643333D01*
X115729047Y-122595714D01*
X115681428Y-122500476D01*
X115681428Y-122452857D01*
X115729047Y-122357619D01*
X115776666Y-122310000D01*
X115871904Y-122262380D01*
X116062380Y-122262380D01*
X116157619Y-122310000D01*
X116205238Y-122357619D01*
X116252857Y-122452857D01*
X116252857Y-122500476D01*
X116205238Y-122595714D01*
X116157619Y-122643333D01*
X116062380Y-122690952D01*
X115871904Y-122690952D01*
X115776666Y-122738571D01*
X115729047Y-122786190D01*
X115681428Y-122881428D01*
X115681428Y-123071904D01*
X115729047Y-123167142D01*
X115776666Y-123214761D01*
X115871904Y-123262380D01*
X116062380Y-123262380D01*
X116157619Y-123214761D01*
X116205238Y-123167142D01*
X116252857Y-123071904D01*
X116252857Y-122881428D01*
X116205238Y-122786190D01*
X116157619Y-122738571D01*
X116062380Y-122690952D01*
X117205238Y-123262380D02*
X116633809Y-123262380D01*
X116919523Y-123262380D02*
X116919523Y-122262380D01*
X116824285Y-122405238D01*
X116729047Y-122500476D01*
X116633809Y-122548095D01*
X118157619Y-123262380D02*
X117586190Y-123262380D01*
X117871904Y-123262380D02*
X117871904Y-122262380D01*
X117776666Y-122405238D01*
X117681428Y-122500476D01*
X117586190Y-122548095D01*
X119824285Y-123262380D02*
X119348095Y-123262380D01*
X119348095Y-122262380D01*
X120348095Y-122262380D02*
X120538571Y-122262380D01*
X120633809Y-122310000D01*
X120729047Y-122405238D01*
X120776666Y-122595714D01*
X120776666Y-122929047D01*
X120729047Y-123119523D01*
X120633809Y-123214761D01*
X120538571Y-123262380D01*
X120348095Y-123262380D01*
X120252857Y-123214761D01*
X120157619Y-123119523D01*
X120110000Y-122929047D01*
X120110000Y-122595714D01*
X120157619Y-122405238D01*
X120252857Y-122310000D01*
X120348095Y-122262380D01*
X121776666Y-123262380D02*
X121443333Y-122786190D01*
X121205238Y-123262380D02*
X121205238Y-122262380D01*
X121586190Y-122262380D01*
X121681428Y-122310000D01*
X121729047Y-122357619D01*
X121776666Y-122452857D01*
X121776666Y-122595714D01*
X121729047Y-122690952D01*
X121681428Y-122738571D01*
X121586190Y-122786190D01*
X121205238Y-122786190D01*
X122157619Y-122976666D02*
X122633809Y-122976666D01*
X122062380Y-123262380D02*
X122395714Y-122262380D01*
X122729047Y-123262380D01*
X111895714Y-124626666D02*
X112371904Y-124626666D01*
X111800476Y-124912380D02*
X112133809Y-123912380D01*
X112467142Y-124912380D01*
X112800476Y-124912380D02*
X112800476Y-123912380D01*
X113038571Y-123912380D01*
X113181428Y-123960000D01*
X113276666Y-124055238D01*
X113324285Y-124150476D01*
X113371904Y-124340952D01*
X113371904Y-124483809D01*
X113324285Y-124674285D01*
X113276666Y-124769523D01*
X113181428Y-124864761D01*
X113038571Y-124912380D01*
X112800476Y-124912380D01*
X113752857Y-124626666D02*
X114229047Y-124626666D01*
X113657619Y-124912380D02*
X113990952Y-123912380D01*
X114324285Y-124912380D01*
X114657619Y-124912380D02*
X114657619Y-123912380D01*
X115038571Y-123912380D01*
X115133809Y-123960000D01*
X115181428Y-124007619D01*
X115229047Y-124102857D01*
X115229047Y-124245714D01*
X115181428Y-124340952D01*
X115133809Y-124388571D01*
X115038571Y-124436190D01*
X114657619Y-124436190D01*
X115514761Y-123912380D02*
X116086190Y-123912380D01*
X115800476Y-124912380D02*
X115800476Y-123912380D01*
X116371904Y-124626666D02*
X116848095Y-124626666D01*
X116276666Y-124912380D02*
X116610000Y-123912380D01*
X116943333Y-124912380D01*
X117610000Y-124388571D02*
X117752857Y-124436190D01*
X117800476Y-124483809D01*
X117848095Y-124579047D01*
X117848095Y-124721904D01*
X117800476Y-124817142D01*
X117752857Y-124864761D01*
X117657619Y-124912380D01*
X117276666Y-124912380D01*
X117276666Y-123912380D01*
X117610000Y-123912380D01*
X117705238Y-123960000D01*
X117752857Y-124007619D01*
X117800476Y-124102857D01*
X117800476Y-124198095D01*
X117752857Y-124293333D01*
X117705238Y-124340952D01*
X117610000Y-124388571D01*
X117276666Y-124388571D01*
X118752857Y-124912380D02*
X118276666Y-124912380D01*
X118276666Y-123912380D01*
X119086190Y-124388571D02*
X119419523Y-124388571D01*
X119562380Y-124912380D02*
X119086190Y-124912380D01*
X119086190Y-123912380D01*
X119562380Y-123912380D01*
X120752857Y-124912380D02*
X120752857Y-123912380D01*
X121324285Y-124912380D01*
X121324285Y-123912380D01*
X121990952Y-123912380D02*
X122181428Y-123912380D01*
X122276666Y-123960000D01*
X122371904Y-124055238D01*
X122419523Y-124245714D01*
X122419523Y-124579047D01*
X122371904Y-124769523D01*
X122276666Y-124864761D01*
X122181428Y-124912380D01*
X121990952Y-124912380D01*
X121895714Y-124864761D01*
X121800476Y-124769523D01*
X121752857Y-124579047D01*
X121752857Y-124245714D01*
X121800476Y-124055238D01*
X121895714Y-123960000D01*
X121990952Y-123912380D01*
X122848095Y-124912380D02*
X122848095Y-123912380D01*
X123086190Y-123912380D01*
X123229047Y-123960000D01*
X123324285Y-124055238D01*
X123371904Y-124150476D01*
X123419523Y-124340952D01*
X123419523Y-124483809D01*
X123371904Y-124674285D01*
X123324285Y-124769523D01*
X123229047Y-124864761D01*
X123086190Y-124912380D01*
X122848095Y-124912380D01*
X123848095Y-124388571D02*
X124181428Y-124388571D01*
X124324285Y-124912380D02*
X123848095Y-124912380D01*
X123848095Y-123912380D01*
X124324285Y-123912380D01*
X116919523Y-125562380D02*
X117252857Y-126562380D01*
X117586190Y-125562380D01*
X118871904Y-125562380D02*
X118967142Y-125562380D01*
X119062380Y-125610000D01*
X119110000Y-125657619D01*
X119157619Y-125752857D01*
X119205238Y-125943333D01*
X119205238Y-126181428D01*
X119157619Y-126371904D01*
X119110000Y-126467142D01*
X119062380Y-126514761D01*
X118967142Y-126562380D01*
X118871904Y-126562380D01*
X118776666Y-126514761D01*
X118729047Y-126467142D01*
X118681428Y-126371904D01*
X118633809Y-126181428D01*
X118633809Y-125943333D01*
X118681428Y-125752857D01*
X118729047Y-125657619D01*
X118776666Y-125610000D01*
X118871904Y-125562380D01*
D11*
X138305000Y-123215000D02*
X138305000Y-121885000D01*
X139635000Y-123215000D02*
X138305000Y-123215000D01*
X140905000Y-123215000D02*
X140905000Y-120555000D01*
X140905000Y-120555000D02*
X161285000Y-120555000D01*
X140905000Y-123215000D02*
X161285000Y-123215000D01*
X161285000Y-123215000D02*
X161285000Y-120555000D01*
X138305000Y-125755000D02*
X138305000Y-124425000D01*
X139635000Y-125755000D02*
X138305000Y-125755000D01*
X140905000Y-125755000D02*
X140905000Y-123095000D01*
X140905000Y-123095000D02*
X161285000Y-123095000D01*
X140905000Y-125755000D02*
X161285000Y-125755000D01*
X161285000Y-125755000D02*
X161285000Y-123095000D01*
X138305000Y-128295000D02*
X138305000Y-126965000D01*
X139635000Y-128295000D02*
X138305000Y-128295000D01*
X140905000Y-128295000D02*
X140905000Y-125635000D01*
X140905000Y-125635000D02*
X161285000Y-125635000D01*
X140905000Y-128295000D02*
X161285000Y-128295000D01*
X161285000Y-128295000D02*
X161285000Y-125635000D01*
X102175000Y-110430000D02*
X103505000Y-110430000D01*
X102175000Y-111760000D02*
X102175000Y-110430000D01*
X102175000Y-113030000D02*
X104835000Y-113030000D01*
X104835000Y-113030000D02*
X104835000Y-113090000D01*
X102175000Y-113030000D02*
X102175000Y-113090000D01*
X102175000Y-113090000D02*
X104835000Y-113090000D01*
X163705000Y-118015000D02*
X165035000Y-118015000D01*
X163705000Y-119345000D02*
X163705000Y-118015000D01*
X163705000Y-120615000D02*
X166365000Y-120615000D01*
X166365000Y-120615000D02*
X166365000Y-120675000D01*
X163705000Y-120615000D02*
X163705000Y-120675000D01*
X163705000Y-120675000D02*
X166365000Y-120675000D01*
X172810000Y-117800000D02*
X172810000Y-116300000D01*
X171070000Y-117800000D02*
X172810000Y-117800000D01*
X165450000Y-106240000D02*
X172570000Y-106240000D01*
X165450000Y-117560000D02*
X172570000Y-117560000D01*
X172570000Y-117560000D02*
X172570000Y-106240000D01*
X165450000Y-117560000D02*
X165450000Y-106240000D01*
X171010000Y-117560000D02*
X171010000Y-106240000D01*
X170465000Y-108400000D02*
G75*
G03X170465000Y-108400000I-1555000J0D01*
G01*
X170465000Y-111900000D02*
G75*
G03X170465000Y-111900000I-1555000J0D01*
G01*
X170465492Y-115372989D02*
G75*
G02X170342000Y-116008000I-1555492J-27011D01*
G01*
X169517742Y-116832109D02*
G75*
G02X168302000Y-116832000I-607742J1432109D01*
G01*
X167477891Y-116007742D02*
G75*
G02X167478000Y-114792000I1432109J607742D01*
G01*
X168302258Y-113967891D02*
G75*
G02X169518000Y-113968000I607742J-1432109D01*
G01*
X170341385Y-114792413D02*
G75*
G02X170465000Y-115400000I-1431385J-607587D01*
G01*
X163825000Y-118015000D02*
X163825000Y-119345000D01*
X162495000Y-118015000D02*
X163825000Y-118015000D01*
X161225000Y-118015000D02*
X161225000Y-120675000D01*
X161225000Y-120675000D02*
X135765000Y-120675000D01*
X161225000Y-118015000D02*
X135765000Y-118015000D01*
X135765000Y-118015000D02*
X135765000Y-120675000D01*
X135765000Y-130835000D02*
X135765000Y-129505000D01*
X137095000Y-130835000D02*
X135765000Y-130835000D01*
X138365000Y-130835000D02*
X138365000Y-128175000D01*
X138365000Y-128175000D02*
X163825000Y-128175000D01*
X138365000Y-130835000D02*
X163825000Y-130835000D01*
X163825000Y-130835000D02*
X163825000Y-128175000D01*
X138425000Y-128295000D02*
X137095000Y-128295000D01*
X138425000Y-126965000D02*
X138425000Y-128295000D01*
X138425000Y-125695000D02*
X135765000Y-125695000D01*
X135765000Y-125695000D02*
X135765000Y-120555000D01*
X138425000Y-125695000D02*
X138425000Y-120555000D01*
X138425000Y-120555000D02*
X135765000Y-120555000D01*
X163825000Y-128295000D02*
X162495000Y-128295000D01*
X163825000Y-126965000D02*
X163825000Y-128295000D01*
X163825000Y-125695000D02*
X161165000Y-125695000D01*
X161165000Y-125695000D02*
X161165000Y-120555000D01*
X163825000Y-125695000D02*
X163825000Y-120555000D01*
X163825000Y-120555000D02*
X161165000Y-120555000D01*
X157530000Y-107025000D02*
X157530000Y-111025000D01*
X158530000Y-112025000D02*
X158530000Y-106025000D01*
X159530000Y-105025000D02*
X159530000Y-113025000D01*
X156530000Y-108025000D02*
X156530000Y-110025000D01*
X163840000Y-100520000D02*
X163840000Y-117650000D01*
X163840000Y-117650000D02*
X106600000Y-117650000D01*
X106600000Y-117650000D02*
X106600000Y-100520000D01*
X106600000Y-100520000D02*
X163840000Y-100520000D01*
X107320000Y-101485000D02*
X107320000Y-116685000D01*
X107320000Y-116685000D02*
X125320000Y-116685000D01*
X163120000Y-101485000D02*
X163120000Y-116685000D01*
X107320000Y-101485000D02*
X125320000Y-101485000D01*
X145120000Y-101485000D02*
X163120000Y-101485000D01*
X145120000Y-116685000D02*
X163120000Y-116685000D01*
X125320000Y-116685000D02*
G75*
G02X127320000Y-114685000I2000000J0D01*
G01*
X143120000Y-114685000D02*
G75*
G02X145120000Y-116685000I0J-2000000D01*
G01*
X145120000Y-101485000D02*
G75*
G02X143120000Y-103485000I-2000000J0D01*
G01*
X127320000Y-103485000D02*
G75*
G02X125320000Y-101485000I0J2000000D01*
G01*
X127320000Y-103485000D02*
X143120000Y-103485000D01*
X143120000Y-114685000D02*
X127320000Y-114685000D01*
X172810000Y-142735000D02*
X172810000Y-141235000D01*
X171070000Y-142735000D02*
X172810000Y-142735000D01*
X165450000Y-131175000D02*
X172570000Y-131175000D01*
X165450000Y-142495000D02*
X172570000Y-142495000D01*
X172570000Y-142495000D02*
X172570000Y-131175000D01*
X165450000Y-142495000D02*
X165450000Y-131175000D01*
X171010000Y-142495000D02*
X171010000Y-131175000D01*
X170465000Y-133335000D02*
G75*
G03X170465000Y-133335000I-1555000J0D01*
G01*
X170465000Y-136835000D02*
G75*
G03X170465000Y-136835000I-1555000J0D01*
G01*
X170465492Y-140307989D02*
G75*
G02X170342000Y-140943000I-1555492J-27011D01*
G01*
X169517742Y-141767109D02*
G75*
G02X168302000Y-141767000I-607742J1432109D01*
G01*
X167477891Y-140942742D02*
G75*
G02X167478000Y-139727000I1432109J607742D01*
G01*
X168302258Y-138902891D02*
G75*
G02X169518000Y-138903000I607742J-1432109D01*
G01*
X170341385Y-139727413D02*
G75*
G02X170465000Y-140335000I-1431385J-607587D01*
G01*
X112980000Y-141975000D02*
X112980000Y-137975000D01*
X111980000Y-136975000D02*
X111980000Y-142975000D01*
X110980000Y-143975000D02*
X110980000Y-135975000D01*
X113980000Y-140975000D02*
X113980000Y-138975000D01*
X106670000Y-148480000D02*
X106670000Y-131350000D01*
X106670000Y-131350000D02*
X163910000Y-131350000D01*
X163910000Y-131350000D02*
X163910000Y-148480000D01*
X163910000Y-148480000D02*
X106670000Y-148480000D01*
X163190000Y-147515000D02*
X163190000Y-132315000D01*
X163190000Y-132315000D02*
X145190000Y-132315000D01*
X107390000Y-147515000D02*
X107390000Y-132315000D01*
X163190000Y-147515000D02*
X145190000Y-147515000D01*
X125390000Y-147515000D02*
X107390000Y-147515000D01*
X125390000Y-132315000D02*
X107390000Y-132315000D01*
X145190000Y-132315000D02*
G75*
G02X143190000Y-134315000I-2000000J0D01*
G01*
X127390000Y-134315000D02*
G75*
G02X125390000Y-132315000I0J2000000D01*
G01*
X125390000Y-147515000D02*
G75*
G02X127390000Y-145515000I2000000J0D01*
G01*
X143190000Y-145515000D02*
G75*
G02X145190000Y-147515000I0J-2000000D01*
G01*
X143190000Y-145515000D02*
X127390000Y-145515000D01*
X127390000Y-134315000D02*
X143190000Y-134315000D01*
D10*
X103171666Y-108882380D02*
X103171666Y-109596666D01*
X103124047Y-109739523D01*
X103028809Y-109834761D01*
X102885952Y-109882380D01*
X102790714Y-109882380D01*
X104076428Y-108882380D02*
X103885952Y-108882380D01*
X103790714Y-108930000D01*
X103743095Y-108977619D01*
X103647857Y-109120476D01*
X103600238Y-109310952D01*
X103600238Y-109691904D01*
X103647857Y-109787142D01*
X103695476Y-109834761D01*
X103790714Y-109882380D01*
X103981190Y-109882380D01*
X104076428Y-109834761D01*
X104124047Y-109787142D01*
X104171666Y-109691904D01*
X104171666Y-109453809D01*
X104124047Y-109358571D01*
X104076428Y-109310952D01*
X103981190Y-109263333D01*
X103790714Y-109263333D01*
X103695476Y-109310952D01*
X103647857Y-109358571D01*
X103600238Y-109453809D01*
X167727380Y-104938333D02*
X168441666Y-104938333D01*
X168584523Y-104985952D01*
X168679761Y-105081190D01*
X168727380Y-105224047D01*
X168727380Y-105319285D01*
X168727380Y-103938333D02*
X168727380Y-104509761D01*
X168727380Y-104224047D02*
X167727380Y-104224047D01*
X167870238Y-104319285D01*
X167965476Y-104414523D01*
X168013095Y-104509761D01*
X167092380Y-119713333D02*
X167806666Y-119713333D01*
X167949523Y-119760952D01*
X168044761Y-119856190D01*
X168092380Y-119999047D01*
X168092380Y-120094285D01*
X167520952Y-119094285D02*
X167473333Y-119189523D01*
X167425714Y-119237142D01*
X167330476Y-119284761D01*
X167282857Y-119284761D01*
X167187619Y-119237142D01*
X167140000Y-119189523D01*
X167092380Y-119094285D01*
X167092380Y-118903809D01*
X167140000Y-118808571D01*
X167187619Y-118760952D01*
X167282857Y-118713333D01*
X167330476Y-118713333D01*
X167425714Y-118760952D01*
X167473333Y-118808571D01*
X167520952Y-118903809D01*
X167520952Y-119094285D01*
X167568571Y-119189523D01*
X167616190Y-119237142D01*
X167711428Y-119284761D01*
X167901904Y-119284761D01*
X167997142Y-119237142D01*
X168044761Y-119189523D01*
X168092380Y-119094285D01*
X168092380Y-118903809D01*
X168044761Y-118808571D01*
X167997142Y-118760952D01*
X167901904Y-118713333D01*
X167711428Y-118713333D01*
X167616190Y-118760952D01*
X167568571Y-118808571D01*
X167520952Y-118903809D01*
X134217380Y-129838333D02*
X134931666Y-129838333D01*
X135074523Y-129885952D01*
X135169761Y-129981190D01*
X135217380Y-130124047D01*
X135217380Y-130219285D01*
X134217380Y-128885952D02*
X134217380Y-129362142D01*
X134693571Y-129409761D01*
X134645952Y-129362142D01*
X134598333Y-129266904D01*
X134598333Y-129028809D01*
X134645952Y-128933571D01*
X134693571Y-128885952D01*
X134788809Y-128838333D01*
X135026904Y-128838333D01*
X135122142Y-128885952D01*
X135169761Y-128933571D01*
X135217380Y-129028809D01*
X135217380Y-129266904D01*
X135169761Y-129362142D01*
X135122142Y-129409761D01*
X133651666Y-123912380D02*
X133651666Y-124626666D01*
X133604047Y-124769523D01*
X133508809Y-124864761D01*
X133365952Y-124912380D01*
X133270714Y-124912380D01*
X134556428Y-124245714D02*
X134556428Y-124912380D01*
X134318333Y-123864761D02*
X134080238Y-124579047D01*
X134699285Y-124579047D01*
X164766666Y-123912380D02*
X164766666Y-124626666D01*
X164719047Y-124769523D01*
X164623809Y-124864761D01*
X164480952Y-124912380D01*
X164385714Y-124912380D01*
X165147619Y-123912380D02*
X165766666Y-123912380D01*
X165433333Y-124293333D01*
X165576190Y-124293333D01*
X165671428Y-124340952D01*
X165719047Y-124388571D01*
X165766666Y-124483809D01*
X165766666Y-124721904D01*
X165719047Y-124817142D01*
X165671428Y-124864761D01*
X165576190Y-124912380D01*
X165290476Y-124912380D01*
X165195238Y-124864761D01*
X165147619Y-124817142D01*
X103354285Y-107108571D02*
X103497142Y-107156190D01*
X103544761Y-107203809D01*
X103592380Y-107299047D01*
X103592380Y-107441904D01*
X103544761Y-107537142D01*
X103497142Y-107584761D01*
X103401904Y-107632380D01*
X103020952Y-107632380D01*
X103020952Y-106632380D01*
X103354285Y-106632380D01*
X103449523Y-106680000D01*
X103497142Y-106727619D01*
X103544761Y-106822857D01*
X103544761Y-106918095D01*
X103497142Y-107013333D01*
X103449523Y-107060952D01*
X103354285Y-107108571D01*
X103020952Y-107108571D01*
X103878095Y-106632380D02*
X104449523Y-106632380D01*
X104163809Y-107632380D02*
X104163809Y-106632380D01*
X105306666Y-107632380D02*
X104735238Y-107632380D01*
X105020952Y-107632380D02*
X105020952Y-106632380D01*
X104925714Y-106775238D01*
X104830476Y-106870476D01*
X104735238Y-106918095D01*
X105439047Y-109096428D02*
X106200952Y-109096428D01*
X105820000Y-109477380D02*
X105820000Y-108715476D01*
X164209047Y-109096428D02*
X164970952Y-109096428D01*
X167727380Y-129873333D02*
X168441666Y-129873333D01*
X168584523Y-129920952D01*
X168679761Y-130016190D01*
X168727380Y-130159047D01*
X168727380Y-130254285D01*
X167822619Y-129444761D02*
X167775000Y-129397142D01*
X167727380Y-129301904D01*
X167727380Y-129063809D01*
X167775000Y-128968571D01*
X167822619Y-128920952D01*
X167917857Y-128873333D01*
X168013095Y-128873333D01*
X168155952Y-128920952D01*
X168727380Y-129492380D01*
X168727380Y-128873333D01*
X103354285Y-141748571D02*
X103497142Y-141796190D01*
X103544761Y-141843809D01*
X103592380Y-141939047D01*
X103592380Y-142081904D01*
X103544761Y-142177142D01*
X103497142Y-142224761D01*
X103401904Y-142272380D01*
X103020952Y-142272380D01*
X103020952Y-141272380D01*
X103354285Y-141272380D01*
X103449523Y-141320000D01*
X103497142Y-141367619D01*
X103544761Y-141462857D01*
X103544761Y-141558095D01*
X103497142Y-141653333D01*
X103449523Y-141700952D01*
X103354285Y-141748571D01*
X103020952Y-141748571D01*
X103878095Y-141272380D02*
X104449523Y-141272380D01*
X104163809Y-142272380D02*
X104163809Y-141272380D01*
X104735238Y-141367619D02*
X104782857Y-141320000D01*
X104878095Y-141272380D01*
X105116190Y-141272380D01*
X105211428Y-141320000D01*
X105259047Y-141367619D01*
X105306666Y-141462857D01*
X105306666Y-141558095D01*
X105259047Y-141700952D01*
X104687619Y-142272380D01*
X105306666Y-142272380D01*
X164309047Y-140046428D02*
X165070952Y-140046428D01*
X164690000Y-140427380D02*
X164690000Y-139665476D01*
X105539047Y-140046428D02*
X106300952Y-140046428D01*
%LPC*%
D12*
X159955000Y-121885000D03*
X157415000Y-121885000D03*
X154875000Y-121885000D03*
X152335000Y-121885000D03*
X149795000Y-121885000D03*
X147255000Y-121885000D03*
X144715000Y-121885000D03*
X142175000Y-121885000D03*
D13*
X139635000Y-121885000D03*
D12*
X159955000Y-124425000D03*
X157415000Y-124425000D03*
X154875000Y-124425000D03*
X152335000Y-124425000D03*
X149795000Y-124425000D03*
X147255000Y-124425000D03*
X144715000Y-124425000D03*
X142175000Y-124425000D03*
D13*
X139635000Y-124425000D03*
D12*
X159955000Y-126965000D03*
X157415000Y-126965000D03*
X154875000Y-126965000D03*
X152335000Y-126965000D03*
X149795000Y-126965000D03*
X147255000Y-126965000D03*
X144715000Y-126965000D03*
X142175000Y-126965000D03*
D13*
X139635000Y-126965000D03*
X103505000Y-111760000D03*
X165035000Y-119345000D03*
D14*
X168910000Y-108400000D03*
X168910000Y-111900000D03*
D15*
X168910000Y-115400000D03*
D12*
X137095000Y-119345000D03*
X139635000Y-119345000D03*
X142175000Y-119345000D03*
X144715000Y-119345000D03*
X147255000Y-119345000D03*
X149795000Y-119345000D03*
X152335000Y-119345000D03*
X154875000Y-119345000D03*
X157415000Y-119345000D03*
X159955000Y-119345000D03*
D13*
X162495000Y-119345000D03*
D12*
X162495000Y-129505000D03*
X159955000Y-129505000D03*
X157415000Y-129505000D03*
X154875000Y-129505000D03*
X152335000Y-129505000D03*
X149795000Y-129505000D03*
X147255000Y-129505000D03*
X144715000Y-129505000D03*
X142175000Y-129505000D03*
X139635000Y-129505000D03*
D13*
X137095000Y-129505000D03*
D12*
X137095000Y-121885000D03*
X137095000Y-124425000D03*
D13*
X137095000Y-126965000D03*
D12*
X162495000Y-121885000D03*
X162495000Y-124425000D03*
D13*
X162495000Y-126965000D03*
D16*
X109220000Y-109085000D03*
X161210000Y-109085000D03*
D17*
X158450000Y-115080000D03*
X111970000Y-103090000D03*
D14*
X168910000Y-133335000D03*
X168910000Y-136835000D03*
D15*
X168910000Y-140335000D03*
D16*
X161290000Y-139915000D03*
X109300000Y-139915000D03*
D17*
X112060000Y-133920000D03*
X158540000Y-145910000D03*
D18*
X105500000Y-124500000D03*
X112500000Y-144500000D03*
X162500000Y-104500000D03*
X169500000Y-124500000D03*
M02*
