G04 #@! TF.GenerationSoftware,KiCad,Pcbnew,5.1.5-52549c5~86~ubuntu18.04.1*
G04 #@! TF.CreationDate,2020-07-02T00:48:14-05:00*
G04 #@! TF.ProjectId,RAK811_LORA_ADAPTABLE_NODE,52414b38-3131-45f4-9c4f-52415f414441,rev?*
G04 #@! TF.SameCoordinates,Original*
G04 #@! TF.FileFunction,Legend,Bot*
G04 #@! TF.FilePolarity,Positive*
%FSLAX46Y46*%
G04 Gerber Fmt 4.6, Leading zero omitted, Abs format (unit mm)*
G04 Created by KiCad (PCBNEW 5.1.5-52549c5~86~ubuntu18.04.1) date 2020-07-02 00:48:14*
%MOMM*%
%LPD*%
G04 APERTURE LIST*
%ADD10C,0.150000*%
%ADD11C,0.010000*%
%ADD12C,0.120000*%
%ADD13O,1.802000X1.802000*%
%ADD14C,1.802000*%
%ADD15C,2.502000*%
%ADD16R,2.502000X2.502000*%
%ADD17C,2.102000*%
%ADD18C,2.742000*%
%ADD19R,1.602000X1.102000*%
%ADD20C,0.100000*%
%ADD21R,2.302000X1.152000*%
%ADD22R,1.152000X1.102000*%
%ADD23R,1.302000X2.102000*%
%ADD24R,2.102000X1.302000*%
%ADD25R,1.102000X1.602000*%
%ADD26C,3.102000*%
G04 APERTURE END LIST*
D10*
X153891666Y-139772380D02*
X154225000Y-139296190D01*
X154463095Y-139772380D02*
X154463095Y-138772380D01*
X154082142Y-138772380D01*
X153986904Y-138820000D01*
X153939285Y-138867619D01*
X153891666Y-138962857D01*
X153891666Y-139105714D01*
X153939285Y-139200952D01*
X153986904Y-139248571D01*
X154082142Y-139296190D01*
X154463095Y-139296190D01*
X153510714Y-139486666D02*
X153034523Y-139486666D01*
X153605952Y-139772380D02*
X153272619Y-138772380D01*
X152939285Y-139772380D01*
X152605952Y-139772380D02*
X152605952Y-138772380D01*
X152034523Y-139772380D02*
X152463095Y-139200952D01*
X152034523Y-138772380D02*
X152605952Y-139343809D01*
X151463095Y-139200952D02*
X151558333Y-139153333D01*
X151605952Y-139105714D01*
X151653571Y-139010476D01*
X151653571Y-138962857D01*
X151605952Y-138867619D01*
X151558333Y-138820000D01*
X151463095Y-138772380D01*
X151272619Y-138772380D01*
X151177380Y-138820000D01*
X151129761Y-138867619D01*
X151082142Y-138962857D01*
X151082142Y-139010476D01*
X151129761Y-139105714D01*
X151177380Y-139153333D01*
X151272619Y-139200952D01*
X151463095Y-139200952D01*
X151558333Y-139248571D01*
X151605952Y-139296190D01*
X151653571Y-139391428D01*
X151653571Y-139581904D01*
X151605952Y-139677142D01*
X151558333Y-139724761D01*
X151463095Y-139772380D01*
X151272619Y-139772380D01*
X151177380Y-139724761D01*
X151129761Y-139677142D01*
X151082142Y-139581904D01*
X151082142Y-139391428D01*
X151129761Y-139296190D01*
X151177380Y-139248571D01*
X151272619Y-139200952D01*
X150129761Y-139772380D02*
X150701190Y-139772380D01*
X150415476Y-139772380D02*
X150415476Y-138772380D01*
X150510714Y-138915238D01*
X150605952Y-139010476D01*
X150701190Y-139058095D01*
X149177380Y-139772380D02*
X149748809Y-139772380D01*
X149463095Y-139772380D02*
X149463095Y-138772380D01*
X149558333Y-138915238D01*
X149653571Y-139010476D01*
X149748809Y-139058095D01*
X147510714Y-139772380D02*
X147986904Y-139772380D01*
X147986904Y-138772380D01*
X146986904Y-138772380D02*
X146796428Y-138772380D01*
X146701190Y-138820000D01*
X146605952Y-138915238D01*
X146558333Y-139105714D01*
X146558333Y-139439047D01*
X146605952Y-139629523D01*
X146701190Y-139724761D01*
X146796428Y-139772380D01*
X146986904Y-139772380D01*
X147082142Y-139724761D01*
X147177380Y-139629523D01*
X147225000Y-139439047D01*
X147225000Y-139105714D01*
X147177380Y-138915238D01*
X147082142Y-138820000D01*
X146986904Y-138772380D01*
X145558333Y-139772380D02*
X145891666Y-139296190D01*
X146129761Y-139772380D02*
X146129761Y-138772380D01*
X145748809Y-138772380D01*
X145653571Y-138820000D01*
X145605952Y-138867619D01*
X145558333Y-138962857D01*
X145558333Y-139105714D01*
X145605952Y-139200952D01*
X145653571Y-139248571D01*
X145748809Y-139296190D01*
X146129761Y-139296190D01*
X145177380Y-139486666D02*
X144701190Y-139486666D01*
X145272619Y-139772380D02*
X144939285Y-138772380D01*
X144605952Y-139772380D01*
X155439285Y-141136666D02*
X154963095Y-141136666D01*
X155534523Y-141422380D02*
X155201190Y-140422380D01*
X154867857Y-141422380D01*
X154534523Y-141422380D02*
X154534523Y-140422380D01*
X154296428Y-140422380D01*
X154153571Y-140470000D01*
X154058333Y-140565238D01*
X154010714Y-140660476D01*
X153963095Y-140850952D01*
X153963095Y-140993809D01*
X154010714Y-141184285D01*
X154058333Y-141279523D01*
X154153571Y-141374761D01*
X154296428Y-141422380D01*
X154534523Y-141422380D01*
X153582142Y-141136666D02*
X153105952Y-141136666D01*
X153677380Y-141422380D02*
X153344047Y-140422380D01*
X153010714Y-141422380D01*
X152677380Y-141422380D02*
X152677380Y-140422380D01*
X152296428Y-140422380D01*
X152201190Y-140470000D01*
X152153571Y-140517619D01*
X152105952Y-140612857D01*
X152105952Y-140755714D01*
X152153571Y-140850952D01*
X152201190Y-140898571D01*
X152296428Y-140946190D01*
X152677380Y-140946190D01*
X151820238Y-140422380D02*
X151248809Y-140422380D01*
X151534523Y-141422380D02*
X151534523Y-140422380D01*
X150963095Y-141136666D02*
X150486904Y-141136666D01*
X151058333Y-141422380D02*
X150725000Y-140422380D01*
X150391666Y-141422380D01*
X149725000Y-140898571D02*
X149582142Y-140946190D01*
X149534523Y-140993809D01*
X149486904Y-141089047D01*
X149486904Y-141231904D01*
X149534523Y-141327142D01*
X149582142Y-141374761D01*
X149677380Y-141422380D01*
X150058333Y-141422380D01*
X150058333Y-140422380D01*
X149725000Y-140422380D01*
X149629761Y-140470000D01*
X149582142Y-140517619D01*
X149534523Y-140612857D01*
X149534523Y-140708095D01*
X149582142Y-140803333D01*
X149629761Y-140850952D01*
X149725000Y-140898571D01*
X150058333Y-140898571D01*
X148582142Y-141422380D02*
X149058333Y-141422380D01*
X149058333Y-140422380D01*
X148248809Y-140898571D02*
X147915476Y-140898571D01*
X147772619Y-141422380D02*
X148248809Y-141422380D01*
X148248809Y-140422380D01*
X147772619Y-140422380D01*
X146582142Y-141422380D02*
X146582142Y-140422380D01*
X146010714Y-141422380D01*
X146010714Y-140422380D01*
X145344047Y-140422380D02*
X145153571Y-140422380D01*
X145058333Y-140470000D01*
X144963095Y-140565238D01*
X144915476Y-140755714D01*
X144915476Y-141089047D01*
X144963095Y-141279523D01*
X145058333Y-141374761D01*
X145153571Y-141422380D01*
X145344047Y-141422380D01*
X145439285Y-141374761D01*
X145534523Y-141279523D01*
X145582142Y-141089047D01*
X145582142Y-140755714D01*
X145534523Y-140565238D01*
X145439285Y-140470000D01*
X145344047Y-140422380D01*
X144486904Y-141422380D02*
X144486904Y-140422380D01*
X144248809Y-140422380D01*
X144105952Y-140470000D01*
X144010714Y-140565238D01*
X143963095Y-140660476D01*
X143915476Y-140850952D01*
X143915476Y-140993809D01*
X143963095Y-141184285D01*
X144010714Y-141279523D01*
X144105952Y-141374761D01*
X144248809Y-141422380D01*
X144486904Y-141422380D01*
X143486904Y-140898571D02*
X143153571Y-140898571D01*
X143010714Y-141422380D02*
X143486904Y-141422380D01*
X143486904Y-140422380D01*
X143010714Y-140422380D01*
X150415476Y-142072380D02*
X150082142Y-143072380D01*
X149748809Y-142072380D01*
X148463095Y-142072380D02*
X148367857Y-142072380D01*
X148272619Y-142120000D01*
X148225000Y-142167619D01*
X148177380Y-142262857D01*
X148129761Y-142453333D01*
X148129761Y-142691428D01*
X148177380Y-142881904D01*
X148225000Y-142977142D01*
X148272619Y-143024761D01*
X148367857Y-143072380D01*
X148463095Y-143072380D01*
X148558333Y-143024761D01*
X148605952Y-142977142D01*
X148653571Y-142881904D01*
X148701190Y-142691428D01*
X148701190Y-142453333D01*
X148653571Y-142262857D01*
X148605952Y-142167619D01*
X148558333Y-142120000D01*
X148463095Y-142072380D01*
X134633690Y-107022380D02*
X134633690Y-107736666D01*
X134681309Y-107879523D01*
X134776547Y-107974761D01*
X134919404Y-108022380D01*
X135014642Y-108022380D01*
X134157500Y-108022380D02*
X134157500Y-107022380D01*
X133776547Y-107022380D01*
X133681309Y-107070000D01*
X133633690Y-107117619D01*
X133586071Y-107212857D01*
X133586071Y-107355714D01*
X133633690Y-107450952D01*
X133681309Y-107498571D01*
X133776547Y-107546190D01*
X134157500Y-107546190D01*
X132633690Y-108022380D02*
X133205119Y-108022380D01*
X132919404Y-108022380D02*
X132919404Y-107022380D01*
X133014642Y-107165238D01*
X133109880Y-107260476D01*
X133205119Y-107308095D01*
X131109880Y-107498571D02*
X130967023Y-107546190D01*
X130919404Y-107593809D01*
X130871785Y-107689047D01*
X130871785Y-107831904D01*
X130919404Y-107927142D01*
X130967023Y-107974761D01*
X131062261Y-108022380D01*
X131443214Y-108022380D01*
X131443214Y-107022380D01*
X131109880Y-107022380D01*
X131014642Y-107070000D01*
X130967023Y-107117619D01*
X130919404Y-107212857D01*
X130919404Y-107308095D01*
X130967023Y-107403333D01*
X131014642Y-107450952D01*
X131109880Y-107498571D01*
X131443214Y-107498571D01*
X130490833Y-107736666D02*
X130014642Y-107736666D01*
X130586071Y-108022380D02*
X130252738Y-107022380D01*
X129919404Y-108022380D01*
X129728928Y-107022380D02*
X129157500Y-107022380D01*
X129443214Y-108022380D02*
X129443214Y-107022380D01*
X128967023Y-107022380D02*
X128395595Y-107022380D01*
X128681309Y-108022380D02*
X128681309Y-107022380D01*
X134395595Y-109672380D02*
X134967023Y-109672380D01*
X134681309Y-109672380D02*
X134681309Y-108672380D01*
X134776547Y-108815238D01*
X134871785Y-108910476D01*
X134967023Y-108958095D01*
X133967023Y-109291428D02*
X133205119Y-109291428D01*
X132776547Y-108767619D02*
X132728928Y-108720000D01*
X132633690Y-108672380D01*
X132395595Y-108672380D01*
X132300357Y-108720000D01*
X132252738Y-108767619D01*
X132205119Y-108862857D01*
X132205119Y-108958095D01*
X132252738Y-109100952D01*
X132824166Y-109672380D01*
X132205119Y-109672380D01*
X130681309Y-109148571D02*
X130538452Y-109196190D01*
X130490833Y-109243809D01*
X130443214Y-109339047D01*
X130443214Y-109481904D01*
X130490833Y-109577142D01*
X130538452Y-109624761D01*
X130633690Y-109672380D01*
X131014642Y-109672380D01*
X131014642Y-108672380D01*
X130681309Y-108672380D01*
X130586071Y-108720000D01*
X130538452Y-108767619D01*
X130490833Y-108862857D01*
X130490833Y-108958095D01*
X130538452Y-109053333D01*
X130586071Y-109100952D01*
X130681309Y-109148571D01*
X131014642Y-109148571D01*
X130157500Y-108672380D02*
X129586071Y-108672380D01*
X129871785Y-109672380D02*
X129871785Y-108672380D01*
X128728928Y-109672380D02*
X129300357Y-109672380D01*
X129014642Y-109672380D02*
X129014642Y-108672380D01*
X129109880Y-108815238D01*
X129205119Y-108910476D01*
X129300357Y-108958095D01*
X128300357Y-109291428D02*
X127538452Y-109291428D01*
X127919404Y-109672380D02*
X127919404Y-108910476D01*
X126728928Y-109148571D02*
X126586071Y-109196190D01*
X126538452Y-109243809D01*
X126490833Y-109339047D01*
X126490833Y-109481904D01*
X126538452Y-109577142D01*
X126586071Y-109624761D01*
X126681309Y-109672380D01*
X127062261Y-109672380D01*
X127062261Y-108672380D01*
X126728928Y-108672380D01*
X126633690Y-108720000D01*
X126586071Y-108767619D01*
X126538452Y-108862857D01*
X126538452Y-108958095D01*
X126586071Y-109053333D01*
X126633690Y-109100952D01*
X126728928Y-109148571D01*
X127062261Y-109148571D01*
X126205119Y-108672380D02*
X125633690Y-108672380D01*
X125919404Y-109672380D02*
X125919404Y-108672380D01*
X125347976Y-108767619D02*
X125300357Y-108720000D01*
X125205119Y-108672380D01*
X124967023Y-108672380D01*
X124871785Y-108720000D01*
X124824166Y-108767619D01*
X124776547Y-108862857D01*
X124776547Y-108958095D01*
X124824166Y-109100952D01*
X125395595Y-109672380D01*
X124776547Y-109672380D01*
X134967023Y-110417619D02*
X134919404Y-110370000D01*
X134824166Y-110322380D01*
X134586071Y-110322380D01*
X134490833Y-110370000D01*
X134443214Y-110417619D01*
X134395595Y-110512857D01*
X134395595Y-110608095D01*
X134443214Y-110750952D01*
X135014642Y-111322380D01*
X134395595Y-111322380D01*
X133967023Y-110941428D02*
X133205119Y-110941428D01*
X132824166Y-110322380D02*
X132205119Y-110322380D01*
X132538452Y-110703333D01*
X132395595Y-110703333D01*
X132300357Y-110750952D01*
X132252738Y-110798571D01*
X132205119Y-110893809D01*
X132205119Y-111131904D01*
X132252738Y-111227142D01*
X132300357Y-111274761D01*
X132395595Y-111322380D01*
X132681309Y-111322380D01*
X132776547Y-111274761D01*
X132824166Y-111227142D01*
X130681309Y-110798571D02*
X130538452Y-110846190D01*
X130490833Y-110893809D01*
X130443214Y-110989047D01*
X130443214Y-111131904D01*
X130490833Y-111227142D01*
X130538452Y-111274761D01*
X130633690Y-111322380D01*
X131014642Y-111322380D01*
X131014642Y-110322380D01*
X130681309Y-110322380D01*
X130586071Y-110370000D01*
X130538452Y-110417619D01*
X130490833Y-110512857D01*
X130490833Y-110608095D01*
X130538452Y-110703333D01*
X130586071Y-110750952D01*
X130681309Y-110798571D01*
X131014642Y-110798571D01*
X130157500Y-110322380D02*
X129586071Y-110322380D01*
X129871785Y-111322380D02*
X129871785Y-110322380D01*
X129300357Y-110417619D02*
X129252738Y-110370000D01*
X129157500Y-110322380D01*
X128919404Y-110322380D01*
X128824166Y-110370000D01*
X128776547Y-110417619D01*
X128728928Y-110512857D01*
X128728928Y-110608095D01*
X128776547Y-110750952D01*
X129347976Y-111322380D01*
X128728928Y-111322380D01*
X107963690Y-130517380D02*
X107963690Y-131231666D01*
X108011309Y-131374523D01*
X108106547Y-131469761D01*
X108249404Y-131517380D01*
X108344642Y-131517380D01*
X107487500Y-131517380D02*
X107487500Y-130517380D01*
X107106547Y-130517380D01*
X107011309Y-130565000D01*
X106963690Y-130612619D01*
X106916071Y-130707857D01*
X106916071Y-130850714D01*
X106963690Y-130945952D01*
X107011309Y-130993571D01*
X107106547Y-131041190D01*
X107487500Y-131041190D01*
X106535119Y-130612619D02*
X106487500Y-130565000D01*
X106392261Y-130517380D01*
X106154166Y-130517380D01*
X106058928Y-130565000D01*
X106011309Y-130612619D01*
X105963690Y-130707857D01*
X105963690Y-130803095D01*
X106011309Y-130945952D01*
X106582738Y-131517380D01*
X105963690Y-131517380D01*
X104820833Y-131231666D02*
X104344642Y-131231666D01*
X104916071Y-131517380D02*
X104582738Y-130517380D01*
X104249404Y-131517380D01*
X103916071Y-131517380D02*
X103916071Y-130517380D01*
X103344642Y-131517380D01*
X103344642Y-130517380D01*
X103011309Y-130517380D02*
X102439880Y-130517380D01*
X102725595Y-131517380D02*
X102725595Y-130517380D01*
X107725595Y-133167380D02*
X108297023Y-133167380D01*
X108011309Y-133167380D02*
X108011309Y-132167380D01*
X108106547Y-132310238D01*
X108201785Y-132405476D01*
X108297023Y-132453095D01*
X107297023Y-132786428D02*
X106535119Y-132786428D01*
X106106547Y-132262619D02*
X106058928Y-132215000D01*
X105963690Y-132167380D01*
X105725595Y-132167380D01*
X105630357Y-132215000D01*
X105582738Y-132262619D01*
X105535119Y-132357857D01*
X105535119Y-132453095D01*
X105582738Y-132595952D01*
X106154166Y-133167380D01*
X105535119Y-133167380D01*
X104058928Y-132167380D02*
X104058928Y-132881666D01*
X104106547Y-133024523D01*
X104201785Y-133119761D01*
X104344642Y-133167380D01*
X104439880Y-133167380D01*
X103154166Y-132167380D02*
X103344642Y-132167380D01*
X103439880Y-132215000D01*
X103487500Y-132262619D01*
X103582738Y-132405476D01*
X103630357Y-132595952D01*
X103630357Y-132976904D01*
X103582738Y-133072142D01*
X103535119Y-133119761D01*
X103439880Y-133167380D01*
X103249404Y-133167380D01*
X103154166Y-133119761D01*
X103106547Y-133072142D01*
X103058928Y-132976904D01*
X103058928Y-132738809D01*
X103106547Y-132643571D01*
X103154166Y-132595952D01*
X103249404Y-132548333D01*
X103439880Y-132548333D01*
X103535119Y-132595952D01*
X103582738Y-132643571D01*
X103630357Y-132738809D01*
X108297023Y-133912619D02*
X108249404Y-133865000D01*
X108154166Y-133817380D01*
X107916071Y-133817380D01*
X107820833Y-133865000D01*
X107773214Y-133912619D01*
X107725595Y-134007857D01*
X107725595Y-134103095D01*
X107773214Y-134245952D01*
X108344642Y-134817380D01*
X107725595Y-134817380D01*
X107297023Y-134436428D02*
X106535119Y-134436428D01*
X106154166Y-133817380D02*
X105535119Y-133817380D01*
X105868452Y-134198333D01*
X105725595Y-134198333D01*
X105630357Y-134245952D01*
X105582738Y-134293571D01*
X105535119Y-134388809D01*
X105535119Y-134626904D01*
X105582738Y-134722142D01*
X105630357Y-134769761D01*
X105725595Y-134817380D01*
X106011309Y-134817380D01*
X106106547Y-134769761D01*
X106154166Y-134722142D01*
X104344642Y-133817380D02*
X104344642Y-134626904D01*
X104297023Y-134722142D01*
X104249404Y-134769761D01*
X104154166Y-134817380D01*
X103963690Y-134817380D01*
X103868452Y-134769761D01*
X103820833Y-134722142D01*
X103773214Y-134626904D01*
X103773214Y-133817380D01*
X103297023Y-134722142D02*
X103249404Y-134769761D01*
X103297023Y-134817380D01*
X103344642Y-134769761D01*
X103297023Y-134722142D01*
X103297023Y-134817380D01*
X102487500Y-134293571D02*
X102820833Y-134293571D01*
X102820833Y-134817380D02*
X102820833Y-133817380D01*
X102344642Y-133817380D01*
X101487500Y-134817380D02*
X101963690Y-134817380D01*
X101963690Y-133817380D01*
D11*
G36*
X137239186Y-137803931D02*
G01*
X137155365Y-138248555D01*
X136846080Y-138376053D01*
X136536794Y-138503551D01*
X136165754Y-138251246D01*
X136061843Y-138180996D01*
X135967913Y-138118272D01*
X135888348Y-138065938D01*
X135827530Y-138026857D01*
X135789843Y-138003893D01*
X135779579Y-137998942D01*
X135761090Y-138011676D01*
X135721580Y-138046882D01*
X135665478Y-138100062D01*
X135597213Y-138166718D01*
X135521214Y-138242354D01*
X135441908Y-138322472D01*
X135363725Y-138402574D01*
X135291093Y-138478164D01*
X135228441Y-138544745D01*
X135180197Y-138597818D01*
X135150790Y-138632887D01*
X135143759Y-138644623D01*
X135153877Y-138666260D01*
X135182241Y-138713662D01*
X135225871Y-138782193D01*
X135281782Y-138867215D01*
X135346994Y-138964093D01*
X135384781Y-139019350D01*
X135453657Y-139120248D01*
X135514860Y-139211299D01*
X135565422Y-139287970D01*
X135602372Y-139345728D01*
X135622742Y-139380043D01*
X135625803Y-139387254D01*
X135618864Y-139407748D01*
X135599949Y-139455513D01*
X135571913Y-139523832D01*
X135537609Y-139605989D01*
X135499891Y-139695270D01*
X135461613Y-139784958D01*
X135425630Y-139868338D01*
X135394794Y-139938694D01*
X135371961Y-139989310D01*
X135359983Y-140013471D01*
X135359276Y-140014422D01*
X135340469Y-140019036D01*
X135290382Y-140029328D01*
X135214207Y-140044287D01*
X135117135Y-140062901D01*
X135004357Y-140084159D01*
X134938558Y-140096418D01*
X134818050Y-140119362D01*
X134709203Y-140141195D01*
X134617524Y-140160722D01*
X134548519Y-140176748D01*
X134507696Y-140188079D01*
X134499489Y-140191674D01*
X134491452Y-140216006D01*
X134484967Y-140270959D01*
X134480030Y-140350108D01*
X134476636Y-140447026D01*
X134474782Y-140555287D01*
X134474462Y-140668465D01*
X134475673Y-140780135D01*
X134478410Y-140883868D01*
X134482669Y-140973241D01*
X134488445Y-141041826D01*
X134495733Y-141083197D01*
X134500105Y-141091810D01*
X134526236Y-141102133D01*
X134581607Y-141116892D01*
X134658893Y-141134352D01*
X134750770Y-141152780D01*
X134782842Y-141158741D01*
X134937476Y-141187066D01*
X135059625Y-141209876D01*
X135153327Y-141228080D01*
X135222616Y-141242583D01*
X135271529Y-141254292D01*
X135304103Y-141264115D01*
X135324372Y-141272956D01*
X135336374Y-141281724D01*
X135338053Y-141283457D01*
X135354816Y-141311371D01*
X135380386Y-141365695D01*
X135412212Y-141439777D01*
X135447740Y-141526965D01*
X135484417Y-141620608D01*
X135519689Y-141714052D01*
X135551004Y-141800647D01*
X135575807Y-141873740D01*
X135591546Y-141926678D01*
X135595668Y-141952811D01*
X135595324Y-141953726D01*
X135581359Y-141975086D01*
X135549678Y-142022084D01*
X135503609Y-142089827D01*
X135446482Y-142173423D01*
X135381627Y-142267982D01*
X135363157Y-142294854D01*
X135297301Y-142392275D01*
X135239350Y-142481163D01*
X135192462Y-142556412D01*
X135159793Y-142612920D01*
X135144500Y-142645581D01*
X135143759Y-142649593D01*
X135156608Y-142670684D01*
X135192112Y-142712464D01*
X135245707Y-142770445D01*
X135312829Y-142840135D01*
X135388913Y-142917045D01*
X135469396Y-142996683D01*
X135549713Y-143074561D01*
X135625301Y-143146186D01*
X135691595Y-143207070D01*
X135744031Y-143252721D01*
X135778045Y-143278650D01*
X135787455Y-143282883D01*
X135809357Y-143272912D01*
X135854200Y-143246020D01*
X135914679Y-143206736D01*
X135961211Y-143175117D01*
X136045525Y-143117098D01*
X136145374Y-143048784D01*
X136245527Y-142980579D01*
X136299373Y-142944075D01*
X136481629Y-142820800D01*
X136634619Y-142903520D01*
X136704318Y-142939759D01*
X136763586Y-142967926D01*
X136803689Y-142983991D01*
X136813897Y-142986226D01*
X136826171Y-142969722D01*
X136850387Y-142923082D01*
X136884737Y-142850609D01*
X136927412Y-142756606D01*
X136976606Y-142645374D01*
X137030510Y-142521215D01*
X137087316Y-142388432D01*
X137145218Y-142251327D01*
X137202407Y-142114202D01*
X137257076Y-141981358D01*
X137307416Y-141857098D01*
X137351620Y-141745725D01*
X137387881Y-141651539D01*
X137414391Y-141578844D01*
X137429342Y-141531941D01*
X137431746Y-141515833D01*
X137412689Y-141495286D01*
X137370964Y-141461933D01*
X137315294Y-141422702D01*
X137310622Y-141419599D01*
X137166736Y-141304423D01*
X137050717Y-141170053D01*
X136963570Y-141020784D01*
X136906301Y-140860913D01*
X136879914Y-140694737D01*
X136885415Y-140526552D01*
X136923810Y-140360655D01*
X136996105Y-140201342D01*
X137017374Y-140166487D01*
X137128004Y-140025737D01*
X137258698Y-139912714D01*
X137404936Y-139828003D01*
X137562192Y-139772194D01*
X137725943Y-139745874D01*
X137891667Y-139749630D01*
X138054838Y-139784050D01*
X138210935Y-139849723D01*
X138355433Y-139947235D01*
X138400131Y-139986813D01*
X138513888Y-140110703D01*
X138596782Y-140241124D01*
X138653644Y-140387315D01*
X138685313Y-140532088D01*
X138693131Y-140694860D01*
X138667062Y-140858440D01*
X138609755Y-141017298D01*
X138523856Y-141165906D01*
X138412014Y-141298735D01*
X138276877Y-141410256D01*
X138259117Y-141422011D01*
X138202850Y-141460508D01*
X138160077Y-141493863D01*
X138139628Y-141515160D01*
X138139331Y-141515833D01*
X138143721Y-141538871D01*
X138161124Y-141591157D01*
X138189732Y-141668390D01*
X138227735Y-141766268D01*
X138273326Y-141880491D01*
X138324697Y-142006758D01*
X138380038Y-142140767D01*
X138437542Y-142278218D01*
X138495399Y-142414808D01*
X138551802Y-142546237D01*
X138604942Y-142668205D01*
X138653010Y-142776409D01*
X138694199Y-142866549D01*
X138726699Y-142934323D01*
X138748703Y-142975430D01*
X138757564Y-142986226D01*
X138784640Y-142977819D01*
X138835303Y-142955272D01*
X138900817Y-142922613D01*
X138936841Y-142903520D01*
X139089832Y-142820800D01*
X139272088Y-142944075D01*
X139365125Y-143007228D01*
X139466985Y-143076727D01*
X139562438Y-143142165D01*
X139610250Y-143175117D01*
X139677495Y-143220273D01*
X139734436Y-143256057D01*
X139773646Y-143277938D01*
X139786381Y-143282563D01*
X139804917Y-143270085D01*
X139845941Y-143235252D01*
X139905475Y-143181678D01*
X139979542Y-143112983D01*
X140064165Y-143032781D01*
X140117685Y-142981286D01*
X140211319Y-142889286D01*
X140292241Y-142806999D01*
X140357177Y-142737945D01*
X140402858Y-142685644D01*
X140426011Y-142653616D01*
X140428232Y-142647116D01*
X140417924Y-142622394D01*
X140389439Y-142572405D01*
X140345937Y-142502212D01*
X140290577Y-142416875D01*
X140226520Y-142321456D01*
X140208303Y-142294854D01*
X140141927Y-142198167D01*
X140082378Y-142111117D01*
X140032984Y-142038595D01*
X139997075Y-141985493D01*
X139977981Y-141956703D01*
X139976136Y-141953726D01*
X139978895Y-141930782D01*
X139993538Y-141880336D01*
X140017513Y-141809041D01*
X140048266Y-141723547D01*
X140083244Y-141630507D01*
X140119893Y-141536574D01*
X140155661Y-141448399D01*
X140187994Y-141372634D01*
X140214338Y-141315931D01*
X140232142Y-141284943D01*
X140233407Y-141283457D01*
X140244294Y-141274601D01*
X140262682Y-141265843D01*
X140292606Y-141256277D01*
X140338103Y-141244996D01*
X140403209Y-141231093D01*
X140491961Y-141213663D01*
X140608393Y-141191798D01*
X140756542Y-141164591D01*
X140788618Y-141158741D01*
X140883686Y-141140374D01*
X140966565Y-141122405D01*
X141029930Y-141106569D01*
X141066458Y-141094600D01*
X141071356Y-141091810D01*
X141079427Y-141067072D01*
X141085987Y-141011790D01*
X141091033Y-140932389D01*
X141094559Y-140835296D01*
X141096561Y-140726938D01*
X141097036Y-140613740D01*
X141095977Y-140502128D01*
X141093382Y-140398529D01*
X141089246Y-140309368D01*
X141083563Y-140241072D01*
X141076331Y-140200066D01*
X141071971Y-140191674D01*
X141047698Y-140183208D01*
X140992426Y-140169435D01*
X140911662Y-140151550D01*
X140810912Y-140130748D01*
X140695683Y-140108223D01*
X140632902Y-140096418D01*
X140513787Y-140074151D01*
X140407565Y-140053979D01*
X140319427Y-140036915D01*
X140254566Y-140023969D01*
X140218174Y-140016155D01*
X140212184Y-140014422D01*
X140202061Y-139994890D01*
X140180662Y-139947843D01*
X140150839Y-139880003D01*
X140115445Y-139798091D01*
X140077332Y-139708828D01*
X140039353Y-139618935D01*
X140004360Y-139535135D01*
X139975206Y-139464147D01*
X139954743Y-139412694D01*
X139945823Y-139387497D01*
X139945657Y-139386396D01*
X139955769Y-139366519D01*
X139984117Y-139320777D01*
X140027723Y-139253717D01*
X140083606Y-139169884D01*
X140148787Y-139073826D01*
X140186679Y-139018650D01*
X140255725Y-138917481D01*
X140317050Y-138825630D01*
X140367663Y-138747744D01*
X140404571Y-138688469D01*
X140424782Y-138652451D01*
X140427701Y-138644377D01*
X140415153Y-138625584D01*
X140380463Y-138585457D01*
X140328063Y-138528493D01*
X140262384Y-138459185D01*
X140187856Y-138382031D01*
X140108913Y-138301525D01*
X140029983Y-138222163D01*
X139955500Y-138148440D01*
X139889894Y-138084852D01*
X139837596Y-138035894D01*
X139803039Y-138006061D01*
X139791478Y-137998942D01*
X139772654Y-138008953D01*
X139727631Y-138037078D01*
X139660787Y-138080454D01*
X139576499Y-138136218D01*
X139479144Y-138201506D01*
X139405707Y-138251246D01*
X139034667Y-138503551D01*
X138416095Y-138248555D01*
X138332275Y-137803931D01*
X138248454Y-137359307D01*
X137323006Y-137359307D01*
X137239186Y-137803931D01*
G37*
X137239186Y-137803931D02*
X137155365Y-138248555D01*
X136846080Y-138376053D01*
X136536794Y-138503551D01*
X136165754Y-138251246D01*
X136061843Y-138180996D01*
X135967913Y-138118272D01*
X135888348Y-138065938D01*
X135827530Y-138026857D01*
X135789843Y-138003893D01*
X135779579Y-137998942D01*
X135761090Y-138011676D01*
X135721580Y-138046882D01*
X135665478Y-138100062D01*
X135597213Y-138166718D01*
X135521214Y-138242354D01*
X135441908Y-138322472D01*
X135363725Y-138402574D01*
X135291093Y-138478164D01*
X135228441Y-138544745D01*
X135180197Y-138597818D01*
X135150790Y-138632887D01*
X135143759Y-138644623D01*
X135153877Y-138666260D01*
X135182241Y-138713662D01*
X135225871Y-138782193D01*
X135281782Y-138867215D01*
X135346994Y-138964093D01*
X135384781Y-139019350D01*
X135453657Y-139120248D01*
X135514860Y-139211299D01*
X135565422Y-139287970D01*
X135602372Y-139345728D01*
X135622742Y-139380043D01*
X135625803Y-139387254D01*
X135618864Y-139407748D01*
X135599949Y-139455513D01*
X135571913Y-139523832D01*
X135537609Y-139605989D01*
X135499891Y-139695270D01*
X135461613Y-139784958D01*
X135425630Y-139868338D01*
X135394794Y-139938694D01*
X135371961Y-139989310D01*
X135359983Y-140013471D01*
X135359276Y-140014422D01*
X135340469Y-140019036D01*
X135290382Y-140029328D01*
X135214207Y-140044287D01*
X135117135Y-140062901D01*
X135004357Y-140084159D01*
X134938558Y-140096418D01*
X134818050Y-140119362D01*
X134709203Y-140141195D01*
X134617524Y-140160722D01*
X134548519Y-140176748D01*
X134507696Y-140188079D01*
X134499489Y-140191674D01*
X134491452Y-140216006D01*
X134484967Y-140270959D01*
X134480030Y-140350108D01*
X134476636Y-140447026D01*
X134474782Y-140555287D01*
X134474462Y-140668465D01*
X134475673Y-140780135D01*
X134478410Y-140883868D01*
X134482669Y-140973241D01*
X134488445Y-141041826D01*
X134495733Y-141083197D01*
X134500105Y-141091810D01*
X134526236Y-141102133D01*
X134581607Y-141116892D01*
X134658893Y-141134352D01*
X134750770Y-141152780D01*
X134782842Y-141158741D01*
X134937476Y-141187066D01*
X135059625Y-141209876D01*
X135153327Y-141228080D01*
X135222616Y-141242583D01*
X135271529Y-141254292D01*
X135304103Y-141264115D01*
X135324372Y-141272956D01*
X135336374Y-141281724D01*
X135338053Y-141283457D01*
X135354816Y-141311371D01*
X135380386Y-141365695D01*
X135412212Y-141439777D01*
X135447740Y-141526965D01*
X135484417Y-141620608D01*
X135519689Y-141714052D01*
X135551004Y-141800647D01*
X135575807Y-141873740D01*
X135591546Y-141926678D01*
X135595668Y-141952811D01*
X135595324Y-141953726D01*
X135581359Y-141975086D01*
X135549678Y-142022084D01*
X135503609Y-142089827D01*
X135446482Y-142173423D01*
X135381627Y-142267982D01*
X135363157Y-142294854D01*
X135297301Y-142392275D01*
X135239350Y-142481163D01*
X135192462Y-142556412D01*
X135159793Y-142612920D01*
X135144500Y-142645581D01*
X135143759Y-142649593D01*
X135156608Y-142670684D01*
X135192112Y-142712464D01*
X135245707Y-142770445D01*
X135312829Y-142840135D01*
X135388913Y-142917045D01*
X135469396Y-142996683D01*
X135549713Y-143074561D01*
X135625301Y-143146186D01*
X135691595Y-143207070D01*
X135744031Y-143252721D01*
X135778045Y-143278650D01*
X135787455Y-143282883D01*
X135809357Y-143272912D01*
X135854200Y-143246020D01*
X135914679Y-143206736D01*
X135961211Y-143175117D01*
X136045525Y-143117098D01*
X136145374Y-143048784D01*
X136245527Y-142980579D01*
X136299373Y-142944075D01*
X136481629Y-142820800D01*
X136634619Y-142903520D01*
X136704318Y-142939759D01*
X136763586Y-142967926D01*
X136803689Y-142983991D01*
X136813897Y-142986226D01*
X136826171Y-142969722D01*
X136850387Y-142923082D01*
X136884737Y-142850609D01*
X136927412Y-142756606D01*
X136976606Y-142645374D01*
X137030510Y-142521215D01*
X137087316Y-142388432D01*
X137145218Y-142251327D01*
X137202407Y-142114202D01*
X137257076Y-141981358D01*
X137307416Y-141857098D01*
X137351620Y-141745725D01*
X137387881Y-141651539D01*
X137414391Y-141578844D01*
X137429342Y-141531941D01*
X137431746Y-141515833D01*
X137412689Y-141495286D01*
X137370964Y-141461933D01*
X137315294Y-141422702D01*
X137310622Y-141419599D01*
X137166736Y-141304423D01*
X137050717Y-141170053D01*
X136963570Y-141020784D01*
X136906301Y-140860913D01*
X136879914Y-140694737D01*
X136885415Y-140526552D01*
X136923810Y-140360655D01*
X136996105Y-140201342D01*
X137017374Y-140166487D01*
X137128004Y-140025737D01*
X137258698Y-139912714D01*
X137404936Y-139828003D01*
X137562192Y-139772194D01*
X137725943Y-139745874D01*
X137891667Y-139749630D01*
X138054838Y-139784050D01*
X138210935Y-139849723D01*
X138355433Y-139947235D01*
X138400131Y-139986813D01*
X138513888Y-140110703D01*
X138596782Y-140241124D01*
X138653644Y-140387315D01*
X138685313Y-140532088D01*
X138693131Y-140694860D01*
X138667062Y-140858440D01*
X138609755Y-141017298D01*
X138523856Y-141165906D01*
X138412014Y-141298735D01*
X138276877Y-141410256D01*
X138259117Y-141422011D01*
X138202850Y-141460508D01*
X138160077Y-141493863D01*
X138139628Y-141515160D01*
X138139331Y-141515833D01*
X138143721Y-141538871D01*
X138161124Y-141591157D01*
X138189732Y-141668390D01*
X138227735Y-141766268D01*
X138273326Y-141880491D01*
X138324697Y-142006758D01*
X138380038Y-142140767D01*
X138437542Y-142278218D01*
X138495399Y-142414808D01*
X138551802Y-142546237D01*
X138604942Y-142668205D01*
X138653010Y-142776409D01*
X138694199Y-142866549D01*
X138726699Y-142934323D01*
X138748703Y-142975430D01*
X138757564Y-142986226D01*
X138784640Y-142977819D01*
X138835303Y-142955272D01*
X138900817Y-142922613D01*
X138936841Y-142903520D01*
X139089832Y-142820800D01*
X139272088Y-142944075D01*
X139365125Y-143007228D01*
X139466985Y-143076727D01*
X139562438Y-143142165D01*
X139610250Y-143175117D01*
X139677495Y-143220273D01*
X139734436Y-143256057D01*
X139773646Y-143277938D01*
X139786381Y-143282563D01*
X139804917Y-143270085D01*
X139845941Y-143235252D01*
X139905475Y-143181678D01*
X139979542Y-143112983D01*
X140064165Y-143032781D01*
X140117685Y-142981286D01*
X140211319Y-142889286D01*
X140292241Y-142806999D01*
X140357177Y-142737945D01*
X140402858Y-142685644D01*
X140426011Y-142653616D01*
X140428232Y-142647116D01*
X140417924Y-142622394D01*
X140389439Y-142572405D01*
X140345937Y-142502212D01*
X140290577Y-142416875D01*
X140226520Y-142321456D01*
X140208303Y-142294854D01*
X140141927Y-142198167D01*
X140082378Y-142111117D01*
X140032984Y-142038595D01*
X139997075Y-141985493D01*
X139977981Y-141956703D01*
X139976136Y-141953726D01*
X139978895Y-141930782D01*
X139993538Y-141880336D01*
X140017513Y-141809041D01*
X140048266Y-141723547D01*
X140083244Y-141630507D01*
X140119893Y-141536574D01*
X140155661Y-141448399D01*
X140187994Y-141372634D01*
X140214338Y-141315931D01*
X140232142Y-141284943D01*
X140233407Y-141283457D01*
X140244294Y-141274601D01*
X140262682Y-141265843D01*
X140292606Y-141256277D01*
X140338103Y-141244996D01*
X140403209Y-141231093D01*
X140491961Y-141213663D01*
X140608393Y-141191798D01*
X140756542Y-141164591D01*
X140788618Y-141158741D01*
X140883686Y-141140374D01*
X140966565Y-141122405D01*
X141029930Y-141106569D01*
X141066458Y-141094600D01*
X141071356Y-141091810D01*
X141079427Y-141067072D01*
X141085987Y-141011790D01*
X141091033Y-140932389D01*
X141094559Y-140835296D01*
X141096561Y-140726938D01*
X141097036Y-140613740D01*
X141095977Y-140502128D01*
X141093382Y-140398529D01*
X141089246Y-140309368D01*
X141083563Y-140241072D01*
X141076331Y-140200066D01*
X141071971Y-140191674D01*
X141047698Y-140183208D01*
X140992426Y-140169435D01*
X140911662Y-140151550D01*
X140810912Y-140130748D01*
X140695683Y-140108223D01*
X140632902Y-140096418D01*
X140513787Y-140074151D01*
X140407565Y-140053979D01*
X140319427Y-140036915D01*
X140254566Y-140023969D01*
X140218174Y-140016155D01*
X140212184Y-140014422D01*
X140202061Y-139994890D01*
X140180662Y-139947843D01*
X140150839Y-139880003D01*
X140115445Y-139798091D01*
X140077332Y-139708828D01*
X140039353Y-139618935D01*
X140004360Y-139535135D01*
X139975206Y-139464147D01*
X139954743Y-139412694D01*
X139945823Y-139387497D01*
X139945657Y-139386396D01*
X139955769Y-139366519D01*
X139984117Y-139320777D01*
X140027723Y-139253717D01*
X140083606Y-139169884D01*
X140148787Y-139073826D01*
X140186679Y-139018650D01*
X140255725Y-138917481D01*
X140317050Y-138825630D01*
X140367663Y-138747744D01*
X140404571Y-138688469D01*
X140424782Y-138652451D01*
X140427701Y-138644377D01*
X140415153Y-138625584D01*
X140380463Y-138585457D01*
X140328063Y-138528493D01*
X140262384Y-138459185D01*
X140187856Y-138382031D01*
X140108913Y-138301525D01*
X140029983Y-138222163D01*
X139955500Y-138148440D01*
X139889894Y-138084852D01*
X139837596Y-138035894D01*
X139803039Y-138006061D01*
X139791478Y-137998942D01*
X139772654Y-138008953D01*
X139727631Y-138037078D01*
X139660787Y-138080454D01*
X139576499Y-138136218D01*
X139479144Y-138201506D01*
X139405707Y-138251246D01*
X139034667Y-138503551D01*
X138416095Y-138248555D01*
X138332275Y-137803931D01*
X138248454Y-137359307D01*
X137323006Y-137359307D01*
X137239186Y-137803931D01*
D12*
X107015000Y-116695000D02*
G75*
G03X106315000Y-117395000I0J-700000D01*
G01*
X108315000Y-117395000D02*
G75*
G03X107615000Y-116695000I-700000J0D01*
G01*
X107615000Y-120795000D02*
G75*
G03X108315000Y-120095000I0J700000D01*
G01*
X106315000Y-120095000D02*
G75*
G03X107015000Y-120795000I700000J0D01*
G01*
X106315000Y-117345000D02*
X106315000Y-120145000D01*
X107015000Y-120795000D02*
X107615000Y-120795000D01*
X108315000Y-120145000D02*
X108315000Y-117345000D01*
X107615000Y-116695000D02*
X107015000Y-116695000D01*
X103120000Y-116710000D02*
X103120000Y-117350000D01*
X103120000Y-119510000D02*
X103120000Y-118870000D01*
X103120000Y-117350000D02*
X103750000Y-117350000D01*
X100400000Y-116760000D02*
X100400000Y-119460000D01*
X134490000Y-119060000D02*
X134490000Y-117160000D01*
X134490000Y-117160000D02*
X133090000Y-117160000D01*
X134490000Y-129860000D02*
X134490000Y-131760000D01*
X133090000Y-131760000D02*
X134490000Y-131760000D01*
X111890000Y-117160000D02*
X111890000Y-119060000D01*
X111890000Y-129860000D02*
X111890000Y-131760000D01*
X111890000Y-131760000D02*
X113290000Y-131760000D01*
X130030000Y-103170000D02*
G75*
G03X130730000Y-103870000I700000J0D01*
G01*
X130730000Y-101870000D02*
G75*
G03X130030000Y-102570000I0J-700000D01*
G01*
X134130000Y-102570000D02*
G75*
G03X133430000Y-101870000I-700000J0D01*
G01*
X133430000Y-103870000D02*
G75*
G03X134130000Y-103170000I0J700000D01*
G01*
X130680000Y-103870000D02*
X133480000Y-103870000D01*
X134130000Y-103170000D02*
X134130000Y-102570000D01*
X133480000Y-101870000D02*
X130680000Y-101870000D01*
X130030000Y-102570000D02*
X130030000Y-103170000D01*
D10*
X104967380Y-117911666D02*
X105681666Y-117911666D01*
X105824523Y-117864047D01*
X105919761Y-117768809D01*
X105967380Y-117625952D01*
X105967380Y-117530714D01*
X105967380Y-118387857D02*
X104967380Y-118387857D01*
X104967380Y-118768809D01*
X105015000Y-118864047D01*
X105062619Y-118911666D01*
X105157857Y-118959285D01*
X105300714Y-118959285D01*
X105395952Y-118911666D01*
X105443571Y-118864047D01*
X105491190Y-118768809D01*
X105491190Y-118387857D01*
X105062619Y-119340238D02*
X105015000Y-119387857D01*
X104967380Y-119483095D01*
X104967380Y-119721190D01*
X105015000Y-119816428D01*
X105062619Y-119864047D01*
X105157857Y-119911666D01*
X105253095Y-119911666D01*
X105395952Y-119864047D01*
X105967380Y-119292619D01*
X105967380Y-119911666D01*
X107767380Y-116430714D02*
X107767380Y-115859285D01*
X107767380Y-116145000D02*
X106767380Y-116145000D01*
X106910238Y-116049761D01*
X107005476Y-115954523D01*
X107053095Y-115859285D01*
X106767380Y-121011666D02*
X106767380Y-121630714D01*
X107148333Y-121297380D01*
X107148333Y-121440238D01*
X107195952Y-121535476D01*
X107243571Y-121583095D01*
X107338809Y-121630714D01*
X107576904Y-121630714D01*
X107672142Y-121583095D01*
X107719761Y-121535476D01*
X107767380Y-121440238D01*
X107767380Y-121154523D01*
X107719761Y-121059285D01*
X107672142Y-121011666D01*
X102093333Y-114362380D02*
X102093333Y-115076666D01*
X102140952Y-115219523D01*
X102236190Y-115314761D01*
X102379047Y-115362380D01*
X102474285Y-115362380D01*
X101712380Y-114362380D02*
X101045714Y-114362380D01*
X101474285Y-115362380D01*
X109942380Y-117348095D02*
X110751904Y-117348095D01*
X110847142Y-117395714D01*
X110894761Y-117443333D01*
X110942380Y-117538571D01*
X110942380Y-117729047D01*
X110894761Y-117824285D01*
X110847142Y-117871904D01*
X110751904Y-117919523D01*
X109942380Y-117919523D01*
X110942380Y-118919523D02*
X110942380Y-118348095D01*
X110942380Y-118633809D02*
X109942380Y-118633809D01*
X110085238Y-118538571D01*
X110180476Y-118443333D01*
X110228095Y-118348095D01*
X132913333Y-104122380D02*
X132913333Y-104836666D01*
X132960952Y-104979523D01*
X133056190Y-105074761D01*
X133199047Y-105122380D01*
X133294285Y-105122380D01*
X132437142Y-105122380D02*
X132437142Y-104122380D01*
X132056190Y-104122380D01*
X131960952Y-104170000D01*
X131913333Y-104217619D01*
X131865714Y-104312857D01*
X131865714Y-104455714D01*
X131913333Y-104550952D01*
X131960952Y-104598571D01*
X132056190Y-104646190D01*
X132437142Y-104646190D01*
X130913333Y-105122380D02*
X131484761Y-105122380D01*
X131199047Y-105122380D02*
X131199047Y-104122380D01*
X131294285Y-104265238D01*
X131389523Y-104360476D01*
X131484761Y-104408095D01*
X129194285Y-103322380D02*
X129765714Y-103322380D01*
X129480000Y-103322380D02*
X129480000Y-102322380D01*
X129575238Y-102465238D01*
X129670476Y-102560476D01*
X129765714Y-102608095D01*
X135013333Y-102322380D02*
X134394285Y-102322380D01*
X134727619Y-102703333D01*
X134584761Y-102703333D01*
X134489523Y-102750952D01*
X134441904Y-102798571D01*
X134394285Y-102893809D01*
X134394285Y-103131904D01*
X134441904Y-103227142D01*
X134489523Y-103274761D01*
X134584761Y-103322380D01*
X134870476Y-103322380D01*
X134965714Y-103274761D01*
X135013333Y-103227142D01*
%LPC*%
D13*
X159955000Y-121885000D03*
X157415000Y-121885000D03*
X154875000Y-121885000D03*
X152335000Y-121885000D03*
X149795000Y-121885000D03*
X147255000Y-121885000D03*
X144715000Y-121885000D03*
X142175000Y-121885000D03*
D14*
X139635000Y-121885000D03*
D13*
X159955000Y-124425000D03*
X157415000Y-124425000D03*
X154875000Y-124425000D03*
X152335000Y-124425000D03*
X149795000Y-124425000D03*
X147255000Y-124425000D03*
X144715000Y-124425000D03*
X142175000Y-124425000D03*
D14*
X139635000Y-124425000D03*
D13*
X159955000Y-126965000D03*
X157415000Y-126965000D03*
X154875000Y-126965000D03*
X152335000Y-126965000D03*
X149795000Y-126965000D03*
X147255000Y-126965000D03*
X144715000Y-126965000D03*
X142175000Y-126965000D03*
D14*
X139635000Y-126965000D03*
X103505000Y-111760000D03*
X165035000Y-119345000D03*
D15*
X168910000Y-108400000D03*
X168910000Y-111900000D03*
D16*
X168910000Y-115400000D03*
D13*
X137095000Y-119345000D03*
X139635000Y-119345000D03*
X142175000Y-119345000D03*
X144715000Y-119345000D03*
X147255000Y-119345000D03*
X149795000Y-119345000D03*
X152335000Y-119345000D03*
X154875000Y-119345000D03*
X157415000Y-119345000D03*
X159955000Y-119345000D03*
D14*
X162495000Y-119345000D03*
D13*
X162495000Y-129505000D03*
X159955000Y-129505000D03*
X157415000Y-129505000D03*
X154875000Y-129505000D03*
X152335000Y-129505000D03*
X149795000Y-129505000D03*
X147255000Y-129505000D03*
X144715000Y-129505000D03*
X142175000Y-129505000D03*
X139635000Y-129505000D03*
D14*
X137095000Y-129505000D03*
D13*
X137095000Y-121885000D03*
X137095000Y-124425000D03*
D14*
X137095000Y-126965000D03*
D13*
X162495000Y-121885000D03*
X162495000Y-124425000D03*
D14*
X162495000Y-126965000D03*
D17*
X109220000Y-109085000D03*
X161210000Y-109085000D03*
D18*
X158450000Y-115080000D03*
X111970000Y-103090000D03*
D19*
X107315000Y-118745000D03*
D20*
G36*
X108115398Y-120051112D02*
G01*
X108115398Y-120069534D01*
X108115152Y-120074533D01*
X108110342Y-120123364D01*
X108109608Y-120128314D01*
X108100036Y-120176439D01*
X108098820Y-120181295D01*
X108084576Y-120228250D01*
X108082890Y-120232961D01*
X108064113Y-120278294D01*
X108061973Y-120282820D01*
X108038842Y-120326093D01*
X108036269Y-120330384D01*
X108009009Y-120371183D01*
X108006027Y-120375204D01*
X107974899Y-120413133D01*
X107971538Y-120416841D01*
X107936841Y-120451538D01*
X107933133Y-120454899D01*
X107895204Y-120486027D01*
X107891183Y-120489009D01*
X107850384Y-120516269D01*
X107846093Y-120518842D01*
X107802820Y-120541973D01*
X107798294Y-120544113D01*
X107752961Y-120562890D01*
X107748250Y-120564576D01*
X107701295Y-120578820D01*
X107696439Y-120580036D01*
X107648314Y-120589608D01*
X107643364Y-120590342D01*
X107594533Y-120595152D01*
X107589534Y-120595398D01*
X107571112Y-120595398D01*
X107565000Y-120596000D01*
X107065000Y-120596000D01*
X107058888Y-120595398D01*
X107040466Y-120595398D01*
X107035467Y-120595152D01*
X106986636Y-120590342D01*
X106981686Y-120589608D01*
X106933561Y-120580036D01*
X106928705Y-120578820D01*
X106881750Y-120564576D01*
X106877039Y-120562890D01*
X106831706Y-120544113D01*
X106827180Y-120541973D01*
X106783907Y-120518842D01*
X106779616Y-120516269D01*
X106738817Y-120489009D01*
X106734796Y-120486027D01*
X106696867Y-120454899D01*
X106693159Y-120451538D01*
X106658462Y-120416841D01*
X106655101Y-120413133D01*
X106623973Y-120375204D01*
X106620991Y-120371183D01*
X106593731Y-120330384D01*
X106591158Y-120326093D01*
X106568027Y-120282820D01*
X106565887Y-120278294D01*
X106547110Y-120232961D01*
X106545424Y-120228250D01*
X106531180Y-120181295D01*
X106529964Y-120176439D01*
X106520392Y-120128314D01*
X106519658Y-120123364D01*
X106514848Y-120074533D01*
X106514602Y-120069534D01*
X106514602Y-120051112D01*
X106514000Y-120045000D01*
X106514000Y-119495000D01*
X106514980Y-119485050D01*
X106517882Y-119475483D01*
X106522595Y-119466666D01*
X106528938Y-119458938D01*
X106536666Y-119452595D01*
X106545483Y-119447882D01*
X106555050Y-119444980D01*
X106565000Y-119444000D01*
X108065000Y-119444000D01*
X108074950Y-119444980D01*
X108084517Y-119447882D01*
X108093334Y-119452595D01*
X108101062Y-119458938D01*
X108107405Y-119466666D01*
X108112118Y-119475483D01*
X108115020Y-119485050D01*
X108116000Y-119495000D01*
X108116000Y-120045000D01*
X108115398Y-120051112D01*
G37*
G36*
X108115020Y-118004950D02*
G01*
X108112118Y-118014517D01*
X108107405Y-118023334D01*
X108101062Y-118031062D01*
X108093334Y-118037405D01*
X108084517Y-118042118D01*
X108074950Y-118045020D01*
X108065000Y-118046000D01*
X106565000Y-118046000D01*
X106555050Y-118045020D01*
X106545483Y-118042118D01*
X106536666Y-118037405D01*
X106528938Y-118031062D01*
X106522595Y-118023334D01*
X106517882Y-118014517D01*
X106514980Y-118004950D01*
X106514000Y-117995000D01*
X106514000Y-117445000D01*
X106514602Y-117438888D01*
X106514602Y-117420466D01*
X106514848Y-117415467D01*
X106519658Y-117366636D01*
X106520392Y-117361686D01*
X106529964Y-117313561D01*
X106531180Y-117308705D01*
X106545424Y-117261750D01*
X106547110Y-117257039D01*
X106565887Y-117211706D01*
X106568027Y-117207180D01*
X106591158Y-117163907D01*
X106593731Y-117159616D01*
X106620991Y-117118817D01*
X106623973Y-117114796D01*
X106655101Y-117076867D01*
X106658462Y-117073159D01*
X106693159Y-117038462D01*
X106696867Y-117035101D01*
X106734796Y-117003973D01*
X106738817Y-117000991D01*
X106779616Y-116973731D01*
X106783907Y-116971158D01*
X106827180Y-116948027D01*
X106831706Y-116945887D01*
X106877039Y-116927110D01*
X106881750Y-116925424D01*
X106928705Y-116911180D01*
X106933561Y-116909964D01*
X106981686Y-116900392D01*
X106986636Y-116899658D01*
X107035467Y-116894848D01*
X107040466Y-116894602D01*
X107058888Y-116894602D01*
X107065000Y-116894000D01*
X107565000Y-116894000D01*
X107571112Y-116894602D01*
X107589534Y-116894602D01*
X107594533Y-116894848D01*
X107643364Y-116899658D01*
X107648314Y-116900392D01*
X107696439Y-116909964D01*
X107701295Y-116911180D01*
X107748250Y-116925424D01*
X107752961Y-116927110D01*
X107798294Y-116945887D01*
X107802820Y-116948027D01*
X107846093Y-116971158D01*
X107850384Y-116973731D01*
X107891183Y-117000991D01*
X107895204Y-117003973D01*
X107933133Y-117035101D01*
X107936841Y-117038462D01*
X107971538Y-117073159D01*
X107974899Y-117076867D01*
X108006027Y-117114796D01*
X108009009Y-117118817D01*
X108036269Y-117159616D01*
X108038842Y-117163907D01*
X108061973Y-117207180D01*
X108064113Y-117211706D01*
X108082890Y-117257039D01*
X108084576Y-117261750D01*
X108098820Y-117308705D01*
X108100036Y-117313561D01*
X108109608Y-117361686D01*
X108110342Y-117366636D01*
X108115152Y-117415467D01*
X108115398Y-117420466D01*
X108115398Y-117438888D01*
X108116000Y-117445000D01*
X108116000Y-117995000D01*
X108115020Y-118004950D01*
G37*
D21*
X101760000Y-116635000D03*
D22*
X103285000Y-118110000D03*
D21*
X101760000Y-119585000D03*
D23*
X123190000Y-117710000D03*
X123190000Y-131210000D03*
D24*
X112440000Y-125360000D03*
X112440000Y-123560000D03*
X133940000Y-123560000D03*
X133940000Y-125360000D03*
D23*
X121390000Y-117710000D03*
X119590000Y-117710000D03*
X117790000Y-117710000D03*
X115990000Y-117710000D03*
X114190000Y-117710000D03*
X124990000Y-117710000D03*
X126790000Y-117710000D03*
X128590000Y-117710000D03*
X130390000Y-117710000D03*
X132190000Y-117710000D03*
D24*
X133940000Y-121760000D03*
X133940000Y-119960000D03*
X133940000Y-127160000D03*
X133940000Y-128960000D03*
D23*
X132190000Y-131210000D03*
X130390000Y-131210000D03*
X128590000Y-131210000D03*
X126790000Y-131210000D03*
X124990000Y-131210000D03*
X121390000Y-131210000D03*
X119590000Y-131210000D03*
X117790000Y-131210000D03*
X115990000Y-131210000D03*
X114190000Y-131210000D03*
D24*
X112440000Y-127160000D03*
X112440000Y-128960000D03*
X112440000Y-121760000D03*
X112440000Y-119960000D03*
D15*
X168910000Y-133335000D03*
X168910000Y-136835000D03*
D16*
X168910000Y-140335000D03*
D25*
X132080000Y-102870000D03*
D20*
G36*
X133386112Y-102069602D02*
G01*
X133404534Y-102069602D01*
X133409533Y-102069848D01*
X133458364Y-102074658D01*
X133463314Y-102075392D01*
X133511439Y-102084964D01*
X133516295Y-102086180D01*
X133563250Y-102100424D01*
X133567961Y-102102110D01*
X133613294Y-102120887D01*
X133617820Y-102123027D01*
X133661093Y-102146158D01*
X133665384Y-102148731D01*
X133706183Y-102175991D01*
X133710204Y-102178973D01*
X133748133Y-102210101D01*
X133751841Y-102213462D01*
X133786538Y-102248159D01*
X133789899Y-102251867D01*
X133821027Y-102289796D01*
X133824009Y-102293817D01*
X133851269Y-102334616D01*
X133853842Y-102338907D01*
X133876973Y-102382180D01*
X133879113Y-102386706D01*
X133897890Y-102432039D01*
X133899576Y-102436750D01*
X133913820Y-102483705D01*
X133915036Y-102488561D01*
X133924608Y-102536686D01*
X133925342Y-102541636D01*
X133930152Y-102590467D01*
X133930398Y-102595466D01*
X133930398Y-102613888D01*
X133931000Y-102620000D01*
X133931000Y-103120000D01*
X133930398Y-103126112D01*
X133930398Y-103144534D01*
X133930152Y-103149533D01*
X133925342Y-103198364D01*
X133924608Y-103203314D01*
X133915036Y-103251439D01*
X133913820Y-103256295D01*
X133899576Y-103303250D01*
X133897890Y-103307961D01*
X133879113Y-103353294D01*
X133876973Y-103357820D01*
X133853842Y-103401093D01*
X133851269Y-103405384D01*
X133824009Y-103446183D01*
X133821027Y-103450204D01*
X133789899Y-103488133D01*
X133786538Y-103491841D01*
X133751841Y-103526538D01*
X133748133Y-103529899D01*
X133710204Y-103561027D01*
X133706183Y-103564009D01*
X133665384Y-103591269D01*
X133661093Y-103593842D01*
X133617820Y-103616973D01*
X133613294Y-103619113D01*
X133567961Y-103637890D01*
X133563250Y-103639576D01*
X133516295Y-103653820D01*
X133511439Y-103655036D01*
X133463314Y-103664608D01*
X133458364Y-103665342D01*
X133409533Y-103670152D01*
X133404534Y-103670398D01*
X133386112Y-103670398D01*
X133380000Y-103671000D01*
X132830000Y-103671000D01*
X132820050Y-103670020D01*
X132810483Y-103667118D01*
X132801666Y-103662405D01*
X132793938Y-103656062D01*
X132787595Y-103648334D01*
X132782882Y-103639517D01*
X132779980Y-103629950D01*
X132779000Y-103620000D01*
X132779000Y-102120000D01*
X132779980Y-102110050D01*
X132782882Y-102100483D01*
X132787595Y-102091666D01*
X132793938Y-102083938D01*
X132801666Y-102077595D01*
X132810483Y-102072882D01*
X132820050Y-102069980D01*
X132830000Y-102069000D01*
X133380000Y-102069000D01*
X133386112Y-102069602D01*
G37*
G36*
X131339950Y-102069980D02*
G01*
X131349517Y-102072882D01*
X131358334Y-102077595D01*
X131366062Y-102083938D01*
X131372405Y-102091666D01*
X131377118Y-102100483D01*
X131380020Y-102110050D01*
X131381000Y-102120000D01*
X131381000Y-103620000D01*
X131380020Y-103629950D01*
X131377118Y-103639517D01*
X131372405Y-103648334D01*
X131366062Y-103656062D01*
X131358334Y-103662405D01*
X131349517Y-103667118D01*
X131339950Y-103670020D01*
X131330000Y-103671000D01*
X130780000Y-103671000D01*
X130773888Y-103670398D01*
X130755466Y-103670398D01*
X130750467Y-103670152D01*
X130701636Y-103665342D01*
X130696686Y-103664608D01*
X130648561Y-103655036D01*
X130643705Y-103653820D01*
X130596750Y-103639576D01*
X130592039Y-103637890D01*
X130546706Y-103619113D01*
X130542180Y-103616973D01*
X130498907Y-103593842D01*
X130494616Y-103591269D01*
X130453817Y-103564009D01*
X130449796Y-103561027D01*
X130411867Y-103529899D01*
X130408159Y-103526538D01*
X130373462Y-103491841D01*
X130370101Y-103488133D01*
X130338973Y-103450204D01*
X130335991Y-103446183D01*
X130308731Y-103405384D01*
X130306158Y-103401093D01*
X130283027Y-103357820D01*
X130280887Y-103353294D01*
X130262110Y-103307961D01*
X130260424Y-103303250D01*
X130246180Y-103256295D01*
X130244964Y-103251439D01*
X130235392Y-103203314D01*
X130234658Y-103198364D01*
X130229848Y-103149533D01*
X130229602Y-103144534D01*
X130229602Y-103126112D01*
X130229000Y-103120000D01*
X130229000Y-102620000D01*
X130229602Y-102613888D01*
X130229602Y-102595466D01*
X130229848Y-102590467D01*
X130234658Y-102541636D01*
X130235392Y-102536686D01*
X130244964Y-102488561D01*
X130246180Y-102483705D01*
X130260424Y-102436750D01*
X130262110Y-102432039D01*
X130280887Y-102386706D01*
X130283027Y-102382180D01*
X130306158Y-102338907D01*
X130308731Y-102334616D01*
X130335991Y-102293817D01*
X130338973Y-102289796D01*
X130370101Y-102251867D01*
X130373462Y-102248159D01*
X130408159Y-102213462D01*
X130411867Y-102210101D01*
X130449796Y-102178973D01*
X130453817Y-102175991D01*
X130494616Y-102148731D01*
X130498907Y-102146158D01*
X130542180Y-102123027D01*
X130546706Y-102120887D01*
X130592039Y-102102110D01*
X130596750Y-102100424D01*
X130643705Y-102086180D01*
X130648561Y-102084964D01*
X130696686Y-102075392D01*
X130701636Y-102074658D01*
X130750467Y-102069848D01*
X130755466Y-102069602D01*
X130773888Y-102069602D01*
X130780000Y-102069000D01*
X131330000Y-102069000D01*
X131339950Y-102069980D01*
G37*
D17*
X161290000Y-139915000D03*
X109300000Y-139915000D03*
D18*
X112060000Y-133920000D03*
X158540000Y-145910000D03*
D26*
X105500000Y-124500000D03*
X112500000Y-144500000D03*
X162500000Y-104500000D03*
X169500000Y-124500000D03*
M02*
